<svg width="119" height="108" viewBox="0 0 119 108" fill="none" xmlns="http://www.w3.org/2000/svg">
<path d="M100.765 70.373L99.377 78.925L89.487 83.758L91.098 74.958L100.765 70.373Z" fill="#DADAF7"/>
<path d="M100.637 35.916C100.637 35.916 101.637 31.579 99.154 30.96C97.6487 30.5848 96.1147 30.336 94.568 30.216L78.791 107.69L88.248 107.678L100.637 35.916Z" fill="#DADAF7"/>
<path d="M94.568 30.092C94.568 30.092 96.055 30.092 96.551 30.712C96.8655 31.2779 96.9955 31.9277 96.923 32.571L82.98 107.677L29.005 107.677L48.463 28.976C48.463 28.976 49.703 25.63 54.037 26.622L94.568 30.092Z" fill="#EAEAFF"/>
<path d="M90.974 37.404C90.974 37.404 91.222 35.793 89.859 35.669L51.686 32.199L43.878 69.257L79.82 75.082C79.82 75.082 83.662 76.074 84.158 73.223L90.974 37.404Z" fill="white"/>
<path d="M106.961 107.802H111.299L96.055 51.658L94.444 60.458L106.961 107.802Z" fill="#DADAF7"/>
<path d="M19.442 65.082C13.442 65.082 11.142 58.798 15.922 55.911C16.792 55.3953 17.8006 55.1624 18.8086 55.2446C19.8166 55.3268 20.7742 55.7201 21.549 56.37C21.549 56.37 21.537 50.976 27.882 51.076C34.227 51.176 33.482 57.93 33.482 57.93C33.482 57.93 36.768 58.03 37.165 60.967C37.611 64.214 33.546 65.082 31.439 65.082H19.442Z" fill="white"/>
<path d="M94.332 72.926L102.425 58.202C102.281 56.7018 102.281 55.1912 102.425 53.691C102.74 52.3441 102.551 50.9284 101.892 49.712C101.359 49.055 99.773 45.473 100.826 44.147C101.879 42.821 104.011 43.614 105.065 44.68C106.119 45.746 109.043 48.795 109.043 48.795C109.043 48.795 116.603 49.191 117.932 51.844C119.261 54.497 107.332 86.844 103.89 90.686C100.448 94.528 90.368 92.409 85.721 89.1C81.074 85.791 88.37 68.952 88.37 68.952L94.332 72.926Z" fill="#F9D2DD"/>
<path d="M85.731 89.099C81.096 85.79 88.387 68.947 88.387 68.947L92.287 71.547L90.093 91.305C88.5484 90.7645 87.0817 90.0228 85.731 89.099Z" fill="#F9ACC0"/>
<path d="M101.384 48.782L105.871 45.461C106.809 46.428 108.089 47.766 108.709 48.398L102.537 52.161C102.578 51.3002 102.359 50.447 101.909 49.712C101.703 49.4203 101.527 49.1088 101.384 48.782Z" fill="#F9ACC0"/>
<path d="M114.497 65.365C114.497 64.522 114.497 61.126 113.171 60.321C111.808 59.503 107.871 60.185 106.008 58.338C104.801 56.9523 104.018 55.2485 103.752 53.43L102.389 53.963L102.426 53.703C102.438 53.579 102.463 53.468 102.476 53.344V53.294C102.491 53.1913 102.499 53.0878 102.501 52.984V52.959C102.513 52.736 102.526 52.525 102.526 52.315L103.479 50.505L113.332 50.815C114.906 51.72 117.372 50.705 117.944 51.843C118.452 52.859 117.002 58.263 114.833 64.757C114.734 64.9665 114.622 65.1696 114.497 65.365Z" fill="#F9ACC0"/>
<path d="M99.412 56.379L117.98 37.813C118.129 37.6631 118.213 37.4603 118.213 37.249C118.213 37.0376 118.129 36.8349 117.98 36.685C117.83 36.536 117.627 36.4524 117.416 36.4524C117.205 36.4524 117.002 36.536 116.852 36.685L98.286 55.253C98.137 55.4029 98.0534 55.6056 98.0534 55.817C98.0534 56.0283 98.137 56.2311 98.286 56.381C98.4361 56.5291 98.6386 56.612 98.8494 56.6116C99.0603 56.6113 99.2625 56.5277 99.412 56.379Z" fill="white"/>
<path d="M99.376 57.409C98.976 58.599 97.517 58.995 97.257 59.801C97.1769 60.0177 97.1475 60.2499 97.1711 60.4798C97.1947 60.7096 97.2706 60.931 97.393 61.127C96.9057 60.8892 96.5038 60.5068 96.2421 60.0319C95.9804 59.557 95.8718 59.0129 95.931 58.474C96.067 56.479 97.257 54.756 98.979 55.686C99.2266 55.8887 99.4 56.1679 99.4718 56.4797C99.5437 56.7915 99.51 57.1184 99.376 57.409Z" fill="#E88524"/>
<path d="M114.497 57.941C111.052 59.403 109.056 59.403 108.263 59.007C107.47 58.611 107.73 57.284 107.73 57.284C107.73 57.284 106.404 57.148 106.007 56.354C105.891 56.1278 105.83 55.8772 105.83 55.623C105.83 55.3687 105.891 55.1182 106.007 54.892C105.638 54.8173 105.29 54.659 104.992 54.4291C104.693 54.1992 104.452 53.904 104.285 53.566C104.156 53.3215 104.089 53.0493 104.089 52.773C104.089 52.4966 104.156 52.2244 104.285 51.98C103.88 51.9493 103.495 51.7912 103.186 51.5284C102.876 51.2656 102.658 50.9115 102.562 50.517C101.906 48.398 108.796 42.957 113.431 44.556C116.108 45.461 117.819 50.266 118.079 51.174C118.388 52.5438 118.196 53.9788 117.539 55.2198C116.882 56.4608 115.803 57.426 114.497 57.941Z" fill="#F9D2DD"/>
<path d="M109.739 49.054L103.803 51.854L109.739 49.054Z" fill="#1F1F39"/>
<path d="M103.864 51.967L109.8 49.166C109.816 49.1587 109.83 49.1484 109.841 49.1357C109.853 49.123 109.862 49.1081 109.867 49.0919C109.873 49.0757 109.876 49.0586 109.875 49.0414C109.874 49.0243 109.869 49.0075 109.862 48.992C109.855 48.9762 109.845 48.9619 109.832 48.9501C109.82 48.9384 109.805 48.9293 109.788 48.9235C109.772 48.9177 109.755 48.9153 109.738 48.9164C109.72 48.9175 109.703 48.9221 109.688 48.93L103.752 51.73C103.736 51.7373 103.722 51.7476 103.711 51.7603C103.699 51.773 103.69 51.7879 103.685 51.8041C103.679 51.8203 103.676 51.8374 103.677 51.8546C103.678 51.8717 103.683 51.8885 103.69 51.904C103.698 51.9272 103.713 51.9471 103.733 51.9605C103.753 51.9739 103.778 51.9801 103.802 51.978C103.823 51.9803 103.845 51.9765 103.864 51.967Z" fill="#1F1F39"/>
<path d="M111.449 52.239L106.008 54.891L111.449 52.239Z" fill="#1F1F39"/>
<path d="M106.069 55.001L111.51 52.351C111.526 52.3437 111.539 52.3334 111.551 52.3207C111.563 52.308 111.572 52.2931 111.577 52.2769C111.583 52.2607 111.586 52.2436 111.585 52.2264C111.584 52.2093 111.579 52.1925 111.572 52.177C111.565 52.1614 111.554 52.1475 111.542 52.1359C111.529 52.1244 111.514 52.1155 111.498 52.1097C111.482 52.104 111.465 52.1014 111.447 52.1024C111.43 52.1033 111.413 52.1076 111.398 52.115L105.958 54.768C105.942 54.7753 105.928 54.7856 105.917 54.7983C105.905 54.811 105.896 54.8259 105.891 54.8421C105.885 54.8582 105.882 54.8754 105.883 54.8926C105.884 54.9097 105.889 54.9265 105.896 54.942C105.905 54.9642 105.921 54.9831 105.941 54.9963C105.961 55.0095 105.984 55.0164 106.008 55.016C106.029 55.0169 106.051 55.0117 106.069 55.001Z" fill="#1F1F39"/>
<path d="M112.775 54.892L107.731 57.272L112.775 54.892Z" fill="#1F1F39"/>
<path d="M107.791 57.396L112.835 55.004C112.851 54.9967 112.865 54.9864 112.876 54.9737C112.888 54.961 112.897 54.9461 112.902 54.9299C112.908 54.9137 112.911 54.8966 112.91 54.8794C112.909 54.8623 112.904 54.8455 112.897 54.83C112.89 54.8144 112.879 54.8005 112.867 54.7889C112.854 54.7774 112.839 54.7685 112.823 54.7627C112.807 54.7569 112.79 54.7544 112.772 54.7554C112.755 54.7563 112.738 54.7606 112.723 54.768L107.679 57.161C107.663 57.1683 107.649 57.1786 107.638 57.1913C107.626 57.204 107.617 57.2189 107.612 57.2351C107.606 57.2512 107.603 57.2684 107.604 57.2856C107.605 57.3027 107.61 57.3195 107.617 57.335C107.626 57.3572 107.642 57.3761 107.662 57.3893C107.682 57.4025 107.705 57.4094 107.729 57.409C107.75 57.4107 107.772 57.4062 107.791 57.396Z" fill="#1F1F39"/>
<path d="M91.693 78.092L94.345 72.912L91.693 78.092Z" fill="#1F1F39"/>
<path d="M91.816 78.143L94.468 72.975C94.4774 72.9599 94.4833 72.9429 94.4852 72.9253C94.4871 72.9076 94.485 72.8898 94.479 72.873C94.473 72.8563 94.4634 72.8411 94.4507 72.8287C94.4381 72.8162 94.4228 72.8067 94.406 72.801C94.3909 72.7916 94.374 72.7857 94.3563 72.7838C94.3386 72.7819 94.3208 72.7841 94.3041 72.79C94.2873 72.796 94.2722 72.8056 94.2597 72.8183C94.2472 72.8309 94.2378 72.8462 94.232 72.863L91.585 78.031C91.5756 78.0461 91.5698 78.0631 91.5679 78.0807C91.566 78.0984 91.5681 78.1162 91.5741 78.1329C91.58 78.1497 91.5897 78.1648 91.6023 78.1773C91.6149 78.1898 91.6302 78.1992 91.647 78.205C91.659 78.217 91.672 78.217 91.697 78.217C91.7217 78.2166 91.7458 78.2095 91.7668 78.1965C91.7878 78.1835 91.8048 78.165 91.816 78.143Z" fill="#1F1F39"/>
<path d="M27.654 67.758C19.177 76.248 17.838 82.668 15.979 88.865C14.12 95.062 13.513 107.654 13.513 107.654H39.019L48.847 57.545C48.847 57.545 36.131 59.268 27.654 67.758Z" fill="#F9ACC0"/>
<path d="M85.632 107.666L30.281 107.666L30.975 83.537L15.991 83.537C15.991 83.537 20.758 68.687 31.904 61.66C43.05 54.633 55.304 53.86 63.335 55.96C78.058 59.8 89.858 68.823 89.858 68.823L87.602 91.095L81.616 88.567L85.632 107.666Z" fill="#F99A3D"/>
<path d="M41.435 82.605L35.598 64.572C35.598 64.572 52.565 67.881 63.571 88.839C68.702 98.593 68.764 104.331 67.363 107.665H30.269L30.864 86.918L41.435 82.605Z" fill="#E88524"/>
<path d="M87.453 91.031L81.777 88.64L78.963 79.531L87.453 91.031Z" fill="#E88524"/>
<path d="M69.659 65.712C69.6539 65.9228 69.6037 66.13 69.5117 66.3198C69.4198 66.5095 69.2883 66.6774 69.126 66.812C68.804 67.112 68.407 67.295 68.073 67.568C67.8924 67.6973 67.7461 67.8687 67.6468 68.0674C67.5474 68.266 67.4981 68.4859 67.503 68.708C67.5189 68.9439 67.5988 69.1709 67.7341 69.3647C67.8695 69.5585 68.0551 69.7118 68.271 69.808C68.506 69.92 68.296 70.254 68.071 70.155C67.8723 70.0625 67.6938 69.9316 67.5457 69.77C67.3976 69.6084 67.2828 69.4192 67.208 69.2132C67.1331 69.0072 67.0996 68.7884 67.1094 68.5694C67.1192 68.3504 67.1721 68.1355 67.265 67.937C67.4869 67.5356 67.8176 67.2049 68.219 66.983C68.6049 66.7843 68.9333 66.4899 69.173 66.128C69.446 65.628 69.099 65.161 68.773 64.79C68.604 64.609 68.889 64.324 69.05 64.522C69.3738 64.8442 69.5871 65.2609 69.659 65.712Z" fill="white"/>
<path d="M70.796 78.267C70.437 78.54 70.015 78.726 69.681 79.035C69.5032 79.1924 69.3825 79.4042 69.3377 79.6373C69.2928 79.8705 69.3263 80.1119 69.433 80.324C69.7603 80.8651 70.2448 81.2935 70.822 81.552C70.868 81.5785 70.9016 81.6222 70.9154 81.6735C70.9292 81.7248 70.922 81.7795 70.8955 81.8255C70.869 81.8715 70.8253 81.9051 70.774 81.9189C70.7227 81.9327 70.668 81.9255 70.622 81.899C70.0946 81.6436 69.6299 81.2752 69.261 80.82C69.0954 80.6071 68.9858 80.3559 68.9425 80.0896C68.8992 79.8234 68.9234 79.5505 69.013 79.296C69.397 78.396 70.55 78.243 71.033 77.425C71.1774 77.1844 71.2638 76.9134 71.2853 76.6336C71.3069 76.3538 71.2629 76.0729 71.157 75.813C71.1342 75.7662 71.1292 75.7128 71.1428 75.6626C71.1564 75.6124 71.1877 75.5689 71.231 75.54C71.2538 75.5247 71.2795 75.5143 71.3066 75.5094C71.3336 75.5045 71.3613 75.5052 71.3881 75.5115C71.4148 75.5178 71.44 75.5295 71.462 75.5459C71.484 75.5624 71.5024 75.5831 71.516 75.607C71.7098 76.0672 71.7442 76.5789 71.6137 77.0609C71.4832 77.5429 71.1954 77.9674 70.796 78.267Z" fill="white"/>
<path d="M85.037 74.412C85.0952 74.0491 85.0786 73.6782 84.988 73.322C84.74 72.69 83.935 72.653 83.364 72.801C82.744 72.975 82.087 73.433 81.431 73.16C81.1653 73.0206 80.9353 72.8218 80.7591 72.579C80.5828 72.3361 80.4651 72.0558 80.415 71.76C80.3387 71.4277 80.3289 71.0837 80.3862 70.7476C80.4435 70.4115 80.5668 70.0901 80.749 69.802C80.885 69.591 81.232 69.79 81.096 70.002C80.9382 70.2473 80.8305 70.5214 80.779 70.8085C80.7275 71.0957 80.7333 71.3901 80.796 71.675C80.92 72.22 81.304 72.902 81.949 72.84C82.2851 72.7742 82.611 72.6639 82.918 72.512C83.2362 72.3843 83.5752 72.3165 83.918 72.312C84.2206 72.3005 84.5196 72.3801 84.7764 72.5406C85.0332 72.701 85.2358 72.935 85.358 73.212C85.4638 73.5902 85.4897 73.9863 85.434 74.375C85.4 74.8016 85.3294 75.2245 85.223 75.639C85.2049 75.6842 85.1709 75.7212 85.1275 75.7431C85.084 75.7651 85.0341 75.7704 84.987 75.7581C84.9399 75.7459 84.8988 75.7168 84.8716 75.6765C84.8444 75.6362 84.8328 75.5873 84.839 75.539C84.936 75.1694 85.0022 74.7925 85.037 74.412Z" fill="white"/>
<path d="M77.887 95.172C77.7508 95.1437 77.6096 95.1505 77.4767 95.1916C77.3438 95.2327 77.2235 95.3068 77.127 95.407C76.879 95.607 76.656 95.828 76.408 96.027C76.1509 96.2274 75.8772 96.4057 75.59 96.56C75.0242 96.873 74.3801 97.016 73.735 96.972C73.1627 96.908 72.63 96.6484 72.227 96.237C72.0013 96.0162 71.8318 95.7445 71.7326 95.4448C71.6335 95.145 71.6075 94.8258 71.657 94.514C71.707 94.266 72.091 94.365 72.041 94.626C72.0068 94.8963 72.0419 95.1708 72.143 95.4237C72.2441 95.6767 72.4079 95.8998 72.619 96.072C72.8401 96.2685 73.0999 96.4164 73.3817 96.5062C73.6635 96.5959 73.961 96.6255 74.255 96.593C74.8988 96.5089 75.5096 96.2583 76.027 95.866C76.527 95.507 76.944 94.912 77.564 94.788C77.7151 94.7578 77.8713 94.7658 78.0185 94.8112C78.1657 94.8566 78.2992 94.938 78.407 95.048C78.5163 95.1479 78.5891 95.2816 78.6137 95.4276C78.6384 95.5736 78.6135 95.7237 78.543 95.854C78.5139 95.901 78.4677 95.9349 78.4141 95.9486C78.3605 95.9623 78.3037 95.9547 78.2555 95.9274C78.2074 95.9001 78.1718 95.8552 78.156 95.8022C78.1402 95.7492 78.1456 95.6921 78.171 95.643C78.283 95.444 78.06 95.246 77.887 95.172Z" fill="white"/>
<path d="M63.758 81.861C63.8072 82.1425 63.7878 82.4317 63.7014 82.7042C63.6151 82.9766 63.4643 83.2242 63.262 83.426C62.862 83.835 62.345 84.083 61.911 84.455C61.527 84.79 61.056 85.355 61.304 85.893C61.527 86.401 62.234 86.488 62.717 86.426C62.7678 86.4142 62.8212 86.4215 62.867 86.4466C62.9127 86.4717 62.9476 86.5128 62.965 86.562C62.99 86.649 62.928 86.797 62.829 86.81C62.565 86.8624 62.2933 86.8619 62.0295 86.8087C61.7657 86.7555 61.515 86.6506 61.292 86.5C61.075 86.3215 60.9265 86.0733 60.8718 85.7976C60.8171 85.522 60.8596 85.2359 60.992 84.988C61.293 84.4475 61.7409 84.0034 62.284 83.707C62.543 83.5764 62.773 83.395 62.9603 83.1735C63.1475 82.952 63.2882 82.6951 63.374 82.418C63.3983 82.0732 63.3452 81.7272 63.2186 81.4056C63.0919 81.0839 62.8949 80.7947 62.642 80.559C62.468 80.385 62.742 80.1 62.915 80.286C63.3441 80.7172 63.6372 81.2648 63.758 81.861Z" fill="white"/>
<path d="M66.819 103.018C66.67 103.625 66.162 104.109 66.063 104.741C66.0238 105.01 66.0624 105.285 66.1744 105.533C66.2864 105.781 66.467 105.992 66.695 106.141C66.9682 106.307 67.2884 106.379 67.6065 106.346C67.9245 106.312 68.2226 106.175 68.455 105.955C68.641 105.781 68.926 106.055 68.74 106.24C68.5213 106.447 68.2567 106.598 67.9679 106.683C67.6792 106.767 67.3745 106.781 67.079 106.725C66.7877 106.662 66.517 106.526 66.2917 106.331C66.0665 106.136 65.8939 105.887 65.79 105.608C65.6856 105.319 65.6501 105.009 65.6866 104.703C65.7231 104.398 65.8304 104.105 66 103.848C66.179 103.573 66.3247 103.277 66.434 102.968C66.5063 102.707 66.4976 102.431 66.409 102.175C66.3146 101.887 66.1371 101.634 65.899 101.447C65.6609 101.261 65.3728 101.148 65.071 101.125C64.811 101.113 64.811 100.716 65.059 100.725C65.3323 100.742 65.5986 100.818 65.8403 100.947C66.0819 101.076 66.2931 101.255 66.4599 101.472C66.6266 101.689 66.7449 101.939 66.8068 102.206C66.8688 102.473 66.8729 102.75 66.819 103.018Z" fill="white"/>
<path d="M45.104 61.858C45.0189 62.4252 44.7849 62.9597 44.426 63.407C44.2452 63.6332 44.0508 63.8482 43.844 64.051C43.6488 64.2269 43.4998 64.4481 43.41 64.695C43.336 65.005 43.596 65.166 43.856 65.265C44.1962 65.3977 44.5617 65.4531 44.926 65.427C45.186 65.415 45.186 65.811 44.926 65.827C44.5998 65.8395 44.2737 65.8018 43.959 65.715C43.6821 65.6533 43.4258 65.521 43.215 65.331C42.794 64.885 43.091 64.315 43.426 63.931C43.612 63.72 43.826 63.531 43.996 63.324C44.1915 63.0993 44.3559 62.8494 44.485 62.581C44.7376 62.0997 44.8038 61.5421 44.671 61.015C44.6085 60.7516 44.4797 60.5086 44.2968 60.3091C44.1139 60.1096 43.883 59.9601 43.626 59.875C43.5978 59.8714 43.5708 59.8618 43.5466 59.8469C43.5225 59.832 43.5017 59.8121 43.4858 59.7886C43.47 59.765 43.4593 59.7384 43.4545 59.7104C43.4497 59.6824 43.4509 59.6537 43.4581 59.6262C43.4652 59.5988 43.4781 59.5731 43.496 59.551C43.5138 59.5289 43.5361 59.5109 43.5615 59.4981C43.5868 59.4853 43.6146 59.4781 43.643 59.4768C43.6714 59.4756 43.6997 59.4804 43.726 59.491C44.1958 59.6627 44.5908 59.9933 44.8425 60.4256C45.0942 60.8579 45.1867 61.3647 45.104 61.858Z" fill="white"/>
<path d="M57.499 69.542C56.805 69.815 56.599 70.542 56.399 71.203C56.3329 71.5752 56.1839 71.9277 55.963 72.2345C55.7421 72.5412 55.455 72.7943 55.123 72.975C54.4133 73.29 53.6089 73.3165 52.88 73.049C52.4733 72.8756 52.1069 72.6199 51.804 72.2979C51.5011 71.9758 51.2682 71.5945 51.12 71.178C51.033 70.943 51.42 70.831 51.504 71.066C51.6356 71.423 51.8381 71.7497 52.0991 72.0265C52.3601 72.3034 52.6744 72.5246 53.023 72.677C53.3691 72.799 53.7382 72.8414 54.103 72.801C54.4782 72.7859 54.8441 72.6795 55.169 72.491C55.813 72.082 55.937 71.264 56.16 70.591C56.2466 70.2573 56.4125 69.9494 56.6435 69.6935C56.8745 69.4376 57.1639 69.2412 57.487 69.121C57.8476 69.0009 58.2349 68.986 58.6036 69.0781C58.9724 69.1702 59.3072 69.3655 59.569 69.641C59.743 69.827 59.457 70.112 59.284 69.926C59.0596 69.6899 58.7692 69.5269 58.4508 69.4584C58.1323 69.3899 57.8006 69.419 57.499 69.542Z" fill="white"/>
<path d="M23.552 69.257C23.6954 69.45 23.7952 69.6718 23.8444 69.9072C23.8936 70.1425 23.8911 70.3857 23.837 70.62C23.7217 71.1164 23.6547 71.6227 23.637 72.132C23.6511 72.3527 23.7341 72.5634 23.8742 72.7345C24.0143 72.9056 24.2044 73.0286 24.418 73.086C24.6604 73.1421 24.9141 73.1221 25.1447 73.0289C25.3753 72.9357 25.5717 72.7737 25.707 72.565C25.857 72.355 26.187 72.554 26.055 72.764C25.9328 72.9594 25.7691 73.1255 25.5755 73.2504C25.3818 73.3753 25.163 73.456 24.9346 73.4868C24.7062 73.5175 24.4739 73.4976 24.2541 73.4283C24.0343 73.359 23.8325 73.2421 23.663 73.086C23.5005 72.904 23.3798 72.6887 23.3091 72.4552C23.2385 72.2217 23.2197 71.9755 23.254 71.734C23.3707 71.2 23.4453 70.6577 23.477 70.112C23.452 69.678 23.093 69.096 22.577 69.257C22.329 69.344 22.218 68.957 22.465 68.873C22.6638 68.8221 22.8733 68.8315 23.0668 68.8998C23.2604 68.9682 23.4292 69.0925 23.552 69.257Z" fill="white"/>
<path d="M59.383 59.094C57.8763 59.7673 56.2588 60.1581 54.611 60.247C52.1926 60.5676 49.7442 59.9366 47.782 58.487C47.0524 57.8597 46.4615 57.0873 46.047 56.219C45.935 55.996 46.282 55.785 46.394 56.019C46.7455 56.7432 47.2191 57.4015 47.794 57.965C48.4908 58.6134 49.3193 59.1039 50.223 59.403C51.4487 59.7861 52.7324 59.9496 54.015 59.886C55.6172 59.8615 57.2028 59.5569 58.7 58.986C60.3126 58.3284 61.7388 57.2845 62.853 55.946C62.989 55.735 63.274 56.021 63.113 56.219C62.0984 57.4422 60.8242 58.4243 59.383 59.094Z" fill="white"/>
<path d="M87.553 73.21C87.367 74.499 87.169 75.775 86.995 77.064C86.846 78.155 86.71 79.245 86.586 80.348C86.45 81.6 86.313 82.839 86.202 84.091L85.719 89.333C85.694 89.606 85.669 89.866 85.645 90.139C85.62 90.387 85.224 90.399 85.245 90.139C85.406 88.305 85.567 86.471 85.745 84.649C85.869 83.349 85.993 82.049 86.145 80.749C86.269 79.649 86.405 78.543 86.554 77.449C86.728 76.185 86.901 74.933 87.087 73.669L87.863 68.463C87.9 68.191 87.937 67.93 87.987 67.658C87.999 67.546 88.135 67.496 88.234 67.521C88.2588 67.5269 88.2822 67.5378 88.3027 67.553C88.3232 67.5682 88.3404 67.5875 88.3532 67.6095C88.366 67.6316 88.3742 67.6561 88.3773 67.6814C88.3803 67.7068 88.3782 67.7325 88.371 67.757C88.098 69.579 87.825 71.4 87.553 73.21Z" fill="white"/>
<path d="M80.576 85.071C80.353 84.959 80.551 84.612 80.776 84.724C82.46 85.591 84.133 86.459 85.816 87.326C86.039 87.45 85.841 87.785 85.616 87.673C83.934 86.802 82.261 85.938 80.576 85.071Z" fill="white"/>
<path d="M23.18 80.96H17.367C17.3139 80.96 17.2631 80.9389 17.2256 80.9014C17.1881 80.8639 17.167 80.813 17.167 80.76C17.167 80.707 17.1881 80.6561 17.2256 80.6186C17.2631 80.5811 17.3139 80.56 17.367 80.56H27.431C27.484 80.56 27.5349 80.5811 27.5724 80.6186C27.6099 80.6561 27.631 80.707 27.631 80.76C27.631 80.813 27.6099 80.8639 27.5724 80.9014C27.5349 80.9389 27.484 80.96 27.431 80.96H23.18Z" fill="white"/>
<path d="M16.3 99.82L21.741 97.304C21.7568 97.297 21.7711 97.2869 21.7829 97.2743C21.7946 97.2616 21.8037 97.2467 21.8095 97.2304C21.8153 97.2141 21.8177 97.1968 21.8166 97.1795C21.8155 97.1623 21.8109 97.1454 21.803 97.13C21.796 97.1142 21.7859 97.0999 21.7733 97.0881C21.7606 97.0764 21.7457 97.0673 21.7294 97.0615C21.7131 97.0557 21.6958 97.0533 21.6785 97.0544C21.6613 97.0555 21.6444 97.0601 21.629 97.068L16.189 99.585C16.1738 99.592 16.1602 99.6019 16.1488 99.6142C16.1375 99.6265 16.1287 99.6409 16.1229 99.6566C16.1171 99.6723 16.1145 99.689 16.1152 99.7057C16.1159 99.7224 16.1199 99.7388 16.127 99.754C16.1386 99.7767 16.1564 99.7957 16.1784 99.8088C16.2003 99.8219 16.2255 99.8285 16.251 99.828C16.276 99.833 16.288 99.833 16.3 99.82Z" fill="#1F1F39"/>
<path d="M47.609 107.615C46.5899 107.614 45.5716 107.56 44.558 107.454C41.0936 106.972 37.7303 105.931 34.599 104.373C30.6959 102.598 27.2893 99.8898 24.679 96.488C22.3221 93.3811 20.9504 89.6391 20.741 85.745C20.6481 83.7671 21.0503 81.7972 21.911 80.014C23.111 77.769 25.191 77.114 27.029 76.533C28.1216 76.3197 29.1341 75.8089 29.955 75.057C30.648 74.225 30.267 73.044 29.825 71.677C29.275 69.977 28.651 68.043 29.856 66.159C30.684 64.851 32.531 64.188 35.35 64.188C37.007 64.188 39.486 65.115 42.52 66.868C45.0854 68.3732 47.5328 70.0711 49.841 71.947C53.6 75.007 61.941 85.147 62.259 95.347C62.3781 96.8483 62.1851 98.3579 61.692 99.7809C61.1989 101.204 60.4165 102.509 59.394 103.615C57.9513 105.045 56.1768 106.096 54.229 106.673C52.0842 107.327 49.8511 107.645 47.609 107.615ZM35.597 75.38C35.0135 75.38 34.4432 75.553 33.9581 75.8772C33.4729 76.2013 33.0948 76.662 32.8716 77.2011C32.6483 77.7401 32.5899 78.3333 32.7037 78.9055C32.8175 79.4777 33.0985 80.0034 33.511 80.416C33.9236 80.8285 34.4492 81.1095 35.0215 81.2233C35.5937 81.3371 36.1869 81.2787 36.7259 81.0554C37.265 80.8322 37.7257 80.454 38.0498 79.9689C38.374 79.4838 38.547 78.9134 38.547 78.33C38.5462 77.5478 38.2352 76.798 37.6821 76.2449C37.129 75.6918 36.3791 75.3808 35.597 75.38Z" fill="white"/>
<path d="M51.712 82.208C51.191 80.547 49.432 79.928 48.502 81.278C48.1651 81.7845 48.0375 82.4018 48.146 83.0003C48.2545 83.5988 48.5907 84.1321 49.084 84.488C49.553 84.7959 50.1107 84.9397 50.67 84.897C51.0975 84.6089 51.4266 84.1967 51.6129 83.716C51.7992 83.2352 51.8338 82.709 51.712 82.208Z" fill="#F99A3D"/>
<path d="M53.151 90.797C52.011 90.697 51.701 90.797 51.391 91.627C51.081 92.457 52.106 93.288 53.358 93.387C53.9116 93.43 54.4627 93.2776 54.9155 92.9562C55.3683 92.6348 55.694 92.1648 55.836 91.628C56.151 90.586 55.836 89.769 54.808 89.967C54.6353 90.2448 54.3891 90.4694 54.0966 90.6159C53.8042 90.7624 53.4769 90.8251 53.151 90.797Z" fill="#3C82F5"/>
<path d="M46.108 97.416C43.939 97.825 40.519 96.895 40.308 95.445C40.097 93.995 40.928 94.094 42.068 93.896C43.2782 93.6714 44.3948 93.0934 45.277 92.235C45.534 91.9847 45.852 91.8059 46.1994 91.7165C46.5468 91.6271 46.9116 91.6302 47.2575 91.7255C47.6034 91.8207 47.9183 92.0048 48.171 92.2594C48.4237 92.5141 48.6054 92.8304 48.698 93.177C48.88 93.6246 48.9543 94.1087 48.9152 94.5903C48.876 95.0719 48.7243 95.5376 48.4724 95.9499C48.2205 96.3622 47.8753 96.7097 47.4647 96.9643C47.054 97.2189 46.5893 97.3736 46.108 97.416Z" fill="#BEE3C5"/>
<path d="M33.59 90.277C30.38 89.756 30.479 88.306 31.111 87.897C31.743 87.488 33.391 87.897 33.8 87.376C34.209 86.855 36.788 85.617 37.42 87.799C38.052 89.981 36.8 90.798 33.59 90.277Z" fill="#DA5742"/>
<path d="M46.802 21.863C42.861 23.536 41.832 26.063 40.382 30.65C38.932 35.237 39.229 37.739 37.395 41.296C36.4818 43.2809 34.8659 44.8572 32.859 45.721C32.859 45.721 36.391 50.641 53.792 49.873C70.833 49.129 76.522 38.979 76.522 38.979C76.522 38.979 70.635 37.814 68.689 33.786C66.743 29.758 64.401 22.557 59.468 21.541C54.535 20.525 53.147 23.499 53.147 23.499C52.4269 22.5532 51.4093 21.8774 50.2582 21.5806C49.1071 21.2838 47.8896 21.3833 46.802 21.863Z" fill="#1F1F39"/>
<path d="M64.426 43.911C63.9957 45.1242 63.2808 46.2166 62.3413 47.0965C61.4017 47.9764 60.2648 48.6182 59.026 48.968C59.026 48.968 59.226 51.744 59.646 54.099L60.067 56.454C59.4392 57.3288 58.602 58.0322 57.6321 58.4998C56.6621 58.9675 55.5904 59.1845 54.515 59.131C50.636 59.069 48.851 57.545 48.851 57.545C48.851 57.545 48.863 54.335 48.566 50.766C48.269 47.197 47.798 44.445 47.798 44.445C47.798 44.445 42.023 44.21 41.49 39.735C41.019 35.881 44.898 35.856 45.877 36.265C46.856 36.674 46.877 36.81 46.877 36.81C47.1344 37.7316 47.4658 38.6308 47.868 39.499C48.0659 39.9878 48.395 40.4125 48.819 40.726C48.3516 39.2862 48.0825 37.7894 48.019 36.277C48.0165 35.2645 48.1668 34.2575 48.465 33.29L49.541 35.558L56.358 34.467L56.506 31.245L57.969 34.545L64.525 33.615C64.525 33.615 65.925 39.722 64.426 43.911Z" fill="#F9D2DD"/>
<path d="M47.794 44.444C47.3943 44.4154 46.9969 44.3616 46.604 44.283C46.5116 43.6088 46.378 42.9409 46.204 42.283C45.8021 41.0135 45.3146 39.7726 44.745 38.569C45.7093 39.1351 46.4917 39.965 47 40.961C47.4124 42.0702 47.6793 43.2282 47.794 44.406C47.8552 44.6967 47.9006 44.9904 47.93 45.286C47.856 44.753 47.794 44.444 47.794 44.444Z" fill="#F9ACC0"/>
<path d="M47.57 42.201C47.5868 42.1951 47.6022 42.1858 47.6152 42.1736C47.6281 42.1614 47.6384 42.1467 47.6454 42.1303C47.6524 42.1139 47.6558 42.0963 47.6556 42.0785C47.6554 42.0607 47.6514 42.0432 47.644 42.027C47.3161 41.107 46.8435 40.2451 46.244 39.474C45.8697 39.0188 45.4004 38.6509 44.869 38.396C44.836 38.3839 44.7997 38.3848 44.7674 38.3985C44.735 38.4123 44.7091 38.4378 44.695 38.47C44.6829 38.503 44.6838 38.5393 44.6975 38.5717C44.7113 38.604 44.7368 38.6299 44.769 38.644C45.2594 38.8851 45.6943 39.2257 46.046 39.644C46.6208 40.3908 47.0725 41.2246 47.384 42.114C47.3934 42.1428 47.4116 42.1679 47.436 42.1858C47.4604 42.2038 47.4897 42.2136 47.52 42.214C47.5376 42.2144 47.5549 42.2099 47.57 42.201Z" fill="#1F1F39"/>
<path d="M62.491 35.868C62.2788 35.7207 62.0189 35.6585 61.763 35.694C61.508 35.713 61.2634 35.803 61.057 35.954C60.956 36.0302 60.875 36.1298 60.821 36.2443C60.767 36.3587 60.7416 36.4846 60.747 36.611C60.8265 36.4073 60.9733 36.2368 61.163 36.128C61.3528 36.0329 61.5586 35.9739 61.77 35.954C61.9774 35.9318 62.1871 35.9617 62.38 36.041C62.5798 36.1411 62.7473 36.2957 62.863 36.487C62.8476 36.3636 62.8066 36.2447 62.7425 36.1381C62.6785 36.0315 62.5928 35.9395 62.491 35.868Z" fill="#1F1F39"/>
<path d="M54.312 36.525C54.0899 36.4027 53.8316 36.363 53.583 36.413C53.4563 36.4299 53.3342 36.4721 53.224 36.537C53.1128 36.599 53.0158 36.6834 52.939 36.785C52.782 36.9729 52.6944 37.2091 52.691 37.454C52.7892 37.256 52.9251 37.079 53.091 36.933C53.1626 36.8639 53.2468 36.8092 53.339 36.772C53.389 36.76 53.426 36.735 53.475 36.722L53.624 36.685C53.8245 36.6491 54.0307 36.6621 54.225 36.723C54.4386 36.7804 54.6319 36.8965 54.783 37.058C54.7015 36.8257 54.5325 36.6345 54.312 36.525Z" fill="#1F1F39"/>
<path d="M58.601 38.606C58.7327 38.8921 58.8245 39.1949 58.874 39.506C58.8845 39.5815 58.8885 39.6578 58.886 39.734C58.8798 39.8055 58.8664 39.8762 58.846 39.945C58.8138 40.0761 58.7344 40.1907 58.623 40.267C58.4953 40.345 58.3525 40.3951 58.204 40.414C58.0445 40.4408 57.8824 40.4492 57.721 40.439C57.8795 40.5048 58.0494 40.5387 58.221 40.539C58.4011 40.5438 58.5798 40.5054 58.742 40.427C58.9123 40.3348 59.0395 40.1792 59.096 39.994C59.1246 39.9059 59.1414 39.8145 59.146 39.722C59.1482 39.6308 59.1442 39.5396 59.134 39.449C59.0765 39.1128 58.9589 38.7896 58.787 38.495C58.6263 38.2112 58.4304 37.9488 58.204 37.714C58.34 38.014 58.477 38.309 58.601 38.606Z" fill="#1F1F39"/>
<path d="M62.472 38.8815C62.5261 38.6304 62.4797 38.3681 62.3427 38.1508C62.2057 37.9335 61.989 37.7786 61.7391 37.7192C61.4821 37.7171 61.2345 37.8158 61.0495 37.9942C60.8645 38.1726 60.7568 38.4164 60.7495 38.6733C60.6954 38.9246 60.7419 39.1871 60.8791 39.4044C61.0163 39.6217 61.2332 39.7766 61.4834 39.8358C61.7402 39.8376 61.9876 39.7387 62.1724 39.5604C62.3572 39.382 62.4647 39.1383 62.472 38.8815Z" fill="#1F1F39"/>
<path d="M54.654 39.4185C54.7081 39.1674 54.6617 38.9051 54.5247 38.6878C54.3877 38.4705 54.171 38.3156 53.9211 38.2562C53.6641 38.2541 53.4165 38.3528 53.2315 38.5312C53.0465 38.7096 52.9388 38.9534 52.9315 39.2104C52.8774 39.4616 52.9239 39.7241 53.0611 39.9414C53.1983 40.1587 53.4152 40.3136 53.6653 40.3728C53.9222 40.3746 54.1695 40.2757 54.3543 40.0974C54.5392 39.919 54.6467 39.6753 54.654 39.4185Z" fill="#1F1F39"/>
<path d="M59.047 49.104C59.047 49.104 59.217 51.583 59.617 53.875C58.4376 53.9819 57.2527 53.7406 56.209 53.181C52.503 51.604 52.144 49.404 52.144 49.404C54.4032 50.1593 56.8619 50.0525 59.047 49.104Z" fill="#F9ACC0"/>
<path d="M57.212 42.56C56.9897 42.5285 56.7729 42.4659 56.568 42.374C56.3595 42.2784 56.1603 42.1635 55.973 42.031C55.773 41.882 55.564 41.721 55.329 41.531C55.3286 41.8361 55.4206 42.1342 55.593 42.386C55.7693 42.6504 56.0193 42.8572 56.312 42.981C56.4635 43.0411 56.6216 43.0827 56.783 43.105C56.9449 43.1235 57.1088 43.111 57.266 43.068C57.4163 43.0352 57.5582 42.9721 57.6833 42.8825C57.8083 42.7929 57.9137 42.6787 57.993 42.547C57.7341 42.5819 57.472 42.5863 57.212 42.56Z" fill="#DA5742"/>
<path d="M56.072 49.86C57.1476 49.7668 58.2084 49.5462 59.232 49.203C59.2488 49.1971 59.2642 49.1878 59.2771 49.1756C59.2901 49.1634 59.3004 49.1487 59.3074 49.1323C59.3143 49.116 59.3178 49.0983 59.3176 49.0805C59.3173 49.0627 59.3134 49.0452 59.306 49.029C59.3001 49.0122 59.2908 48.9968 59.2786 48.9839C59.2664 48.9709 59.2517 48.9606 59.2353 48.9536C59.219 48.9467 59.2013 48.9432 59.1835 48.9434C59.1657 48.9437 59.1482 48.9476 59.132 48.955C58.1237 49.2736 57.0846 49.4855 56.032 49.587C54.7835 49.7323 53.5185 49.6186 52.316 49.253C52.283 49.2409 52.2467 49.2418 52.2143 49.2555C52.182 49.2693 52.1561 49.2948 52.142 49.327C52.1299 49.36 52.1308 49.3963 52.1445 49.4287C52.1583 49.461 52.1838 49.4869 52.216 49.501C53.1091 49.7889 54.0427 49.9311 54.981 49.922C55.328 49.922 55.688 49.897 56.072 49.86Z" fill="#1F1F39"/>
<path d="M53.9667 42.9792C54.0716 42.1095 53.0061 41.2657 51.5854 41.0943C50.1647 40.9229 48.929 41.4889 48.824 42.3586C48.7191 43.2283 49.7855 44.0731 51.2052 44.2444C52.6249 44.4158 53.8616 43.8499 53.9667 42.9792Z" fill="#F9ACC0"/>
<path d="M62.939 39.821C63.6833 39.7044 64.4451 39.8489 65.095 40.23C65.0606 40.9835 64.9693 41.7333 64.822 42.473C64.3585 42.7449 63.8437 42.9179 63.31 42.981C61.895 43.142 60.658 42.572 60.559 41.705C60.46 40.838 61.513 39.982 62.939 39.821Z" fill="#F9ACC0"/>
<path d="M31.891 94.329C33.751 94.463 33.874 96.647 33.874 96.647C34.6762 96.4198 35.5356 96.5179 36.266 96.92C37.332 97.602 37.059 99.647 37.059 99.647C37.496 99.7545 37.8971 99.9745 38.2226 100.285C38.548 100.596 38.7864 100.986 38.914 101.418C39.571 103.054 36.807 106.251 31.49 107.454C26.173 108.657 22.472 106.475 21.014 103.463C19.556 100.451 20.084 98.406 19.031 95.531C18.4373 94.1496 17.5827 92.8957 16.514 91.838C16.3324 91.5439 16.235 91.2055 16.2326 90.8598C16.2302 90.5141 16.3227 90.1744 16.5002 89.8777C16.6777 89.5811 16.9333 89.3389 17.239 89.1776C17.5448 89.0162 17.889 88.942 18.234 88.963C20.49 88.963 22.869 90.735 24.334 92.52C25.2093 93.5959 25.8007 94.8743 26.054 96.238C26.054 96.238 30.032 94.193 31.891 94.329Z" fill="#F9D2DD"/>
<path d="M31.557 102.509L37.122 99.906C37.1376 99.8987 37.1515 99.8884 37.1631 99.8757C37.1746 99.863 37.1835 99.8481 37.1893 99.8319C37.1951 99.8157 37.1976 99.7986 37.1967 99.7814C37.1958 99.7643 37.1915 99.7475 37.184 99.732C37.1767 99.7164 37.1664 99.7025 37.1537 99.6909C37.141 99.6794 37.1261 99.6705 37.1099 99.6647C37.0938 99.6589 37.0766 99.6564 37.0595 99.6574C37.0423 99.6583 37.0255 99.6626 37.01 99.67L31.445 102.27C31.4295 102.277 31.4155 102.288 31.404 102.3C31.3924 102.313 31.3835 102.328 31.3777 102.344C31.372 102.36 31.3695 102.377 31.3704 102.395C31.3713 102.412 31.3756 102.429 31.383 102.444C31.3926 102.467 31.4088 102.486 31.4294 102.5C31.45 102.514 31.4743 102.521 31.499 102.521C31.5191 102.522 31.5391 102.518 31.557 102.509Z" fill="#1F1F39"/>
<path d="M28.236 99.225L33.8 96.622C33.8155 96.6147 33.8295 96.6044 33.841 96.5917C33.8526 96.579 33.8615 96.5641 33.8673 96.5479C33.873 96.5317 33.8755 96.5146 33.8746 96.4974C33.8737 96.4803 33.8694 96.4635 33.862 96.448C33.8547 96.4324 33.8444 96.4185 33.8317 96.4069C33.819 96.3954 33.8041 96.3865 33.7879 96.3807C33.7717 96.375 33.7546 96.3724 33.7374 96.3734C33.7203 96.3743 33.7035 96.3786 33.688 96.386L28.123 98.986C28.1074 98.9933 28.0935 99.0036 28.0819 99.0163C28.0704 99.029 28.0615 99.0439 28.0557 99.0601C28.05 99.0762 28.0475 99.0934 28.0484 99.1106C28.0493 99.1277 28.0536 99.1445 28.061 99.16C28.0681 99.1844 28.0837 99.2056 28.1049 99.2197C28.1262 99.2338 28.1517 99.2399 28.177 99.237C28.1974 99.2385 28.2178 99.2343 28.236 99.225Z" fill="#1F1F39"/>
<path d="M24.989 91.182C25.5554 92.7395 25.9988 94.3391 26.315 95.966L22.597 98.432L20.738 89.645C20.763 89.645 20.775 89.645 20.788 89.657L24.989 91.182Z" fill="#F9ACC0"/>
<path d="M78.692 78.626L81.617 88.566L78.692 78.626Z" fill="#1F1F39"/>
<path d="M81.654 88.708C81.6705 88.7036 81.686 88.6958 81.6994 88.6852C81.7129 88.6745 81.724 88.6613 81.7321 88.6462C81.7403 88.6312 81.7453 88.6146 81.7468 88.5975C81.7483 88.5805 81.7463 88.5633 81.741 88.547L78.828 78.602C78.8235 78.5855 78.8158 78.57 78.8052 78.5566C78.7945 78.5431 78.7813 78.532 78.7662 78.5239C78.7511 78.5157 78.7346 78.5107 78.7175 78.5092C78.7005 78.5077 78.6833 78.5097 78.667 78.515C78.6505 78.5194 78.635 78.5272 78.6216 78.5378C78.6081 78.5485 78.597 78.5617 78.5888 78.5768C78.5807 78.5918 78.5757 78.6084 78.5742 78.6255C78.5727 78.6425 78.5746 78.6597 78.58 78.676L81.492 88.616C81.499 88.6432 81.5152 88.6671 81.5378 88.6839C81.5603 88.7006 81.5879 88.7091 81.616 88.708H81.654Z" fill="#1F1F39"/>
<path d="M83.243 60.618C83.2357 60.5928 83.2333 60.5664 83.2362 60.5403C83.239 60.5141 83.247 60.4889 83.2596 60.4658C83.2723 60.4428 83.2893 60.4225 83.3098 60.406C83.3303 60.3896 83.3538 60.3773 83.379 60.37C83.4294 60.3593 83.4819 60.3673 83.5268 60.3925C83.5717 60.4177 83.6059 60.4584 83.623 60.507C83.723 60.792 83.834 61.077 83.933 61.35C83.9404 61.3752 83.9427 61.4016 83.9398 61.4277C83.937 61.4538 83.929 61.4791 83.9164 61.5022C83.9037 61.5252 83.8867 61.5455 83.8662 61.5619C83.8457 61.5784 83.8222 61.5906 83.797 61.598C83.772 61.6066 83.7455 61.6099 83.7192 61.6077C83.6929 61.6056 83.6673 61.5981 83.644 61.5856C83.6207 61.5731 83.6003 61.5559 83.5839 61.5352C83.5676 61.5144 83.5557 61.4905 83.549 61.465C83.45 61.176 83.343 60.891 83.243 60.618Z" fill="white"/>
<path d="M47.609 107.987C46.5899 107.986 45.5716 107.932 44.558 107.826C41.0936 107.344 37.7303 106.303 34.599 104.745C30.6959 102.97 27.2893 100.262 24.679 96.86C22.3221 93.7531 20.9504 90.0111 20.741 86.117C20.6481 84.1391 21.0503 82.1692 21.911 80.386C23.111 78.141 25.191 77.486 27.029 76.905C28.1216 76.6917 29.1341 76.181 29.955 75.429C30.648 74.597 30.267 73.416 29.825 72.049C29.275 70.349 28.651 68.415 29.856 66.531C30.684 65.223 32.531 64.56 35.35 64.56C37.007 64.56 39.486 65.487 42.52 67.24C45.0854 68.7452 47.5328 70.4431 49.841 72.319C53.6 75.379 61.941 85.519 62.259 95.719C62.3781 97.2203 62.1851 98.7299 61.692 100.153C61.1989 101.576 60.4165 102.881 59.394 103.987C57.9513 105.417 56.1768 106.468 54.229 107.045C52.0842 107.699 49.8511 108.017 47.609 107.987ZM35.597 75.752C35.0135 75.752 34.4432 75.925 33.9581 76.2492C33.4729 76.5733 33.0948 77.034 32.8716 77.5731C32.6483 78.1121 32.5899 78.7053 32.7037 79.2775C32.8175 79.8498 33.0985 80.3754 33.511 80.788C33.9236 81.2005 34.4492 81.4815 35.0215 81.5953C35.5937 81.7091 36.1869 81.6507 36.7259 81.4274C37.265 81.2042 37.7257 80.8261 38.0498 80.3409C38.374 79.8558 38.547 79.2855 38.547 78.702C38.5462 77.9199 38.2352 77.17 37.6821 76.6169C37.129 76.0638 36.3791 75.7528 35.597 75.752Z" fill="white"/>
<path d="M47.609 107.987C46.5899 107.986 45.5716 107.932 44.558 107.826C41.0936 107.344 37.7303 106.303 34.599 104.745C30.6959 102.97 27.2893 100.262 24.679 96.86C22.3221 93.7531 20.9504 90.0111 20.741 86.117C20.6481 84.1391 21.0503 82.1692 21.911 80.386C23.111 78.141 25.191 77.486 27.029 76.905C28.1216 76.6917 29.1341 76.181 29.955 75.429C30.648 74.597 30.267 73.416 29.825 72.049C29.275 70.349 28.651 68.415 29.856 66.531C30.684 65.223 32.531 64.56 35.35 64.56C37.007 64.56 39.486 65.487 42.52 67.24C45.0854 68.7452 47.5328 70.4431 49.841 72.319C53.6 75.379 61.941 85.519 62.259 95.719C62.3781 97.2203 62.1851 98.7299 61.692 100.153C61.1989 101.576 60.4165 102.881 59.394 103.987C57.9513 105.417 56.1768 106.468 54.229 107.045C52.0842 107.699 49.8511 108.017 47.609 107.987ZM35.597 75.752C35.0135 75.752 34.4432 75.925 33.9581 76.2492C33.4729 76.5733 33.0948 77.034 32.8716 77.5731C32.6483 78.1121 32.5899 78.7053 32.7037 79.2775C32.8175 79.8498 33.0985 80.3754 33.511 80.788C33.9236 81.2005 34.4492 81.4815 35.0215 81.5953C35.5937 81.7091 36.1869 81.6507 36.7259 81.4274C37.265 81.2042 37.7257 80.8261 38.0498 80.3409C38.374 79.8558 38.547 79.2855 38.547 78.702C38.5462 77.9199 38.2352 77.17 37.6821 76.6169C37.129 76.0638 36.3791 75.7528 35.597 75.752Z" fill="white"/>
<path d="M51.712 82.58C51.191 80.919 49.432 80.3 48.502 81.65C48.1651 82.1565 48.0375 82.7738 48.146 83.3723C48.2545 83.9708 48.5907 84.5041 49.084 84.86C49.553 85.1679 50.1107 85.3117 50.67 85.269C51.0975 84.9809 51.4266 84.5687 51.6129 84.088C51.7992 83.6072 51.8338 83.081 51.712 82.58Z" fill="white"/>
<path d="M53.151 91.169C52.011 91.069 51.701 91.169 51.391 91.999C51.081 92.829 52.106 93.66 53.358 93.759C53.9116 93.802 54.4627 93.6496 54.9155 93.3282C55.3683 93.0068 55.694 92.5368 55.836 92C56.151 90.958 55.836 90.141 54.808 90.339C54.6353 90.6168 54.3891 90.8414 54.0967 90.9879C53.8042 91.1344 53.4769 91.1971 53.151 91.169Z" fill="white"/>
<path d="M46.108 97.787C43.939 98.196 40.519 97.266 40.308 95.816C40.097 94.366 40.928 94.465 42.068 94.267C43.2782 94.0424 44.3948 93.4644 45.277 92.606C45.534 92.3557 45.852 92.1769 46.1994 92.0875C46.5468 91.9981 46.9116 92.0012 47.2575 92.0965C47.6034 92.1917 47.9183 92.3758 48.171 92.6304C48.4237 92.8851 48.6054 93.2014 48.698 93.548C48.88 93.9956 48.9543 94.4797 48.9152 94.9613C48.876 95.4429 48.7243 95.9086 48.4724 96.3209C48.2205 96.7332 47.8753 97.0807 47.4647 97.3353C47.054 97.5899 46.5893 97.7446 46.108 97.787Z" fill="white"/>
<path d="M33.59 90.648C30.38 90.127 30.479 88.677 31.111 88.268C31.743 87.859 33.391 88.268 33.8 87.747C34.209 87.226 36.788 85.988 37.42 88.17C38.052 90.352 36.8 91.169 33.59 90.648Z" fill="white"/>
</svg>
