<svg width="110" height="108" viewBox="0 0 110 108" fill="none" xmlns="http://www.w3.org/2000/svg">
<path d="M106.905 61.936L79.357 49.936L68.657 53.182L87.057 70.497L106.905 61.936Z" fill="#F9ACC0"/>
<path d="M15.27 67.611L14.681 88.292L21.281 85.892L19.238 107.531L77.555 107.771L73.587 75.066L89.098 70.258L80.681 51.258C80.681 51.258 58.713 53.242 45.21 56.428C38.7943 58.0385 32.5208 60.1699 26.452 62.801C19.238 65.807 15.27 67.611 15.27 67.611Z" fill="#3D5CFF"/>
<path d="M34.629 25.166C30.782 28.052 30.06 34.425 28.496 38.032C26.932 41.639 26.212 42.602 24.769 44.044C23.7929 44.9521 22.5871 45.5759 21.282 45.848C21.282 45.848 26.452 54.385 40.761 53.664C55.07 52.943 61.803 46.931 64.328 44.526C65.9415 42.8917 67.1733 40.9206 67.935 38.754C67.935 38.754 61.081 38.393 58.196 32.622C55.311 26.851 51.943 23.002 47.735 23.002C43.527 23.002 41.723 24.685 41.723 24.685C40.646 23.9917 39.3742 23.6641 38.0963 23.7508C36.8184 23.8374 35.6025 24.3337 34.629 25.166Z" fill="#1F1F39"/>
<path d="M15.006 88.184L21.283 85.884L20.934 89.651L22.244 78.661L15.006 88.184Z" fill="#224BF4"/>
<path d="M74.321 81.079L73.588 75.067L77.051 73.997L71.988 65.267L74.321 81.079Z" fill="#224BF4"/>
<path d="M60.457 67.466C60.282 67.8414 59.9853 68.1465 59.615 68.332C59.2235 68.5402 58.886 68.8367 58.629 69.198C58.5092 69.3914 58.432 69.6082 58.4026 69.8338C58.3732 70.0594 58.3922 70.2887 58.4585 70.5064C58.5247 70.7241 58.6366 70.9251 58.7868 71.0961C58.9369 71.2671 59.1217 71.4041 59.329 71.498C59.557 71.606 59.75 71.27 59.521 71.161C59.3362 71.0815 59.1739 70.9579 59.0482 70.801C58.9224 70.644 58.8372 70.4586 58.8 70.261C58.7616 70.0474 58.7788 69.8275 58.8499 69.6224C58.921 69.4173 59.0436 69.234 59.206 69.09C59.795 68.537 60.769 68.248 60.865 67.334C60.8621 67.0851 60.8084 66.8395 60.7071 66.6121C60.6058 66.3848 60.4591 66.1805 60.276 66.012C60.132 65.832 59.855 66.112 60.011 66.301C60.276 66.625 60.601 67.022 60.457 67.466Z" fill="white"/>
<path d="M27.415 105.739C27.4209 105.886 27.3935 106.033 27.3348 106.169C27.2761 106.304 27.1877 106.425 27.076 106.521C26.619 106.978 25.994 107.194 25.609 107.721C25.465 107.921 25.801 108.121 25.946 107.913C26.1846 107.641 26.4697 107.413 26.788 107.24C27.091 107.059 27.3581 106.823 27.576 106.545C27.6781 106.411 27.7502 106.257 27.7875 106.094C27.8247 105.93 27.8263 105.76 27.792 105.595C27.689 105.23 27.4925 104.899 27.222 104.633C27.066 104.433 26.789 104.705 26.945 104.898C27.1803 105.126 27.3437 105.419 27.415 105.739Z" fill="white"/>
<path d="M66.9979 75.499C66.7721 75.9033 66.4338 76.2333 66.0239 76.449C65.6277 76.6502 65.2886 76.948 65.0379 77.315C64.9147 77.544 64.8552 77.8019 64.8658 78.0617C64.8763 78.3215 64.9565 78.5738 65.0979 78.792C65.4587 79.3085 65.9477 79.7221 66.5169 79.992C66.5615 80.0158 66.6136 80.0213 66.6622 80.0073C66.7107 79.9933 66.7519 79.9608 66.7769 79.9169C66.8019 79.873 66.8088 79.8211 66.7961 79.7721C66.7834 79.7232 66.7522 79.6812 66.7089 79.655C66.2098 79.4269 65.7759 79.0772 65.4469 78.638C65.3103 78.4444 65.2409 78.2112 65.2496 77.9744C65.2583 77.7375 65.3445 77.5101 65.4949 77.327C65.814 77.0305 66.1695 76.7757 66.5529 76.569C66.9506 76.3102 67.2576 75.9337 67.4309 75.492C67.6201 74.9721 67.603 74.3996 67.3829 73.892C67.3707 73.8694 67.3541 73.8495 67.3341 73.8334C67.3141 73.8173 67.2911 73.8054 67.2664 73.7983C67.2417 73.7912 67.2159 73.7892 67.1904 73.7922C67.1649 73.7952 67.1403 73.8033 67.1179 73.816C67.0723 73.8407 67.038 73.8821 67.0224 73.9315C67.0067 73.981 67.0109 74.0346 67.0339 74.081C67.1262 74.307 67.1707 74.5497 67.1645 74.7938C67.1583 75.0378 67.1016 75.2779 66.9979 75.499Z" fill="white"/>
<path d="M33.487 94.136C33.5351 93.793 33.5351 93.445 33.487 93.102C33.431 92.8199 33.2866 92.563 33.0748 92.3685C32.863 92.1739 32.5948 92.0519 32.309 92.02C31.9606 91.9776 31.6071 92.0145 31.275 92.128C30.975 92.228 30.686 92.368 30.375 92.453C30.2309 92.5083 30.0746 92.5242 29.9224 92.4989C29.7701 92.4735 29.6274 92.408 29.509 92.309C29.2964 92.1088 29.1382 91.858 29.049 91.58C28.9471 91.279 28.9149 90.9588 28.9547 90.6435C28.9946 90.3283 29.1054 90.0262 29.279 89.76C29.411 89.555 29.086 89.363 28.942 89.567C28.6235 90.0625 28.4913 90.6551 28.569 91.239C28.5974 91.5338 28.687 91.8194 28.832 92.0777C28.9769 92.3359 29.1741 92.5612 29.411 92.739C30 93.124 30.661 92.763 31.239 92.559C31.5132 92.4167 31.8249 92.3634 32.1308 92.4064C32.4367 92.4494 32.7216 92.5866 32.946 92.799C33.127 93.1245 33.1866 93.5037 33.114 93.869C33.0904 94.2957 33.0234 94.7189 32.914 95.132C32.866 95.348 33.239 95.457 33.299 95.216C33.3926 94.8621 33.4555 94.5007 33.487 94.136Z" fill="white"/>
<path d="M68.729 95.363C68.104 95.339 67.659 95.916 67.214 96.276C66.7858 96.7096 66.2289 96.993 65.6264 97.084C65.0239 97.1751 64.4081 97.0688 63.871 96.781C63.6182 96.6182 63.4164 96.3875 63.2887 96.1153C63.161 95.8431 63.1126 95.5404 63.149 95.242C63.198 94.999 62.825 94.894 62.777 95.134C62.721 95.6809 62.8749 96.2286 63.2076 96.6663C63.5404 97.1039 64.027 97.3987 64.569 97.491C65.1808 97.588 65.8076 97.4999 66.369 97.238C66.9375 96.9687 67.4575 96.6071 67.908 96.168C68.128 95.976 68.416 95.711 68.729 95.759C68.929 95.783 69.234 96.012 69.102 96.24C69.018 96.44 69.342 96.64 69.463 96.42C69.739 95.928 69.234 95.387 68.729 95.363Z" fill="white"/>
<path d="M54.805 83.194C54.7741 83.4712 54.676 83.7366 54.5192 83.9672C54.3623 84.1978 54.1515 84.3865 53.905 84.517C53.3841 84.8099 52.9325 85.2117 52.581 85.695C52.4226 85.9211 52.3427 86.1928 52.3536 86.4686C52.3644 86.7444 52.4654 87.009 52.641 87.222C52.8606 87.4127 53.1215 87.55 53.4031 87.623C53.6846 87.696 53.9793 87.7029 54.264 87.643C54.372 87.631 54.42 87.499 54.396 87.403C54.372 87.307 54.264 87.254 54.154 87.27C53.9258 87.3198 53.6888 87.3118 53.4646 87.2467C53.2403 87.1815 53.0359 87.0613 52.87 86.897C52.509 86.428 52.87 85.839 53.219 85.49C53.619 85.09 54.133 84.865 54.542 84.49C54.7516 84.3159 54.9181 84.0957 55.0284 83.8466C55.1387 83.5975 55.1899 83.3262 55.178 83.054C55.1025 82.393 54.8058 81.777 54.336 81.306C54.168 81.138 53.904 81.414 54.072 81.595C54.5084 82.0171 54.7701 82.5879 54.805 83.194Z" fill="white"/>
<path d="M50.429 98.404C50.5476 98.6333 50.5976 98.892 50.573 99.149C50.5145 99.4483 50.4002 99.734 50.236 99.991C50.0616 100.259 49.9269 100.551 49.836 100.857C49.7677 101.138 49.7718 101.432 49.848 101.711C49.919 101.99 50.0573 102.248 50.2508 102.462C50.4442 102.676 50.687 102.839 50.958 102.938C51.2692 103.042 51.6029 103.059 51.9229 102.986C52.243 102.914 52.5373 102.756 52.774 102.529C52.954 102.361 52.674 102.084 52.497 102.252C52.2996 102.442 52.0513 102.57 51.7824 102.621C51.5134 102.673 51.2353 102.645 50.982 102.541C50.7381 102.427 50.5323 102.245 50.3893 102.016C50.2464 101.788 50.1723 101.523 50.176 101.254C50.176 100.641 50.645 100.16 50.849 99.619C50.9416 99.3669 50.9747 99.0968 50.9456 98.8298C50.9164 98.5628 50.8259 98.3062 50.681 98.08C50.5289 97.8194 50.3137 97.6013 50.0553 97.4456C49.7968 97.2899 49.5034 97.2017 49.202 97.189C48.962 97.166 48.962 97.563 49.202 97.563C49.4629 97.5811 49.7142 97.6686 49.93 97.8164C50.1457 97.9643 50.318 98.1672 50.429 98.404Z" fill="white"/>
<path d="M36.565 62.453C36.7457 62.9361 36.7328 63.4702 36.529 63.944C36.3025 64.4564 35.9706 64.9154 35.555 65.291C35.218 65.64 34.834 66.145 35.098 66.65C35.27 66.8969 35.5265 67.0723 35.819 67.143C36.1622 67.2629 36.5262 67.3119 36.889 67.287C37.142 67.275 37.142 66.887 36.889 66.902C36.5796 66.9163 36.2702 66.8757 35.975 66.782C35.759 66.71 35.435 66.601 35.41 66.337C35.4273 66.1005 35.53 65.8784 35.699 65.712C35.879 65.512 36.084 65.327 36.252 65.123C36.6286 64.7441 36.8878 64.2647 36.9987 63.7421C37.1096 63.2196 37.0673 62.6761 36.877 62.177C36.7724 61.9291 36.615 61.7071 36.4156 61.5264C36.2163 61.3457 35.9799 61.2108 35.723 61.131C35.6735 61.121 35.6221 61.13 35.579 61.1563C35.5359 61.1826 35.5044 61.2243 35.4907 61.2729C35.4771 61.3215 35.4823 61.3734 35.5053 61.4183C35.5284 61.4632 35.5675 61.4978 35.615 61.515C35.8338 61.5895 36.033 61.7126 36.1975 61.8751C36.3621 62.0375 36.4877 62.2351 36.565 62.453Z" fill="white"/>
<path d="M45.331 71.88C45.0066 71.9479 44.7053 72.0988 44.4566 72.3178C44.2079 72.5369 44.0202 72.8167 43.912 73.13C43.647 73.767 43.587 74.549 43.07 75.042C42.795 75.2791 42.4562 75.4297 42.096 75.475C41.7381 75.5431 41.3702 75.5391 41.014 75.463C40.6225 75.3407 40.2647 75.1295 39.9685 74.8459C39.6724 74.5622 39.446 74.2138 39.307 73.828C39.222 73.599 38.85 73.696 38.934 73.936C39.1949 74.6614 39.7125 75.2662 40.389 75.636C41.0611 75.9589 41.8318 76.0104 42.541 75.78C42.9074 75.6801 43.2346 75.4708 43.479 75.18C43.6995 74.8914 43.8665 74.5656 43.972 74.218C44.177 73.587 44.309 72.818 44.922 72.444C45.2271 72.2625 45.5848 72.1899 45.9365 72.2382C46.2882 72.2866 46.6131 72.4529 46.858 72.71C47.014 72.89 47.291 72.626 47.123 72.433C46.8956 72.1965 46.6119 72.0216 46.2984 71.9249C45.985 71.8282 45.652 71.8127 45.331 71.88Z" fill="white"/>
<path d="M67.443 53.483C66.9537 53.8226 66.5025 54.2138 66.097 54.65C65.8895 54.8465 65.6383 54.9908 65.364 55.071C64.9938 55.1529 64.6074 55.118 64.258 54.971C63.8891 54.8515 63.552 54.6502 63.272 54.382C63.0135 54.0998 62.8203 53.7642 62.706 53.399C62.6917 53.3495 62.6583 53.3078 62.6132 53.2829C62.5681 53.2581 62.5149 53.2522 62.4655 53.2665C62.416 53.2808 62.3743 53.3142 62.3494 53.3593C62.3246 53.4044 62.3187 53.4575 62.333 53.507C62.5143 54.1617 62.9408 54.7215 63.524 55.07C63.8287 55.2716 64.1734 55.405 64.5345 55.4611C64.8955 55.5172 65.2644 55.4947 65.616 55.395C66.1484 55.1256 66.6224 54.7538 67.011 54.301C67.1894 54.0852 67.4165 53.9149 67.6736 53.8041C67.9308 53.6933 68.2106 53.6453 68.49 53.664C68.7936 53.704 69.0788 53.8325 69.3099 54.0335C69.5411 54.2344 69.708 54.4989 69.79 54.794C69.8054 54.8438 69.8396 54.8856 69.8854 54.9106C69.9312 54.9355 69.9849 54.9416 70.0351 54.9275C70.0853 54.9134 70.128 54.8803 70.1541 54.8352C70.1802 54.7901 70.1877 54.7365 70.175 54.686C70.0983 54.4109 69.9615 54.1563 69.7745 53.9405C69.5875 53.7247 69.355 53.5531 69.0937 53.438C68.8323 53.3229 68.5487 53.2672 68.2633 53.275C67.9778 53.2828 67.6977 53.3538 67.443 53.483Z" fill="white"/>
<path d="M32.513 78.577C32.5629 79.1112 32.5096 79.65 32.356 80.164C32.3032 80.3997 32.2984 80.6436 32.3419 80.8812C32.3853 81.1188 32.4762 81.3452 32.609 81.547C32.7452 81.7225 32.9204 81.8638 33.1207 81.9598C33.321 82.0558 33.5409 82.1038 33.763 82.1C34.0184 82.0862 34.2669 82.0123 34.4885 81.8844C34.71 81.7566 34.8983 81.5783 35.038 81.364C35.182 81.164 34.846 80.964 34.701 81.172C34.5836 81.3488 34.4219 81.4918 34.2321 81.5867C34.0422 81.6816 33.8309 81.7252 33.619 81.713C33.4105 81.694 33.2131 81.6109 33.0537 81.4752C32.8944 81.3394 32.7809 81.1577 32.729 80.955C32.501 80.017 33.27 79.007 32.717 78.117C32.6059 77.9153 32.4315 77.7558 32.2209 77.6629C32.0102 77.57 31.7748 77.549 31.551 77.603C31.325 77.664 31.431 78.036 31.671 77.964C32.068 77.831 32.425 78.216 32.513 78.577Z" fill="white"/>
<path d="M54.7939 56.862C54.6884 57.5471 54.3925 58.1888 53.9399 58.714C53.382 59.3331 52.7007 59.8287 51.9399 60.169C50.9273 60.6274 49.8723 60.9858 48.7899 61.239C47.1525 61.7224 45.4306 61.8496 43.7399 61.612C42.6782 61.4291 41.6931 60.9397 40.9059 60.204C40.3016 59.592 39.8056 58.882 39.4389 58.104C39.3941 58.0221 39.354 57.9376 39.3189 57.851C39.2109 57.623 38.8739 57.827 38.9819 58.043C39.3587 58.8463 39.8443 59.594 40.4249 60.265C41.1859 61.0757 42.1688 61.6444 43.2509 61.9C44.9056 62.2409 46.6166 62.1957 48.2509 61.768C49.397 61.5261 50.5196 61.1841 51.6059 60.746C52.4536 60.4134 53.2331 59.9284 53.9059 59.315C54.4522 58.7997 54.8509 58.1479 55.0609 57.427C55.2562 56.6796 55.2716 55.8965 55.1059 55.142C55.0653 54.931 55.0132 54.7223 54.9499 54.517C54.9356 54.4691 54.9029 54.4289 54.8589 54.4052C54.8149 54.3814 54.7633 54.3762 54.7154 54.3905C54.6676 54.4048 54.6274 54.4376 54.6036 54.4815C54.5799 54.5255 54.5746 54.5771 54.5889 54.625C54.8186 55.347 54.8886 56.1103 54.7939 56.862Z" fill="white"/>
<path d="M76.4074 52.0055L84.2238 71.9688L84.0003 72.0563L76.184 52.093L76.4074 52.0055Z" fill="white"/>
<path d="M82.396 67.593L82.4615 67.8239L72.8415 70.5539L72.776 70.323L82.396 67.593Z" fill="white"/>
<path d="M79.419 55.767C67.996 49.514 61.619 45.787 61.619 45.787C59.9432 45.4047 58.3541 44.7113 56.934 43.743C55.371 42.42 57.355 35.503 57.355 35.503C57.355 35.503 56.093 31.358 56.694 30.998C57.295 30.638 58.134 30.276 60.181 32.08C61.557 33.4639 62.5869 35.153 63.187 37.01C63.187 37.01 88.918 40.497 96.373 43.142C103.828 45.787 110.321 49.034 109.72 56.609C109.119 64.184 101.303 63.222 101.303 63.222C93.629 62.0338 86.2224 59.5107 79.419 55.767Z" fill="#F9D2DD"/>
<path d="M56.934 33.968C57.134 34.81 57.355 35.507 57.355 35.507C57.355 35.507 55.371 42.421 56.934 43.744C57.7936 44.3905 58.7519 44.894 59.772 45.235C60.772 43.96 62.165 41.664 61.684 39.115C61.155 36.313 58.389 34.653 56.934 33.968Z" fill="#F9ACC0"/>
<path d="M56.4681 43.2275C54.5003 43.4728 52.6629 41.6682 52.3548 39.1964C52.0466 36.7245 53.3847 34.5241 55.3525 34.2788C57.3202 34.0335 59.1577 35.839 59.4657 38.3099C59.7738 40.7808 58.4319 42.9827 56.4681 43.2275Z" fill="#F99A3D"/>
<path d="M55.6163 42.0772C54.1912 42.1743 52.9376 40.8019 52.8157 39.0125C52.6938 37.2231 53.7497 35.6943 55.1748 35.5972C56.5999 35.5001 57.8535 36.8725 57.9754 38.6609C58.0972 40.4494 57.0415 41.9801 55.6163 42.0772Z" fill="#FF7F2D"/>
<path d="M34.63 42.722C34.293 46.122 39.8 47.532 39.8 47.532C40.4819 49.8583 41.0041 52.2285 41.363 54.626C41.504 56.2663 41.504 57.9157 41.363 59.556C43.3718 60.6925 45.7465 60.9949 47.976 60.398C52.906 59.316 53.146 57.272 53.146 57.272L51.222 49.336C52.4 48.9116 53.4384 48.1709 54.2232 47.1952C55.008 46.2196 55.5089 45.0466 55.671 43.805C56.513 39.356 55.071 33.945 55.071 33.945L48.939 35.145L47.015 33.463V35.507L41.243 37.07L39.68 35.387C39.68 35.387 40.762 36.71 40.161 39.716C39.56 42.722 39.199 42.842 39.199 42.842L38.959 40.678C38.959 40.678 35.115 37.792 34.63 42.722Z" fill="#F9D2DD"/>
<path d="M43.8504 43.5762C42.4849 43.8252 41.2546 43.3492 41.1021 42.513C40.9496 41.6768 41.9327 40.7972 43.2982 40.5482C44.6637 40.2991 45.8941 40.7751 46.0465 41.6113C46.199 42.4476 45.2149 43.3274 43.8504 43.5762Z" fill="#F9ACC0"/>
<path d="M51.282 36.649C51.3629 36.4948 51.4755 36.3595 51.6123 36.2518C51.7491 36.1441 51.9071 36.0665 52.076 36.024C52.2375 35.9865 52.4035 35.9727 52.569 35.983C52.7381 35.994 52.9026 36.0432 53.05 36.127C53.1974 36.201 53.3195 36.3171 53.4009 36.4606C53.4822 36.6041 53.5192 36.7685 53.507 36.933C53.3183 36.7785 53.0878 36.6838 52.845 36.661C52.7453 36.649 52.6446 36.649 52.545 36.661C52.4923 36.6624 52.44 36.6698 52.389 36.683C52.329 36.683 52.289 36.707 52.245 36.707C52.1561 36.7275 52.0709 36.7612 51.992 36.807C51.8999 36.8495 51.8146 36.9055 51.739 36.973C51.583 37.129 51.414 37.322 51.222 37.55C51.1694 37.4038 51.1476 37.2483 51.1579 37.0932C51.1682 36.9382 51.2105 36.787 51.282 36.649Z" fill="#1F1F39"/>
<path d="M43.635 38.275C43.6999 38.1261 43.7939 37.9917 43.9116 37.8797C44.0292 37.7678 44.1681 37.6805 44.32 37.623C44.369 37.611 44.401 37.599 44.453 37.587L44.513 37.575H44.713C44.7534 37.5736 44.7937 37.5777 44.833 37.587C44.9931 37.6055 45.1482 37.6544 45.29 37.731C45.4345 37.8153 45.5547 37.9355 45.639 38.08C45.6755 38.1515 45.6998 38.2285 45.711 38.308C45.7258 38.3841 45.7224 38.4625 45.701 38.537C45.6062 38.4565 45.5009 38.3893 45.388 38.337C45.2951 38.305 45.1988 38.2842 45.101 38.275H44.741C44.717 38.275 44.701 38.284 44.681 38.284H44.657L44.633 38.296C44.621 38.296 44.597 38.308 44.585 38.308C44.413 38.3811 44.2545 38.4825 44.116 38.608C43.924 38.752 43.755 38.933 43.527 39.113C43.4726 38.8293 43.5105 38.5356 43.635 38.275Z" fill="#1F1F39"/>
<path d="M49.684 38.417C49.8191 38.5261 49.9404 38.6514 50.045 38.79C50.1588 38.9341 50.2369 39.103 50.273 39.283C50.2871 39.3792 50.283 39.4773 50.261 39.572C50.2523 39.6183 50.2361 39.6629 50.213 39.704C50.2032 39.752 50.1827 39.7971 50.153 39.836C50.0688 40.0018 49.9395 40.1404 49.78 40.236C49.4857 40.4181 49.136 40.4891 48.794 40.436C49.111 40.3794 49.4112 40.2519 49.672 40.063C49.7929 39.9748 49.8848 39.8526 49.936 39.712C49.9515 39.68 49.9636 39.6465 49.972 39.612C49.9846 39.5799 49.9927 39.5463 49.996 39.512C50.0075 39.4458 50.0075 39.3782 49.996 39.312C49.9687 39.1684 49.9115 39.0321 49.828 38.912C49.7382 38.7835 49.6379 38.6628 49.528 38.551C49.3108 38.3173 49.0732 38.1034 48.818 37.912C49.1319 38.0329 49.4242 38.2034 49.684 38.417Z" fill="#1F1F39"/>
<path d="M49.431 41.892C50.1865 41.7724 50.9055 41.4846 51.535 41.05C51.535 41.05 52.353 43.707 51.435 44.621C50.517 45.535 48.169 45.679 47.556 44.008C46.943 42.337 47.147 41.964 47.147 41.964C47.9073 42.0601 48.6781 42.0358 49.431 41.892Z" fill="#F95368"/>
<path d="M51.763 43.992C51.1025 43.7547 50.3851 43.7265 49.708 43.911C49.108 44.0731 48.558 44.3824 48.108 44.811C48.6042 45.1513 49.1993 45.3172 49.7999 45.2829C50.4006 45.2485 50.9729 45.0157 51.427 44.621C51.5901 44.4429 51.7056 44.2266 51.763 43.992Z" fill="#F9ACC0"/>
<path d="M40.161 39.728C39.561 42.734 39.199 42.854 39.199 42.854L38.959 40.69C38.8634 40.6194 38.7632 40.5552 38.659 40.498L36.229 45.848C37.3116 46.6138 38.5203 47.1834 39.8 47.531C39.8 47.531 39.92 47.931 40.077 48.553C41.0821 47.2794 41.7531 45.7748 42.029 44.176C42.325 43.1614 42.322 42.083 42.0205 41.07C41.719 40.0571 41.1317 39.1526 40.329 38.465C40.3039 38.8895 40.2477 39.3117 40.161 39.728Z" fill="#F9ACC0"/>
<path d="M38.5833 47.5069C36.4033 47.6546 34.4861 45.5564 34.3007 42.8196C34.1152 40.0829 35.7319 37.7453 37.9119 37.5976C40.0919 37.4499 42.0091 39.5481 42.1946 42.2848C42.38 45.0215 40.7633 47.3592 38.5833 47.5069Z" fill="#F99A3D"/>
<path d="M38.058 45.5634C36.6332 45.6599 35.3806 44.2875 35.2594 42.4986C35.1382 40.7097 36.1943 39.1818 37.6191 39.0853C39.0438 38.9887 40.2964 40.3612 40.4176 42.1491C40.5387 43.937 39.4827 45.4669 38.058 45.5634Z" fill="#FF7F2D"/>
<path d="M34.991 28.292C33.8527 30.3082 33.2714 32.591 33.307 34.906C33.271 36.5228 33.4335 38.1378 33.791 39.715L36.545 38.515C36.545 38.515 35.691 32.801 37.034 29.495C37.6535 27.9003 38.7284 26.5232 40.125 25.535C40.197 25.487 40.642 25.198 41.015 24.994C41.135 24.934 41.243 24.886 41.328 24.838L41.728 24.682C41.728 24.682 42.317 24.333 42.81 24.082C43.3957 23.8076 43.9967 23.5669 44.61 23.361C42.9489 22.8592 41.1659 22.944 39.56 23.601C37.5682 24.6274 35.9645 26.2739 34.991 28.292Z" fill="#F99A3D"/>
<path d="M45.054 105.847C42.998 105.414 40.737 104.717 39.643 102.937C38.849 101.65 38.753 99.943 39.343 97.743C39.98 95.35 42.072 93.354 44.489 91.043C47.639 88.037 51.21 84.622 52.569 79.343C54.349 72.417 48.084 67.319 43.527 63.591C42.2207 62.6032 40.9982 61.5091 39.872 60.32C38.489 58.689 37.732 55.984 37.635 52.304C37.5949 50.6247 37.6794 48.9448 37.888 47.278C37.8923 47.246 37.9029 47.2153 37.9192 47.1874C37.9355 47.1596 37.9571 47.1353 37.9829 47.116C38.0087 47.0966 38.0381 47.0826 38.0693 47.0747C38.1006 47.0668 38.1331 47.0652 38.165 47.07C38.227 47.0826 38.282 47.1181 38.3191 47.1694C38.3562 47.2208 38.3725 47.2841 38.365 47.347C38.357 47.434 37.094 56.308 40.233 60.024C41.3383 61.1894 42.5366 62.2629 43.816 63.234C48.481 67.034 54.878 72.252 53.026 79.478C51.643 84.889 48.012 88.352 44.814 91.406C42.445 93.642 40.401 95.59 39.8 97.863C39.247 99.931 39.331 101.518 40.053 102.685C40.847 103.985 42.374 104.785 45.153 105.378C47.4144 105.87 49.7351 106.032 52.043 105.859C52.0738 105.855 52.1051 105.857 52.135 105.865C52.165 105.874 52.193 105.887 52.2176 105.906C52.2422 105.925 52.2627 105.949 52.2782 105.976C52.2936 106.003 52.3035 106.033 52.3075 106.063C52.3114 106.094 52.3093 106.126 52.3011 106.156C52.293 106.185 52.279 106.214 52.26 106.238C52.241 106.263 52.2174 106.283 52.1904 106.299C52.1635 106.314 52.1338 106.324 52.103 106.328C51.52 106.392 50.9335 106.42 50.347 106.412C48.5679 106.407 46.7941 106.218 45.054 105.847Z" fill="#1F1F39"/>
<path d="M49.298 68.873C49.2591 68.8231 49.2412 68.7601 49.2479 68.6972C49.2546 68.6344 49.2855 68.5766 49.334 68.536C49.407 68.477 56.441 62.813 58.447 55.875C59.6175 51.5809 59.2829 47.0156 57.499 42.938C57.4847 42.9096 57.4762 42.8786 57.4739 42.8469C57.4716 42.8152 57.4756 42.7833 57.4857 42.7531C57.4957 42.7229 57.5116 42.695 57.5324 42.671C57.5532 42.6469 57.5785 42.6272 57.607 42.613C57.6354 42.5987 57.6664 42.5902 57.6981 42.588C57.7298 42.5857 57.7616 42.5897 57.7918 42.5997C57.822 42.6097 57.8499 42.6256 57.874 42.6464C57.898 42.6672 57.9177 42.6926 57.932 42.721C59.7658 46.9042 60.1096 51.5899 58.906 55.996C56.862 63.078 49.707 68.837 49.635 68.897C49.6197 68.9209 49.5982 68.9402 49.5729 68.9529C49.5475 68.9655 49.5192 68.9711 49.491 68.969C49.4537 68.9683 49.417 68.9594 49.3836 68.9428C49.3502 68.9262 49.321 68.9023 49.298 68.873Z" fill="#1F1F39"/>
<path d="M46.726 87.895L47.146 87.475C47.2342 87.3815 47.3403 87.3067 47.4579 87.2549C47.5755 87.2031 47.7023 87.1755 47.8308 87.1736C47.9594 87.1717 48.0869 87.1956 48.206 87.2439C48.3251 87.2922 48.4334 87.3639 48.5243 87.4547C48.6152 87.5456 48.6869 87.6537 48.7353 87.7728C48.7837 87.8919 48.8077 88.0194 48.8059 88.1479C48.8041 88.2764 48.7765 88.4033 48.7249 88.521C48.6732 88.6386 48.5984 88.7447 48.505 88.833L48.084 89.254C47.9021 89.4256 47.6604 89.5196 47.4104 89.5159C47.1603 89.5122 46.9215 89.4112 46.7447 89.2343C46.5679 89.0574 46.4671 88.8185 46.4636 88.5684C46.4601 88.3184 46.5542 88.0768 46.726 87.895Z" fill="#1F1F39"/>
<path d="M51.295 49.659C51.343 49.467 49.78 50.067 48.096 50.067C45.319 50.067 44.369 49.467 44.369 49.467C44.369 49.467 47.014 52.834 49.78 53.916C50.6522 54.2607 51.5655 54.491 52.497 54.601L51.295 49.659Z" fill="#F9ACC0"/>
<path d="M43.972 49.443C43.9584 49.4375 43.9461 49.4294 43.9357 49.4191C43.9254 49.4088 43.9171 49.3966 43.9116 49.3831C43.906 49.3696 43.9031 49.3551 43.9032 49.3405C43.9033 49.3259 43.9062 49.3114 43.912 49.298C43.9174 49.2845 43.9256 49.2721 43.9358 49.2618C43.9461 49.2514 43.9584 49.2432 43.9719 49.2376C43.9854 49.232 43.9999 49.2292 44.0145 49.2292C44.0291 49.2293 44.0435 49.2323 44.057 49.238C45.3443 49.7364 46.7169 49.9773 48.097 49.947C49.158 49.9207 50.2102 49.7463 51.223 49.429C51.2371 49.424 51.2522 49.4219 51.2671 49.4229C51.2821 49.4238 51.2968 49.4278 51.3102 49.4345C51.3237 49.4412 51.3356 49.4505 51.3454 49.462C51.3551 49.4734 51.3624 49.4867 51.367 49.501C51.3719 49.5152 51.374 49.5302 51.3731 49.5452C51.3721 49.5602 51.3682 49.5748 51.3615 49.5883C51.3548 49.6017 51.3454 49.6136 51.334 49.6234C51.3226 49.6331 51.3093 49.6405 51.295 49.645C50.2601 49.9778 49.1818 50.1561 48.095 50.174H47.795C46.488 50.1524 45.1947 49.9051 43.972 49.443Z" fill="#1F1F39"/>
<path d="M52.245 107.532C51.8789 107.53 51.5283 107.384 51.2694 107.125C51.0105 106.866 50.8641 106.515 50.862 106.149C50.8641 105.783 51.0105 105.432 51.2694 105.173C51.5283 104.914 51.8789 104.768 52.245 104.766H71.245C71.6111 104.768 71.9617 104.914 72.2206 105.173C72.4795 105.432 72.6259 105.783 72.628 106.149C72.6291 106.331 72.594 106.511 72.5249 106.68C72.4558 106.848 72.3539 107.001 72.2253 107.129C72.0967 107.258 71.9438 107.36 71.7755 107.429C71.6072 107.498 71.4269 107.533 71.245 107.532H52.245Z" fill="#EAEAFF"/>
<path d="M23.206 72.18L21.282 85.887L23.206 72.18Z" fill="#1F1F39"/>
<path d="M21.272 86.008C21.2565 86.0065 21.2416 86.0017 21.228 85.9941C21.2144 85.9865 21.2026 85.9762 21.1932 85.9638C21.1838 85.9514 21.1771 85.9372 21.1735 85.9221C21.1698 85.907 21.1693 85.8913 21.172 85.876L23.098 72.17C23.1053 72.1422 23.1227 72.1181 23.1468 72.1024C23.1708 72.0867 23.1999 72.0805 23.2283 72.0849C23.2567 72.0894 23.2824 72.1043 23.3004 72.1267C23.3185 72.149 23.3276 72.1773 23.326 72.206L21.402 85.912C21.3957 85.9395 21.3805 85.9642 21.3589 85.9822C21.3372 86.0003 21.3102 86.0108 21.282 86.012L21.272 86.008Z" fill="#1F1F39"/>
<path d="M26.696 38.032C27.7646 35.9813 29.3888 34.2728 31.383 33.102C32.706 32.741 33.066 33.583 33.066 33.583C33.3245 33.3543 33.6343 33.1911 33.9692 33.1074C34.3041 33.0237 34.6542 33.0218 34.99 33.102C35.2695 33.2099 35.5162 33.3885 35.7059 33.6205C35.8956 33.8524 36.0217 34.1296 36.072 34.425C36.3469 34.2216 36.6748 34.102 37.0161 34.0805C37.3575 34.0591 37.6977 34.1367 37.996 34.304C38.838 34.785 38.596 35.987 37.996 36.704C37.396 37.421 35.596 38.748 35.471 39.47C35.346 40.192 38.477 47.887 37.034 53.057C35.591 58.227 23.928 78.673 18.517 85.406C13.106 92.139 6.13198 91.178 3.96798 89.495C2.03309 88.0156 0.699228 85.8857 0.213003 83.4991C-0.273221 81.1124 0.121071 78.6305 1.32298 76.512C4.68898 70.012 26.696 46.93 26.696 46.93C26.696 46.93 25.852 40.076 26.696 38.032Z" fill="#F9D2DD"/>
<path d="M32.477 42.625C32.441 42.457 31.635 38.344 32.982 36.877C33.8929 35.916 34.9093 35.0609 36.012 34.328C36.0243 34.3192 36.0384 34.3132 36.0532 34.3102C36.0681 34.3073 36.0834 34.3075 36.0981 34.3109C36.1128 34.3143 36.1267 34.3208 36.1387 34.33C36.1508 34.3391 36.1608 34.3507 36.168 34.364C36.1768 34.3763 36.1828 34.3904 36.1858 34.4052C36.1887 34.4201 36.1885 34.4354 36.1851 34.4501C36.1817 34.4648 36.1752 34.4787 36.166 34.4907C36.1569 34.5028 36.1453 34.5128 36.132 34.52C35.0514 35.2443 34.0517 36.0824 33.15 37.02C31.876 38.408 32.693 42.529 32.693 42.577C32.6959 42.5914 32.6959 42.6062 32.6931 42.6206C32.6902 42.635 32.6845 42.6487 32.6763 42.6609C32.6682 42.673 32.6576 42.6835 32.6454 42.6916C32.6331 42.6997 32.6194 42.7052 32.605 42.708C32.605 42.72 32.593 42.72 32.581 42.72C32.5555 42.7181 32.5314 42.7077 32.5126 42.6905C32.4937 42.6733 32.4812 42.6502 32.477 42.625Z" fill="#1F1F39"/>
<path d="M28.99 40.93C28.978 40.798 28.765 37.623 29.856 36.277C30.8012 35.235 31.8575 34.2995 33.006 33.487C33.0303 33.4692 33.0606 33.4617 33.0904 33.4662C33.1202 33.4707 33.147 33.4868 33.165 33.511C33.1813 33.5353 33.1875 33.565 33.1825 33.5939C33.1775 33.6228 33.1615 33.6486 33.138 33.666C32.0098 34.4664 30.9705 35.3853 30.038 36.407C28.99 37.683 29.219 40.866 29.219 40.894C29.2215 40.9289 29.2104 40.9634 29.188 40.9902C29.1657 41.0171 29.1337 41.0342 29.099 41.038C29.0847 41.0381 29.0706 41.0354 29.0573 41.0301C29.0441 41.0247 29.0321 41.0168 29.022 41.0067C29.0118 40.9967 29.0038 40.9847 28.9983 40.9716C28.9928 40.9584 28.99 40.9443 28.99 40.93Z" fill="#1F1F39"/>
<path d="M71.784 64.004L73.584 75.066L71.784 64.004Z" fill="#1F1F39"/>
<path d="M73.479 75.094L71.674 64.028C71.6697 63.997 71.6778 63.9656 71.6965 63.9405C71.7152 63.9154 71.743 63.8987 71.774 63.894C71.8043 63.8908 71.8348 63.8994 71.859 63.918C71.8832 63.9366 71.8993 63.9638 71.904 63.994L73.704 75.056C73.7077 75.0867 73.6994 75.1176 73.6807 75.1422C73.662 75.1669 73.6345 75.1833 73.604 75.188H73.588C73.5746 75.1892 73.5611 75.1877 73.5483 75.1836C73.5355 75.1795 73.5237 75.1729 73.5135 75.1641C73.5033 75.1554 73.495 75.1446 73.4891 75.1326C73.4832 75.1205 73.4797 75.1074 73.479 75.094Z" fill="#1F1F39"/>
<path d="M48.192 42.577C48.1951 42.6109 48.2053 42.6437 48.2219 42.6734C48.2385 42.703 48.2612 42.7289 48.2884 42.7492C48.3157 42.7696 48.3469 42.784 48.3801 42.7916C48.4132 42.7991 48.4476 42.7996 48.481 42.793L49.659 42.599C50.0578 42.5209 50.4513 42.4174 50.837 42.289C50.8709 42.2837 50.9035 42.2716 50.9328 42.2536C50.9621 42.2356 50.9875 42.212 51.0076 42.1841C51.0277 42.1562 51.042 42.1246 51.0498 42.0911C51.0576 42.0576 51.0587 42.0229 51.053 41.989L50.922 41.399C50.4448 41.6262 49.9408 41.7918 49.422 41.892C48.9963 41.9701 48.5647 42.0102 48.132 42.012L48.192 42.577Z" fill="white"/>
<path d="M0.504991 78.433C-0.128445 80.4089 -0.135703 82.5323 0.484211 84.5126C1.10412 86.4928 2.32091 88.233 3.96799 89.495C6.13199 91.178 13.106 92.14 18.517 85.407C19.046 84.746 19.647 83.94 20.285 83.038C17.675 84.77 12.397 87.427 6.85399 85.287C5.32569 84.7339 3.95192 83.8231 2.84742 82.6308C1.74292 81.4384 0.939751 79.9991 0.504991 78.433V78.433Z" fill="#F9ACC0"/>
<path d="M54.596 37.9C53.242 38.152 52.256 39.035 52.412 39.872C52.568 40.709 53.796 41.195 55.154 40.942C55.4218 40.8932 55.6839 40.8168 55.936 40.714C55.9312 39.7616 55.8748 38.8102 55.767 37.864C55.3771 37.8161 54.9822 37.8282 54.596 37.9Z" fill="#F9ACC0"/>
</svg>
