<svg width="98" height="97" viewBox="0 0 98 97" fill="none" xmlns="http://www.w3.org/2000/svg">
<path opacity="0.56" d="M48.93 96.764C75.5816 96.764 97.187 75.1586 97.187 48.507C97.187 21.8554 75.5816 0.25 48.93 0.25C22.2784 0.25 0.673004 21.8554 0.673004 48.507C0.673004 75.1586 22.2784 96.764 48.93 96.764Z" fill="#F5ECFF"/>
<path opacity="0.8" d="M48.929 84.007C68.5351 84.007 84.429 68.1131 84.429 48.507C84.429 28.9009 68.5351 13.007 48.929 13.007C29.3229 13.007 13.429 28.9009 13.429 48.507C13.429 68.1131 29.3229 84.007 48.929 84.007Z" fill="#F8F2FF"/>
<path d="M58.638 54.177L61.076 60.677C63.1953 59.6769 65.1676 58.3913 66.938 56.856C66.508 55.603 66.138 54.656 66.138 54.656L58.638 54.177Z" fill="#DA5742"/>
<path d="M39.487 60.797L42.033 54.004L34.536 54.482C34.528 54.49 34.081 55.636 33.602 57.071C35.3838 58.5766 37.364 59.8303 39.487 60.797Z" fill="#DA5742"/>
<path d="M58.638 54.177L59.481 56.386L66.92 56.848C66.515 55.686 66.138 54.655 66.138 54.655L58.638 54.177Z" fill="#C43D28"/>
<path d="M42.11 53.765L41.264 55.974L33.71 56.708C34.115 55.554 34.61 54.243 34.61 54.243L42.11 53.765Z" fill="#C43D28"/>
<path d="M41.794 44.003C38.521 45.487 34.933 50.071 33.611 55.446H39.463L38.496 60.327C42.103 62.1639 46.0942 63.1191 50.142 63.114C54.2059 63.1209 58.2127 62.1571 61.829 60.303L60.804 56.074L66.722 55.546C66.714 55.546 65.35 47.961 59.11 44.375C54.111 41.505 46.406 41.937 41.794 44.003Z" fill="#3D5CFF"/>
<path opacity="0.467" d="M42.719 50.599C42.574 52.982 42.446 55.356 42.306 57.739C42.231 59.066 42.149 60.393 42.074 61.712C42.066 61.869 42.314 61.869 42.322 61.712C42.463 59.338 42.603 56.972 42.735 54.597C42.867 52.222 43.008 49.848 43.148 47.474C43.222 46.163 43.305 44.852 43.379 43.542C43.387 43.385 43.139 43.385 43.131 43.55C42.991 45.9 42.8537 48.2497 42.719 50.599Z" fill="#CDECFE"/>
<path opacity="0.467" d="M45.992 50.517C45.942 53.097 45.892 55.686 45.843 58.266C45.819 59.717 45.786 61.176 45.761 62.627C45.761 62.6599 45.7741 62.6914 45.7973 62.7147C45.8206 62.7379 45.8521 62.751 45.885 62.751C45.9179 62.751 45.9494 62.7379 45.9727 62.7147C45.9959 62.6914 46.009 62.6599 46.009 62.627C46.0583 60.0383 46.109 57.45 46.161 54.862L46.315 47.12C46.34 45.678 46.373 44.227 46.397 42.784C46.398 42.7511 46.386 42.7191 46.3635 42.6951C46.341 42.6711 46.3099 42.6571 46.277 42.656C46.2441 42.6549 46.2121 42.667 46.1881 42.6895C46.1641 42.712 46.15 42.7431 46.149 42.776C46.0997 45.356 46.0473 47.9363 45.992 50.517Z" fill="#CDECFE"/>
<path opacity="0.467" d="M49.852 50.492C49.894 53.135 49.943 55.784 49.984 58.435C50.009 59.927 50.034 61.428 50.058 62.92C50.058 62.9529 50.0711 62.9844 50.0943 63.0077C50.1176 63.0309 50.1491 63.044 50.182 63.044C50.2149 63.044 50.2464 63.0309 50.2697 63.0077C50.2929 62.9844 50.306 62.9529 50.306 62.92C50.266 60.269 50.22 57.623 50.175 54.976C50.13 52.329 50.084 49.684 50.042 47.035C50.02 45.545 49.993 44.045 49.968 42.552C49.968 42.5191 49.9549 42.4876 49.9317 42.4643C49.9084 42.4411 49.8769 42.428 49.844 42.428C49.8111 42.428 49.7796 42.4411 49.7563 42.4643C49.7331 42.4876 49.72 42.5191 49.72 42.552C49.761 45.199 49.811 47.845 49.852 50.492Z" fill="#CDECFE"/>
<path opacity="0.467" d="M53.572 46.287C53.646 47.587 53.737 48.892 53.82 50.195C53.911 51.514 54.002 52.825 54.109 54.144C54.209 55.444 54.316 56.757 54.431 58.06C54.5383 59.3133 54.654 60.5663 54.778 61.819C54.795 61.967 54.811 62.119 54.819 62.264C54.827 62.409 55.083 62.421 55.067 62.264C54.943 61.019 54.827 59.774 54.72 58.538C54.604 57.238 54.497 55.933 54.398 54.638C54.298 53.319 54.198 52.008 54.109 50.689C54.02 49.37 53.936 48.076 53.853 46.765C53.778 45.512 53.704 44.251 53.638 42.998L53.613 42.553C53.605 42.388 53.357 42.388 53.365 42.544C53.431 43.789 53.497 45.034 53.572 46.287Z" fill="#CDECFE"/>
<path opacity="0.467" d="M57.795 50.278C58.175 52.578 58.5553 54.881 58.936 57.187C59.143 58.44 59.349 59.701 59.556 60.955C59.581 61.112 59.82 61.046 59.796 60.889C59.423 58.621 59.051 56.362 58.676 54.095C58.298 51.795 57.919 49.492 57.539 47.186C57.332 45.929 57.125 44.672 56.919 43.419C56.886 43.262 56.646 43.329 56.676 43.485C57.051 45.752 57.423 48.011 57.795 50.278Z" fill="#CDECFE"/>
<path opacity="0.467" d="M39.09 49.148C38.79 50.448 38.503 51.761 38.222 53.064C38.057 53.814 37.9 54.565 37.74 55.323C37.707 55.48 37.947 55.546 37.98 55.389C38.256 54.062 38.54 52.743 38.834 51.415C39.123 50.115 39.421 48.802 39.71 47.499C39.884 46.749 40.049 45.999 40.21 45.248C40.2118 45.2202 40.2037 45.1927 40.1873 45.1703C40.1709 45.1478 40.1472 45.1318 40.1202 45.125C40.0932 45.1183 40.0647 45.1211 40.0397 45.1332C40.0146 45.1452 39.9945 45.1657 39.983 45.191L39.09 49.148Z" fill="#CDECFE"/>
<path opacity="0.467" d="M61.647 49.42C62.069 50.756 62.498 52.099 62.928 53.435C63.168 54.185 63.416 54.935 63.672 55.677C63.722 55.825 63.961 55.759 63.912 55.611C63.466 54.284 63.036 52.948 62.606 51.611C62.176 50.274 61.754 48.934 61.324 47.598C61.085 46.848 60.834 46.098 60.58 45.356C60.534 45.199 60.291 45.266 60.341 45.422C60.787 46.749 61.217 48.084 61.647 49.42Z" fill="#CDECFE"/>
<path d="M41.058 49.915L37.578 55.447L39.553 55.439L41.058 49.915Z" fill="#224BF4"/>
<path d="M60.804 56.073L62.564 55.922L58.638 49.222L60.804 56.073Z" fill="#224BF4"/>
<path d="M39.537 55.529C39.5165 55.5229 39.4991 55.5094 39.4881 55.491C39.4772 55.4727 39.4736 55.4509 39.478 55.43L41.133 49.313C41.1391 49.2925 41.1526 49.2751 41.171 49.2642C41.1893 49.2532 41.2111 49.2496 41.232 49.254C41.2525 49.2603 41.2699 49.2741 41.2806 49.2926C41.2914 49.3112 41.2947 49.3331 41.29 49.354L39.637 55.472C39.6325 55.4883 39.6229 55.5028 39.6096 55.5132C39.5962 55.5236 39.5799 55.5295 39.563 55.53L39.537 55.529Z" fill="#1F1F39"/>
<path d="M60.647 56.073L58.531 49.218C58.5274 49.2082 58.5259 49.1977 58.5265 49.1873C58.5271 49.1768 58.5298 49.1666 58.5345 49.1572C58.5392 49.1479 58.5457 49.1396 58.5537 49.1328C58.5617 49.1261 58.571 49.121 58.581 49.118C58.5908 49.1144 58.6012 49.1128 58.6115 49.1134C58.6219 49.1139 58.6321 49.1165 58.6415 49.1211C58.6508 49.1257 58.6591 49.1321 58.6659 49.14C58.6727 49.1479 58.6778 49.1571 58.681 49.167L60.804 56.023C60.8076 56.0328 60.8091 56.0433 60.8085 56.0537C60.8079 56.0642 60.8052 56.0744 60.8005 56.0837C60.7958 56.0931 60.7893 56.1014 60.7813 56.1082C60.7733 56.1149 60.764 56.12 60.754 56.123C60.737 56.123 60.729 56.131 60.721 56.131C60.7041 56.1305 60.6877 56.1246 60.6744 56.1142C60.6611 56.1038 60.6515 56.0893 60.647 56.073Z" fill="#1F1F39"/>
<path d="M46.24 39.947C45.496 39.782 45.413 39.37 45.413 39.37C45.413 39.37 45.165 39.865 43.677 39.7C43.237 39.6388 42.8212 39.4614 42.4725 39.1862C42.1238 38.9109 41.8547 38.5478 41.693 38.134C41.693 38.134 39.875 37.804 39.544 36.815C39.3559 36.3733 39.2711 35.8944 39.296 35.415C38.6325 34.8538 38.2171 34.0536 38.14 33.188C38.223 32.034 38.64 31.788 38.64 31.788C38.64 31.788 37.979 31.211 38.14 30.716C38.1699 30.5863 38.2311 30.4659 38.3182 30.3653C38.4054 30.2647 38.5159 30.187 38.64 30.139C38.64 30.139 36.901 28.405 37.479 26.509C38.057 24.613 39.461 24.613 39.461 24.613C39.3967 24.4041 39.4123 24.1788 39.5046 23.9807C39.597 23.7827 39.7596 23.626 39.961 23.541C40.705 23.129 41.035 23.211 41.035 23.211C41.035 23.211 40.87 21.15 41.944 20.655C42.561 20.3595 43.2574 20.2728 43.928 20.408C43.928 20.408 43.845 19.254 44.589 19.171C44.7886 19.1388 44.9932 19.1605 45.1817 19.2338C45.3701 19.3071 45.5356 19.4294 45.661 19.588C45.661 19.588 45.661 19.258 46.322 19.176C46.983 19.094 47.066 19.341 47.066 19.341C47.116 18.8763 47.3398 18.4477 47.6925 18.1411C48.0453 17.8346 48.5009 17.6727 48.968 17.688C49.4059 17.6428 49.8482 17.7099 50.253 17.883C50.6578 18.056 51.012 18.3293 51.282 18.677C51.4296 18.4492 51.6432 18.2719 51.8943 18.1688C52.1453 18.0657 52.4219 18.0417 52.687 18.1C52.9534 18.13 53.2001 18.2548 53.3822 18.4516C53.5643 18.6484 53.6696 18.9041 53.679 19.172C54.0274 18.8754 54.4506 18.6802 54.9023 18.6076C55.3541 18.5349 55.8171 18.5876 56.241 18.76C57.977 19.255 58.473 22.305 58.473 22.305C58.8302 22.2129 59.2079 22.2417 59.547 22.387C60.047 22.634 59.96 23.541 59.96 23.541C60.3802 23.5583 60.7856 23.7009 61.1242 23.9503C61.4627 24.1998 61.719 24.5448 61.86 24.941C62.191 26.26 61.86 26.755 61.86 26.755C62.2791 27.1844 62.5882 27.7087 62.7609 28.2833C62.9336 28.8579 62.9649 29.4657 62.852 30.055C62.7313 31.0424 62.2974 31.9652 61.614 32.688C61.7978 33.2504 61.7978 33.8566 61.614 34.419C61.5359 34.6239 61.4012 34.8024 61.2255 34.9338C61.0499 35.0652 60.8406 35.1439 60.622 35.161C60.622 35.161 60.87 36.315 60.291 36.727C60.1265 36.8475 59.9383 36.9318 59.7389 36.9743C59.5395 37.0169 59.3334 37.0168 59.134 36.974C58.9243 37.5867 58.5768 38.1432 58.1182 38.6006C57.6597 39.0579 57.1023 39.4039 56.489 39.612C55.1232 39.9816 53.6742 39.8966 52.361 39.37L47.484 40.112C47.0649 40.0983 46.6482 40.043 46.24 39.947Z" fill="#F99A3D"/>
<path d="M43.777 32.198C44.0062 32.288 44.2229 32.407 44.422 32.552C44.6325 31.1799 45.2091 29.89 46.091 28.818C46.5192 28.3649 47.0923 28.0757 47.7111 28.0005C48.33 27.9252 48.9557 28.0687 49.48 28.406C50.637 29.313 51.133 30.797 51.88 30.385C52.627 29.973 53.45 29.148 54.28 29.808C54.9 30.303 55.007 31.828 55.024 32.553C55.225 32.4111 55.4413 32.2923 55.669 32.199C55.9267 32.0939 56.2079 32.06 56.4833 32.1007C56.7586 32.1415 57.0179 32.2555 57.2342 32.4307C57.4504 32.606 57.6156 32.8361 57.7125 33.097C57.8094 33.3579 57.8344 33.6401 57.785 33.914C57.8131 34.2472 57.7566 34.5821 57.6208 34.8877C57.485 35.1933 57.2742 35.4596 57.008 35.662C56.2498 35.9627 55.4303 36.0759 54.619 35.992C54.5093 36.4788 54.3372 36.9493 54.107 37.392C53.6481 38.1478 53.0606 38.8175 52.371 39.371V41.325L52.553 43.988C52.3841 44.0705 52.2101 44.142 52.032 44.202C51.7942 44.2971 51.5477 44.3688 51.296 44.416C50.7833 44.5312 50.2594 44.5892 49.734 44.589C49.2081 44.5975 48.6833 44.5393 48.172 44.416C47.9193 44.3727 47.6724 44.3009 47.436 44.202C47.2579 44.142 47.0838 44.0705 46.915 43.988L47.097 41.325V39.37C46.4061 38.8172 45.8172 38.1477 45.357 37.392C45.0977 36.9739 44.9465 36.498 44.917 36.007C44.0772 36.1241 43.2214 36.0042 42.446 35.661C42.1766 35.4608 41.9628 35.1952 41.8247 34.8894C41.6866 34.5835 41.6289 34.2474 41.657 33.913C41.6064 33.6385 41.6309 33.3554 41.7277 33.0936C41.8245 32.8318 41.9902 32.6009 42.2072 32.4253C42.4243 32.2498 42.6846 32.136 42.9609 32.096C43.2371 32.056 43.5191 32.0912 43.777 32.198Z" fill="#DA5742"/>
<path d="M47.075 41.332L47.009 42.355C47.9315 42.279 48.8396 42.0795 49.709 41.762C50.6524 41.4122 51.5433 40.9348 52.357 40.343V39.37C50.869 40.277 47.728 39.947 47.075 39.362V41.332Z" fill="#C43D28"/>
<path d="M47.017 39.42C46.9998 39.4027 46.9895 39.3798 46.9881 39.3555C46.9866 39.3312 46.994 39.3072 47.009 39.288C47.017 39.2786 47.0269 39.271 47.0379 39.2655C47.0489 39.26 47.061 39.2568 47.0733 39.256C47.0856 39.2553 47.098 39.257 47.1096 39.2611C47.1212 39.2652 47.1319 39.2717 47.141 39.28C48.0602 39.7434 49.0933 39.9322 50.117 39.824C50.129 39.8223 50.1412 39.8231 50.1529 39.8263C50.1646 39.8296 50.1755 39.8353 50.1848 39.843C50.1942 39.8508 50.2018 39.8604 50.2072 39.8712C50.2127 39.8821 50.2157 39.894 50.2163 39.9061C50.2169 39.9182 50.2149 39.9303 50.2105 39.9416C50.2061 39.9529 50.1994 39.9632 50.1908 39.9718C50.1822 39.9803 50.1719 39.987 50.1606 39.9913C50.1492 39.9957 50.1371 39.9976 50.125 39.997C50.0021 40.0176 49.8775 40.026 49.753 40.022C48.8021 40.0879 47.8524 39.8789 47.017 39.42Z" fill="#1F1F39"/>
<path d="M55.109 32.486C55.1152 33.1905 55.0515 33.894 54.919 34.586C54.861 34.96 54.655 35.66 54.555 36.023C55.3884 36.1199 56.2326 35.9947 57.002 35.66C57.2668 35.4564 57.4766 35.1898 57.6123 34.8846C57.748 34.5793 57.8053 34.245 57.779 33.912C57.8275 33.6383 57.8019 33.3566 57.7047 33.0962C57.6075 32.8358 57.4423 32.6061 57.2263 32.4312C57.0103 32.2562 56.7514 32.1423 56.4765 32.1013C56.2015 32.0603 55.9206 32.0937 55.663 32.198C55.4708 32.2787 55.2855 32.375 55.109 32.486Z" fill="#C43D28"/>
<path d="M45.34 37.392C45.348 37.408 45.364 37.433 45.373 37.449C45.29 37.285 45.207 37.12 45.133 36.963C45.191 37.095 45.257 37.235 45.34 37.392Z" fill="#C43D28"/>
<path d="M43.769 32.198C43.5111 32.0919 43.2294 32.0572 42.9534 32.0975C42.6774 32.1378 42.4174 32.2516 42.2006 32.427C41.9838 32.6024 41.8182 32.8329 41.7211 33.0944C41.624 33.3558 41.5991 33.6386 41.649 33.913C41.6215 34.2464 41.6787 34.5813 41.8152 34.8868C41.9517 35.1922 42.1632 35.4581 42.43 35.66C43.1827 36.0008 44.016 36.1235 44.835 36.014C44.5999 34.8455 44.4233 33.6661 44.306 32.48C44.1363 32.3693 43.9565 32.2749 43.769 32.198Z" fill="#C43D28"/>
<path d="M44.505 35.27C44.4472 34.8684 44.2847 34.489 44.034 34.17C43.6931 33.7317 43.2256 33.4087 42.695 33.245C42.673 33.2378 42.6543 33.2232 42.6419 33.2036C42.6295 33.1841 42.6242 33.1609 42.627 33.138C42.6343 33.1157 42.6492 33.0966 42.6691 33.0842C42.6891 33.0717 42.7127 33.0667 42.736 33.07C43.317 33.2345 43.8262 33.5891 44.182 34.077C44.4565 34.423 44.6296 34.8384 44.682 35.277C44.6836 35.2886 44.6827 35.3005 44.6792 35.3117C44.6757 35.323 44.6698 35.3333 44.6619 35.342C44.6539 35.3507 44.6442 35.3575 44.6333 35.362C44.6225 35.3665 44.6107 35.3685 44.599 35.368C44.5862 35.3683 44.5735 35.3659 44.5617 35.3611C44.5499 35.3562 44.5392 35.3489 44.5304 35.3397C44.5216 35.3305 44.5147 35.3195 44.5104 35.3075C44.506 35.2955 44.5042 35.2827 44.505 35.27Z" fill="#1F1F39"/>
<path d="M54.861 35.272C54.9172 34.8344 55.0899 34.42 55.361 34.072C55.7219 33.5915 56.2273 33.2392 56.803 33.067C56.8147 33.0632 56.8271 33.0621 56.8394 33.0637C56.8516 33.0653 56.8633 33.0696 56.8736 33.0763C56.884 33.083 56.8927 33.092 56.8991 33.1025C56.9056 33.1129 56.9097 33.1247 56.911 33.137C56.9148 33.1484 56.916 33.1604 56.9146 33.1723C56.9132 33.1842 56.9093 33.1957 56.903 33.2059C56.8967 33.2161 56.8882 33.2248 56.8782 33.2314C56.8682 33.238 56.8568 33.2423 56.845 33.244C56.3088 33.4001 55.8385 33.7274 55.506 34.176C55.2553 34.495 55.0928 34.8744 55.035 35.276C55.0366 35.2876 55.0357 35.2995 55.0322 35.3107C55.0287 35.322 55.0228 35.3323 55.0149 35.341C55.0069 35.3497 54.9972 35.3565 54.9863 35.361C54.9755 35.3655 54.9637 35.3676 54.952 35.367C54.9397 35.3669 54.9276 35.3643 54.9164 35.3594C54.9051 35.3546 54.895 35.3475 54.8865 35.3386C54.878 35.3298 54.8714 35.3193 54.867 35.3079C54.8626 35.2965 54.8606 35.2842 54.861 35.272Z" fill="#1F1F39"/>
<path d="M47.067 32.528C47.067 32.528 47.133 31.868 47.613 31.868C48.093 31.868 48.159 32.528 48.159 32.528" fill="white"/>
<path d="M51.257 32.528C51.257 32.528 51.323 31.868 51.803 31.868C52.283 31.868 52.349 32.528 52.349 32.528" fill="white"/>
<path d="M49.712 33.706C49.6528 33.846 49.6111 33.9928 49.588 34.143C49.5756 34.2053 49.5874 34.2701 49.621 34.324C49.621 34.332 49.629 34.332 49.629 34.34L49.646 34.356C49.6585 34.3661 49.6723 34.3745 49.687 34.381C49.7136 34.4004 49.7451 34.4118 49.778 34.414C49.928 34.4237 50.0776 34.3889 50.208 34.314C50.1565 34.3792 50.0917 34.4327 50.018 34.471C49.9398 34.5159 49.8499 34.5365 49.76 34.53C49.7141 34.525 49.6696 34.5111 49.629 34.489C49.6066 34.4802 49.5867 34.4662 49.571 34.448L49.546 34.423C49.5357 34.4136 49.5272 34.4024 49.521 34.39C49.4665 34.3105 49.4446 34.2131 49.46 34.118C49.4714 34.0321 49.495 33.9483 49.53 33.869C49.555 33.797 49.596 33.722 49.629 33.648C49.7031 33.5123 49.792 33.3852 49.894 33.269C49.827 33.417 49.77 33.569 49.712 33.706Z" fill="#1F1F39"/>
<path d="M49.133 35.677C49.2307 35.9029 49.4004 36.0902 49.6156 36.2096C49.8309 36.329 50.0796 36.3738 50.323 36.337C51.033 36.237 51.117 35.413 51.117 35.413" fill="white"/>
<path d="M47.686 34.341C47.5281 34.3231 47.3835 34.2441 47.2832 34.1209C47.1828 33.9978 47.1347 33.8402 47.149 33.682C47.1344 33.5236 47.1824 33.3658 47.2828 33.2424C47.3832 33.119 47.5279 33.0399 47.686 33.022C47.844 33.0399 47.9888 33.119 48.0892 33.2424C48.1896 33.3658 48.2376 33.5236 48.223 33.682C48.2373 33.8402 48.1892 33.9978 48.0888 34.1209C47.9884 34.2441 47.8439 34.3231 47.686 34.341Z" fill="#1F1F39"/>
<path d="M51.819 34.341C51.6611 34.3231 51.5165 34.2441 51.4162 34.1209C51.3158 33.9978 51.2676 33.8402 51.282 33.682C51.2674 33.5236 51.3154 33.3658 51.4158 33.2424C51.5162 33.119 51.6609 33.0399 51.819 33.022C51.977 33.0399 52.1218 33.119 52.2222 33.2424C52.3226 33.3658 52.3706 33.5236 52.356 33.682C52.3703 33.8402 52.3222 33.9978 52.2218 34.1209C52.1214 34.2441 51.9768 34.3231 51.819 34.341Z" fill="#1F1F39"/>
<path d="M54.5966 35.1835C54.5586 35.6278 53.9011 35.9349 53.1279 35.8688C52.3547 35.8026 51.7588 35.3883 51.7969 34.9439C51.8349 34.4996 52.4925 34.1925 53.2656 34.2586C54.0388 34.3248 54.6347 34.7391 54.5966 35.1835Z" fill="#C43D28"/>
<path d="M47.9004 35.1831C47.8625 35.6273 47.2053 35.9344 46.4324 35.8684C45.6595 35.8025 45.0638 35.3884 45.1017 34.9442C45.1396 34.5 45.7968 34.1929 46.5697 34.2589C47.3426 34.3248 47.9383 34.7389 47.9004 35.1831Z" fill="#C43D28"/>
<path d="M23.669 39.8C20.893 41.236 19.755 45.246 18.363 47.391C17.631 48.7607 16.5944 49.944 15.333 50.85C14.6111 51.3278 13.7729 51.6002 12.908 51.638C12.908 51.638 15.308 57.662 24.553 58.722C33.798 59.782 38.753 56.656 40.629 55.377C41.8364 54.5034 42.835 53.3729 43.553 52.067C43.553 52.067 39.201 51.104 37.967 47.102C36.733 43.1 34.991 40.273 32.294 39.826C30.9434 39.4923 29.5187 39.6409 28.266 40.246C27.6504 39.6857 26.8701 39.3395 26.0416 39.2591C25.2131 39.1787 24.3808 39.3685 23.669 39.8Z" fill="#1F1F39"/>
<path d="M36.97 71.847L39.553 78.747C41.7978 77.6855 43.8865 76.3215 45.761 74.693C45.306 73.362 44.912 72.355 44.912 72.355L36.97 71.847Z" fill="#F9D2DD"/>
<path d="M16.682 78.878L19.379 71.663L11.437 72.171C11.429 72.18 10.956 73.397 10.448 74.92C12.3348 76.5188 14.4324 77.8506 16.682 78.878Z" fill="#F9D2DD"/>
<path d="M36.97 71.847L37.863 74.194L45.743 74.684C45.314 73.447 44.912 72.355 44.912 72.355L36.97 71.847Z" fill="#F9ACC0"/>
<path d="M19.462 71.409L18.562 73.756L10.562 74.535C10.991 73.309 11.516 71.917 11.516 71.917L19.462 71.409Z" fill="#F9ACC0"/>
<path d="M19.134 61.042C15.667 62.609 11.857 67.473 10.457 73.186H16.657L15.632 78.373C19.4478 80.3216 23.6724 81.3348 27.957 81.329C32.2619 81.3347 36.5062 80.3142 40.338 78.352L39.257 73.86L45.526 73.3C45.526 73.309 44.081 65.253 37.479 61.444C32.189 58.389 24.02 58.844 19.134 61.042Z" fill="#3D5CFF"/>
<path d="M18.346 67.32L14.66 73.195L16.753 73.186L18.346 67.32Z" fill="#224BF4"/>
<path d="M39.264 73.86L41.129 73.702L36.97 66.584L39.264 73.86Z" fill="#224BF4"/>
<path d="M16.735 73.283C16.7132 73.2767 16.6946 73.2623 16.6829 73.2429C16.6712 73.2234 16.6673 73.2002 16.672 73.178L18.425 66.681C18.4313 66.6592 18.4457 66.6406 18.4651 66.6289C18.4846 66.6172 18.5078 66.6133 18.53 66.618C18.5514 66.6247 18.5696 66.6392 18.5809 66.6587C18.5922 66.6781 18.5958 66.701 18.591 66.723L16.84 73.218C16.8351 73.2353 16.8248 73.2505 16.8105 73.2615C16.7963 73.2725 16.779 73.2786 16.761 73.279L16.735 73.283Z" fill="#1F1F39"/>
<path d="M39.098 73.861L36.856 66.585C36.8523 66.5746 36.8507 66.5635 36.8513 66.5524C36.852 66.5414 36.8549 66.5306 36.8599 66.5207C36.8648 66.5108 36.8717 66.502 36.8802 66.4948C36.8886 66.4876 36.8984 66.4823 36.909 66.479C36.9194 66.4754 36.9303 66.474 36.9413 66.4747C36.9522 66.4754 36.9629 66.4784 36.9727 66.4833C36.9825 66.4883 36.9912 66.4951 36.9983 66.5035C37.0054 66.5118 37.0107 66.5215 37.014 66.532L39.251 73.808C39.2546 73.8184 39.256 73.8293 39.2553 73.8403C39.2546 73.8512 39.2516 73.8619 39.2467 73.8717C39.2417 73.8815 39.2349 73.8902 39.2265 73.8973C39.2182 73.9044 39.2085 73.9097 39.198 73.913C39.189 73.913 39.181 73.922 39.172 73.922C39.1549 73.9206 39.1387 73.914 39.1254 73.9031C39.1122 73.8922 39.1026 73.8775 39.098 73.861Z" fill="#1F1F39"/>
<path d="M34.685 48.241C34.4422 48.337 34.2127 48.4637 34.002 48.618C33.9998 48.1353 33.9735 47.653 33.923 47.173L32.189 47.155L32.084 46.113L31.874 47.155L29.221 47.129L29.107 46.113L28.923 47.12L24.548 47.076L24.37 45.255L24.125 47.076L22.794 47.067C22.794 47.067 22.777 47.794 22.777 48.608C22.5642 48.4573 22.3351 48.3312 22.094 48.232C21.8202 48.1194 21.5211 48.0827 21.2282 48.1257C20.9353 48.1687 20.6594 48.2898 20.4295 48.4764C20.1997 48.663 20.0244 48.9081 19.922 49.1859C19.8197 49.4637 19.7941 49.7639 19.848 50.055C19.8188 50.4088 19.8793 50.7642 20.0239 51.0884C20.1684 51.4127 20.3924 51.6952 20.675 51.91C21.4629 52.2817 22.3438 52.4099 23.205 52.278C23.2971 52.7981 23.4842 53.2967 23.757 53.749C24.243 54.5508 24.8654 55.2614 25.596 55.849V57.925L25.403 60.755C25.5818 60.8429 25.7662 60.9191 25.955 60.983C26.2066 61.0842 26.4675 61.1606 26.734 61.211C27.2771 61.3335 27.8322 61.3952 28.389 61.395C28.9462 61.4039 29.5023 61.3421 30.044 61.211C30.3115 61.1648 30.5728 61.0883 30.823 60.983C31.0118 60.9191 31.1962 60.8429 31.375 60.755L31.182 57.927V55.855C31.9126 55.2674 32.535 54.5568 33.021 53.755C33.2699 53.2861 33.4526 52.785 33.564 52.266C34.4232 52.3552 35.2913 52.2351 36.094 51.916C36.3785 51.7024 36.6042 51.4201 36.7497 51.0955C36.8952 50.7708 36.9559 50.4145 36.926 50.06C36.9789 49.7697 36.9527 49.4706 36.8503 49.1939C36.7479 48.9172 36.573 48.6731 36.344 48.4871C36.1149 48.3012 35.84 48.1802 35.5482 48.1369C35.2563 48.0936 34.9582 48.1296 34.685 48.241Z" fill="#F9D2DD"/>
<path d="M22.102 48.241C21.8284 48.1288 21.5297 48.0923 21.2372 48.1353C20.9446 48.1784 20.6691 48.2994 20.4394 48.4857C20.2098 48.672 20.0345 48.9166 19.932 49.194C19.8296 49.4713 19.8036 49.7712 19.857 50.062C19.828 50.4156 19.8886 50.7709 20.0331 51.0949C20.1777 51.4189 20.4015 51.7013 20.684 51.916C21.4673 52.2829 22.3405 52.4139 23.197 52.293C23.197 52.293 23.022 51.316 22.891 50.343C22.8161 49.7705 22.7807 49.1934 22.785 48.616C22.5722 48.4657 22.3431 48.3399 22.102 48.241Z" fill="#F9ACC0"/>
<path d="M34.01 48.616C34.0112 49.1633 33.9848 49.7103 33.931 50.255C33.818 51.253 33.59 52.269 33.59 52.269C34.4468 52.3563 35.3121 52.2352 36.112 51.916C36.3926 51.6994 36.6148 51.4163 36.7585 51.0922C36.9022 50.7682 36.9628 50.4134 36.935 50.06C36.9872 49.7695 36.9605 49.4702 36.8576 49.1935C36.7548 48.9168 36.5795 48.6728 36.3501 48.487C36.1208 48.3011 35.8457 48.1803 35.5537 48.137C35.2617 48.0937 34.9634 48.1296 34.69 48.241C34.4483 48.3366 34.2198 48.4626 34.01 48.616Z" fill="#F9ACC0"/>
<path d="M22.698 51.506C22.6305 51.0225 22.4405 50.5643 22.146 50.175C21.7536 49.6392 21.1971 49.2459 20.561 49.055C20.5337 49.0468 20.5103 49.0288 20.4956 49.0044C20.4808 48.98 20.4756 48.951 20.481 48.923C20.4892 48.8955 20.5074 48.872 20.532 48.8572C20.5566 48.8424 20.5858 48.8373 20.614 48.843C21.3026 49.0484 21.9032 49.4773 22.321 50.062C22.6441 50.4815 22.847 50.981 22.908 51.507C22.908 51.5349 22.8969 51.5616 22.8772 51.5812C22.8576 51.6009 22.8308 51.612 22.803 51.612C22.7752 51.612 22.7484 51.6009 22.7288 51.5812C22.7091 51.5616 22.698 51.5349 22.698 51.507V51.506Z" fill="#1F1F39"/>
<path d="M34.124 51.384C34.0974 51.371 34.077 51.3482 34.0671 51.3203C34.0572 51.2925 34.0586 51.2618 34.071 51.235C34.3602 50.6648 34.7271 50.1375 35.161 49.668C35.4557 49.3077 35.8502 49.0423 36.295 48.905C36.3089 48.9016 36.3235 48.9013 36.3375 48.9041C36.3516 48.9068 36.3649 48.9125 36.3766 48.9209C36.3883 48.9292 36.398 48.94 36.4052 48.9524C36.4123 48.9649 36.4167 48.9787 36.418 48.993C36.4214 49.007 36.4217 49.0215 36.4189 49.0355C36.4162 49.0496 36.4105 49.0629 36.4021 49.0746C36.3938 49.0863 36.383 49.096 36.3706 49.1032C36.3581 49.1103 36.3443 49.1147 36.33 49.116C35.9329 49.2505 35.5811 49.4929 35.314 49.816C34.8946 50.2669 34.5402 50.7741 34.261 51.323C34.2529 51.3431 34.2391 51.3604 34.2214 51.3728C34.2036 51.3852 34.1827 51.3923 34.161 51.393C34.148 51.3937 34.1352 51.3906 34.124 51.384Z" fill="#1F1F39"/>
<path d="M32.049 52.417C31.28 52.417 30.657 52.025 30.657 51.542C30.657 51.059 31.28 50.666 32.049 50.666C32.818 50.666 33.441 51.058 33.441 51.542C33.441 52.026 32.818 52.417 32.049 52.417Z" fill="#F9ACC0"/>
<path d="M24.685 52.417C23.916 52.417 23.293 52.025 23.293 51.542C23.293 51.059 23.916 50.666 24.685 50.666C25.454 50.666 26.077 51.058 26.077 51.542C26.077 52.026 25.454 52.417 24.685 52.417Z" fill="#F9ACC0"/>
<path d="M26.655 56.211C26.29 56.1595 25.9338 56.0586 25.596 55.911V57.934L25.508 59.194C25.7784 59.1734 26.0442 59.1117 26.296 59.011C27.8457 58.2795 29.2678 57.3037 30.508 56.121C29.2289 56.2649 27.9395 56.295 26.655 56.211Z" fill="#F9ACC0"/>
<path d="M24.975 47.935C25.1247 47.8287 25.309 47.783 25.491 47.807C25.6716 47.8203 25.8448 47.8841 25.991 47.991C26.0634 48.0451 26.1215 48.1162 26.16 48.1979C26.1985 48.2797 26.2164 48.3697 26.212 48.46C26.1544 48.3148 26.0484 48.194 25.912 48.118C25.7778 48.0511 25.6323 48.0097 25.483 47.996C25.3372 47.9805 25.1897 48.0014 25.054 48.057C24.9144 48.1302 24.7964 48.2389 24.712 48.372C24.7229 48.2848 24.7519 48.2009 24.7972 48.1256C24.8425 48.0504 24.9031 47.9854 24.975 47.935Z" fill="#1F1F39"/>
<path d="M30.841 48.057C30.9982 47.9704 31.1811 47.9424 31.357 47.978C31.4455 47.9895 31.5308 48.0184 31.608 48.063C31.6861 48.1069 31.7542 48.1665 31.808 48.238C31.9214 48.371 31.9851 48.5393 31.988 48.714C31.9194 48.5743 31.8243 48.4494 31.708 48.346C31.6572 48.297 31.5975 48.2583 31.532 48.232C31.497 48.223 31.471 48.206 31.436 48.197L31.331 48.171C31.188 48.1447 31.0408 48.1536 30.902 48.197C30.7512 48.2374 30.6148 48.3192 30.508 48.433C30.5658 48.2691 30.6852 48.1342 30.841 48.057Z" fill="#1F1F39"/>
<path d="M28.424 50.053C28.3307 50.2561 28.2657 50.4712 28.231 50.692C28.2236 50.7443 28.2206 50.7972 28.222 50.85C28.2256 50.9004 28.2344 50.9503 28.248 50.999C28.2719 51.0906 28.3285 51.1702 28.407 51.223C28.4984 51.279 28.6006 51.3148 28.707 51.328C28.8196 51.3471 28.934 51.3531 29.048 51.346C28.9368 51.3945 28.8172 51.4206 28.696 51.423C28.5688 51.4263 28.4426 51.3992 28.328 51.344C28.2062 51.2796 28.1149 51.1696 28.074 51.038C28.0535 50.9742 28.0418 50.9079 28.039 50.841C28.0376 50.7765 28.0406 50.7121 28.048 50.648C28.0887 50.4108 28.1717 50.1829 28.293 49.975C28.4063 49.7745 28.5444 49.589 28.704 49.423C28.608 49.633 28.512 49.843 28.424 50.053Z" fill="#1F1F39"/>
<path d="M26.2155 50.0725C26.2103 50.254 26.1342 50.4261 26.0035 50.5521C25.8729 50.6781 25.6981 50.7479 25.5166 50.7465C25.34 50.7046 25.1868 50.5952 25.0899 50.4417C24.9931 50.2882 24.9602 50.1029 24.9983 49.9254C25.0036 49.744 25.0796 49.5718 25.2103 49.4459C25.3409 49.3199 25.5158 49.2501 25.6972 49.2514C25.8738 49.2933 26.027 49.4028 26.1239 49.5563C26.2207 49.7097 26.2536 49.8951 26.2155 50.0725Z" fill="#1F1F39"/>
<path d="M31.8265 50.1885C31.8213 50.37 31.7452 50.5421 31.6145 50.6681C31.4839 50.7941 31.3091 50.8639 31.1276 50.8625C30.951 50.8206 30.7978 50.7112 30.7009 50.5577C30.6041 50.4042 30.5712 50.2189 30.6093 50.0414C30.6146 49.86 30.6906 49.6878 30.8213 49.5619C30.9519 49.4359 31.1268 49.3661 31.3082 49.3674C31.4848 49.4093 31.638 49.5188 31.7349 49.6723C31.8317 49.8257 31.8646 50.0111 31.8265 50.1885Z" fill="#1F1F39"/>
<path d="M28.205 52.181H29.011C29.177 52.181 29.37 52.181 29.633 52.19C29.6259 52.3146 29.5866 52.4351 29.519 52.54C29.4573 52.6438 29.3774 52.7357 29.283 52.811C29.0869 52.9689 28.8428 53.0553 28.591 53.056C28.4593 53.0549 28.3287 53.0312 28.205 52.986C28.082 52.9417 27.9689 52.8738 27.872 52.786C27.7772 52.6978 27.7028 52.59 27.654 52.47C27.6099 52.3493 27.6009 52.2186 27.628 52.093C27.8171 52.1405 28.0103 52.17 28.205 52.181Z" fill="#DA5742"/>
<path d="M25.184 55.823C25.1657 55.8048 25.1547 55.7805 25.153 55.7547C25.1514 55.7289 25.1592 55.7034 25.175 55.683C25.1925 55.6634 25.217 55.6515 25.2432 55.6498C25.2693 55.6482 25.2952 55.6568 25.315 55.674C26.2887 56.1652 27.3836 56.3648 28.468 56.249C28.4924 56.2478 28.5163 56.2564 28.5344 56.2728C28.5525 56.2892 28.5633 56.3121 28.5645 56.3365C28.5657 56.3609 28.5571 56.3848 28.5407 56.4029C28.5243 56.421 28.5014 56.4318 28.477 56.433C28.3469 56.4547 28.2149 56.4634 28.083 56.459C27.0756 56.5301 26.0691 56.3093 25.184 55.823Z" fill="#1F1F39"/>
<path opacity="0.55" d="M35.306 64.859C34.8042 64.6142 34.3827 64.2312 34.0911 63.755C33.7995 63.2788 33.6499 62.7293 33.66 62.171C33.5857 61.4366 33.6004 60.6959 33.704 59.965C33.7123 59.9192 33.7377 59.8783 33.775 59.8504C33.8123 59.8226 33.8587 59.8099 33.905 59.815C33.9504 59.8235 33.9909 59.8488 34.0186 59.8859C34.0462 59.923 34.0588 59.969 34.054 60.015C33.9563 60.7179 33.9432 61.43 34.015 62.136C34.0042 62.6306 34.1332 63.1183 34.3872 63.5429C34.6413 63.9675 35.01 64.3117 35.451 64.536C36.615 65.043 38.494 64.588 40.008 63.423C40.0264 63.4092 40.0473 63.3992 40.0696 63.3935C40.0918 63.3878 40.115 63.3865 40.1377 63.3897C40.1605 63.393 40.1824 63.4007 40.2022 63.4124C40.2219 63.4241 40.2392 63.4396 40.253 63.458C40.2668 63.4764 40.2768 63.4973 40.2825 63.5196C40.2882 63.5418 40.2895 63.565 40.2862 63.5877C40.283 63.6105 40.2753 63.6324 40.2636 63.6522C40.2519 63.6719 40.2364 63.6892 40.218 63.703C39.185 64.5522 37.9032 65.0413 36.567 65.096C36.1349 65.1036 35.7058 65.023 35.306 64.859Z" fill="#EAEAFF"/>
<path opacity="0.55" d="M44.124 70.122L43.914 70.022C40.446 68.415 37.172 66.891 36.561 63.144C36.4365 62.4377 36.4297 61.7156 36.541 61.007C36.5444 60.9841 36.5523 60.9621 36.5644 60.9424C36.5765 60.9227 36.5925 60.9056 36.6114 60.8923C36.6303 60.8789 36.6517 60.8695 36.6743 60.8646C36.6969 60.8598 36.7203 60.8596 36.743 60.864C36.7654 60.8677 36.7869 60.8759 36.8061 60.888C36.8253 60.9002 36.8419 60.916 36.855 60.9346C36.868 60.9532 36.8772 60.9743 36.882 60.9965C36.8868 61.0187 36.8872 61.0417 36.883 61.064C36.7778 61.7363 36.7866 62.4216 36.909 63.091C37.496 66.655 40.683 68.143 44.071 69.711L44.281 69.811C44.3224 69.8323 44.3544 69.8683 44.3707 69.912C44.387 69.9556 44.3864 70.0038 44.369 70.047C44.3256 70.1014 44.263 70.1372 44.194 70.147C44.1691 70.1441 44.1451 70.1356 44.124 70.122Z" fill="#EAEAFF"/>
<path opacity="0.55" d="M39.5 78.729L39.169 78.629C39.3462 77.9774 39.3745 77.2942 39.2518 76.6302C39.129 75.9661 38.8584 75.3382 38.46 74.793C37.1883 73.1806 35.4267 72.0255 33.441 71.502C32.3151 71.1274 31.1375 70.9314 29.951 70.921C29.1554 70.9164 28.3631 71.0248 27.598 71.243C26.9461 71.4285 26.3322 71.7281 25.785 72.128C26.416 72.19 27.085 72.236 27.675 72.276C31.075 72.522 34.294 72.753 35.058 75.044C35.2269 75.4698 35.2599 75.9374 35.1525 76.3827C35.0451 76.828 34.8025 77.2291 34.458 77.531C33.5624 78.2219 32.4534 78.5781 31.323 78.538H31.175C29.6821 78.5088 28.2117 78.1682 26.858 77.538C25.8889 77.1661 25.0638 76.4945 24.503 75.621C24.3057 75.2915 24.1872 74.9209 24.1568 74.538C24.1265 74.1552 24.1851 73.7705 24.328 73.414C24.4774 73.0348 24.6973 72.6874 24.976 72.39C23.335 72.19 21.304 71.795 20.16 70.59C19.8011 70.202 19.5382 69.7353 19.3921 69.2274C19.2461 68.7194 19.221 68.1844 19.319 67.665C18.5519 67.6455 17.7862 67.5871 17.025 67.49C15.7654 67.3645 14.5471 66.9722 13.451 66.339L13.627 66.033C14.6786 66.6421 15.8492 67.0173 17.059 67.133C17.8289 67.2301 18.6032 67.2885 19.379 67.308C19.693 66.0662 20.3271 64.9283 21.218 64.008C22.0224 63.1067 23.0529 62.4367 24.203 62.067C24.5614 61.9604 24.9331 61.9049 25.307 61.902C26.0389 61.8955 26.7488 62.1525 27.307 62.626C27.5839 62.8412 27.7781 63.1453 27.857 63.487C27.9358 63.8287 27.8945 64.1872 27.74 64.502C27.3678 65.1191 26.8765 65.6558 26.2946 66.081C25.7127 66.5061 25.052 66.811 24.351 66.978C22.8485 67.4565 21.2787 67.6902 19.702 67.67H19.676C19.5773 68.1422 19.5918 68.6311 19.7181 69.0967C19.8445 69.5623 20.0791 69.9914 20.403 70.349C21.521 71.524 23.603 71.892 25.288 72.082C26.6184 71.0471 28.2718 70.5158 29.956 70.582C31.1795 70.5912 32.3942 70.7912 33.556 71.175C35.6114 71.7285 37.4333 72.9303 38.751 74.602C39.1728 75.1913 39.4585 75.867 39.5874 76.5802C39.7162 77.2934 39.685 78.0263 39.496 78.726L39.5 78.729ZM25.4 72.442C25.0672 72.7449 24.8067 73.1188 24.638 73.536C24.104 74.928 24.985 76.306 26.994 77.222C28.3279 77.8342 29.7736 78.1651 31.241 78.194C32.3093 78.2621 33.3653 77.935 34.208 77.275C34.5036 77.019 34.7115 76.6769 34.8027 76.2966C34.8938 75.9164 34.8635 75.5171 34.716 75.155C34.023 73.083 30.923 72.861 27.641 72.625C26.872 72.58 26.118 72.518 25.4 72.441V72.442ZM25.236 62.267C24.501 62.315 23.7843 62.5168 23.1322 62.8595C22.4802 63.2021 21.9074 63.6779 21.451 64.256C20.6266 65.1149 20.0341 66.1692 19.729 67.32C21.2527 67.3409 22.7696 67.1132 24.22 66.646C25.536 66.3256 26.6759 65.5063 27.399 64.361C27.5247 64.1176 27.5602 63.8377 27.4992 63.5706C27.4383 63.3036 27.2848 63.0667 27.066 62.902C26.5505 62.4802 25.902 62.2552 25.236 62.267Z" fill="#EAEAFF"/>
<path d="M75.09 48.448C74.855 48.2948 74.5848 48.204 74.305 48.184C74.006 48.1395 73.7006 48.1854 73.428 48.316C73.3991 48.3318 73.3654 48.3363 73.3333 48.3285C73.3013 48.3208 73.2734 48.3013 73.255 48.274C73.2388 48.2468 73.234 48.2143 73.2417 48.1835C73.2494 48.1528 73.2689 48.1264 73.296 48.11C73.6155 47.9511 73.9759 47.8936 74.329 47.945C74.6578 47.969 74.9744 48.0801 75.246 48.267C75.2701 48.2884 75.2852 48.3181 75.2884 48.3502C75.2915 48.3822 75.2825 48.4143 75.263 48.44C75.2379 48.4621 75.2054 48.4739 75.172 48.473C75.1429 48.4723 75.1145 48.4636 75.09 48.448Z" fill="#1F1F39"/>
<path d="M68.576 48.431C68.5565 48.4053 68.5475 48.3732 68.5506 48.3412C68.5538 48.3091 68.5689 48.2794 68.593 48.258C68.8637 48.0694 69.1808 47.9584 69.51 47.937C69.8634 47.8854 70.2242 47.9429 70.544 48.102C70.5719 48.1199 70.5918 48.1479 70.5994 48.1802C70.6071 48.2125 70.6019 48.2465 70.585 48.275C70.5671 48.3032 70.5388 48.3232 70.5063 48.3309C70.4738 48.3386 70.4396 48.3332 70.411 48.316C70.1383 48.1869 69.8336 48.141 69.535 48.184C69.2552 48.2039 68.985 48.2948 68.75 48.448C68.7284 48.4635 68.7026 48.4722 68.676 48.473C68.6386 48.4717 68.6031 48.4567 68.576 48.431Z" fill="#1F1F39"/>
<path d="M79.702 72.479L82.14 78.979C84.2593 77.9789 86.2316 76.6933 88.002 75.158C87.572 73.905 87.202 72.958 87.202 72.958L79.702 72.479Z" fill="#F9D2DD"/>
<path d="M60.551 79.099L63.097 72.306L55.6 72.784C55.592 72.792 55.145 73.938 54.666 75.373C56.4478 76.8786 58.428 78.1323 60.551 79.099Z" fill="#F9D2DD"/>
<path d="M79.702 72.479L80.545 74.688L87.984 75.15C87.579 73.988 87.202 72.957 87.202 72.957L79.702 72.479Z" fill="#F9ACC0"/>
<path d="M63.173 72.067L62.328 74.276L54.773 75.01C55.178 73.856 55.673 72.545 55.673 72.545L63.173 72.067Z" fill="#F9ACC0"/>
<path d="M62.865 62.305C59.592 63.781 55.996 68.365 54.674 73.74H60.526L59.559 78.62C63.1631 80.4569 67.1518 81.4121 71.197 81.407C75.2596 81.4135 79.2654 80.4537 82.884 78.607L81.859 74.378L87.777 73.85C87.777 73.858 86.413 66.274 80.177 62.687C75.189 59.807 67.474 60.24 62.865 62.305Z" fill="#3D5CFF"/>
<path d="M62.122 68.217L58.642 73.749L60.617 73.741L62.122 68.217Z" fill="#224BF4"/>
<path d="M81.868 74.375L83.628 74.224L79.702 67.524L81.868 74.375Z" fill="#224BF4"/>
<g opacity="0.451">
<g opacity="0.451">
<path opacity="0.451" d="M68.601 73.377C68.3729 73.3764 68.1501 73.3082 67.9607 73.1811C67.7713 73.0539 67.6239 72.8735 67.537 72.6625C67.4501 72.4516 67.4277 72.2197 67.4725 71.996C67.5174 71.7724 67.6275 71.567 67.789 71.4059C67.9505 71.2449 68.1562 71.1352 68.3799 71.091C68.6037 71.0467 68.8356 71.0697 69.0463 71.1571C69.257 71.2446 69.437 71.3925 69.5637 71.5822C69.6904 71.7719 69.758 71.9949 69.758 72.223C69.7575 72.5294 69.6353 72.8231 69.4183 73.0395C69.2014 73.2559 68.9074 73.3773 68.601 73.377Z" fill="#F9EDC7"/>
<path opacity="0.451" d="M74.015 71.192C73.7869 71.1914 73.5641 71.1232 73.3747 70.9961C73.1853 70.8689 73.0379 70.6885 72.951 70.4775C72.8641 70.2666 72.8417 70.0347 72.8865 69.811C72.9314 69.5874 73.0415 69.382 73.203 69.2209C73.3646 69.0599 73.5702 68.9502 73.794 68.906C74.0177 68.8617 74.2496 68.8847 74.4603 68.9721C74.671 69.0596 74.851 69.2075 74.9777 69.3972C75.1044 69.5869 75.172 69.8099 75.172 70.038C75.1715 70.3444 75.0493 70.6381 74.8323 70.8545C74.6154 71.0709 74.3214 71.1923 74.015 71.192Z" fill="#F9EDC7"/>
<path opacity="0.451" d="M64.593 67.318C64.3649 67.3174 64.142 67.2492 63.9527 67.1221C63.7633 66.9949 63.6158 66.8145 63.529 66.6035C63.4421 66.3926 63.4197 66.1607 63.4645 65.937C63.5094 65.7134 63.6195 65.508 63.781 65.3469C63.9425 65.1858 64.1482 65.0762 64.3719 65.032C64.5957 64.9877 64.8276 65.0107 65.0383 65.0981C65.249 65.1856 65.429 65.3335 65.5557 65.5232C65.6824 65.7129 65.75 65.9359 65.75 66.164C65.7494 66.4704 65.6273 66.7641 65.4103 66.9805C65.1934 67.1969 64.8994 67.3183 64.593 67.318Z" fill="#F9EDC7"/>
<path opacity="0.451" d="M64.593 78.695C64.3649 78.6944 64.142 78.6262 63.9527 78.499C63.7633 78.3719 63.6158 78.1914 63.529 77.9805C63.4421 77.7696 63.4197 77.5377 63.4645 77.314C63.5094 77.0904 63.6195 76.885 63.781 76.7239C63.9425 76.5628 64.1482 76.4532 64.3719 76.4089C64.5957 76.3647 64.8276 76.3877 65.0383 76.4751C65.249 76.5626 65.429 76.7105 65.5557 76.9002C65.6824 77.0899 65.75 77.3129 65.75 77.541C65.7494 77.8474 65.6273 78.1411 65.4103 78.3575C65.1934 78.5739 64.8994 78.6953 64.593 78.695Z" fill="#F9EDC7"/>
<path opacity="0.451" d="M74.759 79.849C74.5309 79.8484 74.3081 79.7802 74.1187 79.6531C73.9293 79.5259 73.7819 79.3455 73.695 79.1346C73.6081 78.9236 73.5857 78.6917 73.6305 78.468C73.6754 78.2444 73.7855 78.039 73.947 77.878C74.1086 77.7169 74.3142 77.6073 74.538 77.563C74.7617 77.5187 74.9936 77.5417 75.2043 77.6291C75.415 77.7166 75.595 77.8645 75.7217 78.0542C75.8484 78.2439 75.916 78.4669 75.916 78.695C75.9155 79.0014 75.7933 79.2951 75.5763 79.5115C75.3594 79.7279 75.0654 79.8493 74.759 79.849Z" fill="#F9EDC7"/>
<path opacity="0.451" d="M84.016 74.985C83.7879 74.9844 83.5651 74.9162 83.3757 74.7891C83.1863 74.6619 83.0389 74.4815 82.952 74.2705C82.8651 74.0596 82.8427 73.8277 82.8875 73.604C82.9324 73.3804 83.0425 73.175 83.204 73.0139C83.3656 72.8529 83.5712 72.7432 83.795 72.699C84.0187 72.6547 84.2506 72.6777 84.4613 72.7651C84.672 72.8526 84.852 73.0005 84.9787 73.1902C85.1054 73.3799 85.173 73.6029 85.173 73.831C85.1725 74.1374 85.0503 74.4311 84.8333 74.6475C84.6164 74.8639 84.3224 74.9853 84.016 74.985Z" fill="#F9EDC7"/>
<path opacity="0.451" d="M56.906 70.615C56.6779 70.6144 56.4551 70.5462 56.2657 70.4191C56.0763 70.2919 55.9289 70.1115 55.842 69.9005C55.7551 69.6896 55.7327 69.4577 55.7775 69.234C55.8224 69.0104 55.9325 68.805 56.094 68.6439C56.2555 68.4829 56.4612 68.3732 56.6849 68.329C56.9087 68.2847 57.1406 68.3077 57.3513 68.3951C57.562 68.4826 57.742 68.6305 57.8687 68.8202C57.9954 69.0099 58.063 69.2329 58.063 69.461C58.0625 69.7674 57.9403 70.0611 57.7233 70.2775C57.5064 70.4939 57.2124 70.6153 56.906 70.615Z" fill="#F9EDC7"/>
<path opacity="0.451" d="M84.429 68.225C84.2009 68.2244 83.9781 68.1562 83.7887 68.0291C83.5993 67.9019 83.4519 67.7215 83.365 67.5105C83.2781 67.2996 83.2557 67.0677 83.3005 66.844C83.3454 66.6204 83.4555 66.415 83.617 66.2539C83.7786 66.0929 83.9842 65.9832 84.208 65.939C84.4317 65.8947 84.6636 65.9177 84.8743 66.0051C85.085 66.0926 85.265 66.2405 85.3917 66.4302C85.5184 66.6199 85.586 66.8429 85.586 67.071C85.5855 67.3774 85.4633 67.6711 85.2463 67.8875C85.0294 68.1039 84.7354 68.2253 84.429 68.225Z" fill="#F9EDC7"/>
<path opacity="0.451" d="M77.321 63.278C77.0929 63.2774 76.8701 63.2092 76.6807 63.0821C76.4913 62.9549 76.3439 62.7745 76.257 62.5635C76.1701 62.3526 76.1477 62.1207 76.1925 61.897C76.2374 61.6734 76.3475 61.468 76.509 61.3069C76.6706 61.1459 76.8762 61.0362 77.1 60.992C77.3237 60.9477 77.5556 60.9707 77.7663 61.0581C77.977 61.1456 78.157 61.2935 78.2837 61.4832C78.4104 61.6729 78.478 61.8959 78.478 62.124C78.4775 62.4304 78.3553 62.7241 78.1383 62.9405C77.9214 63.1569 77.6274 63.2783 77.321 63.278Z" fill="#F9EDC7"/>
</g>
</g>
<path d="M60.6 73.831C60.5795 73.8249 60.5621 73.8114 60.5511 73.793C60.5402 73.7747 60.5366 73.7529 60.541 73.732L62.196 67.615C62.2021 67.5945 62.2156 67.5771 62.234 67.5662C62.2523 67.5552 62.2741 67.5516 62.295 67.556C62.3155 67.5623 62.3328 67.5761 62.3436 67.5946C62.3544 67.6132 62.3577 67.6351 62.353 67.656L60.7 73.774C60.6955 73.7903 60.6859 73.8048 60.6726 73.8152C60.6592 73.8256 60.6429 73.8315 60.626 73.832L60.6 73.831Z" fill="#1F1F39"/>
<path d="M81.71 74.375L79.594 67.52C79.5904 67.5102 79.5889 67.4997 79.5895 67.4893C79.5901 67.4788 79.5928 67.4686 79.5975 67.4592C79.6022 67.4499 79.6087 67.4416 79.6167 67.4348C79.6247 67.4281 79.634 67.423 79.644 67.42C79.6538 67.4164 79.6642 67.4148 79.6746 67.4154C79.6849 67.4159 79.6951 67.4185 79.7045 67.4231C79.7138 67.4277 79.7221 67.4341 79.7289 67.442C79.7357 67.4499 79.7408 67.4591 79.744 67.469L81.867 74.325C81.8706 74.3348 81.8721 74.3453 81.8715 74.3557C81.8709 74.3662 81.8682 74.3764 81.8635 74.3857C81.8588 74.3951 81.8523 74.4034 81.8443 74.4102C81.8363 74.4169 81.827 74.422 81.817 74.425C81.8 74.425 81.792 74.433 81.784 74.433C81.7671 74.4325 81.7507 74.4266 81.7374 74.4162C81.7241 74.4058 81.7145 74.3913 81.71 74.375Z" fill="#1F1F39"/>
<path d="M63.353 43.41C64.427 41.267 65.915 41.102 65.915 41.102C66.4696 39.9725 67.3467 39.0329 68.4353 38.4019C69.5239 37.7708 70.7752 37.4768 72.031 37.557C76.742 37.557 77.817 42.174 77.817 42.174C78.4141 42.3607 78.9363 42.7328 79.3077 43.2362C79.6792 43.7397 79.8807 44.3483 79.883 44.974C79.8 47.117 77.8 52.039 77.8 52.039L64.592 49.429C64.592 49.429 62.278 45.557 63.353 43.41Z" fill="white"/>
<path d="M63.593 48.571C63.2845 48.7492 63.0213 48.9961 62.8238 49.2926C62.6263 49.589 62.4998 49.927 62.4541 50.2803C62.4084 50.6336 62.4448 50.9927 62.5605 51.3296C62.6762 51.6665 62.868 51.9722 63.121 52.223C64.138 53.394 66.7 53.123 66.7 53.123L66.014 48.876C65.6772 48.6081 65.2732 48.4379 64.8462 48.3841C64.4193 48.3303 63.9857 48.395 63.593 48.571Z" fill="#F9ACC0"/>
<path d="M79.743 48.571C80.0506 48.75 80.3129 48.9973 80.5097 49.2937C80.7066 49.5902 80.8326 49.928 80.8781 50.281C80.9236 50.6339 80.8874 50.9926 80.7723 51.3293C80.6571 51.6661 80.4661 51.9718 80.214 52.223C79.197 53.394 76.635 53.122 76.635 53.122L77.321 48.876C77.6579 48.6079 78.062 48.4376 78.4892 48.3838C78.9164 48.33 79.3501 48.3948 79.743 48.571Z" fill="#F9ACC0"/>
<path d="M66.229 52.256C66.1653 51.8007 65.9859 51.3693 65.708 51.003C65.3373 50.498 64.8121 50.1277 64.212 49.948C64.1861 49.9405 64.164 49.9236 64.15 49.9007C64.1359 49.8778 64.1309 49.8504 64.136 49.824C64.1435 49.7977 64.1607 49.7753 64.184 49.7612C64.2074 49.7471 64.2353 49.7424 64.262 49.748C64.9114 49.941 65.4781 50.3445 65.873 50.895C66.1778 51.2896 66.3694 51.7597 66.427 52.255C66.427 52.2815 66.4164 52.307 66.3977 52.3257C66.3789 52.3445 66.3535 52.355 66.327 52.355C66.3005 52.355 66.275 52.3445 66.2563 52.3257C66.2375 52.307 66.227 52.2815 66.227 52.255L66.229 52.256Z" fill="#1F1F39"/>
<path d="M77.428 52.14C77.4029 52.1279 77.3837 52.1064 77.3743 52.0802C77.365 52.054 77.3663 52.0252 77.378 52C77.6526 51.4625 78.0006 50.9657 78.412 50.524C78.6893 50.1855 79.06 49.9358 79.478 49.806C79.491 49.8037 79.5043 49.804 79.5172 49.8069C79.5301 49.8098 79.5423 49.8152 79.5531 49.8228C79.5639 49.8304 79.573 49.8401 79.58 49.8513C79.5871 49.8625 79.5918 49.875 79.594 49.888C79.5966 49.9012 79.5964 49.9148 79.5936 49.928C79.5908 49.9412 79.5854 49.9537 79.5776 49.9647C79.5699 49.9757 79.56 49.985 79.5485 49.9921C79.5371 49.9992 79.5243 50.004 79.511 50.006C79.1363 50.1328 78.8042 50.3613 78.552 50.666C78.1574 51.0899 77.8238 51.5669 77.561 52.083C77.5536 52.1016 77.5409 52.1178 77.5246 52.1295C77.5083 52.1412 77.489 52.1479 77.469 52.149C77.4547 52.1509 77.4402 52.1477 77.428 52.14Z" fill="#1F1F39"/>
<path d="M66.427 53.113C66.8558 54.582 67.6996 55.8959 68.857 56.897L68.518 61.58C68.518 61.58 68.989 62.611 71.485 62.611C74.185 62.611 74.932 61.58 74.932 61.58L74.8 56.972C74.8 56.972 76.486 56.7 77.3 53.666C77.7869 51.8031 77.9242 49.866 77.705 47.953C77.705 47.953 73.717 48.571 72.37 46.922C71.023 45.273 69.667 43.616 67.708 44.441C67.1475 44.7159 66.6927 45.1672 66.4136 45.7256C66.1345 46.2841 66.0464 46.9187 66.163 47.532C65.9357 49.3939 66.025 51.2808 66.427 53.113Z" fill="#F9D2DD"/>
<path d="M69.734 50.912C69.557 50.8957 69.3936 50.8104 69.2791 50.6745C69.1645 50.5387 69.1081 50.3632 69.122 50.186C69.1084 50.009 69.1649 49.8338 69.2794 49.6981C69.3939 49.5624 69.5572 49.4773 69.734 49.461C69.9108 49.4773 70.074 49.5624 70.1885 49.6981C70.303 49.8338 70.3596 50.009 70.346 50.186C70.3599 50.3632 70.3034 50.5387 70.1889 50.6745C70.0744 50.8104 69.9109 50.8957 69.734 50.912Z" fill="#1F1F39"/>
<path d="M74.189 50.912C74.012 50.8957 73.8486 50.8104 73.7341 50.6745C73.6195 50.5387 73.5631 50.3632 73.577 50.186C73.5634 50.009 73.6199 49.8338 73.7344 49.6981C73.8489 49.5624 74.0122 49.4773 74.189 49.461C74.3658 49.4773 74.529 49.5624 74.6435 49.6981C74.7581 49.8338 74.8146 50.009 74.801 50.186C74.8149 50.3632 74.7585 50.5387 74.6439 50.6745C74.5294 50.8104 74.3659 50.8957 74.189 50.912Z" fill="#1F1F39"/>
<path d="M71.493 51.184C71.7 51.596 72.237 51.39 72.237 51.39C72.237 51.39 71.7 51.25 71.7 50.838C71.7 50.426 71.659 49.016 71.659 49.016C71.4835 49.7244 71.4274 50.4571 71.493 51.184Z" fill="#1F1F39"/>
<path d="M68.667 60.31C68.708 60.297 73.139 58.587 73.973 57.804C73.973 57.326 73.99 56.971 73.99 56.971C73.1176 57.3436 72.164 57.4855 71.221 57.383C70.4078 57.3869 69.6027 57.2214 68.857 56.897C68.867 57.317 68.708 60.145 68.667 60.31Z" fill="#F9ACC0"/>
<path d="M75.304 52.701C74.578 52.701 73.99 52.332 73.99 51.876C73.99 51.42 74.578 51.052 75.304 51.052C76.03 51.052 76.618 51.421 76.618 51.876C76.618 52.331 76.03 52.701 75.304 52.701Z" fill="#F9ACC0"/>
<path d="M68.353 52.701C67.627 52.701 67.039 52.332 67.039 51.876C67.039 51.42 67.627 51.052 68.353 51.052C69.079 51.052 69.667 51.421 69.667 51.876C69.667 52.331 69.079 52.701 68.353 52.701Z" fill="#F9ACC0"/>
<path d="M69.684 53.743C70.7478 54.0691 71.8799 54.1018 72.9608 53.8378C74.0417 53.5738 75.0313 53.0228 75.825 52.243C76.792 51.163 76.825 47.692 76.825 47.692L77.833 47.362C77.833 47.362 78.102 53.823 76.792 55.562C76.1824 56.3404 75.3843 56.9504 74.4731 57.3342C73.5619 57.718 72.5678 57.8628 71.585 57.755C70.7446 57.7411 69.9196 57.5276 69.178 57.132C68.4365 56.7365 67.7996 56.1702 67.32 55.48C66.002 53.743 65.502 47.697 65.502 47.697L66.163 46.543C66.163 46.543 66.702 52.99 69.684 53.743Z" fill="white"/>
<path d="M71.947 52.479C72.3016 52.3306 72.6354 52.1366 72.94 51.902C72.94 51.902 73.105 51.82 73.188 51.902C73.1249 52.1469 73.0114 52.376 72.8549 52.5747C72.6984 52.7733 72.5023 52.9373 72.279 53.056C72.0555 53.13 71.8141 53.1299 71.5906 53.0557C71.3672 52.9815 71.1737 52.8371 71.039 52.644C70.791 52.314 71.122 52.396 71.122 52.396C71.3872 52.4854 71.6692 52.5138 71.947 52.479Z" fill="#F95368"/>
</svg>
