<svg width="36" height="51" viewBox="0 0 36 51" fill="none" xmlns="http://www.w3.org/2000/svg">
<path d="M18 36.8789C27.9411 36.8789 36 28.82 36 18.8789C36 8.93778 27.9411 0.878906 18 0.878906C8.05887 0.878906 0 8.93778 0 18.8789C0 28.82 8.05887 36.8789 18 36.8789Z" fill="#EAEAFF"/>
<path d="M18 36.8789C14.4399 36.8789 10.9598 35.8232 7.99974 33.8454C5.03966 31.8675 2.73255 29.0563 1.37018 25.7672C0.00779915 22.4781 -0.348661 18.8589 0.345873 15.3673C1.04041 11.8756 2.75474 8.66834 5.27209 6.15099C7.78943 3.63365 10.9967 1.91931 14.4884 1.22478C17.98 0.530245 21.5992 0.886705 24.8883 2.24908C28.1774 3.61146 30.9886 5.91857 32.9665 8.87865C34.9443 11.8387 36 15.3189 36 18.8789C36 23.6528 34.1036 28.2312 30.7279 31.6068C27.3523 34.9825 22.7739 36.8789 18 36.8789Z" fill="#FFEBF0"/>
<path d="M20.2 14.8889C20.5167 14.728 20.8763 14.6716 21.227 14.7279C21.5564 14.7516 21.8735 14.8623 22.146 15.0489" fill="white"/>
<path d="M17.076 14.8889C16.7593 14.728 16.3998 14.6716 16.049 14.7279C15.7195 14.7519 15.4024 14.863 15.13 15.0499" fill="white"/>
<path d="M27.038 41.1759L29.671 48.2099C31.9596 47.1275 34.0891 45.7365 36 44.0759C35.538 42.7199 35.138 41.6939 35.138 41.6939L27.038 41.1759Z" fill="#DA5742"/>
<path d="M6.356 48.3439L9.1 40.9889L1 41.5069C1 41.5159 0.518 42.7559 0 44.3099C1.92373 45.9396 4.06243 47.2969 6.356 48.3439Z" fill="#DA5742"/>
<path d="M27.038 41.1759L27.948 43.5679L35.982 44.0679C35.545 42.8099 35.138 41.6939 35.138 41.6939L27.038 41.1759Z" fill="#C43D28"/>
<path d="M9.18503 40.7299L8.27503 43.1219L0.116028 43.9169C0.553028 42.6669 1.08903 41.2479 1.08903 41.2479L9.18503 40.7299Z" fill="#C43D28"/>
<path d="M8.84701 30.1569C5.31001 31.7679 1.43801 36.7309 0.0100098 42.5509H6.33001L5.28501 47.8349C9.17882 49.8251 13.4901 50.8609 17.863 50.8569C22.253 50.8642 26.581 49.8205 30.485 47.8129L29.378 43.2339L35.769 42.6629C35.76 42.6629 34.287 34.4509 27.548 30.5629C22.147 27.4569 13.828 27.9209 8.84701 30.1569Z" fill="#3D5CFF"/>
<path d="M8.05201 36.5609L4.29401 42.5509L6.42701 42.5419L8.05201 36.5609Z" fill="#224BF4"/>
<path d="M29.377 43.2299L31.277 43.0689L27.038 35.8119L29.377 43.2299Z" fill="#224BF4"/>
<path d="M6.40901 42.6409C6.38686 42.6344 6.36798 42.6197 6.35612 42.5999C6.34427 42.5801 6.3403 42.5565 6.34501 42.5339L8.13201 35.9099C8.13856 35.8877 8.1532 35.8689 8.17302 35.857C8.19284 35.8452 8.2164 35.8412 8.23901 35.8459C8.2608 35.8528 8.27921 35.8676 8.29067 35.8874C8.30213 35.9072 8.30582 35.9305 8.30101 35.9529L6.51601 42.5779C6.51095 42.5954 6.50047 42.6108 6.4861 42.6219C6.47173 42.6331 6.45419 42.6394 6.43601 42.6399L6.40901 42.6409Z" fill="#1F1F39"/>
<path d="M29.207 43.2289L26.922 35.8119C26.9183 35.8014 26.9167 35.7903 26.9173 35.7791C26.918 35.768 26.9209 35.7571 26.9258 35.7472C26.9307 35.7372 26.9377 35.7283 26.9461 35.721C26.9546 35.7138 26.9644 35.7083 26.975 35.7049C26.9855 35.7012 26.9966 35.6996 27.0078 35.7002C27.0189 35.7009 27.0298 35.7038 27.0398 35.7087C27.0497 35.7136 27.0586 35.7205 27.0659 35.729C27.0731 35.7375 27.0786 35.7473 27.082 35.7579L29.376 43.1759C29.3797 43.1865 29.3813 43.1977 29.3806 43.2088C29.3799 43.22 29.3769 43.2309 29.3718 43.2409C29.3668 43.2509 29.3598 43.2598 29.3512 43.267C29.3427 43.2742 29.3327 43.2796 29.322 43.2829C29.304 43.2829 29.295 43.2919 29.286 43.2919C29.2679 43.2911 29.2505 43.2845 29.2363 43.2732C29.2221 43.2619 29.2118 43.2464 29.207 43.2289Z" fill="#1F1F39"/>
<path d="M11.607 15.5939C11.607 15.5939 9.51802 15.5939 8.95602 14.6839C8.80001 14.4368 8.74039 14.1409 8.78852 13.8526C8.83666 13.5644 8.98918 13.3039 9.21702 13.1209C8.90869 12.7174 8.69954 12.247 8.60643 11.7478C8.51333 11.2486 8.53888 10.7344 8.68102 10.2469C8.86985 9.79754 9.20636 9.42606 9.63493 9.19387C10.0635 8.96167 10.5585 8.88267 11.038 8.9699C11.038 8.9699 9.83302 6.8369 11.307 5.2389C13.107 3.2749 16.127 5.2389 16.127 5.2389C16.1851 4.88161 16.3688 4.55678 16.6451 4.32286C16.9214 4.08895 17.272 3.96131 17.634 3.9629C18.934 3.9629 18.934 4.7489 18.934 4.7489C19.3106 4.28234 19.8184 3.93932 20.3918 3.7641C20.9652 3.58889 21.578 3.58951 22.151 3.7659C25.159 4.6499 24.641 7.9879 24.641 7.9879C24.8176 7.95092 24.9999 7.94967 25.177 7.98422C25.3541 8.01877 25.5225 8.08843 25.6722 8.18908C25.822 8.28973 25.9501 8.41934 26.049 8.57027C26.1479 8.7212 26.2155 8.89041 26.248 9.0679C26.3668 9.43499 26.3395 9.83372 26.1719 10.1812C26.0043 10.5287 25.7092 10.7983 25.348 10.9339C25.348 10.9339 26.562 10.7339 26.865 11.7199C26.9945 12.1321 26.9864 12.5752 26.8421 12.9825C26.6978 13.3898 26.4251 13.7391 26.065 13.9779L25.36 17.4149L11.899 17.9679L11.607 15.5939Z" fill="#1F1F39"/>
<path d="M9.27902 15.2889C7.82402 15.9589 7.67202 17.9759 8.77002 19.2439C9.86802 20.5119 12.635 20.2169 12.635 20.2169L12.233 15.6819C11.8073 15.3863 11.3173 15.1965 10.8036 15.1281C10.2898 15.0598 9.76719 15.1149 9.27902 15.2889Z" fill="#C43D28"/>
<path d="M26.7201 15.2899C28.1751 15.9589 28.3271 17.9769 27.2291 19.2439C26.1311 20.5109 23.3641 20.2169 23.3641 20.2169L24.1051 15.6199C24.4685 15.3299 24.9049 15.1457 25.3662 15.0875C25.8275 15.0293 26.296 15.0993 26.7201 15.2899Z" fill="#C43D28"/>
<path d="M24.15 19.2789C24.2167 18.7436 24.4237 18.2354 24.75 17.8059C25.1784 17.2123 25.7891 16.7751 26.489 16.5609C26.5031 16.5567 26.5179 16.5555 26.5324 16.5573C26.547 16.5591 26.561 16.564 26.5736 16.5715C26.5862 16.579 26.5971 16.589 26.6056 16.601C26.6141 16.6129 26.62 16.6265 26.623 16.6409C26.6272 16.6549 26.6284 16.6697 26.6266 16.6843C26.6248 16.6988 26.62 16.7129 26.6124 16.7254C26.6049 16.738 26.5949 16.7489 26.5829 16.7575C26.571 16.766 26.5574 16.7719 26.543 16.7749C25.8957 16.9749 25.3294 17.3768 24.927 17.9219C24.6253 18.318 24.4314 18.7855 24.364 19.2789C24.3635 19.3071 24.3521 19.334 24.3321 19.354C24.3122 19.3739 24.2852 19.3854 24.257 19.3859C24.2288 19.3854 24.2019 19.3739 24.1819 19.354C24.162 19.334 24.1505 19.3071 24.15 19.2789V19.2789Z" fill="#1F1F39"/>
<path d="M12.1261 19.2799C12.0581 18.7872 11.8653 18.3201 11.5661 17.9229C11.1655 17.3762 10.5974 16.9752 9.94805 16.7809C9.92019 16.7727 9.89637 16.7545 9.88122 16.7297C9.86606 16.705 9.86066 16.6754 9.86605 16.6469C9.87484 16.619 9.8935 16.5953 9.91855 16.5802C9.94359 16.5651 9.97328 16.5597 10.0021 16.5649C10.7038 16.7744 11.3159 17.2113 11.7421 17.8069C12.072 18.2344 12.2794 18.7436 12.3421 19.2799C12.3421 19.294 12.3393 19.3079 12.3339 19.3209C12.3285 19.3338 12.3206 19.3456 12.3107 19.3556C12.3008 19.3655 12.289 19.3734 12.276 19.3788C12.263 19.3841 12.2491 19.3869 12.2351 19.3869C12.221 19.3869 12.2071 19.3841 12.1941 19.3788C12.1811 19.3734 12.1693 19.3655 12.1594 19.3556C12.1495 19.3456 12.1416 19.3338 12.1362 19.3209C12.1308 19.3079 12.1281 19.294 12.1281 19.2799H12.1261Z" fill="#1F1F39"/>
<path d="M14.9651 24.3049L14.5991 29.3749C14.5991 29.3749 15.1081 30.4909 17.7991 30.4909C20.7181 30.4909 21.5211 29.3749 21.5211 29.3749L21.3831 24.3809C21.3831 24.3809 23.2041 24.0859 24.0831 20.8019C24.6089 18.7845 24.757 16.6872 24.5201 14.6159C24.5201 14.6159 20.2201 15.2849 18.7631 13.4999C17.3061 11.7149 15.8371 9.9249 13.7241 10.8179C11.6111 11.7109 11.8761 17.4679 12.4301 20.2079C12.7789 21.8244 13.6742 23.2713 14.9651 24.3049Z" fill="#DA5742"/>
<path d="M15.9111 17.4679C15.7199 17.4501 15.5433 17.3578 15.4197 17.2109C15.296 17.064 15.235 16.8744 15.2501 16.6829C15.2348 16.4913 15.2956 16.3014 15.4193 16.1543C15.543 16.0072 15.7197 15.9147 15.9111 15.8969C16.1024 15.9147 16.2791 16.0072 16.4028 16.1543C16.5266 16.3014 16.5873 16.4913 16.5721 16.6829C16.5871 16.8744 16.5262 17.064 16.4025 17.2109C16.2788 17.3578 16.1023 17.4501 15.9111 17.4679Z" fill="#1F1F39"/>
<path d="M20.7231 17.4679C20.5319 17.4501 20.3554 17.3578 20.2317 17.2109C20.108 17.064 20.0471 16.8744 20.0621 16.6829C20.0468 16.4913 20.1076 16.3014 20.2313 16.1543C20.355 16.0072 20.5317 15.9147 20.7231 15.8969C20.9145 15.9147 21.0911 16.0072 21.2149 16.1543C21.3386 16.3014 21.3994 16.4913 21.3841 16.6829C21.3991 16.8744 21.3382 17.064 21.2145 17.2109C21.0908 17.3578 20.9143 17.4501 20.7231 17.4679Z" fill="#1F1F39"/>
<path d="M17.811 17.7629C18.034 18.2089 18.611 17.9859 18.611 17.9859C18.611 17.9859 18.031 17.8339 18.031 17.3859C18.031 16.9379 17.99 15.4149 17.99 15.4149C17.8005 16.1822 17.74 16.9757 17.811 17.7629Z" fill="#1F1F39"/>
<path d="M14.759 28.0049C14.804 27.9919 19.588 26.1349 20.49 25.2869C20.49 24.7689 20.508 24.3869 20.508 24.3869C19.5663 24.7902 18.5365 24.9438 17.518 24.8329C16.6392 24.8367 15.7693 24.6568 14.964 24.3049C14.973 24.7599 14.804 27.8219 14.759 28.0049Z" fill="#C43D28"/>
<path d="M21.9271 19.4049C21.1431 19.4049 20.5081 19.0059 20.5081 18.5129C20.5081 18.0199 21.1431 17.6199 21.9271 17.6199C22.7111 17.6199 23.3471 18.0199 23.3471 18.5129C23.3471 19.0059 22.7081 19.4049 21.9271 19.4049Z" fill="#C43D28"/>
<path d="M14.42 19.4049C13.636 19.4049 13.001 19.0059 13.001 18.5129C13.001 18.0199 13.636 17.6199 14.42 17.6199C15.204 17.6199 15.84 18.0199 15.84 18.5129C15.84 19.0059 15.201 19.4049 14.42 19.4049Z" fill="#C43D28"/>
<path d="M18.302 19.6109C18.685 19.45 19.0454 19.2399 19.374 18.9859C19.374 18.9859 19.553 18.8969 19.642 18.9859C19.5741 19.251 19.4516 19.499 19.2826 19.7142C19.1135 19.9294 18.9015 20.1071 18.66 20.2359C18.4185 20.3158 18.1576 20.3155 17.9163 20.235C17.6749 20.1544 17.4661 19.9979 17.321 19.7889C17.053 19.4319 17.41 19.5209 17.41 19.5209C17.6967 19.618 18.0017 19.6488 18.302 19.6109Z" fill="white"/>
<path d="M14.911 22.4659C16.25 22.8229 16 23.4479 16.58 23.1799C17.16 22.9119 17.33 22.3799 18.508 22.5549C19.686 22.7299 19.427 23.3549 20.177 23.2689C21.1467 22.9746 22.0336 22.4563 22.766 21.7559C23.355 21.2159 24.185 20.3239 24.185 20.3239C24.185 20.3239 23.649 24.0729 20.668 24.9659C18.427 25.6349 15.25 25.3229 13.83 23.2659C13.0801 22.3305 12.5633 21.2303 12.322 20.0559C12.322 20.0559 13.572 22.1089 14.911 22.4659Z" fill="#1F1F39"/>
<path d="M16.276 22.0209C16.2631 22.0136 16.2521 22.0036 16.2435 21.9916C16.235 21.9796 16.2292 21.9658 16.2266 21.9513C16.2241 21.9367 16.2247 21.9218 16.2286 21.9076C16.2325 21.8933 16.2394 21.8801 16.249 21.8689L16.606 21.3329C16.6132 21.32 16.6232 21.3089 16.6353 21.3004C16.6473 21.2919 16.6611 21.2861 16.6756 21.2835C16.6902 21.2809 16.7051 21.2816 16.7193 21.2855C16.7336 21.2893 16.7468 21.2963 16.758 21.3059C16.7709 21.3131 16.782 21.3231 16.7905 21.3352C16.799 21.3472 16.8048 21.361 16.8074 21.3755C16.8099 21.39 16.8093 21.405 16.8054 21.4192C16.8015 21.4334 16.7946 21.4467 16.785 21.4579L16.428 21.9939C16.4177 22.0077 16.4042 22.0189 16.3887 22.0265C16.3733 22.0341 16.3562 22.038 16.339 22.0379C16.3171 22.0365 16.2957 22.0307 16.276 22.0209Z" fill="#1F1F39"/>
<path d="M14.376 21.6459C14.3602 21.622 14.3541 21.5928 14.3591 21.5645C14.3642 21.5362 14.3799 21.511 14.403 21.4939L14.938 21.1369C14.962 21.1211 14.9911 21.115 15.0194 21.12C15.0477 21.1251 15.073 21.1408 15.09 21.1639C15.1065 21.188 15.1129 21.2176 15.1078 21.2464C15.1028 21.2752 15.0867 21.3008 15.063 21.3179L14.528 21.6729C14.5088 21.6839 14.4871 21.6897 14.465 21.6899C14.4478 21.6901 14.4307 21.6862 14.4153 21.6785C14.3998 21.6709 14.3864 21.6597 14.376 21.6459Z" fill="#1F1F39"/>
<path d="M18.196 22.1089V21.6629C18.1966 21.6347 18.208 21.6078 18.228 21.5878C18.2479 21.5679 18.2748 21.5564 18.303 21.5559C18.3308 21.5578 18.3569 21.5697 18.3766 21.5893C18.3963 21.609 18.4082 21.6351 18.41 21.6629V22.1089C18.4112 22.1233 18.4093 22.1378 18.4044 22.1514C18.3994 22.1649 18.3916 22.1773 18.3814 22.1876C18.3713 22.1978 18.359 22.2058 18.3455 22.2108C18.3319 22.2159 18.3175 22.218 18.303 22.2169C18.2747 22.2164 18.2476 22.2048 18.2276 22.1846C18.2076 22.1645 18.1963 22.1373 18.196 22.1089V22.1089Z" fill="#1F1F39"/>
<path d="M19.893 21.8789L19.714 21.4309C19.7085 21.4174 19.7058 21.4029 19.7061 21.3884C19.7063 21.3738 19.7094 21.3594 19.7153 21.3461C19.7212 21.3328 19.7297 21.3208 19.7403 21.3108C19.7509 21.3008 19.7634 21.293 19.777 21.2879C19.7905 21.2826 19.8048 21.28 19.8193 21.2803C19.8337 21.2806 19.848 21.2838 19.8612 21.2897C19.8744 21.2955 19.8863 21.304 19.8963 21.3145C19.9062 21.325 19.9139 21.3374 19.919 21.3509L20.098 21.7969C20.1035 21.8104 20.1062 21.8249 20.1059 21.8394C20.1057 21.854 20.1026 21.8684 20.0967 21.8817C20.0908 21.895 20.0823 21.9071 20.0717 21.9171C20.0611 21.927 20.0487 21.9348 20.035 21.9399C20.027 21.9489 20.018 21.9489 20 21.9489C19.9773 21.949 19.955 21.9424 19.936 21.93C19.917 21.9175 19.902 21.8998 19.893 21.8789Z" fill="#1F1F39"/>
<path d="M21.91 21.7529L21.285 21.3959C21.2593 21.3814 21.2402 21.3574 21.2318 21.329C21.2234 21.3006 21.2264 21.2701 21.24 21.2439C21.2546 21.2182 21.2786 21.1991 21.3069 21.1907C21.3353 21.1823 21.3658 21.1852 21.392 21.1989L22.017 21.5559C22.0389 21.5683 22.0561 21.5876 22.066 21.6107C22.0759 21.6338 22.078 21.6596 22.0718 21.684C22.0657 21.7084 22.0518 21.7301 22.0321 21.7458C22.0125 21.7615 21.9882 21.7703 21.963 21.7709C21.9443 21.7689 21.9262 21.7628 21.91 21.7529Z" fill="#1F1F39"/>
<g opacity="0.592">
<g opacity="0.592">
<path opacity="0.592" d="M12.988 34.7679C13.0739 34.8127 13.168 34.8396 13.2645 34.8472C13.3611 34.8548 13.4582 34.8428 13.55 34.8119C13.782 34.7499 14.023 34.6329 14.255 34.7579C14.354 34.812 14.4322 34.8975 14.4774 35.0008C14.5226 35.1041 14.5323 35.2195 14.505 35.3289C14.487 35.4089 14.612 35.4449 14.63 35.3649C14.6556 35.2642 14.6562 35.1588 14.6316 35.0578C14.607 34.9569 14.5579 34.8635 14.4888 34.7859C14.4197 34.7083 14.3327 34.6489 14.2352 34.6128C14.1378 34.5767 14.033 34.5651 13.93 34.5789C13.7018 34.649 13.4674 34.6969 13.23 34.7219C12.979 34.7049 12.916 34.4729 12.872 34.2499C12.8702 34.2416 12.8668 34.2337 12.862 34.2266C12.8572 34.2196 12.851 34.2136 12.8439 34.209C12.8367 34.2043 12.8287 34.2011 12.8203 34.1996C12.812 34.198 12.8033 34.1981 12.795 34.1999C12.7867 34.2017 12.7788 34.2051 12.7717 34.2099C12.7647 34.2147 12.7587 34.2209 12.7541 34.2281C12.7494 34.2352 12.7462 34.2432 12.7447 34.2516C12.7431 34.26 12.7432 34.2686 12.745 34.2769C12.7602 34.4656 12.8472 34.6414 12.988 34.7679Z" fill="#BFE3C6"/>
<path opacity="0.592" d="M11.73 39.2039C11.8343 39.4019 11.9961 39.5636 12.194 39.6679C12.399 39.7929 12.614 39.9539 12.56 40.2209C12.497 40.5099 12.221 40.6679 11.988 40.8009C11.9743 40.8109 11.9648 40.8257 11.9614 40.8424C11.9581 40.8591 11.9611 40.8764 11.9699 40.891C11.9787 40.9055 11.9926 40.9163 12.0089 40.9211C12.0252 40.9259 12.0428 40.9244 12.058 40.9169C12.3049 40.8031 12.5106 40.616 12.647 40.3809C12.6951 40.2812 12.7123 40.1694 12.6965 40.0598C12.6806 39.9502 12.6324 39.8479 12.558 39.7659C12.399 39.5959 12.167 39.5159 12.006 39.3549C11.9069 39.2549 11.8403 39.1274 11.8148 38.989C11.7893 38.8505 11.8061 38.7076 11.863 38.5789C11.881 38.5099 11.747 38.4809 11.721 38.5519C11.6782 38.6555 11.6569 38.7667 11.6585 38.8788C11.66 38.9909 11.6844 39.1015 11.73 39.2039Z" fill="#BFE3C6"/>
<path opacity="0.592" d="M4.74901 36.8739C4.73118 36.7915 4.73873 36.7056 4.77069 36.6276C4.80265 36.5496 4.8575 36.4831 4.92801 36.4369C5.26701 36.2229 5.60601 36.5369 5.93701 36.5619C6.23701 36.5889 6.43701 36.3209 6.51701 36.0529C6.55413 35.9196 6.56298 35.78 6.543 35.6431C6.52303 35.5062 6.47466 35.375 6.40101 35.2579C6.39084 35.2448 6.37624 35.2358 6.35994 35.2328C6.34364 35.2297 6.32677 35.2326 6.31252 35.2411C6.29826 35.2496 6.2876 35.263 6.28253 35.2788C6.27746 35.2946 6.27835 35.3117 6.28501 35.3269C6.36878 35.4568 6.41483 35.6073 6.41801 35.7618C6.42119 35.9163 6.38137 36.0687 6.30301 36.2019C6.26608 36.2862 6.1988 36.3536 6.11452 36.3906C6.03024 36.4277 5.93511 36.4317 5.84801 36.4019C5.69061 36.3389 5.52967 36.2851 5.36601 36.2409C5.23413 36.2045 5.09391 36.2128 4.96726 36.2646C4.84062 36.3163 4.73468 36.4086 4.66601 36.5269C4.61553 36.6636 4.60006 36.8107 4.62101 36.9549C4.62948 37.1328 4.65628 37.3094 4.70101 37.4819C4.71901 37.5619 4.84401 37.5269 4.82601 37.4459C4.77851 37.2588 4.75267 37.0669 4.74901 36.8739Z" fill="#BFE3C6"/>
<path opacity="0.592" d="M9.26603 46.0139C9.30274 46.0008 9.34201 45.9964 9.38072 46.0011C9.41943 46.0058 9.45651 46.0194 9.48903 46.0409C9.61792 46.1266 9.73756 46.2255 9.84603 46.3359C10.0779 46.5303 10.3588 46.6569 10.658 46.7019C10.7878 46.7223 10.9205 46.713 11.0461 46.6747C11.1718 46.6364 11.2871 46.57 11.3833 46.4807C11.4796 46.3913 11.5544 46.2813 11.6019 46.1589C11.6495 46.0365 11.6687 45.9048 11.658 45.7739C11.641 45.6929 11.516 45.7279 11.534 45.8089C11.5479 45.9647 11.5086 46.1206 11.4225 46.2511C11.3364 46.3817 11.2087 46.4793 11.06 46.5279C10.9023 46.5731 10.7365 46.5825 10.5747 46.5553C10.413 46.5281 10.2593 46.4651 10.125 46.3709C9.98367 46.2798 9.85139 46.1753 9.73003 46.0589C9.63777 45.9645 9.51994 45.8992 9.39103 45.8709C9.17703 45.8449 8.94503 46.0589 9.05203 46.2729C9.08803 46.3449 9.20403 46.2819 9.16803 46.2019C9.13203 46.1219 9.20403 46.0499 9.26603 46.0139Z" fill="#BFE3C6"/>
<path opacity="0.592" d="M18.344 44.2649C18.3522 44.3902 18.3906 44.5116 18.4559 44.6189C18.5212 44.7262 18.6115 44.816 18.719 44.8809C18.942 45.0509 19.264 45.2019 19.319 45.5059C19.373 45.8449 18.98 45.9169 18.73 45.8899C18.641 45.8809 18.65 46.0149 18.73 46.0239C18.8509 46.0492 18.9763 46.0409 19.0928 46C19.2093 45.9591 19.3124 45.8872 19.391 45.7919C19.4485 45.6744 19.4639 45.5408 19.4346 45.4133C19.4053 45.2859 19.3331 45.1724 19.23 45.0919C19.025 44.8869 18.73 44.7919 18.569 44.5389C18.5005 44.3859 18.4832 44.2148 18.5198 44.0512C18.5564 43.8876 18.6448 43.7402 18.772 43.6309C18.826 43.5779 18.728 43.4799 18.674 43.5419C18.4788 43.7341 18.3613 43.9915 18.344 44.2649V44.2649Z" fill="#BFE3C6"/>
<path opacity="0.592" d="M25.824 45.8359C25.7602 45.9501 25.729 46.0795 25.7338 46.2102C25.7386 46.3409 25.7791 46.4677 25.851 46.5769C25.9401 46.7063 26.0036 46.8516 26.038 47.0049C26.0553 47.1547 26.0137 47.3053 25.922 47.4249C25.874 47.4847 25.8139 47.5337 25.7457 47.5687C25.6774 47.6037 25.6026 47.624 25.5261 47.6283C25.4495 47.6325 25.3729 47.6206 25.3012 47.5933C25.2295 47.566 25.1644 47.524 25.11 47.4699C25.0968 47.4566 25.0788 47.4492 25.06 47.4492C25.0413 47.4492 25.0233 47.4566 25.01 47.4699C24.9968 47.4832 24.9893 47.5012 24.9893 47.5199C24.9893 47.5387 24.9968 47.5566 25.01 47.5699C25.1113 47.6642 25.2378 47.727 25.3742 47.7508C25.5105 47.7746 25.6508 47.7583 25.778 47.7039C25.9009 47.6441 26.0036 47.5497 26.0734 47.4322C26.1433 47.3148 26.1772 47.1794 26.171 47.0429C26.155 46.7289 25.86 46.5049 25.86 46.1839C25.8627 46.0355 25.9211 45.8935 26.0235 45.7861C26.1259 45.6787 26.2649 45.6137 26.413 45.6039C26.4308 45.6039 26.4478 45.5969 26.4604 45.5843C26.473 45.5717 26.48 45.5547 26.48 45.5369C26.48 45.5191 26.473 45.5021 26.4604 45.4895C26.4478 45.477 26.4308 45.4699 26.413 45.4699C26.2918 45.4757 26.174 45.5123 26.071 45.5764C25.9679 45.6404 25.8829 45.7298 25.824 45.8359Z" fill="#BFE3C6"/>
<path opacity="0.592" d="M21.888 33.5349C22.0024 33.7729 22.1597 33.9878 22.352 34.1689C22.459 34.2849 22.552 34.4549 22.379 34.5619C22.229 34.6435 22.058 34.6783 21.888 34.6619C21.8702 34.6619 21.8532 34.669 21.8406 34.6815C21.828 34.6941 21.821 34.7111 21.821 34.7289C21.821 34.7467 21.828 34.7637 21.8406 34.7763C21.8532 34.7888 21.8702 34.7959 21.888 34.7959C22.111 34.8049 22.504 34.7599 22.593 34.5189C22.682 34.2779 22.45 34.0799 22.307 33.9279C22.0875 33.7185 21.9592 33.4311 21.95 33.1279C21.9499 32.9945 21.9909 32.8644 22.0675 32.7552C22.1441 32.6461 22.2526 32.5632 22.378 32.5179C22.3871 32.5156 22.3956 32.5115 22.4031 32.506C22.4106 32.5004 22.4169 32.4933 22.4217 32.4853C22.4264 32.4773 22.4296 32.4684 22.4309 32.4591C22.4323 32.4499 22.4318 32.4405 22.4295 32.4314C22.4272 32.4223 22.4231 32.4138 22.4175 32.4063C22.412 32.3988 22.4049 32.3925 22.3969 32.3877C22.3889 32.383 22.38 32.3798 22.3707 32.3785C22.3615 32.3771 22.3521 32.3776 22.343 32.3799C22.235 32.423 22.1369 32.4877 22.0548 32.5701C21.9728 32.6525 21.9084 32.7508 21.8658 32.859C21.8232 32.9672 21.8032 33.083 21.807 33.1993C21.8108 33.3155 21.8384 33.4297 21.888 33.5349Z" fill="#BFE3C6"/>
<path opacity="0.592" d="M21.781 38.7389C22.049 38.8819 22.102 39.2119 22.192 39.4709C22.225 39.5985 22.2875 39.7165 22.3743 39.8157C22.4611 39.9148 22.5699 39.9923 22.692 40.0419C22.9545 40.1356 23.2414 40.1356 23.504 40.0419C23.654 39.9736 23.7888 39.8761 23.9006 39.755C24.0124 39.634 24.0989 39.4918 24.155 39.3369C24.191 39.2569 24.055 39.2209 24.03 39.3009C23.9755 39.4481 23.8899 39.5818 23.7789 39.6928C23.6679 39.8038 23.5342 39.8894 23.387 39.9439C23.2416 39.9873 23.088 39.9953 22.939 39.9673C22.7899 39.9393 22.6497 39.8761 22.53 39.7829C22.316 39.5829 22.298 39.2649 22.191 39.0059C22.1494 38.895 22.0826 38.7954 21.9958 38.7148C21.909 38.6343 21.8046 38.5751 21.691 38.5419C21.5602 38.5097 21.4233 38.5117 21.2935 38.5478C21.1637 38.5839 21.0454 38.6528 20.95 38.7479C20.879 38.8279 20.968 38.9179 21.03 38.8549C21.1248 38.7554 21.2499 38.6901 21.3858 38.6691C21.5216 38.6481 21.6605 38.6727 21.781 38.7389Z" fill="#BFE3C6"/>
<path opacity="0.592" d="M30.002 36.2139C29.9282 36.4404 29.9303 36.6847 30.008 36.9099C30.053 37.1419 30.062 37.4099 29.829 37.5439C29.7267 37.5955 29.609 37.6077 29.4983 37.578C29.3876 37.5483 29.2917 37.4788 29.229 37.3829C29.184 37.3119 29.068 37.3829 29.113 37.4539C29.1707 37.5452 29.2515 37.6198 29.3472 37.67C29.4429 37.7202 29.5501 37.7443 29.658 37.7399C29.7649 37.7312 29.8671 37.6922 29.9525 37.6273C30.0379 37.5625 30.103 37.4745 30.14 37.3739C30.1817 37.1205 30.1649 36.8609 30.091 36.6149C30.0624 36.4837 30.0845 36.3464 30.153 36.2309C30.1819 36.1834 30.2254 36.1465 30.2769 36.1256C30.3284 36.1047 30.3852 36.101 30.439 36.1149C30.519 36.1239 30.555 35.9989 30.475 35.9719C30.3803 35.9507 30.2812 35.9633 30.1949 36.0075C30.1085 36.0517 30.0403 36.1247 30.002 36.2139Z" fill="#BFE3C6"/>
</g>
<path opacity="0.592" d="M35.4338 41.406L35.443 41.4945L28.9352 42.1724L28.926 42.0839L35.4338 41.406Z" fill="#BFE3C6"/>
<path opacity="0.592" d="M6.7565 41.0454L6.75841 41.1344L0.3149 41.2729L0.312988 41.1839L6.7565 41.0454Z" fill="#BFE3C6"/>
</g>
</svg>
