<svg width="120" height="135" viewBox="0 0 120 135" fill="none" xmlns="http://www.w3.org/2000/svg">
<path opacity="0.4" d="M2.00401 112.86H1.96001C1.86695 112.85 1.78174 112.803 1.72293 112.73C1.66412 112.657 1.63647 112.564 1.64601 112.471C1.64601 112.459 1.73201 111.725 1.91401 110.371C1.92373 110.289 1.96299 110.213 2.02446 110.158C2.08593 110.103 2.16539 110.072 2.24801 110.071C2.26565 110.07 2.28337 110.07 2.30101 110.071C2.34667 110.076 2.39091 110.089 2.43103 110.112C2.47115 110.134 2.50632 110.164 2.53439 110.201C2.56246 110.237 2.58284 110.278 2.59429 110.323C2.60575 110.367 2.60803 110.414 2.60101 110.459C2.42301 111.762 2.33301 112.538 2.33201 112.546C2.3315 112.588 2.32257 112.63 2.30573 112.669C2.28889 112.708 2.26448 112.743 2.23394 112.772C2.2034 112.801 2.16733 112.824 2.12785 112.839C2.08837 112.854 2.04627 112.861 2.00401 112.86ZM2.55601 108.666H2.51101C2.46375 108.659 2.41839 108.642 2.37754 108.617C2.3367 108.592 2.30118 108.56 2.27301 108.521C2.24735 108.487 2.22882 108.447 2.21852 108.406C2.20822 108.364 2.20634 108.32 2.21301 108.278C2.25301 107.991 2.29601 107.695 2.34001 107.387C2.39601 107.002 2.45301 106.607 2.51101 106.187C2.5235 106.103 2.56562 106.027 2.62969 105.972C2.69377 105.917 2.77552 105.887 2.86001 105.887C2.91105 105.887 2.96147 105.898 3.00787 105.919C3.05428 105.941 3.09557 105.972 3.12895 106.01C3.16233 106.049 3.18703 106.094 3.20136 106.143C3.21569 106.192 3.21932 106.243 3.21201 106.294C3.12801 106.819 3.06001 107.314 2.99401 107.794C2.96668 107.994 2.94001 108.186 2.91401 108.369C2.89583 108.451 2.85077 108.525 2.78594 108.579C2.72111 108.633 2.64021 108.663 2.55601 108.666ZM46.135 107.935H45.911C45.1979 107.847 44.5413 107.502 44.064 106.965C43.9995 106.899 43.9633 106.811 43.9633 106.718C43.9633 106.626 43.9995 106.538 44.064 106.472C44.1298 106.408 44.2181 106.372 44.31 106.372C44.402 106.372 44.4902 106.408 44.556 106.472C44.9179 106.894 45.4208 107.17 45.971 107.249H46.103C46.1909 107.25 46.275 107.285 46.3382 107.346C46.4013 107.407 46.4388 107.49 46.4429 107.578C46.4469 107.666 46.4174 107.752 46.3601 107.819C46.3029 107.885 46.2224 107.928 46.135 107.937V107.935ZM47.564 106.711C47.4996 106.712 47.4369 106.691 47.386 106.651C47.3087 106.602 47.2531 106.525 47.2308 106.436C47.2084 106.348 47.221 106.254 47.266 106.174C47.612 105.591 47.9013 104.976 48.13 104.338C48.1551 104.274 48.1987 104.219 48.2551 104.18C48.3115 104.141 48.3783 104.119 48.447 104.118C48.4917 104.118 48.5359 104.127 48.577 104.145C48.6193 104.161 48.6579 104.186 48.6906 104.217C48.7233 104.249 48.7494 104.286 48.7674 104.328C48.7853 104.37 48.7948 104.414 48.7953 104.46C48.7957 104.505 48.7871 104.55 48.77 104.592C48.5277 105.268 48.2185 105.918 47.847 106.532C47.8204 106.585 47.7801 106.629 47.7303 106.661C47.6804 106.692 47.623 106.71 47.564 106.711ZM43.081 105.383C43.0192 105.384 42.9583 105.368 42.9052 105.337C42.8521 105.305 42.8091 105.259 42.781 105.204C42.468 104.665 42.142 104.027 41.813 103.304C41.7756 103.219 41.7733 103.123 41.8066 103.036C41.8399 102.949 41.9062 102.879 41.991 102.841C42.0363 102.822 42.0849 102.812 42.134 102.812C42.2018 102.811 42.2683 102.83 42.3251 102.867C42.3819 102.905 42.4264 102.958 42.453 103.02C42.753 103.682 43.059 104.299 43.376 104.856C43.4006 104.894 43.417 104.937 43.424 104.982C43.4311 105.027 43.4287 105.073 43.417 105.117C43.393 105.207 43.3358 105.284 43.257 105.333C43.2029 105.363 43.1427 105.379 43.081 105.382V105.383ZM3.16601 104.517H3.10701C3.06336 104.511 3.02143 104.495 2.98366 104.473C2.94589 104.45 2.91304 104.42 2.88701 104.384C2.85926 104.345 2.83948 104.302 2.82884 104.255C2.81819 104.209 2.81689 104.161 2.82501 104.114C2.89901 103.644 2.98001 103.16 3.06601 102.648V102.64C3.09935 102.44 3.13268 102.24 3.16601 102.04C3.17796 101.958 3.21936 101.884 3.28237 101.831C3.34539 101.778 3.42566 101.75 3.50801 101.752C3.52798 101.75 3.54804 101.75 3.56801 101.752C3.61167 101.758 3.6536 101.774 3.69137 101.796C3.72913 101.819 3.76199 101.849 3.78801 101.885C3.81577 101.924 3.83554 101.967 3.84619 102.014C3.85683 102.06 3.85813 102.108 3.85001 102.155C3.80668 102.416 3.76501 102.672 3.72501 102.925C3.65301 103.375 3.58401 103.801 3.50801 104.225C3.49848 104.308 3.45791 104.384 3.39445 104.438C3.331 104.492 3.24937 104.521 3.16601 104.517ZM49.128 102.831C49.094 102.833 49.06 102.828 49.028 102.816C48.9419 102.786 48.8699 102.725 48.8258 102.645C48.7817 102.565 48.7686 102.472 48.789 102.383C48.97 101.766 49.161 101.102 49.341 100.369C49.3614 100.294 49.4055 100.228 49.4666 100.181C49.5277 100.133 49.6026 100.107 49.68 100.106C49.706 100.106 49.7318 100.11 49.757 100.116C49.8457 100.139 49.9216 100.197 49.968 100.276C50.0155 100.353 50.0306 100.446 50.01 100.534L49.956 100.734C49.783 101.387 49.62 102.004 49.445 102.559C49.4335 102.635 49.3952 102.704 49.337 102.754C49.2788 102.804 49.2047 102.831 49.128 102.831ZM41.338 101.577C41.2678 101.574 41.1998 101.552 41.1418 101.512C41.0838 101.473 41.0381 101.417 41.01 101.353C40.95 101.189 40.888 101.022 40.824 100.853C40.649 100.382 40.469 99.895 40.295 99.372C40.2663 99.283 40.2736 99.1863 40.3152 99.1026C40.3569 99.0188 40.4297 98.9548 40.518 98.924C40.5538 98.9121 40.5913 98.906 40.629 98.906C40.7029 98.9073 40.7746 98.9312 40.8344 98.9745C40.8943 99.0177 40.9395 99.0783 40.964 99.148C41.174 99.765 41.403 100.404 41.664 101.103C41.6829 101.146 41.6926 101.193 41.6926 101.24C41.6926 101.288 41.6829 101.335 41.664 101.378C41.6462 101.418 41.6202 101.454 41.5877 101.484C41.5551 101.514 41.5168 101.536 41.475 101.55L41.427 101.564C41.3986 101.573 41.3689 101.577 41.339 101.577H41.338ZM3.86601 100.369H3.80701C3.76214 100.361 3.71921 100.345 3.68069 100.321C3.64216 100.296 3.6088 100.265 3.58251 100.228C3.55622 100.191 3.53752 100.149 3.52748 100.104C3.51745 100.06 3.51627 100.014 3.52401 99.969L3.61801 99.437V99.431C3.70601 98.931 3.79701 98.42 3.89501 97.894C3.90891 97.8115 3.95199 97.7367 4.01643 97.6833C4.08086 97.6298 4.16234 97.6013 4.24601 97.603C4.26432 97.6015 4.28271 97.6015 4.30101 97.603C4.34452 97.6098 4.38622 97.6253 4.42366 97.6485C4.4611 97.6716 4.49352 97.7021 4.51901 97.738C4.54693 97.7762 4.56704 97.8195 4.57819 97.8655C4.58935 97.9115 4.59132 97.9592 4.58401 98.006C4.47301 98.585 4.37201 99.159 4.27401 99.714L4.21201 100.066C4.20046 100.15 4.15911 100.226 4.09555 100.282C4.032 100.338 3.9505 100.369 3.86601 100.369ZM50.185 98.769C50.1592 98.7715 50.1332 98.7666 50.11 98.755C50.0196 98.7342 49.9409 98.6788 49.8908 98.6006C49.8407 98.5225 49.8232 98.4279 49.842 98.337C49.996 97.689 50.154 96.942 50.289 96.293C50.304 96.215 50.3456 96.1445 50.4067 96.0937C50.4677 96.0428 50.5445 96.0146 50.624 96.014C50.6513 96.0139 50.6784 96.0169 50.705 96.023C50.7506 96.0319 50.794 96.05 50.8324 96.0762C50.8708 96.1024 50.9035 96.136 50.9286 96.1752C50.9536 96.2144 50.9705 96.2582 50.9781 96.304C50.9858 96.3499 50.984 96.3968 50.973 96.442C50.829 97.151 50.679 97.842 50.527 98.501C50.5043 98.5753 50.4595 98.6409 50.3986 98.6891C50.3377 98.7373 50.2635 98.7659 50.186 98.771L50.185 98.769ZM39.969 97.603C39.8973 97.6034 39.8273 97.581 39.7692 97.5389C39.7111 97.4968 39.6679 97.4373 39.646 97.369L39.546 97.052C39.38 96.517 39.207 95.964 39.033 95.352C39.0042 95.2705 39.0089 95.181 39.046 95.103C39.0685 95.0601 39.0994 95.0221 39.1368 94.9913C39.1743 94.9606 39.2175 94.9377 39.264 94.924C39.299 94.913 39.3354 94.9072 39.372 94.907C39.4464 94.9085 39.5183 94.9342 39.5768 94.9802C39.6352 95.0262 39.6771 95.09 39.696 95.162C39.82 95.562 39.934 95.937 40.045 96.303V96.312V96.32C40.132 96.608 40.217 96.888 40.301 97.162C40.3287 97.249 40.3208 97.3434 40.279 97.4246C40.2372 97.5057 40.1649 97.567 40.078 97.595C40.0424 97.6039 40.0055 97.6066 39.969 97.603ZM4.61101 96.249H4.55101C4.50751 96.2422 4.4658 96.2267 4.42836 96.2035C4.39092 96.1803 4.3585 96.1499 4.33301 96.114C4.3051 96.0758 4.28499 96.0324 4.27383 95.9865C4.26268 95.9405 4.2607 95.8927 4.26801 95.846C4.40001 95.185 4.53501 94.492 4.66801 93.787C4.68327 93.709 4.72508 93.6386 4.78633 93.5879C4.84759 93.5373 4.92451 93.5094 5.00401 93.509C5.03093 93.509 5.05776 93.512 5.08401 93.518C5.12956 93.5271 5.17281 93.5452 5.21116 93.5714C5.24951 93.5976 5.28218 93.6313 5.30721 93.6704C5.33223 93.7096 5.3491 93.7533 5.3568 93.7991C5.3645 93.8449 5.36287 93.8918 5.35201 93.937L5.14601 95.023L4.95601 95.995C4.93373 96.069 4.88806 96.1337 4.82585 96.1795C4.76364 96.2253 4.68826 96.2497 4.61101 96.249ZM51.046 94.667H50.971C50.926 94.6602 50.8829 94.6439 50.8447 94.6193C50.8064 94.5946 50.7738 94.5622 50.749 94.524C50.7237 94.4862 50.7065 94.4436 50.6986 94.3988C50.6907 94.3541 50.6922 94.3081 50.703 94.264C50.794 93.819 50.876 93.364 50.964 92.889C51.0053 92.6637 51.0473 92.4353 51.09 92.204C51.1044 92.1227 51.1472 92.0491 51.2108 91.9964C51.2743 91.9437 51.3545 91.9152 51.437 91.916C51.4903 91.9161 51.5429 91.9288 51.5904 91.9531C51.6378 91.9775 51.6788 92.0127 51.71 92.056C51.7379 92.0942 51.758 92.1375 51.7692 92.1835C51.7803 92.2295 51.7823 92.2772 51.775 92.324C51.712 92.658 51.65 92.989 51.589 93.312V93.335L51.582 93.37C51.516 93.719 51.452 94.059 51.391 94.383C51.3736 94.4621 51.3301 94.5331 51.2676 94.5846C51.205 94.6361 51.127 94.6651 51.046 94.667ZM38.762 93.592C38.6874 93.5902 38.6153 93.5645 38.5563 93.5188C38.4973 93.4731 38.4545 93.4098 38.434 93.338C38.242 92.686 38.046 92.009 37.853 91.324C37.8287 91.235 37.8399 91.1401 37.8843 91.0593C37.9287 90.9785 38.0029 90.9181 38.091 90.891C38.1185 90.8842 38.1467 90.8809 38.175 90.881C38.2515 90.8814 38.326 90.9056 38.3882 90.9502C38.4504 90.9948 38.4971 91.0576 38.522 91.13C38.722 91.83 38.916 92.509 39.103 93.145C39.1271 93.2339 39.1157 93.3288 39.0714 93.4095C39.027 93.4903 38.953 93.5507 38.865 93.578C38.8322 93.5905 38.797 93.5953 38.762 93.592ZM5.44601 92.145C5.42008 92.1476 5.39396 92.1423 5.37101 92.13C5.32499 92.12 5.2814 92.101 5.24278 92.074C5.20416 92.0471 5.17127 92.0127 5.14601 91.973C5.12204 91.9344 5.10599 91.8915 5.09878 91.8467C5.09156 91.8019 5.09334 91.7561 5.10401 91.712C5.26201 90.98 5.40401 90.321 5.55001 89.667C5.5675 89.5875 5.6123 89.5167 5.67661 89.4668C5.74092 89.4169 5.82068 89.3912 5.90201 89.394C5.92365 89.3923 5.94538 89.3923 5.96701 89.394C6.05873 89.4139 6.13908 89.4688 6.19101 89.547C6.21613 89.5858 6.23308 89.6293 6.24081 89.6749C6.24855 89.7204 6.24692 89.7671 6.23601 89.812C6.10701 90.397 5.96501 91.047 5.79001 91.857C5.77531 91.9376 5.73286 92.0105 5.67003 92.0631C5.6072 92.1157 5.52795 92.1447 5.44601 92.145ZM51.809 90.533H51.746C51.701 90.5256 51.6579 90.5094 51.6192 90.4852C51.5805 90.4611 51.5469 90.4295 51.5205 90.3923C51.4941 90.3551 51.4753 90.313 51.4653 90.2685C51.4553 90.224 51.4541 90.1779 51.462 90.133C51.595 89.381 51.712 88.707 51.819 88.074C51.8312 87.9922 51.873 87.9178 51.9363 87.8647C51.9997 87.8116 52.0804 87.7836 52.163 87.786C52.1826 87.7845 52.2024 87.7845 52.222 87.786C52.2656 87.7924 52.3075 87.8073 52.3452 87.83C52.383 87.8526 52.4159 87.8825 52.442 87.918C52.4698 87.9568 52.4896 88.0007 52.5002 88.0473C52.5109 88.0938 52.5122 88.142 52.504 88.189C52.377 88.936 52.26 89.61 52.147 90.248C52.1319 90.327 52.0901 90.3985 52.0285 90.4504C51.967 90.5023 51.8895 90.5314 51.809 90.533ZM37.63 89.563C37.5549 89.5631 37.4819 89.5382 37.4225 89.4922C37.3631 89.4462 37.3207 89.3818 37.302 89.309L36.737 87.295C36.7161 87.2062 36.7289 87.1127 36.7728 87.0328C36.8168 86.9528 36.8888 86.892 36.975 86.862C37.0028 86.8552 37.0314 86.8518 37.06 86.852C37.1365 86.8524 37.211 86.8766 37.2732 86.9212C37.3354 86.9658 37.3821 87.0286 37.407 87.101L37.973 89.116C37.9934 89.2049 37.9803 89.2982 37.9362 89.3781C37.8921 89.458 37.8201 89.5188 37.734 89.549C37.7131 89.5493 37.6923 89.552 37.672 89.557C37.6586 89.5604 37.6448 89.5624 37.631 89.563H37.63ZM6.36801 88.057C6.34203 88.061 6.31545 88.0557 6.29301 88.042C6.24907 88.0321 6.20756 88.0134 6.17097 87.9871C6.13438 87.9608 6.10345 87.9275 6.08001 87.889C6.05616 87.8497 6.04035 87.806 6.03348 87.7605C6.02661 87.715 6.02883 87.6686 6.04001 87.624C6.22101 86.849 6.38201 86.181 6.53101 85.579C6.54144 85.5347 6.56058 85.4929 6.58732 85.456C6.61407 85.4192 6.64788 85.388 6.68678 85.3644C6.72569 85.3408 6.76892 85.3251 6.81394 85.3183C6.85896 85.3116 6.90488 85.3138 6.94901 85.325C6.99296 85.3349 7.03447 85.3536 7.07106 85.3799C7.10765 85.4061 7.13858 85.4395 7.16201 85.478C7.18586 85.5173 7.20168 85.561 7.20855 85.6065C7.21541 85.652 7.21319 85.6984 7.20201 85.743C7.04301 86.383 6.88101 87.06 6.72401 87.716L6.71001 87.773C6.69018 87.8503 6.64644 87.9194 6.58502 87.9704C6.52361 88.0214 6.44766 88.0517 6.36801 88.057ZM52.524 86.415H52.465C52.42 86.4075 52.377 86.3912 52.3384 86.367C52.2997 86.3428 52.2663 86.3112 52.2399 86.274C52.2135 86.2369 52.1947 86.1948 52.1846 86.1504C52.1745 86.1059 52.1733 86.0599 52.181 86.015C52.242 85.664 52.3 85.307 52.357 84.961C52.411 84.631 52.466 84.291 52.524 83.955C52.5362 83.8731 52.5779 83.7986 52.6413 83.7453C52.7046 83.6921 52.7853 83.6639 52.868 83.666C52.8876 83.6645 52.9074 83.6645 52.927 83.666C52.9719 83.6736 53.0148 83.69 53.0533 83.7143C53.0919 83.7385 53.1252 83.7701 53.1515 83.8073C53.1778 83.8444 53.1965 83.8864 53.2065 83.9308C53.2166 83.9752 53.2178 84.0211 53.21 84.066C53.155 84.388 53.102 84.719 53.055 85.011C52.995 85.383 52.933 85.765 52.868 86.14C52.8477 86.2166 52.8033 86.2847 52.7414 86.3343C52.6794 86.3838 52.6032 86.4121 52.524 86.415ZM36.499 85.515C36.4238 85.5155 36.3506 85.4907 36.2911 85.4447C36.2317 85.3986 36.1894 85.3339 36.171 85.261L36.148 85.181C35.964 84.544 35.776 83.889 35.605 83.246C35.5809 83.1571 35.5923 83.0622 35.6367 82.9815C35.681 82.9007 35.755 82.8403 35.843 82.813C35.8737 82.8029 35.9057 82.7978 35.938 82.798C36.0134 82.8013 36.086 82.8274 36.1462 82.873C36.2064 82.9185 36.2513 82.9813 36.275 83.053L36.565 84.06L36.855 85.067C36.8794 85.1559 36.8681 85.2509 36.8237 85.3317C36.7793 85.4125 36.7052 85.4729 36.617 85.5C36.5789 85.5124 36.5391 85.5192 36.499 85.52V85.515ZM7.36601 83.982C7.33556 83.9844 7.30499 83.9793 7.27701 83.967C7.18677 83.9419 7.10983 83.8827 7.06243 83.8019C7.01503 83.7211 7.0009 83.625 7.02301 83.534C7.14701 83.057 7.27901 82.578 7.40701 82.115L7.41401 82.088C7.46801 81.8913 7.52135 81.6967 7.57401 81.504C7.5857 81.4595 7.6063 81.4178 7.63458 81.3814C7.66286 81.3451 7.69822 81.3149 7.73852 81.2927C7.77882 81.2704 7.82322 81.2566 7.86903 81.252C7.91484 81.2474 7.9611 81.2522 8.00501 81.266C8.04897 81.2775 8.09015 81.2978 8.12607 81.3256C8.16198 81.3535 8.1919 81.3883 8.21401 81.428C8.23816 81.4691 8.25348 81.5148 8.25899 81.5621C8.2645 81.6095 8.26008 81.6574 8.24601 81.703C8.17401 81.968 8.10001 82.237 8.02501 82.509V82.521C7.91701 82.914 7.80401 83.321 7.69901 83.721C7.68439 83.7974 7.64261 83.8659 7.5814 83.9139C7.52019 83.9618 7.44368 83.986 7.36601 83.982ZM53.208 82.266H53.146C53.1011 82.2585 53.0581 82.2422 53.0195 82.218C52.9809 82.1938 52.9475 82.1621 52.9212 82.125C52.8949 82.0878 52.8762 82.0457 52.8662 82.0013C52.8562 81.9568 52.8551 81.9109 52.863 81.866C52.911 81.553 52.963 81.233 53.012 80.924V80.913C53.071 80.547 53.133 80.168 53.189 79.789C53.2012 79.7074 53.2428 79.6331 53.306 79.58C53.3691 79.527 53.4495 79.4989 53.532 79.501C53.5517 79.4995 53.5714 79.4995 53.591 79.501C53.6359 79.5085 53.679 79.5248 53.7175 79.549C53.7561 79.5732 53.7895 79.6048 53.8159 79.642C53.8422 79.6792 53.8609 79.7212 53.8708 79.7657C53.8808 79.8101 53.8819 79.8561 53.874 79.901C53.755 80.601 53.65 81.301 53.547 81.971C53.5336 82.0517 53.4926 82.1253 53.4309 82.1791C53.3692 82.2329 53.2908 82.2636 53.209 82.266H53.208ZM35.336 81.49C35.2614 81.4882 35.1893 81.4625 35.1303 81.4168C35.0713 81.3711 35.0285 81.3078 35.008 81.236L34.834 80.651L34.827 80.629C34.685 80.15 34.548 79.689 34.411 79.236C34.3833 79.149 34.3913 79.0546 34.4331 78.9734C34.4749 78.8923 34.5471 78.831 34.634 78.803C34.6662 78.7921 34.7 78.7864 34.734 78.786C34.8068 78.7872 34.8774 78.8109 34.9361 78.8539C34.9949 78.8969 35.0389 78.957 35.062 79.026C35.191 79.455 35.321 79.891 35.454 80.342L35.459 80.36L35.465 80.38L35.657 81.026C35.6707 81.0676 35.676 81.1115 35.6724 81.1551C35.6688 81.1988 35.6564 81.2412 35.636 81.28C35.6136 81.3229 35.5827 81.3609 35.5452 81.3917C35.5078 81.4224 35.4645 81.4453 35.418 81.459C35.411 81.49 35.363 81.49 35.337 81.49H35.336ZM8.49901 79.938C8.46505 79.9391 8.43116 79.934 8.39901 79.923C8.31303 79.893 8.24117 79.8323 8.19723 79.7526C8.1533 79.6729 8.1404 79.5797 8.16101 79.491C8.38301 78.762 8.58701 78.102 8.78601 77.476C8.80905 77.4066 8.8531 77.3462 8.91206 77.303C8.97101 77.2598 9.04194 77.236 9.11501 77.235C9.14903 77.2354 9.18277 77.2412 9.21501 77.252C9.30175 77.2802 9.37384 77.3415 9.4156 77.4226C9.45737 77.5037 9.46542 77.598 9.43801 77.685C9.20401 78.405 9.00401 79.059 8.82801 79.685C8.812 79.7593 8.77015 79.8255 8.7099 79.8718C8.64966 79.9181 8.57493 79.9416 8.49901 79.938ZM53.864 78.133H53.805C53.7601 78.1254 53.7172 78.109 53.6787 78.0847C53.6402 78.0605 53.6068 78.0289 53.5805 77.9917C53.5542 77.9546 53.5355 77.9126 53.5255 77.8682C53.5154 77.8238 53.5143 77.7778 53.522 77.733L53.85 75.659C53.8552 75.613 53.87 75.5686 53.8935 75.5287C53.9171 75.4888 53.9487 75.4543 53.9865 75.4275C54.0242 75.4007 54.0672 75.3822 54.1126 75.3731C54.1581 75.3641 54.2049 75.3647 54.25 75.375C54.2949 75.3825 54.3379 75.3988 54.3765 75.423C54.4151 75.4472 54.4485 75.4788 54.4749 75.516C54.5012 75.5532 54.5199 75.5952 54.5298 75.6397C54.5398 75.6841 54.5409 75.7301 54.533 75.775L54.205 77.85C54.1932 77.9309 54.1518 78.0045 54.0888 78.0566C54.0258 78.1087 53.9457 78.1356 53.864 78.132V78.133ZM34.115 77.491C34.0417 77.4927 33.9698 77.4702 33.9105 77.427C33.8513 77.3838 33.8079 77.3223 33.787 77.252C33.559 76.552 33.329 75.86 33.132 75.267C33.1033 75.178 33.1106 75.0813 33.1522 74.9976C33.1939 74.9138 33.2667 74.8497 33.355 74.819C33.3908 74.8071 33.4283 74.801 33.466 74.801C33.54 74.8024 33.6117 74.8263 33.6718 74.8696C33.7318 74.9128 33.7772 74.9733 33.802 75.043L33.845 75.173C34.045 75.773 34.245 76.392 34.457 77.043C34.4846 77.1301 34.4766 77.2246 34.4346 77.3058C34.3926 77.387 34.3201 77.4482 34.233 77.476C34.2091 77.4768 34.1853 77.4798 34.162 77.485C34.1465 77.4883 34.1308 77.4903 34.115 77.491ZM100.215 77.281C100.132 77.2799 100.051 77.2491 99.9886 77.1941C99.9259 77.1391 99.8849 77.0635 99.873 76.981C99.8601 76.8882 99.8845 76.7941 99.9406 76.7192C99.9968 76.6443 100.08 76.5946 100.173 76.581C100.778 76.4702 101.328 76.1605 101.736 75.701C101.801 75.6366 101.89 75.6005 101.982 75.6005C102.073 75.6005 102.162 75.6366 102.227 75.701C102.291 75.7669 102.327 75.8551 102.327 75.947C102.327 76.0389 102.291 76.1271 102.227 76.193C101.715 76.7585 101.029 77.1368 100.277 77.268C100.257 77.2783 100.235 77.2828 100.213 77.281H100.215ZM98.294 76.774C98.2181 76.7718 98.1449 76.7456 98.085 76.699C97.5167 76.2357 97.0416 75.6687 96.685 75.028C96.6612 74.9888 96.6454 74.9453 96.6385 74.9C96.6316 74.8546 96.6338 74.8084 96.645 74.7639C96.6562 74.7194 96.6761 74.6776 96.7035 74.6409C96.731 74.6042 96.7655 74.5733 96.805 74.55C96.8575 74.5163 96.9186 74.4982 96.981 74.498C97.0415 74.4987 97.1009 74.5149 97.1534 74.545C97.2059 74.5751 97.2498 74.6181 97.281 74.67C97.6045 75.2347 98.023 75.7395 98.518 76.162C98.5898 76.2203 98.6362 76.3042 98.6472 76.396C98.6582 76.4879 98.633 76.5804 98.577 76.654C98.5398 76.6919 98.4955 76.722 98.4466 76.7426C98.3977 76.7632 98.3451 76.7739 98.292 76.774H98.294ZM9.77901 75.953C9.73843 75.9556 9.69771 75.9505 9.65901 75.938C9.61504 75.9237 9.57448 75.9005 9.53987 75.8698C9.50525 75.8391 9.47732 75.8017 9.45781 75.7597C9.43829 75.7178 9.42762 75.6723 9.42645 75.6261C9.42529 75.5798 9.43365 75.5339 9.45101 75.491C9.67901 74.845 9.92301 74.159 10.166 73.506C10.1929 73.4393 10.2391 73.3822 10.2985 73.3418C10.358 73.3013 10.4281 73.2795 10.5 73.279C10.5381 73.2789 10.5759 73.285 10.612 73.297C10.6973 73.3311 10.7664 73.3964 10.8052 73.4796C10.8441 73.5628 10.8497 73.6577 10.821 73.745C10.59 74.351 10.355 75.014 10.121 75.714C10.0953 75.784 10.0487 75.8444 9.98753 75.8872C9.92638 75.9299 9.85361 75.9529 9.77901 75.953ZM103.146 74.595C103.088 74.5942 103.031 74.5787 102.981 74.55C102.901 74.5072 102.841 74.4349 102.813 74.3485C102.786 74.2621 102.793 74.1683 102.833 74.087C103.141 73.4801 103.405 72.8518 103.622 72.207C103.645 72.139 103.689 72.08 103.748 72.0381C103.806 71.9962 103.876 71.9734 103.948 71.973C103.99 71.973 104.031 71.9811 104.069 71.997C104.113 72.0128 104.154 72.0374 104.188 72.0694C104.223 72.1013 104.25 72.14 104.269 72.183C104.288 72.224 104.299 72.2686 104.3 72.3139C104.301 72.3591 104.292 72.4041 104.275 72.446C104.049 73.1234 103.77 73.782 103.441 74.416C103.411 74.4685 103.368 74.5124 103.317 74.5437C103.265 74.5751 103.206 74.5927 103.146 74.595ZM54.532 73.995H54.473C54.4279 73.9883 54.3847 73.9724 54.346 73.9483C54.3073 73.9243 54.2739 73.8925 54.248 73.855C54.1956 73.778 54.1748 73.6839 54.19 73.592C54.238 73.273 54.29 72.949 54.342 72.635V72.628C54.401 72.266 54.462 71.891 54.517 71.517C54.529 71.4355 54.5704 71.3612 54.6334 71.3081C54.6964 71.255 54.7767 71.2269 54.859 71.229C54.8787 71.2275 54.8984 71.2275 54.918 71.229C54.9631 71.2357 55.0063 71.2516 55.045 71.2756C55.0837 71.2997 55.1171 71.3315 55.143 71.369C55.1954 71.4459 55.2162 71.5401 55.201 71.632C55.148 71.98 55.091 72.332 55.036 72.676C54.981 73.02 54.925 73.365 54.873 73.707C54.8591 73.7872 54.8178 73.86 54.7562 73.9131C54.6945 73.9662 54.6163 73.9962 54.535 73.998L54.532 73.995ZM32.757 73.518C32.6859 73.5191 32.6162 73.4982 32.5574 73.4581C32.4987 73.418 32.4538 73.3607 32.429 73.294C32.219 72.702 31.999 72.125 31.786 71.567L31.699 71.339C31.6803 71.2957 31.6706 71.2491 31.6706 71.202C31.6706 71.1549 31.6803 71.1082 31.699 71.065C31.7167 71.0245 31.7427 70.9881 31.7752 70.9581C31.8078 70.9282 31.8462 70.9053 31.888 70.891C31.9298 70.8736 31.9747 70.8648 32.02 70.865C32.0892 70.8639 32.157 70.8847 32.2138 70.9243C32.2705 70.964 32.3133 71.0206 32.336 71.086L32.476 71.453C32.676 71.97 32.876 72.503 33.076 73.053C33.1063 73.1399 33.1015 73.2352 33.0626 73.3187C33.0238 73.4021 32.954 73.4671 32.868 73.5C32.8519 73.5006 32.8358 73.5026 32.82 73.506C32.8004 73.5126 32.7804 73.5176 32.76 73.521L32.757 73.518ZM96.011 73.324C95.9435 73.3262 95.8771 73.3073 95.8209 73.2698C95.7648 73.2323 95.7218 73.1782 95.698 73.115C95.42 72.474 95.159 71.815 94.924 71.145C94.8938 71.0581 94.8986 70.9628 94.9374 70.8793C94.9762 70.7959 95.046 70.7308 95.132 70.698C95.1691 70.6854 95.2079 70.679 95.247 70.679C95.3192 70.6772 95.3901 70.6982 95.4496 70.7389C95.5092 70.7797 95.5545 70.8381 95.579 70.906C95.828 71.613 96.084 72.26 96.339 72.831C96.3577 72.8731 96.3678 72.9186 96.3689 72.9646C96.37 73.0107 96.362 73.0566 96.3454 73.0996C96.3288 73.1426 96.3038 73.1819 96.272 73.2152C96.2402 73.2486 96.2022 73.2753 96.16 73.294C96.1154 73.3183 96.0647 73.3294 96.014 73.326L96.011 73.324ZM11.236 72.024C11.19 72.021 11.1447 72.0106 11.102 71.993C11.0569 71.9749 11.0159 71.9478 10.9815 71.9135C10.9472 71.8791 10.9201 71.8381 10.902 71.793C10.8852 71.7538 10.8766 71.7116 10.8766 71.669C10.8766 71.6264 10.8852 71.5842 10.902 71.545C11.176 70.859 11.465 70.207 11.736 69.605C11.7642 69.5424 11.8105 69.4896 11.869 69.4536C11.9275 69.4176 11.9954 69.4 12.064 69.403C12.1128 69.4031 12.1611 69.413 12.206 69.432C12.291 69.4699 12.3575 69.5398 12.391 69.6266C12.4246 69.7133 12.4224 69.8098 12.385 69.895L12.312 70.062C12.065 70.626 11.812 71.208 11.566 71.805C11.5376 71.8689 11.492 71.9236 11.4342 71.963C11.3765 72.0024 11.3089 72.0249 11.239 72.028L11.236 72.024ZM104.56 70.651C104.529 70.6535 104.498 70.6483 104.47 70.636C104.38 70.6102 104.304 70.551 104.257 70.4706C104.21 70.3902 104.196 70.2947 104.217 70.204C104.417 69.456 104.564 68.811 104.694 68.174C104.709 68.096 104.751 68.0257 104.812 67.975C104.873 67.9243 104.95 67.8964 105.029 67.896C105.056 67.8959 105.083 67.8989 105.11 67.905C105.156 67.914 105.199 67.932 105.237 67.9581C105.275 67.9842 105.308 68.0178 105.333 68.0568C105.358 68.0959 105.375 68.1396 105.383 68.1853C105.39 68.2311 105.389 68.2779 105.378 68.323C105.215 69.052 105.05 69.745 104.887 70.383C104.873 70.4588 104.833 70.5272 104.774 70.5768C104.715 70.6264 104.64 70.654 104.563 70.655L104.56 70.651ZM55.187 69.86H55.128C55.083 69.8526 55.0399 69.8364 55.0013 69.8122C54.9626 69.788 54.9292 69.7564 54.9028 69.7192C54.8765 69.682 54.8578 69.6399 54.8479 69.5954C54.838 69.5509 54.837 69.5049 54.845 69.46C54.931 68.892 55.025 68.337 55.125 67.749L55.187 67.386C55.199 67.3045 55.2404 67.2302 55.3034 67.1771C55.3664 67.124 55.4467 67.0959 55.529 67.098C55.549 67.0964 55.569 67.0964 55.589 67.098C55.6327 67.1045 55.6746 67.1196 55.7124 67.1424C55.7501 67.1652 55.783 67.1954 55.809 67.231C55.8368 67.2696 55.8565 67.3134 55.8672 67.3598C55.8778 67.4061 55.8791 67.4541 55.871 67.501C55.806 67.875 55.745 68.256 55.685 68.624V68.637C55.635 68.943 55.585 69.26 55.531 69.575C55.5191 69.6564 55.4779 69.7307 55.4151 69.7839C55.3523 69.8371 55.2723 69.8656 55.19 69.864L55.187 69.86ZM31.226 69.625C31.1585 69.6272 31.0921 69.6083 31.0359 69.5708C30.9798 69.5333 30.9368 69.4792 30.913 69.416C30.6 68.688 30.27 67.985 30.049 67.516C30.0273 67.4738 30.0146 67.4276 30.0117 67.3803C30.0088 67.3329 30.0157 67.2855 30.032 67.241C30.0474 67.1989 30.0713 67.1605 30.1023 67.1281C30.1333 67.0958 30.1706 67.0702 30.212 67.053C30.261 67.0281 30.3151 67.0151 30.37 67.015C30.4341 67.0151 30.4968 67.0342 30.5502 67.0697C30.6035 67.1053 30.6452 67.1558 30.67 67.215C30.958 67.793 31.254 68.441 31.549 69.14C31.5864 69.2252 31.5886 69.3217 31.555 69.4084C31.5215 69.4952 31.455 69.5651 31.37 69.603C31.3415 69.6033 31.3131 69.606 31.285 69.611C31.2657 69.6171 31.246 69.6218 31.226 69.625ZM94.599 69.386C94.5237 69.387 94.4502 69.3624 94.3906 69.3163C94.331 69.2702 94.2889 69.2052 94.271 69.132C94.095 68.563 93.91 67.918 93.69 67.103C93.6696 67.0141 93.6827 66.9207 93.7268 66.8409C93.7709 66.761 93.8429 66.7001 93.929 66.67C93.9568 66.6632 93.9854 66.6598 94.014 66.66C94.0905 66.6604 94.165 66.6846 94.2272 66.7292C94.2894 66.7738 94.3361 66.8366 94.361 66.909C94.561 67.665 94.755 68.319 94.941 68.909C94.9551 68.9517 94.9604 68.9969 94.9567 69.0417C94.9529 69.0866 94.9401 69.1302 94.919 69.17C94.8773 69.2512 94.8056 69.3129 94.719 69.342C94.703 69.357 94.6841 69.3687 94.6635 69.3765C94.6429 69.3842 94.621 69.3878 94.599 69.387V69.386ZM12.966 68.203C12.9084 68.2021 12.852 68.1866 12.802 68.158C12.723 68.1144 12.6628 68.0432 12.633 67.958C12.6183 67.9157 12.6125 67.8709 12.6161 67.8263C12.6198 67.7817 12.6327 67.7383 12.654 67.699C12.986 67.033 13.327 66.41 13.667 65.849C13.6984 65.7973 13.7423 65.7543 13.7948 65.7242C13.8473 65.6942 13.9065 65.6779 13.967 65.677C14.0294 65.6772 14.0905 65.6953 14.143 65.729C14.1826 65.7522 14.2172 65.783 14.2448 65.8197C14.2723 65.8564 14.2923 65.8983 14.3034 65.9428C14.3146 65.9873 14.3168 66.0336 14.3099 66.079C14.3029 66.1243 14.287 66.1679 14.263 66.207C13.863 66.907 13.544 67.481 13.263 68.028C13.2375 68.0842 13.1953 68.1311 13.1422 68.1624C13.089 68.1937 13.0275 68.2079 12.966 68.203ZM105.456 66.561H105.396C105.351 66.5539 105.308 66.5378 105.269 66.5137C105.23 66.4896 105.196 66.458 105.17 66.4207C105.144 66.3834 105.125 66.3412 105.115 66.2966C105.105 66.252 105.105 66.2059 105.113 66.161C105.19 65.743 105.261 65.306 105.335 64.844V64.839C105.374 64.596 105.414 64.35 105.455 64.102C105.467 64.0186 105.509 63.9424 105.573 63.8874C105.637 63.8323 105.719 63.802 105.803 63.802C105.821 63.8006 105.839 63.8006 105.857 63.802C105.948 63.8182 106.03 63.8685 106.086 63.9428C106.142 64.017 106.167 64.1097 106.157 64.202C106.123 64.412 106.09 64.619 106.057 64.823V64.832C105.976 65.34 105.9 65.821 105.816 66.276C105.796 66.3569 105.75 66.429 105.685 66.4813C105.62 66.5337 105.54 66.5634 105.457 66.566L105.456 66.561ZM29.379 65.861C29.3172 65.8625 29.2563 65.8464 29.2032 65.8148C29.1501 65.7831 29.1071 65.7371 29.079 65.682C28.724 65.061 28.348 64.457 27.992 63.936C27.9656 63.8992 27.9469 63.8574 27.937 63.8131C27.9272 63.7689 27.9264 63.7231 27.9347 63.6785C27.943 63.6339 27.9603 63.5915 27.9854 63.5538C28.0106 63.5161 28.0431 63.4838 28.081 63.459C28.1406 63.4203 28.2099 63.3991 28.281 63.398C28.3356 63.3974 28.3894 63.4109 28.4372 63.4371C28.485 63.4634 28.5253 63.5016 28.554 63.548C28.954 64.134 29.315 64.725 29.672 65.354C29.714 65.4357 29.7235 65.5303 29.6987 65.6188C29.6738 65.7073 29.6164 65.7831 29.538 65.831C29.4874 65.85 29.4341 65.8612 29.38 65.864L29.379 65.861ZM55.879 65.727H55.82C55.7751 65.7195 55.7321 65.7032 55.6935 65.679C55.6549 65.6548 55.6215 65.6231 55.5952 65.586C55.5689 65.5488 55.5502 65.5067 55.5402 65.4623C55.5302 65.4178 55.5291 65.3719 55.537 65.327C55.602 64.953 55.664 64.571 55.723 64.201V64.193C55.773 63.885 55.823 63.568 55.877 63.252C55.8896 63.1704 55.9315 63.0962 55.9948 63.0432C56.0581 62.9902 56.1385 62.9621 56.221 62.964C56.2407 62.9625 56.2604 62.9625 56.28 62.964C56.325 62.9715 56.368 62.9878 56.4067 63.012C56.4453 63.0362 56.4788 63.0678 56.5052 63.105C56.5315 63.1421 56.5503 63.1842 56.5604 63.2286C56.5705 63.2731 56.5717 63.3191 56.564 63.364C56.436 64.097 56.322 64.759 56.221 65.438C56.2071 65.5197 56.1647 65.5938 56.1014 65.6472C56.0381 65.7007 55.9579 65.73 55.875 65.73L55.879 65.727ZM93.486 65.339C93.4075 65.337 93.3317 65.3098 93.2699 65.2613C93.2082 65.2129 93.1636 65.1458 93.143 65.07C93.043 64.696 92.954 64.313 92.854 63.908V63.901C92.784 63.615 92.712 63.3233 92.638 63.026C92.6165 62.9368 92.6312 62.8427 92.6788 62.7642C92.7263 62.6857 92.803 62.6292 92.892 62.607C92.9186 62.601 92.9458 62.598 92.973 62.598C93.0504 62.598 93.1255 62.6239 93.1864 62.6715C93.2473 62.7192 93.2905 62.7859 93.309 62.861C93.476 63.592 93.664 64.312 93.816 64.89C93.8269 64.9349 93.8287 64.9815 93.8215 65.0272C93.8143 65.0728 93.7982 65.1166 93.774 65.156C93.7507 65.1944 93.7199 65.2277 93.6835 65.254C93.6471 65.2802 93.6058 65.299 93.562 65.309C93.546 65.342 93.513 65.342 93.482 65.342L93.486 65.339ZM15.1 64.607C15.0305 64.6104 14.9619 64.5896 14.906 64.548C14.8673 64.5231 14.8344 64.4902 14.8094 64.4516C14.7844 64.413 14.7679 64.3695 14.761 64.324C14.7465 64.2308 14.7664 64.1356 14.817 64.056C15.2193 63.4729 15.6568 62.9148 16.127 62.385C16.1594 62.3473 16.1994 62.3169 16.2444 62.2959C16.2894 62.2749 16.3383 62.2636 16.388 62.263C16.4738 62.2636 16.5563 62.2964 16.619 62.355C16.6546 62.3845 16.6837 62.421 16.7046 62.4622C16.7255 62.5034 16.7377 62.5484 16.7405 62.5945C16.7433 62.6406 16.7367 62.6868 16.7209 62.7302C16.7052 62.7736 16.6807 62.8134 16.649 62.847C16.239 63.315 15.813 63.858 15.383 64.459C15.3504 64.5048 15.3076 64.5424 15.258 64.5688C15.2083 64.5951 15.1532 64.6096 15.097 64.611L15.1 64.607ZM27 62.428C26.9518 62.4274 26.9043 62.4164 26.8606 62.3959C26.817 62.3754 26.7783 62.3457 26.747 62.309C26.3015 61.8086 25.8074 61.3537 25.272 60.951C25.1979 60.8949 25.1487 60.8121 25.1346 60.7202C25.1206 60.6283 25.143 60.5346 25.197 60.459C25.231 60.4151 25.2745 60.3794 25.3242 60.3547C25.3739 60.3299 25.4285 60.3167 25.484 60.316C25.5561 60.3173 25.6261 60.341 25.684 60.384C26.2604 60.8087 26.7897 61.2938 27.263 61.831C27.2947 61.8646 27.3192 61.9043 27.3349 61.9478C27.3507 61.9912 27.3573 62.0374 27.3545 62.0835C27.3517 62.1296 27.3395 62.1746 27.3186 62.2158C27.2977 62.257 27.2686 62.2935 27.233 62.323C27.1715 62.3891 27.0863 62.4283 26.996 62.432L27 62.428ZM106.1 62.414H106.055C106.008 62.4067 105.962 62.3902 105.922 62.3653C105.881 62.3404 105.845 62.3077 105.817 62.269C105.791 62.2345 105.773 62.1952 105.763 62.1535C105.753 62.1117 105.751 62.0684 105.758 62.026C105.843 61.399 105.934 60.715 106.025 59.952C106.035 59.8699 106.074 59.7941 106.136 59.7389C106.198 59.6838 106.277 59.6528 106.36 59.652C106.378 59.6507 106.395 59.6507 106.413 59.652C106.506 59.6645 106.59 59.7126 106.648 59.786C106.675 59.8218 106.695 59.8628 106.706 59.9065C106.717 59.9502 106.718 59.9956 106.711 60.04C106.62 60.793 106.53 61.472 106.443 62.128C106.426 62.208 106.382 62.28 106.319 62.3324C106.256 62.3848 106.178 62.4146 106.096 62.417L106.1 62.414ZM56.578 61.578H56.519C56.474 61.5706 56.4309 61.5544 56.3923 61.5302C56.3536 61.506 56.3202 61.4744 56.2938 61.4372C56.2675 61.4 56.2488 61.3579 56.2389 61.3134C56.229 61.2689 56.228 61.2229 56.236 61.178V61.167C56.354 60.4837 56.4723 59.8007 56.591 59.118C56.6032 59.0364 56.6448 58.9621 56.708 58.909C56.7711 58.856 56.8515 58.8279 56.934 58.83C56.9536 58.8285 56.9734 58.8285 56.993 58.83C57.0379 58.8375 57.0809 58.8538 57.1195 58.878C57.1581 58.9022 57.1915 58.9338 57.2179 58.971C57.2442 59.0082 57.2629 59.0502 57.2728 59.0947C57.2828 59.1391 57.2839 59.1851 57.276 59.23L57.096 60.273L56.918 61.298C56.9023 61.3775 56.8596 61.4492 56.797 61.5007C56.7345 61.5523 56.6561 61.5807 56.575 61.581L56.578 61.578ZM17.867 61.503C17.8147 61.5046 17.7629 61.4932 17.7161 61.4698C17.6693 61.4464 17.6291 61.4118 17.599 61.369C17.5413 61.2975 17.5139 61.2063 17.5227 61.1149C17.5315 61.0235 17.5758 60.9391 17.646 60.88C18.2035 60.4256 18.8135 60.0398 19.463 59.731C19.5089 59.7118 19.5582 59.7019 19.608 59.702C19.6739 59.7003 19.7389 59.7178 19.7952 59.7522C19.8514 59.7866 19.8965 59.8365 19.925 59.896C19.9624 59.9795 19.9662 60.0741 19.9357 60.1603C19.9051 60.2465 19.8426 60.3177 19.761 60.359C19.1628 60.6406 18.6024 60.9964 18.093 61.418C18.0311 61.4739 17.9504 61.5042 17.867 61.503ZM92.573 61.264H92.498C92.4191 61.2646 92.3423 61.2384 92.2802 61.1897C92.2181 61.141 92.1743 61.0727 92.156 60.996C92.093 60.712 92.027 60.426 91.961 60.138V60.13C91.872 59.744 91.781 59.345 91.696 58.95C91.6853 58.9059 91.6836 58.8601 91.6908 58.8153C91.698 58.7705 91.714 58.7275 91.738 58.689C91.7718 58.6382 91.8176 58.5965 91.8713 58.5675C91.925 58.5386 91.985 58.5233 92.046 58.523C92.1253 58.5238 92.2019 58.5519 92.2629 58.6025C92.3239 58.6531 92.3656 58.7232 92.381 58.801C92.468 59.201 92.561 59.61 92.651 60.001C92.716 60.284 92.781 60.566 92.843 60.845C92.8538 60.8898 92.8553 60.9362 92.8476 60.9816C92.8399 61.027 92.823 61.0703 92.798 61.109C92.7463 61.187 92.6664 61.2418 92.575 61.262L92.573 61.264ZM23.646 60.075C23.612 60.077 23.5779 60.0719 23.546 60.06C23.075 59.9091 22.5836 59.8318 22.089 59.831C21.944 59.831 21.798 59.838 21.655 59.851H21.627C21.5392 59.8496 21.4552 59.8147 21.3922 59.7535C21.3293 59.6922 21.292 59.6093 21.288 59.5216C21.2841 59.4338 21.3137 59.3479 21.371 59.2812C21.4282 59.2146 21.5087 59.1723 21.596 59.163C21.755 59.15 21.917 59.143 22.075 59.143C22.6515 59.1423 23.2247 59.2293 23.775 59.401C23.8618 59.4292 23.9338 59.4905 23.9756 59.5716C24.0174 59.6527 24.0254 59.747 23.998 59.834C23.9696 59.9044 23.9211 59.9648 23.8584 60.0077C23.7958 60.0506 23.7219 60.074 23.646 60.075ZM106.619 58.254H106.575C106.53 58.2507 106.487 58.2382 106.448 58.2172C106.408 58.1962 106.374 58.1671 106.346 58.132C106.317 58.0946 106.296 58.0516 106.284 58.0057C106.272 57.9597 106.27 57.9118 106.277 57.865C106.314 57.525 106.355 57.175 106.395 56.837V56.828C106.435 56.488 106.477 56.137 106.514 55.792C106.523 55.7038 106.565 55.6222 106.631 55.5637C106.698 55.5053 106.784 55.4743 106.873 55.477H106.901C106.994 55.4873 107.079 55.5339 107.137 55.6066C107.196 55.6793 107.223 55.7722 107.213 55.865C107.132 56.633 107.061 57.282 106.975 57.955C106.959 58.0383 106.915 58.1137 106.85 58.1681C106.785 58.2226 106.703 58.253 106.618 58.254H106.619ZM57.29 57.463H57.23C57.1851 57.4555 57.1421 57.4392 57.1035 57.415C57.0649 57.3908 57.0315 57.3591 57.0052 57.322C56.9789 57.2848 56.9602 57.2427 56.9502 57.1983C56.9402 57.1538 56.9391 57.1079 56.947 57.063C57.009 56.706 57.075 56.345 57.14 55.996C57.197 55.688 57.261 55.339 57.32 55.004C57.3342 54.9228 57.3768 54.8493 57.4402 54.7965C57.5035 54.7438 57.5836 54.7152 57.666 54.716C57.6843 54.7145 57.7027 54.7145 57.721 54.716C57.7647 54.7227 57.8065 54.7382 57.8442 54.7613C57.8818 54.7845 57.9144 54.815 57.94 54.851C57.9678 54.889 57.9879 54.9322 57.9991 54.978C58.0102 55.0238 58.0122 55.0714 58.005 55.118C57.878 55.766 57.764 56.424 57.653 57.06L57.632 57.178C57.6192 57.2589 57.5775 57.3323 57.5146 57.3848C57.4517 57.4372 57.3719 57.465 57.29 57.463ZM91.665 57.179H91.59C91.5109 57.1794 91.434 57.153 91.3717 57.1042C91.3094 57.0554 91.2655 56.9869 91.247 56.91C91.119 56.33 90.977 55.68 90.801 54.865C90.7906 54.8205 90.7892 54.7744 90.7969 54.7294C90.8047 54.6844 90.8214 54.6414 90.846 54.603C90.88 54.5531 90.9256 54.5122 90.9789 54.4838C91.0322 54.4554 91.0916 54.4404 91.152 54.44C91.2314 54.4408 91.3081 54.469 91.3692 54.5199C91.4302 54.5707 91.4718 54.641 91.487 54.719C91.61 55.288 91.772 56.035 91.933 56.763C91.9439 56.808 91.9455 56.8548 91.9379 56.9005C91.9302 56.9461 91.9134 56.9898 91.8885 57.0288C91.8636 57.0679 91.831 57.1015 91.7928 57.1276C91.7546 57.1538 91.7114 57.1719 91.666 57.181L91.665 57.179ZM107.079 54.089H107.035C106.942 54.0789 106.857 54.0324 106.798 53.9597C106.74 53.887 106.712 53.7939 106.722 53.701L106.737 53.552C106.817 52.86 106.887 52.237 106.945 51.612C106.954 51.5238 106.996 51.4422 107.062 51.3837C107.129 51.3253 107.215 51.2943 107.304 51.297H107.332C107.425 51.3073 107.51 51.354 107.568 51.427C107.627 51.4999 107.654 51.5931 107.644 51.686C107.564 52.369 107.494 52.986 107.435 53.626L107.421 53.775C107.414 53.861 107.375 53.9414 107.312 53.9998C107.249 54.0583 107.165 54.0905 107.079 54.09V54.089ZM58.064 53.343H58.005C57.9613 53.3361 57.9193 53.3205 57.8817 53.2972C57.8441 53.2738 57.8116 53.2432 57.786 53.207C57.7581 53.1688 57.738 53.1255 57.7268 53.0795C57.7157 53.0335 57.7137 52.9857 57.721 52.939L58.082 51.091L58.123 50.88C58.138 50.8043 58.178 50.7358 58.2365 50.6856C58.2951 50.6353 58.3689 50.6062 58.446 50.603C58.4716 50.6028 58.4971 50.6059 58.522 50.612C58.5691 50.6223 58.6136 50.6419 58.6531 50.6695C58.6926 50.6971 58.7262 50.7323 58.752 50.773C58.7742 50.8085 58.789 50.8482 58.7955 50.8896C58.8021 50.931 58.8002 50.9733 58.79 51.014L58.59 52.044L58.39 53.074C58.3773 53.1507 58.3373 53.2202 58.2774 53.2698C58.2175 53.3194 58.1418 53.3458 58.064 53.344V53.343ZM90.771 53.075H90.696C90.6169 53.0754 90.54 53.049 90.4777 53.0002C90.4154 52.9514 90.3715 52.8829 90.353 52.806C90.279 52.463 90.204 52.123 90.13 51.783C90.056 51.443 89.981 51.104 89.907 50.761C89.8961 50.7161 89.8945 50.6694 89.9022 50.6239C89.91 50.5783 89.9269 50.5348 89.952 50.496C89.9853 50.4468 90.0299 50.4063 90.0821 50.3779C90.1344 50.3496 90.1926 50.3342 90.252 50.333C90.3314 50.3338 90.4081 50.362 90.4692 50.4129C90.5302 50.4637 90.5718 50.534 90.587 50.612L90.679 51.034C90.795 51.568 90.915 52.12 91.034 52.656C91.0447 52.7011 91.0462 52.7479 91.0385 52.7936C91.0307 52.8392 91.0138 52.8829 90.9888 52.9219C90.9638 52.9609 90.9312 52.9945 90.8929 53.0206C90.8546 53.0468 90.8115 53.0649 90.766 53.074L90.771 53.075ZM107.541 49.926H107.497C107.404 49.9157 107.319 49.8691 107.261 49.7964C107.202 49.7238 107.174 49.6309 107.184 49.538C107.261 48.816 107.355 48.081 107.437 47.448C107.447 47.366 107.486 47.2904 107.548 47.2353C107.609 47.1801 107.688 47.1491 107.771 47.148C107.789 47.1467 107.806 47.1467 107.824 47.148C107.87 47.1528 107.914 47.1667 107.954 47.189C107.994 47.2113 108.029 47.2415 108.057 47.2778C108.085 47.3141 108.105 47.3557 108.117 47.4C108.128 47.4444 108.131 47.4907 108.124 47.536C108.076 47.902 108.032 48.272 107.99 48.63C107.952 48.95 107.913 49.281 107.871 49.61C107.871 49.6527 107.862 49.6949 107.845 49.7341C107.829 49.7733 107.804 49.8087 107.773 49.8382C107.742 49.8677 107.706 49.8907 107.666 49.9058C107.626 49.9209 107.584 49.9277 107.541 49.926ZM58.869 49.239H58.794C58.7484 49.2302 58.7051 49.2122 58.6667 49.1861C58.6283 49.1601 58.5956 49.1265 58.5705 49.0874C58.5454 49.0483 58.5286 49.0045 58.5209 48.9588C58.5133 48.913 58.515 48.8661 58.526 48.821C58.603 48.469 58.676 48.112 58.747 47.766C58.815 47.438 58.885 47.098 58.958 46.766C58.9732 46.688 59.0148 46.6177 59.0759 46.5669C59.1369 46.516 59.2136 46.4878 59.293 46.487C59.3203 46.4869 59.3474 46.4899 59.374 46.496C59.4196 46.5048 59.4629 46.5228 59.5013 46.5489C59.5397 46.5749 59.5725 46.6085 59.5975 46.6476C59.6226 46.6867 59.6394 46.7304 59.6471 46.7762C59.6547 46.822 59.653 46.8689 59.642 46.914C59.563 47.272 59.486 47.641 59.413 47.997C59.347 48.313 59.28 48.638 59.213 48.958C59.1971 49.0375 59.1541 49.109 59.0914 49.1604C59.0287 49.2118 58.9501 49.24 58.869 49.24V49.239ZM89.878 48.985H89.803C89.724 48.9854 89.6472 48.9592 89.585 48.9106C89.5227 48.8619 89.4787 48.7937 89.46 48.717C89.285 47.908 89.143 47.278 88.998 46.672C88.9873 46.6269 88.9858 46.5801 88.9936 46.5344C89.0013 46.4887 89.0182 46.4451 89.0432 46.4061C89.0683 46.3671 89.1009 46.3335 89.1392 46.3074C89.1774 46.2812 89.2206 46.2631 89.266 46.254C89.2926 46.2479 89.3198 46.2449 89.347 46.245C89.4265 46.2456 89.5033 46.2735 89.5645 46.3242C89.6257 46.3748 89.6676 46.4451 89.683 46.523C89.759 46.874 89.84 47.223 89.919 47.569C89.998 47.915 90.072 48.231 90.145 48.569C90.1557 48.6141 90.1572 48.6609 90.1495 48.7066C90.1417 48.7522 90.1248 48.7959 90.0998 48.8349C90.0748 48.8739 90.0422 48.9075 90.0039 48.9336C89.9656 48.9598 89.9225 48.9779 89.877 48.987L89.878 48.985ZM108.063 45.762H108.018C107.923 45.7467 107.837 45.6942 107.78 45.616C107.754 45.5815 107.736 45.5423 107.726 45.5005C107.715 45.4588 107.713 45.4155 107.72 45.373C107.811 44.723 107.91 44.06 108.032 43.284C108.044 43.2025 108.086 43.1283 108.149 43.0753C108.212 43.0223 108.293 42.9941 108.375 42.996C108.395 42.9945 108.414 42.9945 108.434 42.996C108.479 43.0035 108.522 43.0198 108.561 43.044C108.599 43.0682 108.633 43.0998 108.659 43.137C108.685 43.1742 108.704 43.2162 108.714 43.2607C108.724 43.3051 108.725 43.3511 108.717 43.396C108.599 44.121 108.503 44.751 108.417 45.471C108.399 45.5524 108.355 45.6255 108.291 45.6785C108.227 45.7315 108.146 45.7613 108.063 45.763V45.762ZM59.746 45.136C59.7202 45.1385 59.6942 45.1336 59.671 45.122C59.6255 45.1129 59.5822 45.0947 59.5439 45.0685C59.5055 45.0423 59.4728 45.0087 59.4478 44.9695C59.4228 44.9304 59.4059 44.8866 59.3982 44.8408C59.3905 44.795 59.3922 44.7481 59.403 44.703C59.503 44.224 59.614 43.751 59.719 43.294C59.769 43.078 59.819 42.867 59.864 42.66C59.8813 42.5845 59.9238 42.5172 59.9846 42.4692C60.0453 42.4212 60.1206 42.3954 60.198 42.396C60.2263 42.3959 60.2545 42.3992 60.282 42.406C60.3257 42.4158 60.367 42.4343 60.4035 42.4604C60.4399 42.4866 60.4707 42.5197 60.494 42.558C60.5181 42.5974 60.5341 42.6412 60.5412 42.6869C60.5482 42.7325 60.5461 42.7791 60.535 42.824C60.487 43.0367 60.4377 43.252 60.387 43.47V43.477C60.287 43.929 60.175 44.396 60.075 44.869C60.0645 44.947 60.0246 45.0181 59.9635 45.0678C59.9023 45.1174 59.8245 45.1418 59.746 45.136ZM88.953 44.897H88.878C88.7989 44.8974 88.722 44.871 88.6597 44.8222C88.5974 44.7734 88.5535 44.7049 88.535 44.628C88.464 44.328 88.394 44.028 88.327 43.738V43.729V43.722C88.242 43.353 88.154 42.972 88.063 42.599C88.0413 42.51 88.0557 42.4161 88.1031 42.3377C88.1505 42.2593 88.2271 42.203 88.316 42.181C88.3412 42.1745 88.367 42.1712 88.393 42.171C88.4705 42.1721 88.5456 42.1984 88.6069 42.2458C88.6682 42.2932 88.7124 42.3593 88.733 42.434C88.88 43.034 89.052 43.754 89.209 44.479C89.2308 44.568 89.2163 44.6619 89.1689 44.7403C89.1215 44.8186 89.0449 44.875 88.956 44.897H88.953ZM118.859 44.344H118.815C118.731 44.3453 118.649 44.3154 118.586 44.26C118.522 44.2045 118.482 44.1276 118.472 44.044C118.412 43.577 118.306 42.844 118.144 41.984C118.129 41.8917 118.15 41.797 118.203 41.72C118.229 41.6831 118.262 41.6518 118.3 41.628C118.339 41.6043 118.381 41.5886 118.426 41.582C118.446 41.5804 118.466 41.5804 118.486 41.582C118.568 41.5799 118.649 41.608 118.712 41.6611C118.775 41.7142 118.816 41.7885 118.828 41.87C118.955 42.553 119.065 43.256 119.156 43.959C119.163 44.0059 119.161 44.0538 119.149 44.0998C119.137 44.1457 119.115 44.1887 119.086 44.226C119.059 44.2603 119.024 44.2886 118.985 44.3091C118.947 44.3296 118.904 44.3418 118.86 44.345L118.859 44.344ZM108.731 41.613H108.672C108.628 41.6061 108.586 41.5905 108.549 41.5672C108.511 41.5438 108.479 41.5132 108.453 41.477C108.425 41.4389 108.405 41.3957 108.394 41.3499C108.383 41.3041 108.382 41.2565 108.389 41.21C108.529 40.433 108.679 39.735 108.835 39.135C108.846 39.0908 108.865 39.0492 108.891 39.0125C108.918 38.9758 108.952 38.9448 108.991 38.9212C109.029 38.8976 109.072 38.8819 109.117 38.875C109.162 38.8681 109.208 38.8701 109.252 38.881C109.296 38.8909 109.337 38.9095 109.373 38.9356C109.41 38.9617 109.441 38.9948 109.464 39.033C109.488 39.0724 109.504 39.1162 109.512 39.1618C109.519 39.2075 109.517 39.2541 109.506 39.299C109.347 39.95 109.206 40.633 109.074 41.328C109.057 41.4067 109.014 41.4774 108.952 41.5292C108.891 41.5809 108.813 41.6108 108.733 41.614L108.731 41.613ZM60.699 41.06C60.6687 41.0622 60.6382 41.0574 60.61 41.046C60.5662 41.0359 60.5249 41.0172 60.4885 40.991C60.4521 40.9647 60.4213 40.9314 60.398 40.893C60.3739 40.8536 60.3579 40.8098 60.3508 40.7641C60.3438 40.7184 60.3459 40.6718 60.357 40.627C60.4083 40.427 60.459 40.227 60.509 40.027C60.634 39.527 60.751 39.057 60.878 38.602C60.8992 38.5257 60.945 38.4585 61.0083 38.411C61.0716 38.3634 61.1488 38.3381 61.228 38.339C61.2556 38.3389 61.2831 38.3419 61.31 38.348C61.3553 38.3582 61.3979 38.3779 61.4351 38.4056C61.4723 38.4333 61.5033 38.4686 61.526 38.509C61.5722 38.5918 61.5854 38.6889 61.563 38.781C61.5077 39.0023 61.451 39.2253 61.393 39.45C61.28 39.892 61.164 40.35 61.056 40.81C61.0291 40.883 60.9806 40.946 60.917 40.9909C60.8535 41.0357 60.7778 41.0601 60.7 41.061L60.699 41.06ZM87.899 40.821C87.8205 40.819 87.7447 40.7918 87.6829 40.7433C87.6212 40.6949 87.5766 40.6278 87.556 40.552L87.513 40.388C87.352 39.769 87.186 39.13 87.035 38.523C87.0139 38.4322 87.0283 38.3367 87.0754 38.2562C87.1224 38.1756 87.1985 38.1162 87.288 38.09C87.3152 38.0833 87.343 38.08 87.371 38.08C87.4499 38.0805 87.5264 38.1065 87.5893 38.1541C87.6522 38.2017 87.698 38.2683 87.72 38.344C87.92 39.061 88.091 39.744 88.241 40.374C88.2522 40.4186 88.2544 40.465 88.2475 40.5105C88.2407 40.556 88.2249 40.5997 88.201 40.639C88.1776 40.6775 88.1466 40.7108 88.1101 40.7371C88.0735 40.7634 88.032 40.7821 87.988 40.792C87.962 40.8122 87.9299 40.8231 87.897 40.823L87.899 40.821ZM118.133 40.221H118.059C117.98 40.2214 117.903 40.195 117.841 40.1462C117.778 40.0974 117.734 40.0289 117.716 39.952C117.549 39.285 117.365 38.583 117.15 37.967C117.122 37.88 117.13 37.7856 117.172 37.7044C117.214 37.6233 117.286 37.562 117.373 37.534C117.405 37.5232 117.439 37.5174 117.473 37.517C117.546 37.518 117.617 37.5418 117.676 37.585C117.735 37.6282 117.779 37.6886 117.802 37.758C118.002 38.363 118.202 39.051 118.383 39.802C118.404 39.8911 118.389 39.9849 118.342 40.0631C118.294 40.1414 118.218 40.1977 118.129 40.22L118.133 40.221ZM109.733 37.55C109.699 37.5519 109.665 37.5468 109.633 37.535C109.545 37.5047 109.472 37.4408 109.43 37.3572C109.388 37.2735 109.381 37.1769 109.41 37.088C109.625 36.4016 109.904 35.737 110.244 35.103C110.274 35.0496 110.317 35.0051 110.37 34.9741C110.423 34.9432 110.483 34.9269 110.544 34.927C110.604 34.9273 110.663 34.9417 110.717 34.969C110.797 35.0157 110.856 35.0917 110.881 35.1809C110.906 35.2701 110.895 35.3655 110.851 35.447C110.529 36.0422 110.265 36.6667 110.062 37.312C110.039 37.3817 109.994 37.4425 109.935 37.486C109.876 37.5295 109.805 37.5536 109.731 37.555L109.733 37.55ZM61.758 37.003C61.7276 37.0055 61.697 37.0003 61.669 36.988C61.6251 36.9767 61.5839 36.9566 61.548 36.9289C61.5121 36.9013 61.4821 36.8666 61.46 36.827C61.4369 36.7862 61.4223 36.7411 61.4174 36.6945C61.4124 36.6479 61.417 36.6007 61.431 36.556C61.622 35.878 61.818 35.182 62.012 34.541C62.0372 34.4686 62.0842 34.4058 62.1465 34.3613C62.2088 34.3167 62.2834 34.2925 62.36 34.292C62.3883 34.2919 62.4165 34.2952 62.444 34.302C62.5302 34.332 62.6022 34.3928 62.6462 34.4728C62.6901 34.5527 62.7029 34.6462 62.682 34.735C62.489 35.374 62.294 36.052 62.101 36.749C62.0791 36.8228 62.0338 36.8875 61.9719 36.9333C61.9101 36.9791 61.835 37.0036 61.758 37.003ZM86.928 36.779H86.809C86.7338 36.7795 86.6606 36.7547 86.6011 36.7087C86.5417 36.6626 86.4994 36.5979 86.481 36.525C86.269 35.775 86.081 35.125 85.9 34.525C85.8862 34.4836 85.8809 34.4399 85.8843 34.3965C85.8877 34.353 85.8999 34.3107 85.92 34.272C85.9425 34.229 85.9734 34.1911 86.0108 34.1603C86.0483 34.1296 86.0915 34.1067 86.138 34.093C86.1702 34.0821 86.204 34.0764 86.238 34.076C86.3131 34.0774 86.3858 34.1031 86.4451 34.1493C86.5044 34.1954 86.5472 34.2595 86.567 34.332L86.628 34.532C86.806 35.121 86.99 35.732 87.163 36.344C87.1873 36.4329 87.1761 36.5279 87.1317 36.6087C87.0873 36.6895 87.0132 36.7499 86.925 36.777L86.928 36.779ZM116.715 36.257C116.65 36.2571 116.586 36.239 116.531 36.2047C116.476 36.1704 116.432 36.1213 116.403 36.063C116.132 35.4535 115.776 34.8857 115.345 34.377C115.301 34.3262 115.273 34.264 115.263 34.1976C115.253 34.1312 115.262 34.0634 115.29 34.0021C115.317 33.9408 115.361 33.8885 115.417 33.8513C115.473 33.8141 115.538 33.7935 115.605 33.792C115.655 33.7926 115.704 33.8037 115.749 33.8248C115.794 33.8458 115.835 33.8762 115.867 33.914C116.338 34.4684 116.729 35.086 117.029 35.749C117.051 35.7912 117.063 35.8374 117.066 35.8847C117.069 35.932 117.062 35.9795 117.046 36.024C117.031 36.0661 117.007 36.1045 116.976 36.1369C116.945 36.1692 116.907 36.1948 116.866 36.212C116.821 36.2401 116.769 36.2553 116.716 36.256L116.715 36.257ZM111.904 34.078C111.848 34.077 111.794 34.063 111.745 34.0372C111.696 34.0113 111.653 33.9742 111.621 33.929C111.57 33.852 111.55 33.7589 111.565 33.668C111.573 33.6238 111.59 33.5818 111.614 33.5445C111.639 33.5073 111.672 33.4758 111.71 33.452C112.265 33.0291 112.938 32.7894 113.635 32.766C113.724 32.766 113.812 32.7706 113.9 32.78C113.946 32.7837 113.99 32.7969 114.03 32.8188C114.071 32.8406 114.106 32.8707 114.134 32.907C114.192 32.981 114.22 33.0743 114.212 33.168C114.203 33.2559 114.16 33.3371 114.094 33.3954C114.027 33.4538 113.941 33.485 113.853 33.483H113.825C113.762 33.4757 113.699 33.472 113.636 33.472C113.083 33.5025 112.552 33.6982 112.112 34.034C112.046 34.0607 111.976 34.0753 111.905 34.077L111.904 34.078ZM62.964 32.989C62.93 32.9909 62.896 32.9858 62.864 32.974C62.7775 32.9448 62.7058 32.8831 62.664 32.802C62.6427 32.7623 62.6297 32.7187 62.6258 32.6738C62.6218 32.629 62.627 32.5838 62.641 32.541C62.901 31.741 63.114 31.109 63.311 30.541C63.3344 30.4733 63.3782 30.4145 63.4364 30.3728C63.4947 30.3311 63.5644 30.3084 63.636 30.308C63.6779 30.3078 63.7193 30.316 63.758 30.332C63.8021 30.3474 63.8426 30.3717 63.877 30.4033C63.9114 30.435 63.939 30.4733 63.958 30.516C63.9774 30.5569 63.988 30.6015 63.9892 30.6468C63.9904 30.692 63.9822 30.7371 63.965 30.779C63.771 31.324 63.565 31.936 63.295 32.764C63.2701 32.831 63.2249 32.8886 63.1658 32.9287C63.1066 32.9688 63.0365 32.9896 62.965 32.988L62.964 32.989ZM85.587 32.765C85.5136 32.767 85.4416 32.7447 85.3822 32.7014C85.3229 32.6582 85.2795 32.5965 85.259 32.526C84.991 31.707 84.78 31.099 84.573 30.557C84.5431 30.4698 84.5481 30.3744 84.5871 30.2908C84.6261 30.2072 84.6959 30.1421 84.782 30.109C84.8188 30.0969 84.8573 30.0909 84.896 30.091C84.9683 30.0893 85.0393 30.1103 85.099 30.151C85.1587 30.1917 85.2042 30.2501 85.229 30.318C85.443 30.918 85.687 31.604 85.914 32.303C85.9394 32.3919 85.9306 32.4871 85.8893 32.5698C85.8481 32.6525 85.7773 32.7168 85.691 32.75C85.6581 32.7619 85.6229 32.7667 85.588 32.764L85.587 32.765ZM64.346 29.033C64.3043 29.0322 64.2632 29.022 64.226 29.003C64.1838 28.9866 64.1453 28.9619 64.1127 28.9305C64.0801 28.899 64.054 28.8614 64.0361 28.8198C64.0181 28.7783 64.0086 28.7335 64.0081 28.6882C64.0075 28.6429 64.016 28.598 64.033 28.556C64.339 27.791 64.594 27.169 64.833 26.6C64.8596 26.5377 64.9042 26.4848 64.961 26.4479C65.0178 26.411 65.0843 26.3919 65.152 26.393C65.2011 26.3928 65.2496 26.4023 65.295 26.421C65.3798 26.459 65.4461 26.5291 65.4794 26.6158C65.5128 26.7025 65.5105 26.7989 65.473 26.884C65.173 27.57 64.914 28.2 64.684 28.809C64.6518 28.8724 64.6038 28.9263 64.5446 28.9656C64.4853 29.0048 64.4169 29.0281 64.346 29.033ZM84.154 28.824C84.0836 28.8219 84.0153 28.7997 83.9572 28.76C83.8991 28.7203 83.8535 28.6648 83.826 28.6C83.507 27.8 83.255 27.214 83.007 26.69C82.9696 26.6049 82.9673 26.5085 83.0006 26.4218C83.034 26.3351 83.1002 26.265 83.185 26.227C83.2303 26.2079 83.2789 26.198 83.328 26.198C83.3962 26.1959 83.4634 26.2144 83.521 26.2509C83.5785 26.2875 83.6238 26.3404 83.651 26.403C83.941 27.029 84.216 27.703 84.471 28.343C84.4891 28.3869 84.498 28.434 84.4971 28.4815C84.4963 28.529 84.4857 28.5758 84.466 28.619C84.4483 28.6591 84.4225 28.6952 84.3901 28.7248C84.3577 28.7544 84.3196 28.7769 84.278 28.791C84.2612 28.8041 84.2419 28.8138 84.2213 28.8195C84.2007 28.8251 84.1792 28.8267 84.158 28.824H84.154ZM66.033 25.198C65.9845 25.197 65.9365 25.1878 65.891 25.171H65.884C65.8429 25.1511 65.8063 25.1231 65.7762 25.0887C65.7462 25.0544 65.7233 25.0143 65.709 24.971C65.6956 24.9283 65.6909 24.8833 65.6954 24.8388C65.6999 24.7943 65.7133 24.7511 65.735 24.712C66.051 24.079 66.391 23.451 66.747 22.846C66.7784 22.7943 66.8223 22.7513 66.8748 22.7212C66.9273 22.6912 66.9865 22.6749 67.047 22.674C67.1094 22.6742 67.1705 22.6923 67.223 22.726C67.2625 22.7493 67.297 22.7802 67.3245 22.8169C67.352 22.8536 67.3718 22.8954 67.383 22.9399C67.3942 22.9844 67.3964 23.0306 67.3895 23.076C67.3827 23.1213 67.3668 23.1648 67.343 23.204C67.028 23.734 66.707 24.33 66.36 25.025C66.3206 25.0751 66.2712 25.1163 66.2148 25.1461C66.1585 25.1759 66.0966 25.1936 66.033 25.198ZM82.433 25.019C82.3702 25.017 82.3088 24.9996 82.2543 24.9684C82.1997 24.9372 82.1536 24.8931 82.12 24.84C81.776 24.196 81.43 23.594 81.092 23.049C81.0421 22.9718 81.0248 22.8779 81.044 22.788C81.0538 22.7435 81.0724 22.7013 81.0987 22.6641C81.1249 22.6268 81.1584 22.5952 81.197 22.571C81.2534 22.5347 81.319 22.5153 81.386 22.515C81.4437 22.5153 81.5004 22.5302 81.5508 22.5583C81.6012 22.5865 81.6435 22.627 81.674 22.676C82.067 23.301 82.413 23.901 82.731 24.512C82.7531 24.5532 82.7666 24.5984 82.7709 24.645C82.7752 24.6915 82.7701 24.7384 82.756 24.783C82.7426 24.8275 82.7203 24.8688 82.6903 24.9044C82.6604 24.94 82.6236 24.9691 82.582 24.99C82.5332 25.0065 82.4824 25.0163 82.431 25.019H82.433ZM68.18 21.619C68.1419 21.6214 68.1037 21.616 68.0678 21.6031C68.0318 21.5902 67.9989 21.5701 67.971 21.544C67.8965 21.4882 67.8469 21.4054 67.8329 21.3133C67.8188 21.2213 67.8415 21.1275 67.896 21.052C68.316 20.4802 68.779 19.9413 69.281 19.44C69.3473 19.3803 69.434 19.3483 69.5232 19.3507C69.6123 19.3531 69.6972 19.3896 69.7602 19.4528C69.8232 19.5159 69.8596 19.6008 69.8618 19.69C69.864 19.7792 69.8318 19.8658 69.772 19.932C69.2951 20.4086 68.857 20.9226 68.462 21.469C68.4303 21.5148 68.3878 21.5522 68.3383 21.5778C68.2888 21.6035 68.2338 21.6166 68.178 21.616L68.18 21.619ZM80.18 21.499C80.1277 21.5006 80.0759 21.4892 80.0291 21.4658C79.9823 21.4424 79.9421 21.4078 79.912 21.365C79.4961 20.8317 79.0325 20.3373 78.527 19.888C78.4583 19.8262 78.4166 19.7399 78.411 19.6476C78.4054 19.5554 78.4363 19.4647 78.497 19.395C78.5289 19.3588 78.5682 19.3299 78.6121 19.3101C78.6561 19.2902 78.7038 19.28 78.752 19.28C78.8384 19.2812 78.9219 19.3115 78.989 19.366C79.5146 19.8483 80.0017 20.3709 80.446 20.929C80.502 21.0029 80.527 21.0956 80.5158 21.1876C80.5046 21.2796 80.458 21.3637 80.386 21.422C80.3588 21.4475 80.3267 21.4672 80.2916 21.48C80.2565 21.4927 80.2193 21.4981 80.182 21.496L80.18 21.499ZM71.146 18.795C71.0842 18.7965 71.0233 18.7804 70.9702 18.7488C70.9171 18.7171 70.8741 18.6711 70.846 18.616C70.8233 18.5759 70.8088 18.5317 70.8032 18.486C70.7977 18.4403 70.8012 18.3939 70.8137 18.3496C70.8261 18.3052 70.8472 18.2638 70.8758 18.2277C70.9043 18.1915 70.9398 18.1614 70.98 18.139C71.5986 17.7727 72.2792 17.5232 72.988 17.403H73.032C73.05 17.4016 73.068 17.4016 73.086 17.403C73.1743 17.4052 73.2586 17.4402 73.3224 17.5011C73.3863 17.5621 73.4251 17.6447 73.4314 17.7328C73.4376 17.8208 73.4108 17.9081 73.3562 17.9775C73.3016 18.0468 73.2231 18.0934 73.136 18.108H73.106C72.4786 18.2112 71.877 18.4343 71.334 18.765L71.304 18.771C71.2523 18.7842 71.1993 18.7922 71.146 18.795ZM77.073 18.781C77.0154 18.7801 76.959 18.7646 76.909 18.736C76.3351 18.4257 75.7153 18.209 75.073 18.094C75.0281 18.0865 74.9851 18.0702 74.9465 18.046C74.9079 18.0218 74.8745 17.9901 74.8482 17.953C74.8219 17.9158 74.8032 17.8737 74.7932 17.8293C74.7832 17.7848 74.7821 17.7389 74.79 17.694C74.8015 17.6117 74.843 17.5365 74.9064 17.4828C74.9699 17.4291 75.0509 17.4007 75.134 17.403C75.1536 17.4015 75.1734 17.4015 75.193 17.403C75.908 17.527 76.5974 17.769 77.233 18.119C77.3143 18.1645 77.375 18.2394 77.4027 18.3283C77.4305 18.4172 77.423 18.5134 77.382 18.597C77.3512 18.653 77.3059 18.6996 77.2508 18.732C77.1957 18.7644 77.1329 18.7813 77.069 18.781H77.073Z" fill="#3D5CFF"/>
<path d="M24.896 54.473C20.6219 46.513 18.6322 37.5262 19.147 28.506C19.147 28.506 17.33 15.873 12.43 15.602C7.52996 15.331 6.54696 16.873 4.44696 23.601C2.34696 30.329 5.42996 53.073 10.196 64.73C14.962 76.387 26.276 85.758 26.276 85.758L41.006 67.536C41.006 67.536 29.289 62.701 24.896 54.473Z" fill="#DA5742"/>
<path d="M4.93801 43.613C5.92101 41.195 8.17001 35.674 9.77801 32.465C11.879 28.257 12.013 27.406 12.013 27.406L3.85101 32.823C4.00001 36.077 4.37201 39.793 4.93801 43.613Z" fill="#C43D28"/>
<path d="M17.762 76.982C20.3352 80.1482 23.1793 83.0843 26.262 85.757L41.011 67.535C38.6757 66.4388 36.4299 65.1616 34.294 63.715L17.762 76.982Z" fill="#C43D28"/>
<path d="M37.094 64.73C37.094 64.73 49.709 70.03 56.709 69.759C64.5975 69.5666 72.4482 70.9099 79.824 73.714C87.673 76.669 93.69 86.623 95.939 91.264C98.188 95.905 100.005 105.024 100.005 105.024H78.275L82.475 128.051H27.979L35.962 93.23L22.662 82.982L37.094 64.73Z" fill="#3D5CFF"/>
<path d="M56.709 32.033C51.258 32.733 49.977 39.749 49.977 39.749C49.977 39.749 42.098 38.898 38.777 42.838C34.994 47.33 41.026 50.554 41.026 50.554C41.026 50.554 34.949 48.986 34.443 52.941C33.877 57.299 37.526 59.119 53.075 62.477C68.624 65.835 87.956 71.312 91.039 66.82C94.807 61.328 83.473 58.955 83.473 58.955C83.473 58.955 89.222 59.522 89.222 54.597C89.222 49.672 77.588 44.21 77.588 44.21C77.588 44.21 77.588 34.11 69.873 32.987C64.437 32.211 63.707 34.136 63.707 34.136C63.707 34.136 62.16 31.331 56.709 32.033Z" fill="#F99A3D"/>
<path d="M78.379 105.024H83.443L75.549 90.697L78.379 105.024Z" fill="#224BF4"/>
<path d="M30.019 73.684L28.962 75.012L28.292 87.312L35.979 93.234L27.979 128.034H29.036L32.328 124.527L52.079 123.275L64.5 128.036H70.174L48.428 92.294L30.019 73.684Z" fill="#224BF4"/>
<path d="M52.494 57.015C53.328 60.671 57.394 62.492 57.394 62.492L56.123 71.058C56.744 72.0875 57.6311 72.9306 58.6908 73.4985C59.7506 74.0664 60.9438 74.3381 62.145 74.285C64.3346 74.2516 66.4321 73.398 68.023 71.893L69.289 59.402C69.289 59.402 74.338 59.268 75.872 55.194C76.944 52.359 75.306 49.866 72.789 49.717C72.0463 49.6969 71.3125 49.8823 70.6686 50.2529C70.0247 50.6235 69.4957 51.1648 69.14 51.817C68.2832 51.4753 67.5397 50.8995 66.9946 50.1554C66.4494 49.4113 66.1245 48.5289 66.057 47.609C65.64 44.236 65.774 41.58 63.957 41.009C63.4156 40.8554 62.8426 40.852 62.2995 40.9993C61.7564 41.1466 61.2636 41.4389 60.874 41.845C60.8632 41.6089 60.8015 41.3779 60.6931 41.168C60.5846 40.958 60.4319 40.774 60.2456 40.6286C60.0593 40.4832 59.8437 40.3799 59.6137 40.3258C59.3836 40.2717 59.1446 40.268 58.913 40.315C57.096 40.599 56.53 43.538 55.83 44.673C54.9802 45.9156 53.8335 46.9262 52.494 47.613C52.494 47.613 51.66 53.373 52.494 57.015Z" fill="#DA5742"/>
<path opacity="0.55" d="M50.23 129.14C48.5957 129.077 46.9864 128.718 45.48 128.081C41.311 126.292 38.629 122.255 38.121 117.007C37.586 111.508 39.579 106.192 43.081 103.77C45.4796 102.21 48.0067 100.858 50.635 99.727L50.704 99.695C55.062 97.669 59.178 95.756 61.13 92.129C59.3868 91.7368 57.769 90.916 56.423 89.741C54.435 88.048 53.489 86.012 53.891 84.294C54.0443 83.3511 54.5285 82.4936 55.2567 81.8753C55.985 81.257 56.9096 80.9183 57.865 80.92C58.1308 80.92 58.396 80.9455 58.657 80.996C61.173 81.488 63.514 84.257 62.709 89.174C62.5686 90.0411 62.3235 90.888 61.979 91.696C62.2263 91.724 62.475 91.7384 62.724 91.739C63.2991 91.7494 63.8708 91.6475 64.407 91.439C65.794 90.877 66.595 89.571 66.79 87.558C67.147 83.666 66.071 80.585 63.677 78.649C61.5211 77.0617 58.8913 76.251 56.216 76.349C54.4117 76.3578 52.6194 76.6421 50.901 77.192C49.8098 77.5488 48.6708 77.7379 47.523 77.753C46.8428 77.7586 46.1652 77.6708 45.509 77.492C44.8756 77.354 44.2837 77.0683 43.7817 76.6582C43.2796 76.2481 42.8816 75.7251 42.62 75.132C41.935 73.317 42.855 70.41 47.728 68.192L47.967 68.7C43.435 70.765 42.545 73.342 43.155 74.922C43.69 76.314 45.363 77.178 47.521 77.178C48.6142 77.1631 49.6988 76.981 50.737 76.638C52.5062 76.0746 54.3512 75.7852 56.208 75.78C59.016 75.6808 61.7749 76.5356 64.035 78.205C66.58 80.264 67.729 83.515 67.357 87.605C67.105 90.37 65.735 91.502 64.635 91.966C64.0182 92.197 63.3635 92.31 62.705 92.299C62.3842 92.2986 62.0639 92.2772 61.746 92.235C59.746 96.127 55.479 98.107 50.963 100.205C48.3403 101.331 45.8188 102.678 43.426 104.234C40.135 106.483 38.195 111.712 38.702 116.948C39.194 121.975 41.756 125.848 45.732 127.559C47.1798 128.163 48.7228 128.506 50.29 128.573L50.231 129.139L50.23 129.14ZM57.811 81.492C57 81.5288 56.2255 81.8397 55.6141 82.3737C55.0027 82.9077 54.5905 83.6334 54.445 84.432C54.102 85.945 54.982 87.775 56.799 89.332C58.1129 90.4756 59.6957 91.267 61.399 91.632C61.7692 90.8311 62.025 89.9821 62.159 89.11C62.904 84.574 60.813 82.024 58.559 81.573C58.3135 81.5178 58.0625 81.4906 57.811 81.492Z" fill="#EAEAFF"/>
<path opacity="0.55" d="M61.936 125.827C59.3219 125.917 56.7218 125.407 54.336 124.335C52.779 123.591 52.017 121.719 52.195 119.067C52.433 115.526 54.243 111.034 57.036 107.053C60.213 102.545 64.244 99.323 68.385 97.98C70.0196 97.4414 71.7279 97.1593 73.449 97.144C73.88 97.144 74.311 97.164 74.73 97.203C79.318 94.728 83.979 91.547 86.988 85.085C87.7696 83.2686 87.8491 81.2267 87.211 79.355L87.747 79.191C88.4194 81.1922 88.3294 83.3712 87.494 85.31C86.1876 88.1789 84.3222 90.7586 82.007 92.898C80.0846 94.6178 77.9612 96.0986 75.683 97.308C76.4656 97.4359 77.2337 97.6409 77.976 97.92C79.1211 98.2903 80.1754 98.8976 81.0703 99.7024C81.9652 100.507 82.6806 101.491 83.17 102.591C84.063 104.919 83.5 108.097 79.239 110.039C77.5126 110.846 75.6328 111.273 73.727 111.291C71.4405 111.357 69.2082 110.588 67.447 109.129C66.7304 108.555 66.2045 107.777 65.9385 106.897C65.6726 106.018 65.679 105.079 65.957 104.204C66.93 101.296 69.857 99.767 73.241 97.996C73.406 97.913 73.593 97.82 73.776 97.712C73.698 97.712 73.613 97.712 73.501 97.712C71.8232 97.7256 70.1576 97.9981 68.563 98.52C59.563 101.427 53.193 112.651 52.763 119.1C52.645 120.794 52.863 122.987 54.595 123.816C56.9016 124.845 59.4129 125.333 61.937 125.243C64.14 125.201 66.3391 125.04 68.525 124.762L68.58 124.756L69.414 124.667L69.473 125.219L68.639 125.309C66.4174 125.619 64.1788 125.792 61.936 125.827ZM74.836 97.786C74.398 98.012 73.947 98.253 73.496 98.502L73.469 98.516C70.062 100.305 67.369 101.716 66.496 104.397C66.253 105.169 66.2512 105.997 66.4906 106.77C66.73 107.543 67.1993 108.224 67.836 108.724C69.4921 110.091 71.5894 110.808 73.736 110.742C75.5641 110.724 77.3672 110.315 79.024 109.542C82.299 108.051 83.697 105.472 82.673 102.812C82.2094 101.788 81.5364 100.873 80.6975 100.125C79.8585 99.3765 78.8722 98.8126 77.802 98.469C76.8477 98.1133 75.8514 97.8824 74.838 97.782L74.836 97.786Z" fill="#EAEAFF"/>
<path opacity="0.55" d="M81.223 83.355C78.846 82.1931 76.9143 80.2854 75.723 77.923C74.685 75.714 74.789 73.64 75.981 72.64L76.338 73.073C75.338 73.894 75.295 75.7 76.238 77.684C77.727 80.848 82.657 85.728 91.683 83.984L91.783 84.536C90.5506 84.7699 89.2994 84.8897 88.045 84.894C85.682 84.9209 83.3456 84.3938 81.223 83.355Z" fill="#EAEAFF"/>
<path d="M99.441 100.95V101.517H77.441V100.95H99.441Z" fill="#EAEAFF"/>
<path d="M62.16 46.761C62.2144 46.5468 62.343 46.3589 62.5231 46.2307C62.7031 46.1025 62.9228 46.0423 63.143 46.061C63.3625 46.0459 63.5805 46.1075 63.7597 46.2351C63.939 46.3627 64.0684 46.5486 64.126 46.761" fill="white"/>
<path d="M55.16 46.478C55.16 46.478 55.577 45.642 56.277 45.777C56.481 45.8226 56.6677 45.9253 56.8154 46.0732C56.9631 46.2211 57.0656 46.408 57.111 46.612" fill="white"/>
<path d="M58.88 48.434C58.731 48.834 58.567 49.255 58.448 49.673C58.3829 49.8661 58.3527 50.0693 58.359 50.273C58.3835 50.3629 58.4268 50.4466 58.4859 50.5186C58.545 50.5906 58.6186 50.6494 58.702 50.691C59.0785 50.9016 59.4853 51.0527 59.908 51.139C59.6832 51.1412 59.4588 51.1211 59.238 51.079C59.0113 51.0389 58.791 50.9686 58.583 50.87C58.538 50.84 58.483 50.81 58.434 50.78C58.3808 50.745 58.3309 50.7051 58.285 50.661C58.1894 50.5671 58.1222 50.4483 58.091 50.318C58.069 50.0743 58.0951 49.8286 58.168 49.595C58.2931 49.1615 58.4631 48.7423 58.675 48.344C58.8768 47.9458 59.1056 47.5618 59.36 47.195C59.211 47.613 59.047 48.016 58.88 48.434Z" fill="#1F1F39"/>
<path d="M58.66 53.224C59.3028 53.6959 60.1039 53.8992 60.894 53.791C62.011 53.506 62.16 52.806 62.16 52.806" fill="white"/>
<path d="M55.725 50C55.4755 49.9667 55.2488 49.8375 55.093 49.6398C54.9373 49.442 54.8648 49.1913 54.891 48.941C54.8645 48.6905 54.9369 48.4396 55.0927 48.2416C55.2484 48.0436 55.4753 47.9142 55.725 47.881C55.9747 47.9142 56.2015 48.0436 56.3573 48.2416C56.513 48.4396 56.5854 48.6905 56.559 48.941C56.5851 49.1913 56.5126 49.442 56.3569 49.6398C56.2012 49.8375 55.9745 49.9667 55.725 50Z" fill="#1F1F39"/>
<path d="M63.143 50C62.8935 49.9667 62.6668 49.8375 62.5111 49.6398C62.3553 49.442 62.2828 49.1913 62.309 48.941C62.2826 48.6905 62.3549 48.4396 62.5107 48.2416C62.6664 48.0436 62.8933 47.9142 63.143 47.881C63.3927 47.9142 63.6195 48.0436 63.7753 48.2416C63.9311 48.4396 64.0034 48.6905 63.977 48.941C64.0031 49.1913 63.9307 49.442 63.7749 49.6398C63.6192 49.8375 63.3925 49.9667 63.143 50Z" fill="#1F1F39"/>
<path d="M68.8436 53.0753C68.7562 54.1016 67.3432 54.8193 65.6881 54.6783C64.0331 54.5374 62.7609 53.591 62.8483 52.5647C62.9357 51.5384 64.3488 50.8198 66.0048 50.9608C67.6608 51.1018 68.9314 52.0441 68.8436 53.0753Z" fill="#C43D28"/>
<path d="M0.989984 31.825C0.830042 31.6669 0.703061 31.4786 0.616396 31.2711C0.529732 31.0636 0.485107 30.8409 0.485107 30.616C0.485107 30.3911 0.529732 30.1684 0.616396 29.9609C0.703061 29.7534 0.830042 29.5651 0.989984 29.407L29.782 0.555992C29.9399 0.397557 30.1276 0.27185 30.3342 0.186077C30.5408 0.100304 30.7623 0.0561523 30.986 0.0561523C31.2097 0.0561523 31.4312 0.100304 31.6378 0.186077C31.8444 0.27185 32.0321 0.397557 32.19 0.555992L34.528 2.89899C34.6879 3.0571 34.8149 3.24537 34.9016 3.4529C34.9882 3.66043 35.0329 3.88309 35.0329 4.10799C35.0329 4.33289 34.9882 4.55555 34.9016 4.76308C34.8149 4.97061 34.6879 5.15889 34.528 5.31699L5.74398 34.168C5.58597 34.3272 5.39801 34.4535 5.19094 34.5397C4.98387 34.626 4.76179 34.6703 4.53748 34.6703C4.31318 34.6703 4.0911 34.626 3.88403 34.5397C3.67696 34.4535 3.489 34.3272 3.33098 34.168L0.989984 31.825Z" fill="#EAEAFF"/>
<path d="M27.829 2.49899L26.742 3.58799L29.736 6.59899C29.8051 6.67923 29.89 6.74435 29.9854 6.79029C30.0808 6.83623 30.1846 6.862 30.2905 6.86599C30.3963 6.86998 30.5018 6.85211 30.6004 6.81348C30.6989 6.77486 30.7885 6.71632 30.8634 6.64151C30.9384 6.56671 30.9971 6.47725 31.0359 6.37874C31.0747 6.28022 31.0928 6.17475 31.089 6.06894C31.0852 5.96312 31.0596 5.85922 31.0138 5.76374C30.9681 5.66825 30.9031 5.58323 30.823 5.51399L27.829 2.49899Z" fill="#FFFFFE"/>
<path d="M24.062 6.27399L27.056 9.28499C27.1251 9.36522 27.21 9.43035 27.3054 9.47629C27.4008 9.52223 27.5047 9.548 27.6105 9.55199C27.7163 9.55598 27.8218 9.5381 27.9204 9.49948C28.0189 9.46086 28.1085 9.40231 28.1835 9.32751C28.2584 9.25271 28.3171 9.16325 28.3559 9.06473C28.3947 8.96621 28.4128 8.86075 28.409 8.75493C28.4052 8.64912 28.3796 8.54522 28.3338 8.44974C28.2881 8.35425 28.2231 8.26923 28.143 8.19999L25.149 5.18499L24.062 6.27399Z" fill="#FFFFFE"/>
<path d="M21.679 8.66199L24.673 11.673C24.82 11.8001 25.0098 11.8669 25.2041 11.8599C25.3984 11.853 25.5828 11.7728 25.7205 11.6354C25.8581 11.4981 25.9386 11.3137 25.9459 11.1195C25.9533 10.9252 25.8868 10.7353 25.76 10.588L22.766 7.57299L21.679 8.66199Z" fill="#FFFFFE"/>
<path d="M18.849 11.498L21.843 14.509C21.9121 14.5892 21.997 14.6544 22.0924 14.7003C22.1878 14.7462 22.2916 14.772 22.3975 14.776C22.5033 14.78 22.6088 14.7621 22.7073 14.7235C22.8059 14.6849 22.8955 14.6263 22.9704 14.5515C23.0454 14.4767 23.1041 14.3873 23.1429 14.2887C23.1817 14.1902 23.1998 14.0848 23.196 13.9789C23.1922 13.8731 23.1666 13.7692 23.1208 13.6737C23.0751 13.5783 23.0101 13.4932 22.93 13.424L19.936 10.409L18.849 11.498Z" fill="#FFFFFE"/>
<path d="M16.168 14.184L19.162 17.195C19.3091 17.3221 19.4988 17.3889 19.6931 17.382C19.8874 17.375 20.0719 17.2948 20.2095 17.1574C20.3471 17.0201 20.4276 16.8357 20.4349 16.6415C20.4423 16.4472 20.3758 16.2573 20.249 16.11L17.255 13.095L16.168 14.184Z" fill="#FFFFFE"/>
<path d="M13.785 16.572L16.779 19.583C16.8481 19.6632 16.933 19.7284 17.0284 19.7743C17.1238 19.8202 17.2276 19.846 17.3334 19.85C17.4392 19.854 17.5447 19.8361 17.6433 19.7975C17.7419 19.7589 17.8315 19.7003 17.9064 19.6255C17.9814 19.5507 18.0401 19.4613 18.0789 19.3627C18.1177 19.2642 18.1357 19.1588 18.132 19.0529C18.1282 18.9471 18.1026 18.8432 18.0568 18.7477C18.011 18.6523 17.9461 18.5672 17.866 18.498L14.872 15.483L13.785 16.572Z" fill="#FFFFFE"/>
<path d="M10.583 19.78L13.577 22.791C13.7241 22.9181 13.9138 22.9849 14.1081 22.978C14.3024 22.971 14.4869 22.8908 14.6245 22.7534C14.7621 22.6161 14.8427 22.4318 14.85 22.2375C14.8573 22.0432 14.7909 21.8533 14.664 21.706L11.67 18.691L10.583 19.78Z" fill="#FFFFFE"/>
<path d="M7.90198 22.466L10.896 25.477C11.0431 25.6041 11.2328 25.6709 11.4271 25.664C11.6214 25.657 11.8059 25.5768 11.9435 25.4394C12.0811 25.3021 12.1616 25.1177 12.169 24.9235C12.1763 24.7292 12.1098 24.5393 11.983 24.392L8.98898 21.377L7.90198 22.466Z" fill="#FFFFFE"/>
<path d="M5.51898 24.854L8.51298 27.865C8.58208 27.9452 8.66698 28.0103 8.76238 28.0563C8.85778 28.1022 8.96163 28.128 9.06744 28.132C9.17325 28.136 9.27874 28.1181 9.37733 28.0795C9.47592 28.0409 9.56548 27.9823 9.64043 27.9075C9.71537 27.8327 9.77407 27.7433 9.81288 27.6447C9.85169 27.5462 9.86976 27.4408 9.86596 27.3349C9.86216 27.2291 9.83658 27.1252 9.79082 27.0297C9.74506 26.9343 9.68009 26.8492 9.59998 26.78L6.60598 23.765L5.51898 24.854Z" fill="#FFFFFE"/>
<path d="M11.998 28.66C12.1781 26.9377 12.6996 25.2685 13.532 23.75C14.1003 22.7101 14.9807 21.8749 16.049 21.362C16.049 21.362 12.132 18.692 11.998 16.169C11.864 13.646 13.681 13.497 14.515 14.064C15.349 14.631 17.881 17.571 19.281 18.422C20.681 19.273 22.364 19.407 22.93 22.496C23.496 25.585 18.313 30.644 18.313 30.644" fill="#DA5742"/>
<path d="M2.21197 21.781C1.37797 23.881 4.02897 26.974 5.29497 27.542C5.79606 27.7698 6.35129 27.8514 6.89673 27.7774C7.44217 27.7035 7.95562 27.477 8.37797 27.124C8.82483 26.6765 9.07648 26.0704 9.07797 25.438C9.93065 25.4989 10.7767 25.2504 11.461 24.738C11.7519 24.4505 11.9678 24.0961 12.0899 23.7057C12.2119 23.3153 12.2363 22.901 12.161 22.499C12.5319 22.53 12.9049 22.4701 13.2475 22.3244C13.5901 22.1787 13.892 21.9517 14.127 21.663C14.827 20.678 14.261 18.007 12.221 16.35C10.925 15.288 9.22697 14.751 8.22897 15.601C6.38297 17.181 2.75297 20.407 2.21197 21.781Z" fill="#DA5742"/>
<path d="M12.191 22.571L8.27397 18.362C8.24892 18.3359 8.23492 18.3012 8.23492 18.265C8.23492 18.2288 8.24892 18.1941 8.27397 18.168C8.29993 18.1427 8.33474 18.1286 8.37097 18.1286C8.40721 18.1286 8.44202 18.1427 8.46797 18.168L12.4 22.392C12.425 22.4181 12.439 22.4528 12.439 22.489C12.439 22.5252 12.425 22.5599 12.4 22.586C12.3717 22.6083 12.3359 22.6191 12.3 22.616C12.2796 22.6172 12.2592 22.6138 12.2403 22.606C12.2214 22.5982 12.2046 22.5863 12.191 22.571Z" fill="#1F1F39"/>
<path d="M8.97501 25.526L5.32601 21.452C5.30287 21.424 5.2915 21.3882 5.2943 21.352C5.2971 21.3158 5.31385 21.2821 5.34101 21.258C5.36882 21.2349 5.40452 21.2236 5.44055 21.2264C5.47658 21.2292 5.5101 21.2459 5.53401 21.273L9.18301 25.347C9.20615 25.375 9.21752 25.4108 9.21472 25.447C9.21193 25.4832 9.19518 25.5169 9.16801 25.541C9.14098 25.5575 9.11056 25.5678 9.07901 25.571C9.05945 25.5715 9.04002 25.5677 9.02206 25.5599C9.0041 25.5522 8.98805 25.5406 8.97501 25.526Z" fill="#1F1F39"/>
<path d="M12.295 28.794C12.206 28.779 12.146 28.719 12.161 28.645C12.3411 26.8996 12.8731 25.2089 13.725 23.675C14.2868 22.7024 15.0994 21.8984 16.078 21.347C16.0367 21.3164 15.9917 21.2911 15.944 21.272C14.859 20.601 12.325 19.004 12.159 16.183C12.1584 16.1455 12.1721 16.1092 12.1974 16.0815C12.2227 16.0538 12.2576 16.0368 12.295 16.034C12.3322 16.0333 12.3682 16.0468 12.3959 16.0717C12.4235 16.0965 12.4407 16.1309 12.444 16.168C12.593 18.84 14.959 20.317 16.093 21.034C16.2263 21.1233 16.3453 21.198 16.45 21.258L16.688 21.422L16.42 21.512C15.3808 22.0105 14.526 22.825 13.978 23.839C13.1565 25.3396 12.6403 26.9879 12.459 28.689C12.4436 28.7192 12.4201 28.7446 12.3912 28.7622C12.3622 28.7799 12.3289 28.7892 12.295 28.789V28.794Z" fill="#1F1F39"/>
<path d="M41.5093 66.2949L41.9643 66.6316L25.27 89.1927L24.815 88.856L41.5093 66.2949Z" fill="#EAEAFF"/>
<path d="M59.924 62.91C58.75 62.671 57.975 62.626 57.409 62.492L56.724 67.103C58.0218 67.0101 59.2927 66.6868 60.477 66.148C62.0453 65.4193 63.3657 64.247 64.275 62.776C62.8687 63.2436 61.3564 63.2902 59.924 62.91Z" fill="#C43D28"/>
<path d="M60.908 63.193C59.7157 63.1251 58.5335 62.9351 57.38 62.626C57.3617 62.6212 57.3447 62.6126 57.33 62.6008C57.3153 62.589 57.3032 62.5742 57.2947 62.5574C57.2861 62.5406 57.2811 62.5221 57.2801 62.5033C57.2792 62.4844 57.2822 62.4656 57.289 62.448C57.2936 62.4295 57.3021 62.4123 57.314 62.3974C57.3259 62.3825 57.3408 62.3703 57.3578 62.3617C57.3747 62.3531 57.3934 62.3482 57.4124 62.3474C57.4314 62.3466 57.4504 62.3498 57.468 62.357C58.6036 62.6549 59.766 62.8398 60.938 62.909C61.9982 63.0184 63.0694 62.9275 64.096 62.641C64.1136 62.6348 64.1324 62.6322 64.151 62.6334C64.1697 62.6346 64.1879 62.6395 64.2047 62.6479C64.2214 62.6563 64.2362 62.668 64.2483 62.6823C64.2604 62.6965 64.2695 62.7131 64.275 62.731C64.2812 62.7486 64.2839 62.7672 64.2828 62.7858C64.2816 62.8045 64.2768 62.8227 64.2685 62.8394C64.2602 62.8561 64.2486 62.8709 64.2344 62.8831C64.2203 62.8952 64.2038 62.9044 64.186 62.91C63.3964 63.1345 62.5777 63.24 61.757 63.223C61.489 63.223 61.206 63.208 60.908 63.193Z" fill="#1F1F39"/>
<path d="M71.126 56.164C71.3548 54.9551 71.8315 53.8066 72.526 52.791C72.526 52.791 70.932 52.791 69.905 55.746C69.4391 56.9055 69.2405 58.1552 69.324 59.402C69.9434 59.3588 70.557 59.2547 71.156 59.091C70.9991 58.1224 70.989 57.1356 71.126 56.164Z" fill="#C43D28"/>
<path d="M69.457 57.999C69.368 57.984 69.308 57.925 69.321 57.85C69.4428 56.768 69.7298 55.711 70.172 54.716C70.7713 53.6264 71.6641 52.7267 72.749 52.119C72.7828 52.1019 72.8219 52.0985 72.8581 52.1097C72.8943 52.1209 72.9248 52.1458 72.943 52.179C72.9531 52.1954 72.9595 52.2137 72.9619 52.2328C72.9643 52.2519 72.9626 52.2712 72.957 52.2896C72.9513 52.308 72.9417 52.3249 72.929 52.3393C72.9162 52.3537 72.9005 52.3652 72.883 52.373C71.8529 52.9539 71.0015 53.8057 70.421 54.836C69.9952 55.804 69.7155 56.8298 69.591 57.88C69.5833 57.9111 69.5664 57.9391 69.5425 57.9603C69.5186 57.9816 69.4887 57.9951 69.457 57.999Z" fill="#1F1F39"/>
<path d="M26.702 127.514L17.702 66.685L67.302 121.485L26.702 127.514ZM27.002 86.488L31.762 118.664L53.239 115.47L27.002 86.488Z" fill="#EAEAFF"/>
<path d="M27.085 106.725L23.793 107.217L24.016 108.739L27.308 108.247C27.4092 108.236 27.5073 108.205 27.5959 108.155C27.6846 108.105 27.7621 108.037 27.8235 107.956C27.8849 107.875 27.929 107.782 27.953 107.683C27.977 107.584 27.9804 107.481 27.963 107.381C27.9313 107.179 27.8217 106.997 27.6576 106.874C27.4936 106.751 27.288 106.698 27.085 106.725Z" fill="#FFFFFE"/>
<path d="M25.9969 99.323L22.6909 99.815L22.9139 101.337L26.2209 100.845C26.4222 100.816 26.604 100.709 26.7267 100.547C26.8494 100.385 26.903 100.181 26.8759 99.979C26.8443 99.7764 26.7345 99.5943 26.5702 99.4717C26.4059 99.3491 26.2001 99.2957 25.9969 99.323Z" fill="#FFFFFE"/>
<path d="M26.549 103.024L23.257 103.516L23.48 105.038L26.772 104.546C26.9733 104.517 27.1551 104.41 27.2778 104.248C27.4004 104.086 27.4541 103.882 27.427 103.68C27.3953 103.478 27.2857 103.296 27.1216 103.173C26.9575 103.05 26.752 102.997 26.549 103.024Z" fill="#FFFFFE"/>
<path d="M28.1869 114.127L24.9099 114.619L25.1329 116.141L28.4099 115.649C28.5107 115.637 28.608 115.605 28.696 115.555C28.7841 115.504 28.861 115.437 28.9222 115.356C28.9834 115.275 29.0276 115.182 29.0521 115.084C29.0766 114.986 29.081 114.883 29.0649 114.783C29.0333 114.581 28.9237 114.399 28.7596 114.276C28.5955 114.153 28.3899 114.1 28.1869 114.127Z" fill="#FFFFFE"/>
<path d="M25.446 95.622L22.14 96.114L22.363 97.636L25.67 97.144C25.7703 97.1311 25.867 97.0984 25.9545 97.0477C26.0419 96.9969 26.1184 96.9293 26.1794 96.8486C26.2404 96.768 26.2847 96.676 26.3097 96.578C26.3347 96.48 26.3399 96.378 26.325 96.278C26.2933 96.0754 26.1836 95.8933 26.0193 95.7707C25.855 95.6481 25.6491 95.5947 25.446 95.622Z" fill="#FFFFFE"/>
<path d="M27.6359 110.426L24.3439 110.918L24.5669 112.44L27.8439 111.948C27.9459 111.938 28.0448 111.907 28.1345 111.858C28.2242 111.808 28.3029 111.74 28.3656 111.659C28.4283 111.578 28.4738 111.485 28.4993 111.386C28.5248 111.287 28.5298 111.183 28.5139 111.082C28.4823 110.88 28.3727 110.698 28.2086 110.575C28.0445 110.452 27.839 110.399 27.6359 110.426Z" fill="#FFFFFE"/>
<path d="M23.8079 84.504L20.4869 84.996L20.7099 86.518L24.0319 86.026C24.1321 86.0127 24.2286 85.9797 24.3159 85.9289C24.4031 85.8781 24.4795 85.8104 24.5404 85.7299C24.6013 85.6493 24.6456 85.5574 24.6708 85.4596C24.696 85.3618 24.7014 85.26 24.6869 85.16C24.6553 84.9574 24.5456 84.7753 24.3812 84.6527C24.2169 84.5301 24.0111 84.4767 23.8079 84.504Z" fill="#FFFFFE"/>
<path d="M28.7379 117.829L25.4609 118.321L25.6839 119.843L28.9609 119.351C29.0611 119.338 29.1576 119.305 29.2449 119.254C29.3321 119.203 29.4085 119.135 29.4694 119.055C29.5303 118.974 29.5746 118.882 29.5998 118.785C29.625 118.687 29.6304 118.585 29.6159 118.485C29.5843 118.283 29.4747 118.101 29.3106 117.978C29.1465 117.855 28.941 117.802 28.7379 117.829Z" fill="#FFFFFE"/>
<path d="M24.3439 88.205L21.0229 88.697L21.2459 90.219L24.5679 89.727C24.6697 89.7176 24.7683 89.6871 24.8576 89.6374C24.9469 89.5877 25.0249 89.52 25.0865 89.4385C25.1481 89.357 25.1921 89.2636 25.2156 89.1641C25.2391 89.0647 25.2416 88.9615 25.2229 88.861C25.1913 88.6584 25.0816 88.4763 24.9173 88.3537C24.7529 88.2311 24.5471 88.1777 24.3439 88.205Z" fill="#FFFFFE"/>
<path d="M24.8949 91.921L21.5889 92.413L21.8119 93.935L25.1189 93.443C25.2192 93.4301 25.316 93.3974 25.4034 93.3467C25.4909 93.2959 25.5674 93.2283 25.6284 93.1476C25.6894 93.067 25.7337 92.975 25.7587 92.877C25.7837 92.779 25.7889 92.677 25.7739 92.577C25.7423 92.3744 25.6325 92.1923 25.4682 92.0697C25.3039 91.9471 25.0981 91.8937 24.8949 91.921Z" fill="#FFFFFE"/>
<path d="M99.141 119.067C98.441 126.932 96.192 133.528 86.392 134.229C76.592 134.93 62.711 127.066 55.86 119.768C49.009 112.47 40.728 104.322 40.728 104.322C38.9689 104.348 37.2229 104.629 35.545 105.158C33.162 105.994 31.196 105.858 30.645 105.292C30.094 104.726 30.228 104.307 30.228 104.307C30.228 104.307 28.545 104.173 28.128 103.038C27.9934 102.777 27.9231 102.488 27.9231 102.195C27.9231 101.902 27.9934 101.613 28.128 101.352C27.5539 101.296 27.0172 101.042 26.6097 100.634C26.2022 100.225 25.9492 99.6882 25.894 99.114C25.611 97.014 30.511 94.488 32.477 93.637C34.0619 93.0454 35.7041 92.6201 37.377 92.368C37.377 92.368 34.294 91.668 32.328 92.368C30.362 93.068 29.245 92.234 29.245 90.968C29.245 89.702 31.762 87.593 35.828 87.593C39.894 87.593 46.477 90.399 49.977 93.488C53.477 96.577 78.841 108.367 78.841 108.367L78.275 104.993H99.007V105.023C99.5217 109.688 99.5666 114.393 99.141 119.067Z" fill="#DA5742"/>
<path d="M28.023 101.458C28.002 101.428 27.9935 101.391 27.999 101.355C28.0046 101.319 28.0239 101.286 28.053 101.264C28.083 101.249 30.466 99.413 32.685 98.021C33.8524 97.2368 35.1474 96.6615 36.512 96.321C36.5306 96.3171 36.5499 96.3172 36.5686 96.3212C36.5872 96.3252 36.6048 96.333 36.6203 96.3443C36.6357 96.3555 36.6486 96.3698 36.6582 96.3862C36.6678 96.4027 36.6739 96.421 36.676 96.44C36.6803 96.4589 36.6806 96.4785 36.6768 96.4975C36.6731 96.5165 36.6653 96.5345 36.654 96.5503C36.6428 96.5661 36.6283 96.5793 36.6116 96.589C36.5949 96.5988 36.5762 96.6049 36.557 96.607C35.2248 96.9472 33.9606 97.5127 32.819 98.279C30.614 99.667 28.231 101.487 28.197 101.502C28.174 101.51 28.1506 101.516 28.127 101.521C28.1051 101.523 28.0831 101.519 28.0643 101.507C28.0455 101.496 28.031 101.478 28.023 101.458Z" fill="#1F1F39"/>
<path d="M30.109 104.397C30.088 104.367 30.0795 104.33 30.085 104.294C30.0906 104.258 30.1099 104.225 30.139 104.203C31.7291 103.047 33.4305 102.052 35.218 101.233C36.208 100.741 37.2677 100.404 38.36 100.233C38.3955 100.233 38.4296 100.247 38.4547 100.272C38.4798 100.297 38.494 100.331 38.494 100.367C38.494 100.403 38.4798 100.437 38.4547 100.462C38.4296 100.487 38.3955 100.501 38.36 100.501C37.3096 100.672 36.2906 100.999 35.337 101.471C33.573 102.282 31.8918 103.262 30.317 104.397C30.287 104.457 30.257 104.457 30.228 104.457C30.2046 104.458 30.1814 104.453 30.1605 104.443C30.1397 104.432 30.1219 104.416 30.109 104.397Z" fill="#1F1F39"/>
<path d="M78.275 105.024L78.841 108.397L99.186 106.624C99.086 105.594 99.007 105.024 99.007 105.024H78.275Z" fill="#C43D28"/>
<path d="M83.176 110.217L75.55 106.949L83.176 110.217Z" fill="#1F1F39"/>
<path d="M83.115 110.336L75.49 107.068C75.4732 107.061 75.4579 107.051 75.445 107.039C75.4321 107.026 75.4219 107.011 75.4149 106.994C75.4079 106.978 75.4043 106.96 75.4044 106.942C75.4044 106.924 75.408 106.906 75.415 106.889C75.4217 106.872 75.4316 106.857 75.4443 106.844C75.457 106.831 75.4721 106.821 75.4887 106.814C75.5054 106.807 75.5233 106.803 75.5414 106.803C75.5594 106.803 75.5773 106.807 75.594 106.814L83.22 110.083C83.2367 110.09 83.2518 110.1 83.2646 110.113C83.2774 110.125 83.2875 110.14 83.2944 110.157C83.3013 110.174 83.3048 110.192 83.3047 110.21C83.3047 110.228 83.301 110.245 83.294 110.262C83.2887 110.28 83.2796 110.296 83.2672 110.31C83.2548 110.324 83.2395 110.335 83.2223 110.342C83.2052 110.349 83.1866 110.353 83.1681 110.352C83.1495 110.351 83.1314 110.346 83.115 110.337V110.336Z" fill="#1F1F39"/>
<path d="M75.341 89.578L78.841 108.378L75.341 89.578Z" fill="#1F1F39"/>
<path d="M78.704 108.412L75.204 89.608C75.1996 89.5889 75.1994 89.5691 75.2034 89.5498C75.2073 89.5306 75.2154 89.5125 75.2269 89.4967C75.2385 89.4809 75.2533 89.4677 75.2704 89.4581C75.2875 89.4485 75.3065 89.4426 75.326 89.441C75.3449 89.4371 75.3644 89.4373 75.3832 89.4415C75.4021 89.4456 75.4198 89.4538 75.4353 89.4653C75.4508 89.4768 75.4637 89.4915 75.4731 89.5083C75.4825 89.5251 75.4883 89.5438 75.49 89.563L78.99 108.363C78.9939 108.382 78.9938 108.401 78.9898 108.42C78.9858 108.438 78.9779 108.456 78.9667 108.471C78.9555 108.487 78.9412 108.5 78.9247 108.509C78.9083 108.519 78.89 108.525 78.871 108.527H78.841C78.8084 108.527 78.7769 108.515 78.7519 108.494C78.7269 108.473 78.71 108.444 78.704 108.412Z" fill="#1F1F39"/>
<path d="M54.103 50.508C53.4562 50.4399 52.8024 50.527 52.196 50.762C52.136 51.687 52.107 52.717 52.136 53.762C52.6527 54.0194 53.2137 54.1766 53.789 54.225C55.457 54.359 56.872 53.643 56.946 52.613C57.02 51.583 55.756 50.642 54.103 50.508Z" fill="#C43D28"/>
<path opacity="0.52" d="M97.019 20.407C98.6676 20.407 100.004 19.0706 100.004 17.422C100.004 15.7734 98.6676 14.437 97.019 14.437C95.3704 14.437 94.034 15.7734 94.034 17.422C94.034 19.0706 95.3704 20.407 97.019 20.407Z" fill="white"/>
</svg>
