<svg width="18" height="20" viewBox="0 0 18 20" fill="none" xmlns="http://www.w3.org/2000/svg">
<path d="M16 20H2C1.46957 20 0.960859 19.7893 0.585786 19.4142C0.210714 19.0391 0 18.5304 0 18V17C0.00158786 15.6744 0.528882 14.4036 1.46622 13.4662C2.40356 12.5289 3.67441 12.0016 5 12H13C14.3256 12.0016 15.5964 12.5289 16.5338 13.4662C17.4711 14.4036 17.9984 15.6744 18 17V18C18 18.5304 17.7893 19.0391 17.4142 19.4142C17.0391 19.7893 16.5304 20 16 20ZM9 10C8.01109 10 7.04439 9.70676 6.22215 9.15735C5.3999 8.60794 4.75904 7.82705 4.3806 6.91342C4.00216 5.99979 3.90315 4.99446 4.09607 4.02455C4.289 3.05465 4.7652 2.16373 5.46447 1.46447C6.16373 0.765206 7.05464 0.289002 8.02455 0.0960759C8.99445 -0.0968503 9.99979 0.00216642 10.9134 0.380605C11.827 0.759043 12.6079 1.39991 13.1573 2.22215C13.7068 3.0444 14 4.0111 14 5C13.9984 6.3256 13.4711 7.59644 12.5338 8.53378C11.5964 9.47112 10.3256 9.99841 9 10Z" fill="#F4F3FD"/>
</svg>
