<svg width="16" height="21" viewBox="0 0 16 21" fill="none" xmlns="http://www.w3.org/2000/svg">
<path d="M15 20.471H3C2.20435 20.471 1.44129 20.1549 0.87868 19.5923C0.31607 19.0297 0 18.2667 0 17.471L0 3.47101C0 2.67536 0.31607 1.9123 0.87868 1.34969C1.44129 0.787079 2.20435 0.471008 3 0.471008L14 0.471008C14.5304 0.471008 15.0391 0.681722 15.4142 1.05679C15.7893 1.43187 16 1.94058 16 2.47101V15.461C16.0006 15.6251 15.9618 15.787 15.887 15.933L15.342 17.024C15.2731 17.1631 15.2372 17.3163 15.2372 17.4715C15.2372 17.6268 15.2731 17.7799 15.342 17.919L15.886 19.006C15.9617 19.1493 16.0008 19.309 16 19.471C16 19.7362 15.8946 19.9906 15.7071 20.1781C15.5196 20.3657 15.2652 20.471 15 20.471ZM3 16.471C2.73478 16.471 2.48043 16.5764 2.29289 16.7639C2.10536 16.9514 2 17.2058 2 17.471C2 17.7362 2.10536 17.9906 2.29289 18.1781C2.48043 18.3657 2.73478 18.471 3 18.471H13.407C13.1791 17.8238 13.1791 17.1182 13.407 16.471H3ZM6 5.47101C5.73478 5.47101 5.48043 5.57637 5.29289 5.7639C5.10536 5.95144 5 6.20579 5 6.47101C5 6.73622 5.10536 6.99058 5.29289 7.17811C5.48043 7.36565 5.73478 7.47101 6 7.47101H10C10.2652 7.47101 10.5196 7.36565 10.7071 7.17811C10.8946 6.99058 11 6.73622 11 6.47101C11 6.20579 10.8946 5.95144 10.7071 5.7639C10.5196 5.57637 10.2652 5.47101 10 5.47101H6Z" fill="#F4F3FD"/>
</svg>
