<svg width="22" height="20" viewBox="0 0 22 20" fill="none" xmlns="http://www.w3.org/2000/svg">
<path d="M12.75 20C12.4848 20 12.2304 19.8946 12.0429 19.7071C11.8554 19.5196 11.75 19.2652 11.75 19V18H1.75C1.48478 18 1.23043 17.8946 1.04289 17.7071C0.855357 17.5196 0.75 17.2652 0.75 17C0.75 16.7348 0.855357 16.4804 1.04289 16.2929C1.23043 16.1054 1.48478 16 1.75 16H11.75V15C11.75 14.7348 11.8554 14.4804 12.0429 14.2929C12.2304 14.1054 12.4848 14 12.75 14C13.0152 14 13.2696 14.1054 13.4571 14.2929C13.6446 14.4804 13.75 14.7348 13.75 15V19C13.75 19.2652 13.6446 19.5196 13.4571 19.7071C13.2696 19.8946 13.0152 20 12.75 20ZM19.75 18H16.75C16.4848 18 16.2304 17.8946 16.0429 17.7071C15.8554 17.5196 15.75 17.2652 15.75 17C15.75 16.7348 15.8554 16.4804 16.0429 16.2929C16.2304 16.1054 16.4848 16 16.75 16H19.75C20.0152 16 20.2696 16.1054 20.4571 16.2929C20.6446 16.4804 20.75 16.7348 20.75 17C20.75 17.2652 20.6446 17.5196 20.4571 17.7071C20.2696 17.8946 20.0152 18 19.75 18ZM9.75 13C9.48478 13 9.23043 12.8946 9.04289 12.7071C8.85536 12.5196 8.75 12.2652 8.75 12V8C8.75 7.73478 8.85536 7.48043 9.04289 7.29289C9.23043 7.10536 9.48478 7 9.75 7C10.0152 7 10.2696 7.10536 10.4571 7.29289C10.6446 7.48043 10.75 7.73478 10.75 8V9H20.75C21.0152 9 21.2696 9.10536 21.4571 9.29289C21.6446 9.48043 21.75 9.73478 21.75 10C21.75 10.2652 21.6446 10.5196 21.4571 10.7071C21.2696 10.8946 21.0152 11 20.75 11H10.75V12C10.75 12.2652 10.6446 12.5196 10.4571 12.7071C10.2696 12.8946 10.0152 13 9.75 13ZM5.75 11H1.75C1.48478 11 1.23043 10.8946 1.04289 10.7071C0.855357 10.5196 0.75 10.2652 0.75 10C0.75 9.73478 0.855357 9.48043 1.04289 9.29289C1.23043 9.10536 1.48478 9 1.75 9H5.75C6.01522 9 6.26957 9.10536 6.45711 9.29289C6.64464 9.48043 6.75 9.73478 6.75 10C6.75 10.2652 6.64464 10.5196 6.45711 10.7071C6.26957 10.8946 6.01522 11 5.75 11ZM12.75 6C12.4848 6 12.2304 5.89464 12.0429 5.70711C11.8554 5.51957 11.75 5.26522 11.75 5V4H1.75C1.48478 4 1.23043 3.89464 1.04289 3.70711C0.855357 3.51957 0.75 3.26522 0.75 3C0.75 2.73478 0.855357 2.48043 1.04289 2.29289C1.23043 2.10536 1.48478 2 1.75 2H11.75V1C11.75 0.734784 11.8554 0.48043 12.0429 0.292893C12.2304 0.105357 12.4848 0 12.75 0C13.0152 0 13.2696 0.105357 13.4571 0.292893C13.6446 0.48043 13.75 0.734784 13.75 1V5C13.75 5.26522 13.6446 5.51957 13.4571 5.70711C13.2696 5.89464 13.0152 6 12.75 6ZM19.75 4H16.75C16.4848 4 16.2304 3.89464 16.0429 3.70711C15.8554 3.51957 15.75 3.26522 15.75 3C15.75 2.73478 15.8554 2.48043 16.0429 2.29289C16.2304 2.10536 16.4848 2 16.75 2H19.75C20.0152 2 20.2696 2.10536 20.4571 2.29289C20.6446 2.48043 20.75 2.73478 20.75 3C20.75 3.26522 20.6446 3.51957 20.4571 3.70711C20.2696 3.89464 20.0152 4 19.75 4Z" fill="#B8B8D2"/>
</svg>
