<svg width="48" height="48" viewBox="0 0 48 48" fill="none" xmlns="http://www.w3.org/2000/svg">
<path d="M40.011 20.909H24V27.485H33.149C32.9598 28.5251 32.5617 29.5161 31.9787 30.398C31.3956 31.2799 30.6399 32.0344 29.757 32.616V36.881H35.251C36.9247 35.269 38.2409 33.3232 39.1141 31.1698C39.9874 29.0164 40.3982 26.7034 40.32 24.381C40.3207 23.2168 40.2173 22.0548 40.011 20.909V20.909Z" fill="#4285F4"/>
<path d="M35.251 36.881L29.757 32.616C28.0428 33.7191 26.0379 34.2844 24 34.239C21.8806 34.2126 19.8228 33.5221 18.1164 32.2647C16.41 31.0074 15.141 29.2465 14.488 27.23H8.80798V31.63C10.2221 34.4471 12.3919 36.8154 15.0748 38.4701C17.7576 40.1248 20.8479 41.0008 24 41C28.1384 41.1122 32.1632 39.6387 35.251 36.881Z" fill="#34A853"/>
<path d="M13.955 24.001C13.9574 22.901 14.1374 21.8086 14.488 20.766V16.366H8.80797C7.61894 18.7353 6.99976 21.3496 6.99976 24.0005C6.99976 26.6514 7.61894 29.2657 8.80797 31.635L14.488 27.235C14.1375 26.1927 13.9575 25.1007 13.955 24.001Z" fill="#FBBC05"/>
<path d="M30.498 16.3L35.374 11.424C32.2964 8.53552 28.2204 6.95013 24 7C20.8484 6.99876 17.7585 7.87395 15.0757 9.52775C12.3929 11.1816 10.2228 13.5488 8.80798 16.365L14.488 20.765C15.141 18.7485 16.41 16.9876 18.1164 15.7303C19.8228 14.4729 21.8806 13.7824 24 13.756C26.4163 13.716 28.7511 14.6301 30.498 16.3Z" fill="#EA4335"/>
</svg>
