<svg width="22" height="22" viewBox="0 0 22 22" fill="none" xmlns="http://www.w3.org/2000/svg">
<path d="M12.2 2.49598L19.2 7.74598C19.4484 7.93227 19.65 8.17384 19.7889 8.45155C19.9277 8.72926 20 9.03549 20 9.34598V18.846C20 19.3764 19.7893 19.8851 19.4142 20.2602C19.0391 20.6353 18.5304 20.846 18 20.846H4C3.46957 20.846 2.96086 20.6353 2.58579 20.2602C2.21071 19.8851 2 19.3764 2 18.846V9.34598C2 9.03549 2.07229 8.72926 2.21115 8.45155C2.35 8.17384 2.55161 7.93227 2.8 7.74598L9.8 2.49598C10.1462 2.23633 10.5673 2.09598 11 2.09598C11.4327 2.09598 11.8538 2.23633 12.2 2.49598Z" fill="#F4F3FD"/>
</svg>
