<svg width="20" height="18" viewBox="0 0 20 18" fill="none" xmlns="http://www.w3.org/2000/svg">
<path d="M10 17.95C9.7533 17.9502 9.51209 17.8771 9.307 17.74L6.7 16H3C2.20435 16 1.44129 15.6839 0.87868 15.1213C0.31607 14.5587 0 13.7956 0 13L0 3C0 2.20435 0.31607 1.44129 0.87868 0.87868C1.44129 0.31607 2.20435 0 3 0L17 0C17.7956 0 18.5587 0.31607 19.1213 0.87868C19.6839 1.44129 20 2.20435 20 3V13C20 13.7956 19.6839 14.5587 19.1213 15.1213C18.5587 15.6839 17.7956 16 17 16H13.3L10.691 17.74C10.4864 17.8766 10.246 17.9496 10 17.95ZM13.5 7C13.2033 7 12.9133 7.08797 12.6666 7.2528C12.42 7.41762 12.2277 7.65189 12.1142 7.92597C12.0006 8.20006 11.9709 8.50166 12.0288 8.79264C12.0867 9.08361 12.2296 9.35088 12.4393 9.56066C12.6491 9.77044 12.9164 9.9133 13.2074 9.97118C13.4983 10.0291 13.7999 9.99935 14.074 9.88582C14.3481 9.77229 14.5824 9.58003 14.7472 9.33335C14.912 9.08668 15 8.79667 15 8.5C15 8.10218 14.842 7.72064 14.5607 7.43934C14.2794 7.15804 13.8978 7 13.5 7ZM6.5 7C6.20333 7 5.91332 7.08797 5.66664 7.2528C5.41997 7.41762 5.22771 7.65189 5.11418 7.92597C5.00065 8.20006 4.97094 8.50166 5.02882 8.79264C5.0867 9.08361 5.22956 9.35088 5.43934 9.56066C5.64912 9.77044 5.91639 9.9133 6.20736 9.97118C6.49834 10.0291 6.79994 9.99935 7.07403 9.88582C7.34811 9.77229 7.58238 9.58003 7.7472 9.33335C7.91203 9.08668 8 8.79667 8 8.5C8 8.10218 7.84196 7.72064 7.56066 7.43934C7.27936 7.15804 6.89782 7 6.5 7Z" fill="#F4F3FD"/>
</svg>
