<svg width="19" height="19" viewBox="0 0 19 19" fill="none" xmlns="http://www.w3.org/2000/svg">
<path d="M17.378 18.211C17.2684 18.2113 17.1598 18.19 17.0586 18.1481C16.9573 18.1062 16.8653 18.0447 16.788 17.967L13.727 14.906C12.1504 16.1807 10.1448 16.8019 8.12369 16.6417C6.10258 16.4814 4.21997 15.5519 2.86392 14.0447C1.50788 12.5375 0.781748 10.5674 0.835215 8.54068C0.888682 6.51393 1.71767 4.58493 3.1513 3.1513C4.58493 1.71767 6.51393 0.888682 8.54068 0.835215C10.5674 0.781748 12.5375 1.50788 14.0447 2.86392C15.5519 4.21997 16.4814 6.10258 16.6417 8.12369C16.8019 10.1448 16.1807 12.1504 14.906 13.727L17.967 16.788C18.0838 16.9044 18.1635 17.053 18.1958 17.2147C18.2281 17.3765 18.2117 17.5442 18.1486 17.6966C18.0856 17.849 17.9786 17.9792 17.8414 18.0708C17.7042 18.1624 17.543 18.2112 17.378 18.211ZM8.749 2.5C7.51287 2.5 6.30449 2.86656 5.27669 3.55332C4.24888 4.24008 3.4478 5.21619 2.97475 6.35823C2.50171 7.50027 2.37794 8.75693 2.61909 9.96932C2.86025 11.1817 3.45551 12.2953 4.32958 13.1694C5.20366 14.0435 6.31731 14.6388 7.52969 14.8799C8.74207 15.1211 9.99873 14.9973 11.1408 14.5242C12.2828 14.0512 13.2589 13.2501 13.9457 12.2223C14.6324 11.1945 14.999 9.98613 14.999 8.75C14.9971 7.09297 14.3381 5.50433 13.1664 4.33263C11.9947 3.16093 10.406 2.50185 8.749 2.5Z" fill="#3D5CFF"/>
</svg>
