<svg width="260" height="260" viewBox="0 0 260 260" fill="none" xmlns="http://www.w3.org/2000/svg">
<path d="M200 0C215.913 0 231.174 6.32141 242.426 17.5736C253.679 28.8258 260 44.087 260 60V200C260 215.913 253.679 231.174 242.426 242.426C231.174 253.679 215.913 260 200 260H60C44.087 260 28.8258 253.679 17.5736 242.426C6.32141 231.174 0 215.913 0 200L0 60C0 44.087 6.32141 28.8258 17.5736 17.5736C28.8258 6.32141 44.087 0 60 0L200 0Z" fill="white"/>
<path d="M184.281 102.7H181.31C181.241 102.703 181.173 102.692 181.109 102.668C181.045 102.644 180.986 102.607 180.936 102.56C180.887 102.512 180.847 102.455 180.82 102.392C180.793 102.329 180.78 102.261 180.78 102.192C180.78 102.124 180.793 102.056 180.82 101.993C180.847 101.93 180.887 101.873 180.936 101.825C180.986 101.778 181.045 101.741 181.109 101.717C181.173 101.693 181.241 101.682 181.31 101.685H184.331C184.402 101.684 184.472 101.699 184.536 101.729C184.6 101.759 184.657 101.804 184.701 101.859C184.737 101.906 184.761 101.961 184.772 102.019C184.783 102.077 184.78 102.136 184.763 102.193C184.769 102.256 184.762 102.32 184.741 102.38C184.721 102.44 184.688 102.495 184.645 102.542C184.599 102.592 184.542 102.632 184.48 102.659C184.417 102.686 184.349 102.7 184.281 102.7ZM178.289 102.7H175.268C175.199 102.703 175.131 102.692 175.067 102.668C175.003 102.644 174.944 102.607 174.894 102.56C174.845 102.512 174.805 102.455 174.778 102.392C174.751 102.329 174.738 102.261 174.738 102.192C174.738 102.124 174.751 102.056 174.778 101.993C174.805 101.93 174.845 101.873 174.894 101.825C174.944 101.778 175.003 101.741 175.067 101.717C175.131 101.693 175.199 101.682 175.268 101.685H178.292C178.361 101.682 178.429 101.693 178.493 101.717C178.557 101.741 178.616 101.778 178.666 101.825C178.715 101.873 178.755 101.93 178.782 101.993C178.809 102.056 178.823 102.124 178.823 102.192C178.823 102.261 178.809 102.329 178.782 102.392C178.755 102.455 178.715 102.512 178.666 102.56C178.616 102.607 178.557 102.644 178.493 102.668C178.429 102.692 178.361 102.703 178.292 102.7H178.289ZM172.22 102.7H169.199C169.068 102.694 168.945 102.638 168.854 102.544C168.764 102.449 168.714 102.323 168.714 102.192C168.714 102.062 168.764 101.936 168.854 101.841C168.945 101.747 169.068 101.691 169.199 101.685H172.22C172.351 101.691 172.474 101.747 172.565 101.841C172.655 101.936 172.706 102.062 172.706 102.192C172.706 102.323 172.655 102.449 172.565 102.544C172.474 102.638 172.351 102.694 172.22 102.7ZM166.152 102.7H163.13C162.999 102.694 162.876 102.638 162.785 102.544C162.695 102.449 162.645 102.323 162.645 102.192C162.645 102.062 162.695 101.936 162.785 101.841C162.876 101.747 162.999 101.691 163.13 101.685H166.152C166.283 101.691 166.406 101.747 166.497 101.841C166.587 101.936 166.638 102.062 166.638 102.192C166.638 102.323 166.587 102.449 166.497 102.544C166.406 102.638 166.283 102.694 166.152 102.7ZM160.083 102.7H157.063C156.994 102.703 156.926 102.692 156.862 102.668C156.798 102.644 156.739 102.607 156.689 102.56C156.64 102.512 156.6 102.455 156.573 102.392C156.546 102.329 156.533 102.261 156.533 102.192C156.533 102.124 156.546 102.056 156.573 101.993C156.6 101.93 156.64 101.873 156.689 101.825C156.739 101.778 156.798 101.741 156.862 101.717C156.926 101.693 156.994 101.682 157.063 101.685H160.084C160.153 101.682 160.221 101.693 160.285 101.717C160.349 101.741 160.408 101.778 160.458 101.825C160.507 101.873 160.547 101.93 160.574 101.993C160.601 102.056 160.615 102.124 160.615 102.192C160.615 102.261 160.601 102.329 160.574 102.392C160.547 102.455 160.507 102.512 160.458 102.56C160.408 102.607 160.349 102.644 160.285 102.668C160.221 102.692 160.153 102.703 160.084 102.7H160.083ZM154.04 102.7H151.019C150.888 102.694 150.765 102.638 150.674 102.544C150.584 102.449 150.534 102.323 150.534 102.192C150.534 102.062 150.584 101.936 150.674 101.841C150.765 101.747 150.888 101.691 151.019 101.685H154.041C154.172 101.691 154.295 101.747 154.386 101.841C154.476 101.936 154.527 102.062 154.527 102.192C154.527 102.323 154.476 102.449 154.386 102.544C154.295 102.638 154.172 102.694 154.041 102.7H154.04ZM147.971 102.7H144.951C144.82 102.694 144.697 102.638 144.606 102.544C144.516 102.449 144.466 102.323 144.466 102.192C144.466 102.062 144.516 101.936 144.606 101.841C144.697 101.747 144.82 101.691 144.951 101.685H147.972C148.103 101.691 148.226 101.747 148.317 101.841C148.407 101.936 148.458 102.062 148.458 102.192C148.458 102.323 148.407 102.449 148.317 102.544C148.226 102.638 148.103 102.694 147.972 102.7H147.971ZM141.902 102.7H138.883C138.814 102.703 138.746 102.692 138.682 102.668C138.618 102.644 138.559 102.607 138.509 102.56C138.46 102.512 138.42 102.455 138.393 102.392C138.366 102.329 138.353 102.261 138.353 102.192C138.353 102.124 138.366 102.056 138.393 101.993C138.42 101.93 138.46 101.873 138.509 101.825C138.559 101.778 138.618 101.741 138.682 101.717C138.746 101.693 138.814 101.682 138.883 101.685H141.904C141.973 101.682 142.041 101.693 142.105 101.717C142.169 101.741 142.228 101.778 142.278 101.825C142.327 101.873 142.367 101.93 142.394 101.993C142.421 102.056 142.435 102.124 142.435 102.192C142.435 102.261 142.421 102.329 142.394 102.392C142.367 102.455 142.327 102.512 142.278 102.56C142.228 102.607 142.169 102.644 142.105 102.668C142.041 102.692 141.973 102.703 141.904 102.7H141.902ZM135.834 102.7H132.815C132.746 102.703 132.678 102.692 132.614 102.668C132.55 102.644 132.491 102.607 132.441 102.56C132.392 102.512 132.352 102.455 132.325 102.392C132.298 102.329 132.285 102.261 132.285 102.192C132.285 102.124 132.298 102.056 132.325 101.993C132.352 101.93 132.392 101.873 132.441 101.825C132.491 101.778 132.55 101.741 132.614 101.717C132.678 101.693 132.746 101.682 132.815 101.685H135.836C135.967 101.691 136.09 101.747 136.181 101.841C136.271 101.936 136.322 102.062 136.322 102.192C136.322 102.323 136.271 102.449 136.181 102.544C136.09 102.638 135.967 102.694 135.836 102.7H135.834ZM129.79 102.7H126.771C126.702 102.703 126.634 102.692 126.57 102.668C126.506 102.644 126.447 102.607 126.397 102.56C126.348 102.512 126.308 102.455 126.281 102.392C126.254 102.329 126.241 102.261 126.241 102.192C126.241 102.124 126.254 102.056 126.281 101.993C126.308 101.93 126.348 101.873 126.397 101.825C126.447 101.778 126.506 101.741 126.57 101.717C126.634 101.693 126.702 101.682 126.771 101.685H129.792C129.861 101.682 129.929 101.693 129.993 101.717C130.057 101.741 130.116 101.778 130.166 101.825C130.215 101.873 130.255 101.93 130.282 101.993C130.309 102.056 130.323 102.124 130.323 102.192C130.323 102.261 130.309 102.329 130.282 102.392C130.255 102.455 130.215 102.512 130.166 102.56C130.116 102.607 130.057 102.644 129.993 102.668C129.929 102.692 129.861 102.703 129.792 102.7H129.79ZM123.722 102.7H120.702C120.571 102.694 120.448 102.638 120.357 102.544C120.267 102.449 120.217 102.323 120.217 102.192C120.217 102.062 120.267 101.936 120.357 101.841C120.448 101.747 120.571 101.691 120.702 101.685H123.724C123.855 101.691 123.978 101.747 124.069 101.841C124.159 101.936 124.21 102.062 124.21 102.192C124.21 102.323 124.159 102.449 124.069 102.544C123.978 102.638 123.855 102.694 123.724 102.7H123.722ZM117.653 102.7H114.635C114.504 102.694 114.381 102.638 114.29 102.544C114.2 102.449 114.15 102.323 114.15 102.192C114.15 102.062 114.2 101.936 114.29 101.841C114.381 101.747 114.504 101.691 114.635 101.685H117.656C117.787 101.691 117.91 101.747 118.001 101.841C118.091 101.936 118.142 102.062 118.142 102.192C118.142 102.323 118.091 102.449 118.001 102.544C117.91 102.638 117.787 102.694 117.656 102.7H117.653ZM111.584 102.7H108.566C108.497 102.703 108.429 102.692 108.365 102.668C108.301 102.644 108.242 102.607 108.192 102.56C108.143 102.512 108.103 102.455 108.076 102.392C108.049 102.329 108.036 102.261 108.036 102.192C108.036 102.124 108.049 102.056 108.076 101.993C108.103 101.93 108.143 101.873 108.192 101.825C108.242 101.778 108.301 101.741 108.365 101.717C108.429 101.693 108.497 101.682 108.566 101.685H111.592C111.661 101.682 111.729 101.693 111.793 101.717C111.857 101.741 111.916 101.778 111.966 101.825C112.015 101.873 112.055 101.93 112.082 101.993C112.109 102.056 112.123 102.124 112.123 102.192C112.123 102.261 112.109 102.329 112.082 102.392C112.055 102.455 112.015 102.512 111.966 102.56C111.916 102.607 111.857 102.644 111.793 102.668C111.729 102.692 111.661 102.703 111.592 102.7H111.584ZM105.541 102.7H102.523C102.392 102.694 102.269 102.638 102.178 102.544C102.088 102.449 102.038 102.323 102.038 102.192C102.038 102.062 102.088 101.936 102.178 101.841C102.269 101.747 102.392 101.691 102.523 101.685H105.544C105.677 101.689 105.804 101.744 105.899 101.838C105.993 101.933 106.048 102.06 106.052 102.193C106.052 102.327 105.998 102.456 105.903 102.551C105.808 102.646 105.679 102.7 105.545 102.7H105.541ZM99.472 102.7H96.455C96.3243 102.694 96.2009 102.638 96.1105 102.544C96.02 102.449 95.9696 102.323 95.9696 102.192C95.9696 102.062 96.02 101.936 96.1105 101.841C96.2009 101.747 96.3243 101.691 96.455 101.685H99.476C99.5446 101.682 99.613 101.693 99.6772 101.717C99.7415 101.741 99.8001 101.778 99.8497 101.825C99.8993 101.873 99.9388 101.93 99.9657 101.993C99.9927 102.056 100.007 102.124 100.007 102.192C100.007 102.261 99.9927 102.329 99.9657 102.392C99.9388 102.455 99.8993 102.512 99.8497 102.56C99.8001 102.607 99.7415 102.644 99.6772 102.668C99.613 102.692 99.5446 102.703 99.476 102.7H99.472ZM93.404 102.7H90.387C90.3185 102.703 90.25 102.692 90.1858 102.668C90.1216 102.644 90.0629 102.607 90.0134 102.56C89.9638 102.512 89.9243 102.455 89.8974 102.392C89.8704 102.329 89.8565 102.261 89.8565 102.192C89.8565 102.124 89.8704 102.056 89.8974 101.993C89.9243 101.93 89.9638 101.873 90.0134 101.825C90.0629 101.778 90.1216 101.741 90.1858 101.717C90.25 101.693 90.3185 101.682 90.387 101.685H93.408C93.5387 101.691 93.6622 101.747 93.7526 101.841C93.843 101.936 93.8935 102.062 93.8935 102.192C93.8935 102.323 93.843 102.449 93.7526 102.544C93.6622 102.638 93.5387 102.694 93.408 102.7H93.404ZM87.204 102.7H85.131C85.004 102.687 84.869 102.681 84.738 102.675C84.607 102.669 84.47 102.662 84.344 102.65H84.318C84.1835 102.636 84.0599 102.57 83.9742 102.465C83.8886 102.36 83.8479 102.226 83.861 102.091C83.875 101.976 83.9267 101.869 84.0082 101.787C84.0897 101.705 84.1963 101.652 84.311 101.637H84.303H84.268H84.336H84.311C84.587 101.66 84.911 101.685 85.211 101.685H87.217C87.3477 101.691 87.4712 101.747 87.5616 101.841C87.652 101.936 87.7025 102.062 87.7025 102.192C87.7025 102.323 87.652 102.449 87.5616 102.544C87.4712 102.638 87.3477 102.694 87.217 102.7H87.204ZM187.167 102.269C187.059 102.272 186.953 102.238 186.865 102.174C186.778 102.11 186.715 102.018 186.685 101.914C186.66 101.851 186.65 101.783 186.653 101.716C186.657 101.648 186.675 101.582 186.706 101.522C186.737 101.462 186.781 101.409 186.834 101.367C186.888 101.325 186.949 101.295 187.015 101.279C187.897 101.025 188.735 100.64 189.503 100.137C189.588 100.088 189.685 100.062 189.783 100.06C189.825 100.055 189.867 100.06 189.906 100.075C189.946 100.09 189.981 100.114 190.009 100.145C190.033 100.191 190.045 100.243 190.045 100.295C190.045 100.347 190.033 100.399 190.009 100.445C190.079 100.556 190.102 100.691 190.073 100.819C190.045 100.948 189.967 101.06 189.856 101.131C189.779 101.183 189.693 101.231 189.611 101.286C189.529 101.341 189.448 101.386 189.374 101.436H189.274C188.652 101.774 187.996 102.046 187.318 102.248C187.273 102.264 187.224 102.27 187.176 102.264L187.167 102.269ZM80.535 101.273C80.4749 101.277 80.4147 101.269 80.358 101.248C79.9382 101.093 79.5307 100.906 79.139 100.689H79.039L79.014 100.664L78.988 100.639C78.922 100.575 78.8497 100.518 78.772 100.469L78.76 100.461C78.7044 100.419 78.6577 100.367 78.6225 100.307C78.5873 100.247 78.5644 100.181 78.555 100.112C78.5469 100.048 78.5516 99.9831 78.5687 99.921C78.5859 99.8588 78.6152 99.8007 78.655 99.75C78.7036 99.6886 78.7652 99.6388 78.8355 99.6042C78.9057 99.5696 78.9828 99.5511 79.061 99.55H79.083C79.102 99.55 79.121 99.55 79.125 99.539C79.129 99.528 79.108 99.487 78.891 99.325C79.4689 99.7127 80.088 100.035 80.737 100.286C80.8605 100.338 80.9588 100.436 81.0109 100.56C81.0631 100.683 81.0649 100.822 81.016 100.947C80.9746 101.041 80.9075 101.121 80.8224 101.179C80.7373 101.237 80.6377 101.269 80.535 101.273ZM78.858 99.3C78.688 99.186 78.518 99.064 78.351 98.938C78.6 99.111 78.751 99.219 78.859 99.299L78.858 99.3ZM191.974 99.166C191.853 99.1625 191.736 99.1177 191.644 99.039C191.594 99 191.553 98.9511 191.522 98.8954C191.492 98.8396 191.473 98.7782 191.468 98.715C191.462 98.6453 191.47 98.5751 191.491 98.5085C191.513 98.442 191.548 98.3806 191.594 98.328C192.204 97.6397 192.717 96.8709 193.118 96.043C193.16 95.9585 193.226 95.8874 193.306 95.8379C193.387 95.7885 193.479 95.7625 193.574 95.763C193.613 95.7641 193.651 95.7684 193.689 95.776C193.727 95.7835 193.765 95.7879 193.803 95.789C193.863 95.8187 193.917 95.86 193.961 95.9106C194.005 95.9612 194.039 96.02 194.06 96.0837C194.082 96.1474 194.09 96.2147 194.085 96.2817C194.08 96.3487 194.062 96.4141 194.032 96.474C193.581 97.3789 193.018 98.2235 192.356 98.988C192.311 99.046 192.253 99.0925 192.187 99.1234C192.12 99.1544 192.047 99.169 191.974 99.166ZM75.863 96.474C75.7848 96.4728 75.7078 96.4542 75.6376 96.4196C75.5674 96.385 75.5057 96.3353 75.457 96.274C75.4537 96.274 75.4503 96.2733 75.4472 96.272C75.4441 96.2707 75.4413 96.2688 75.439 96.2663C75.4367 96.2639 75.4348 96.261 75.4336 96.2579C75.4324 96.2547 75.4319 96.2514 75.432 96.248L75.407 96.223L75.38 96.2V96.124C75.3026 95.968 75.2358 95.807 75.18 95.642C75.139 95.5144 75.147 95.3761 75.2025 95.254C75.258 95.132 75.3569 95.035 75.48 94.982C75.537 94.9615 75.5976 94.953 75.658 94.957H75.729C75.7457 94.9577 75.7623 94.9554 75.778 94.95C75.4487 94.4104 75.1705 93.8413 74.947 93.25C75.707 94.523 75.837 94.826 75.806 94.918C75.8039 94.9246 75.8002 94.9307 75.7954 94.9357C75.7905 94.9408 75.7846 94.9446 75.778 94.947C75.928 95.191 76.093 95.432 76.267 95.662C76.3084 95.7144 76.3386 95.7747 76.3558 95.8392C76.373 95.9036 76.3768 95.971 76.367 96.037C76.346 96.1705 76.2744 96.2909 76.167 96.373C76.0801 96.4402 75.9729 96.4758 75.863 96.474ZM194.438 94.037H194.362C194.232 94.0101 194.118 93.9346 194.043 93.8259C193.967 93.7173 193.936 93.5838 193.956 93.453C194.036 92.9149 194.078 92.372 194.083 91.828V90.584C194.083 90.4493 194.137 90.3201 194.232 90.2248C194.327 90.1295 194.456 90.076 194.591 90.076C194.648 90.0749 194.705 90.0856 194.757 90.1075C194.81 90.1293 194.858 90.1619 194.897 90.203C195.044 90.3996 195.107 90.6461 195.073 90.889V92.235C195.069 92.6947 195.026 93.1533 194.946 93.606C194.926 93.7264 194.864 93.8358 194.771 93.9147C194.678 93.9936 194.56 94.037 194.438 94.037ZM75.076 92.59H75.025C74.8994 92.588 74.7788 92.5407 74.6854 92.4566C74.5921 92.3726 74.5322 92.2577 74.517 92.133C74.4957 92.0573 74.4872 91.9785 74.492 91.9V89.67C74.492 89.5353 74.5456 89.4061 74.6408 89.3108C74.7361 89.2155 74.8653 89.162 75 89.162C75.09 89.1655 75.179 89.1823 75.264 89.212C75.3111 89.229 75.3602 89.2398 75.41 89.244C75.479 89.244 75.51 89.197 75.51 89.086V91.27C75.5053 91.5326 75.514 91.7953 75.536 92.057C75.5416 92.1224 75.5341 92.1882 75.5139 92.2506C75.4936 92.313 75.4612 92.3707 75.4183 92.4204C75.3754 92.47 75.3231 92.5106 75.2643 92.5398C75.2055 92.5689 75.1415 92.586 75.076 92.59ZM194.592 88.07C194.457 88.07 194.328 88.0165 194.233 87.9212C194.138 87.8259 194.084 87.6967 194.084 87.562V84.541C194.081 84.4725 194.092 84.404 194.116 84.3398C194.14 84.2756 194.177 84.2169 194.224 84.1673C194.272 84.1177 194.329 84.0783 194.392 84.0513C194.455 84.0244 194.523 84.0105 194.592 84.0105C194.66 84.0105 194.728 84.0244 194.791 84.0513C194.854 84.0783 194.911 84.1177 194.959 84.1673C195.006 84.2169 195.043 84.2756 195.067 84.3398C195.091 84.404 195.102 84.4725 195.099 84.541V87.562C195.099 87.6966 195.046 87.8256 194.951 87.9209C194.856 88.0161 194.727 88.0697 194.592 88.07ZM75 87.131C74.8653 87.131 74.7361 87.0775 74.6408 86.9822C74.5456 86.8869 74.492 86.7577 74.492 86.623V83.6C74.4978 83.4693 74.5538 83.3459 74.6484 83.2554C74.7429 83.165 74.8687 83.1145 74.9995 83.1145C75.1304 83.1145 75.2562 83.165 75.3507 83.2554C75.4452 83.3459 75.5012 83.4693 75.507 83.6V86.621C75.5073 86.6878 75.4944 86.754 75.469 86.8158C75.4437 86.8776 75.4064 86.9338 75.3593 86.9811C75.3122 87.0285 75.2562 87.0661 75.1946 87.0919C75.1329 87.1176 75.0668 87.1309 75 87.131ZM194.592 82C194.457 81.9997 194.328 81.946 194.233 81.8506C194.138 81.7551 194.084 81.6258 194.084 81.491V78.473C194.081 78.4045 194.092 78.336 194.116 78.2718C194.14 78.2076 194.177 78.1489 194.224 78.0993C194.272 78.0497 194.329 78.0103 194.392 77.9833C194.455 77.9564 194.523 77.9425 194.592 77.9425C194.66 77.9425 194.728 77.9564 194.791 77.9833C194.854 78.0103 194.911 78.0497 194.959 78.0993C195.006 78.1489 195.043 78.2076 195.067 78.2718C195.091 78.336 195.102 78.4045 195.099 78.473V81.494C195.098 81.6281 195.045 81.7565 194.95 81.8513C194.855 81.946 194.726 81.9995 194.592 82ZM75 81.063C74.8652 81.0627 74.736 81.009 74.6408 80.9136C74.5455 80.8181 74.492 80.6888 74.492 80.554V77.533C74.489 77.4645 74.4999 77.396 74.524 77.3318C74.5481 77.2676 74.585 77.2089 74.6324 77.1593C74.6799 77.1097 74.7368 77.0703 74.7999 77.0433C74.863 77.0164 74.9309 77.0025 74.9995 77.0025C75.0681 77.0025 75.136 77.0164 75.1991 77.0433C75.2622 77.0703 75.3192 77.1097 75.3666 77.1593C75.4141 77.2089 75.4509 77.2676 75.4751 77.3318C75.4992 77.396 75.5101 77.4645 75.507 77.533V80.554C75.507 80.6886 75.4537 80.8178 75.3587 80.9132C75.2636 81.0086 75.1347 81.0625 75 81.063ZM194.592 75.934C194.457 75.934 194.328 75.8805 194.233 75.7852C194.138 75.6899 194.084 75.5607 194.084 75.426V72.4C194.081 72.3315 194.092 72.263 194.116 72.1988C194.14 72.1346 194.177 72.0759 194.224 72.0263C194.272 71.9767 194.329 71.9373 194.392 71.9103C194.455 71.8834 194.523 71.8695 194.592 71.8695C194.66 71.8695 194.728 71.8834 194.791 71.9103C194.854 71.9373 194.911 71.9767 194.959 72.0263C195.006 72.0759 195.043 72.1346 195.067 72.1988C195.091 72.263 195.102 72.3315 195.099 72.4V75.422C195.1 75.489 195.087 75.5554 195.062 75.6174C195.036 75.6794 194.999 75.7359 194.952 75.7834C194.905 75.831 194.849 75.8688 194.787 75.8947C194.725 75.9205 194.659 75.9339 194.592 75.934ZM75 75.019C74.8655 75.019 74.7364 74.9656 74.6412 74.8706C74.5459 74.7755 74.4923 74.6466 74.492 74.512V71.49C74.492 71.4233 74.5052 71.3572 74.5307 71.2956C74.5562 71.234 74.5937 71.178 74.6408 71.1308C74.688 71.0836 74.744 71.0462 74.8056 71.0207C74.8673 70.9951 74.9333 70.982 75 70.982C75.131 70.9798 75.2575 71.0291 75.3525 71.1192C75.4475 71.2093 75.5033 71.3331 75.508 71.464V74.51C75.5082 74.5768 75.4951 74.643 75.4697 74.7047C75.4442 74.7665 75.4068 74.8226 75.3596 74.8699C75.3124 74.9171 75.2564 74.9546 75.1947 74.9802C75.133 75.0058 75.0668 75.019 75 75.019ZM194.592 69.865C194.525 69.865 194.459 69.8519 194.398 69.8263C194.336 69.8008 194.28 69.7634 194.233 69.7162C194.186 69.669 194.148 69.613 194.123 69.5514C194.097 69.4898 194.084 69.4237 194.084 69.357V66.336C194.081 66.2675 194.092 66.199 194.116 66.1348C194.14 66.0706 194.177 66.0119 194.224 65.9623C194.272 65.9127 194.329 65.8733 194.392 65.8463C194.455 65.8194 194.523 65.8055 194.592 65.8055C194.66 65.8055 194.728 65.8194 194.791 65.8463C194.854 65.8733 194.911 65.9127 194.959 65.9623C195.006 66.0119 195.043 66.0706 195.067 66.1348C195.091 66.199 195.102 66.2675 195.099 66.336V69.357C195.099 69.4916 195.046 69.6206 194.951 69.7159C194.856 69.8111 194.727 69.8647 194.592 69.865ZM75 68.951C74.8654 68.9507 74.7363 68.8971 74.6411 68.8019C74.5459 68.7067 74.4923 68.5776 74.492 68.443V65.422C74.4978 65.2913 74.5538 65.1679 74.6484 65.0774C74.7429 64.987 74.8687 64.9365 74.9995 64.9365C75.1304 64.9365 75.2562 64.987 75.3507 65.0774C75.4452 65.1679 75.5012 65.2913 75.507 65.422V68.443C75.5068 68.5775 75.4533 68.7064 75.3583 68.8016C75.2633 68.8967 75.1345 68.9505 75 68.951ZM194.592 63.822C194.457 63.822 194.328 63.7685 194.233 63.6732C194.138 63.5779 194.084 63.4487 194.084 63.314V60.293C194.081 60.2245 194.092 60.156 194.116 60.0918C194.14 60.0276 194.177 59.9689 194.224 59.9193C194.272 59.8697 194.329 59.8303 194.392 59.8033C194.455 59.7764 194.523 59.7625 194.592 59.7625C194.66 59.7625 194.728 59.7764 194.791 59.8033C194.854 59.8303 194.911 59.8697 194.959 59.9193C195.006 59.9689 195.043 60.0276 195.067 60.0918C195.091 60.156 195.102 60.2245 195.099 60.293V63.315C195.099 63.4494 195.045 63.5782 194.95 63.6732C194.855 63.7682 194.726 63.8217 194.592 63.822ZM75 62.883C74.9333 62.883 74.8673 62.8699 74.8056 62.8443C74.744 62.8188 74.688 62.7814 74.6408 62.7342C74.5937 62.687 74.5562 62.631 74.5307 62.5694C74.5052 62.5078 74.492 62.4417 74.492 62.375V59.354C74.489 59.2855 74.4999 59.217 74.524 59.1528C74.5481 59.0886 74.585 59.0299 74.6324 58.9803C74.6799 58.9307 74.7368 58.8913 74.7999 58.8643C74.863 58.8374 74.9309 58.8235 74.9995 58.8235C75.0681 58.8235 75.136 58.8374 75.1991 58.8643C75.2622 58.8913 75.3192 58.9307 75.3666 58.9803C75.4141 59.0299 75.4509 59.0886 75.4751 59.1528C75.4992 59.217 75.5101 59.2855 75.507 59.354V62.375C75.507 62.5096 75.4537 62.6386 75.3586 62.7339C75.2635 62.8291 75.1346 62.8827 75 62.883ZM194.592 57.754C194.457 57.754 194.328 57.7005 194.233 57.6052C194.138 57.5099 194.084 57.3807 194.084 57.246V54.225C194.081 54.1565 194.092 54.088 194.116 54.0238C194.14 53.9596 194.177 53.9009 194.224 53.8513C194.272 53.8017 194.329 53.7623 194.392 53.7353C194.455 53.7084 194.523 53.6945 194.592 53.6945C194.66 53.6945 194.728 53.7084 194.791 53.7353C194.854 53.7623 194.911 53.8017 194.959 53.8513C195.006 53.9009 195.043 53.9596 195.067 54.0238C195.091 54.088 195.102 54.1565 195.099 54.225V57.246C195.099 57.3806 195.046 57.5096 194.951 57.6049C194.856 57.7001 194.727 57.7537 194.592 57.754ZM75 56.814C74.8653 56.814 74.7361 56.7605 74.6408 56.6652C74.5456 56.5699 74.492 56.4407 74.492 56.306V53.285C74.489 53.2165 74.4999 53.148 74.524 53.0838C74.5481 53.0196 74.585 52.9609 74.6324 52.9113C74.6799 52.8617 74.7368 52.8223 74.7999 52.7953C74.863 52.7684 74.9309 52.7545 74.9995 52.7545C75.0681 52.7545 75.136 52.7684 75.1991 52.7953C75.2622 52.8223 75.3192 52.8617 75.3666 52.9113C75.4141 52.9609 75.4509 53.0196 75.4751 53.0838C75.4992 53.148 75.5101 53.2165 75.507 53.285V56.306C75.507 56.4406 75.4537 56.5696 75.3586 56.6649C75.2635 56.7601 75.1346 56.8137 75 56.814ZM194.592 51.686C194.457 51.6857 194.328 51.6321 194.233 51.5369C194.138 51.4417 194.084 51.3126 194.084 51.178V48.156C194.081 48.0875 194.092 48.019 194.116 47.9548C194.14 47.8906 194.177 47.8319 194.224 47.7823C194.272 47.7327 194.329 47.6933 194.392 47.6663C194.455 47.6394 194.523 47.6255 194.592 47.6255C194.66 47.6255 194.728 47.6394 194.791 47.6663C194.854 47.6933 194.911 47.7327 194.959 47.7823C195.006 47.8319 195.043 47.8906 195.067 47.9548C195.091 48.019 195.102 48.0875 195.099 48.156V51.177C195.099 51.3116 195.046 51.4408 194.951 51.5362C194.856 51.6316 194.727 51.6855 194.592 51.686ZM75 50.771C74.8655 50.771 74.7364 50.7176 74.6412 50.6226C74.5459 50.5275 74.4923 50.3986 74.492 50.264V47.243C74.492 47.1082 74.5455 46.9789 74.6408 46.8834C74.736 46.788 74.8652 46.7343 75 46.734C75.0675 46.7316 75.1347 46.7432 75.1975 46.7679C75.2602 46.7927 75.3172 46.8301 75.3649 46.8778C75.4126 46.9256 75.4499 46.9827 75.4745 47.0455C75.4991 47.1083 75.5106 47.1756 75.508 47.243V50.264C75.5078 50.3986 75.4541 50.5275 75.3589 50.6226C75.2637 50.7176 75.1346 50.771 75 50.771ZM194.592 45.617C194.457 45.617 194.328 45.5635 194.233 45.4682C194.138 45.3729 194.084 45.2437 194.084 45.109V42.088C194.081 42.0195 194.092 41.951 194.116 41.8868C194.14 41.8226 194.177 41.7639 194.224 41.7143C194.272 41.6647 194.329 41.6253 194.392 41.5983C194.455 41.5714 194.523 41.5575 194.592 41.5575C194.66 41.5575 194.728 41.5714 194.791 41.5983C194.854 41.6253 194.911 41.6647 194.959 41.7143C195.006 41.7639 195.043 41.8226 195.067 41.8868C195.091 41.951 195.102 42.0195 195.099 42.088V45.11C195.099 45.2444 195.045 45.3732 194.95 45.4682C194.855 45.5632 194.726 45.6167 194.592 45.617ZM75 44.7C74.8667 44.7 74.7387 44.6476 74.6436 44.554C74.5486 44.4605 74.4941 44.3333 74.492 44.2V41.174C74.4978 41.0433 74.5538 40.9199 74.6484 40.8294C74.7429 40.739 74.8687 40.6885 74.9995 40.6885C75.1304 40.6885 75.2562 40.739 75.3507 40.8294C75.4452 40.9199 75.5012 41.0433 75.507 41.174V44.2C75.5049 44.3332 75.4506 44.4602 75.3558 44.5537C75.261 44.6472 75.1332 44.6998 75 44.7ZM194.592 39.575C194.457 39.5747 194.328 39.521 194.233 39.4256C194.138 39.3301 194.084 39.2008 194.084 39.066V36.045C194.081 35.9765 194.092 35.908 194.116 35.8438C194.14 35.7796 194.177 35.7209 194.224 35.6713C194.272 35.6217 194.329 35.5823 194.392 35.5553C194.455 35.5284 194.523 35.5145 194.592 35.5145C194.66 35.5145 194.728 35.5284 194.791 35.5553C194.854 35.5823 194.911 35.6217 194.959 35.6713C195.006 35.7209 195.043 35.7796 195.067 35.8438C195.091 35.908 195.102 35.9765 195.099 36.045V39.066C195.099 39.2006 195.046 39.3298 194.951 39.4252C194.856 39.5206 194.727 39.5745 194.592 39.575ZM75.025 38.406C74.8907 38.406 74.7617 38.3528 74.6665 38.2579C74.5713 38.1631 74.5176 38.0344 74.517 37.9V35.08C74.5322 34.9553 74.5921 34.8403 74.6854 34.7563C74.7788 34.6723 74.8994 34.625 75.025 34.623C75.025 34.623 75.052 34.623 75.101 34.394C75.2313 34.4072 75.3514 34.47 75.4365 34.5695C75.5216 34.6689 75.5651 34.7973 75.558 34.928C75.5372 35.156 75.5288 35.385 75.533 35.614V37.9C75.5322 38.0343 75.4784 38.1628 75.3833 38.2576C75.2881 38.3524 75.1593 38.4057 75.025 38.406ZM194.234 33.683C194.122 33.6843 194.013 33.6472 193.926 33.5779C193.838 33.5085 193.777 33.4111 193.752 33.302C193.505 32.4178 193.138 31.5719 192.66 30.788C192.599 30.6723 192.583 30.5379 192.616 30.4112C192.649 30.2845 192.727 30.1746 192.837 30.103C192.911 30.0512 193 30.0246 193.091 30.027C193.252 30.027 193.434 30.082 193.675 30.484V30.534C194.005 31.1009 194.286 31.6955 194.513 32.311C194.538 32.336 194.538 32.336 194.538 32.361V32.49C194.597 32.6366 194.646 32.787 194.685 32.94L194.716 33.048C194.734 33.1086 194.74 33.1723 194.733 33.2352C194.726 33.2981 194.706 33.3589 194.675 33.414C194.642 33.4735 194.597 33.5258 194.543 33.5675C194.489 33.6093 194.427 33.6397 194.361 33.657C194.322 33.6776 194.278 33.6866 194.234 33.683ZM76.016 32.287C75.9556 32.291 75.895 32.2825 75.838 32.262C75.7124 32.2096 75.6108 32.1123 75.553 31.989C75.5228 31.9291 75.5053 31.8636 75.5019 31.7966C75.4985 31.7296 75.5091 31.6626 75.533 31.6L75.576 31.483C75.6381 31.307 75.7102 31.1347 75.792 30.967V30.687C76.0335 30.2676 76.2962 29.8607 76.579 29.468C76.6279 29.4066 76.6897 29.3569 76.7601 29.3223C76.8304 29.2877 76.9076 29.2691 76.986 29.268H77.041C77.141 29.268 77.296 29.215 77.697 28.834C77.8025 28.9165 77.8719 29.0367 77.8906 29.1693C77.9092 29.3019 77.8757 29.4366 77.797 29.545C77.25 30.2823 76.8122 31.0947 76.497 31.957C76.4587 32.0536 76.3925 32.1365 76.3068 32.1953C76.2212 32.2541 76.1199 32.286 76.016 32.287ZM191.292 28.784C191.227 28.7885 191.162 28.7794 191.101 28.7574C191.039 28.7354 190.983 28.7008 190.936 28.656C190.275 28.0218 189.522 27.4911 188.702 27.082C188.642 27.0523 188.588 27.011 188.544 26.9604C188.5 26.9098 188.466 26.851 188.445 26.7873C188.423 26.7236 188.415 26.6563 188.42 26.5893C188.425 26.5223 188.443 26.4569 188.473 26.397C188.518 26.3143 188.584 26.2449 188.664 26.1958C188.744 26.1466 188.836 26.1195 188.93 26.117C189.007 26.117 189.089 26.148 190.224 26.879L190.301 26.917L190.377 26.954H190.504L190.529 26.98L190.554 27.005L190.579 27.03L190.605 27.055L190.63 27.08C190.986 27.3375 191.325 27.6174 191.645 27.918C191.691 27.9592 191.729 28.0092 191.755 28.065C191.782 28.1207 191.797 28.1813 191.8 28.243C191.809 28.3838 191.763 28.5225 191.67 28.629C191.568 28.7264 191.433 28.7818 191.292 28.784ZM79.012 28.225C78.9336 28.2238 78.8564 28.2053 78.7861 28.1707C78.7157 28.1361 78.6539 28.0864 78.605 28.025C78.562 27.9735 78.5299 27.9138 78.5104 27.8496C78.491 27.7854 78.4847 27.7179 78.4918 27.6512C78.499 27.5844 78.5196 27.5199 78.5523 27.4612C78.5849 27.4026 78.6291 27.3512 78.682 27.31C79.4729 26.6775 80.3523 26.1643 81.292 25.787C81.35 25.765 81.4122 25.7561 81.474 25.761C81.5786 25.7594 81.6811 25.7903 81.7675 25.8494C81.8538 25.9085 81.9197 25.9929 81.956 26.091C82.0045 26.2159 82.0024 26.3547 81.95 26.478C81.9249 26.5393 81.8878 26.595 81.8409 26.6419C81.7941 26.6888 81.7384 26.7259 81.677 26.751C80.8305 27.0971 80.0359 27.5589 79.316 28.123C79.2307 28.1933 79.1225 28.2296 79.012 28.225ZM186.186 26.193H186.086C185.476 26.0698 184.855 26.0101 184.232 26.015H181.211C181.08 26.0092 180.957 25.9532 180.866 25.8586C180.776 25.7641 180.726 25.6383 180.726 25.5075C180.726 25.3767 180.776 25.2509 180.866 25.1563C180.957 25.0618 181.08 25.0058 181.211 25H184.232C184.258 25 184.258 25 184.537 25.025H184.714C185.244 25.0437 185.771 25.1022 186.292 25.2C186.357 25.2113 186.42 25.2355 186.475 25.271C186.531 25.3066 186.579 25.3529 186.617 25.4072C186.655 25.4615 186.681 25.5228 186.695 25.5875C186.709 25.6522 186.71 25.719 186.698 25.784C186.669 25.8986 186.603 26.0006 186.511 26.0744C186.418 26.1483 186.304 26.1899 186.186 26.193ZM84.927 26.041H84.877C84.7516 26.0386 84.6312 25.9911 84.5379 25.9072C84.4446 25.8232 84.3846 25.7085 84.369 25.584C84.3556 25.4493 84.3962 25.3148 84.4819 25.21C84.5676 25.1052 84.6914 25.0386 84.826 25.025C84.8643 25.0238 84.9025 25.0194 84.94 25.012C84.9776 25.0049 85.0158 25.0009 85.054 25H87.237C87.4231 25.02 87.6015 25.0849 87.757 25.189C87.9591 25.2985 88.1671 25.3966 88.38 25.483C88.38 25.5497 88.3669 25.6158 88.3414 25.6774C88.3158 25.739 88.2784 25.795 88.2312 25.8422C88.136 25.9375 88.0068 25.991 87.872 25.991H85.972C85.607 25.99 85.242 26.016 84.927 26.041ZM178.187 26.015H175.166C175.097 26.018 175.029 26.0072 174.965 25.983C174.901 25.9589 174.842 25.922 174.792 25.8746C174.743 25.8272 174.703 25.7702 174.676 25.7071C174.649 25.644 174.635 25.5761 174.635 25.5075C174.635 25.4389 174.649 25.371 174.676 25.3079C174.703 25.2448 174.743 25.1878 174.792 25.1404C174.842 25.093 174.901 25.0561 174.965 25.032C175.029 25.0078 175.097 24.997 175.166 25H178.192C178.323 25.0058 178.446 25.0618 178.537 25.1563C178.627 25.2509 178.677 25.3767 178.677 25.5075C178.677 25.6383 178.627 25.7641 178.537 25.8586C178.446 25.9532 178.323 26.0092 178.192 26.015H178.187ZM172.118 26.015H169.097C168.966 26.0092 168.843 25.9532 168.752 25.8586C168.662 25.7641 168.612 25.6383 168.612 25.5075C168.612 25.3767 168.662 25.2509 168.752 25.1563C168.843 25.0618 168.966 25.0058 169.097 25H172.118C172.187 24.997 172.255 25.0078 172.319 25.032C172.383 25.0561 172.442 25.093 172.492 25.1404C172.541 25.1878 172.581 25.2448 172.608 25.3079C172.635 25.371 172.649 25.4389 172.649 25.5075C172.649 25.5761 172.635 25.644 172.608 25.7071C172.581 25.7702 172.541 25.8272 172.492 25.8746C172.442 25.922 172.383 25.9589 172.319 25.983C172.255 26.0072 172.187 26.018 172.118 26.015ZM166.05 26.015H163.029C162.96 26.018 162.892 26.0072 162.828 25.983C162.764 25.9589 162.705 25.922 162.655 25.8746C162.606 25.8272 162.566 25.7702 162.539 25.7071C162.512 25.644 162.499 25.5761 162.499 25.5075C162.499 25.4389 162.512 25.371 162.539 25.3079C162.566 25.2448 162.606 25.1878 162.655 25.1404C162.705 25.093 162.764 25.0561 162.828 25.032C162.892 25.0078 162.96 24.997 163.029 25H166.05C166.181 25.0058 166.304 25.0618 166.395 25.1563C166.485 25.2509 166.535 25.3767 166.535 25.5075C166.535 25.6383 166.485 25.7641 166.395 25.8586C166.304 25.9532 166.181 26.0092 166.05 26.015ZM159.981 26.015H156.961C156.892 26.018 156.824 26.0072 156.76 25.983C156.696 25.9589 156.637 25.922 156.587 25.8746C156.538 25.8272 156.498 25.7702 156.471 25.7071C156.444 25.644 156.431 25.5761 156.431 25.5075C156.431 25.4389 156.444 25.371 156.471 25.3079C156.498 25.2448 156.538 25.1878 156.587 25.1404C156.637 25.093 156.696 25.0561 156.76 25.032C156.824 25.0078 156.892 24.997 156.961 25H159.982C160.051 24.997 160.119 25.0078 160.183 25.032C160.247 25.0561 160.306 25.093 160.356 25.1404C160.405 25.1878 160.445 25.2448 160.472 25.3079C160.499 25.371 160.513 25.4389 160.513 25.5075C160.513 25.5761 160.499 25.644 160.472 25.7071C160.445 25.7702 160.405 25.8272 160.356 25.8746C160.306 25.922 160.247 25.9589 160.183 25.983C160.119 26.0072 160.051 26.018 159.982 26.015H159.981ZM153.938 26.015H150.918C150.849 26.018 150.781 26.0072 150.717 25.983C150.653 25.9589 150.594 25.922 150.544 25.8746C150.495 25.8272 150.455 25.7702 150.428 25.7071C150.401 25.644 150.388 25.5761 150.388 25.5075C150.388 25.4389 150.401 25.371 150.428 25.3079C150.455 25.2448 150.495 25.1878 150.544 25.1404C150.594 25.093 150.653 25.0561 150.717 25.032C150.781 25.0078 150.849 24.997 150.918 25H153.939C154.072 25.004 154.199 25.0588 154.294 25.1532C154.388 25.2476 154.443 25.3745 154.447 25.508C154.447 25.6424 154.393 25.7712 154.298 25.8662C154.203 25.9612 154.074 26.0147 153.94 26.015H153.938ZM147.869 26.015H144.824C144.755 26.018 144.687 26.0072 144.623 25.983C144.559 25.9589 144.5 25.922 144.45 25.8746C144.401 25.8272 144.361 25.7702 144.334 25.7071C144.307 25.644 144.294 25.5761 144.294 25.5075C144.294 25.4389 144.307 25.371 144.334 25.3079C144.361 25.2448 144.401 25.1878 144.45 25.1404C144.5 25.093 144.559 25.0561 144.623 25.032C144.687 25.0078 144.755 24.997 144.824 25H147.871C148.002 25.0058 148.125 25.0618 148.216 25.1563C148.306 25.2509 148.356 25.3767 148.356 25.5075C148.356 25.6383 148.306 25.7641 148.216 25.8586C148.125 25.9532 148.002 26.0092 147.871 26.015H147.869ZM141.8 26.015H138.781C138.712 26.018 138.644 26.0072 138.58 25.983C138.516 25.9589 138.457 25.922 138.407 25.8746C138.358 25.8272 138.318 25.7702 138.291 25.7071C138.264 25.644 138.251 25.5761 138.251 25.5075C138.251 25.4389 138.264 25.371 138.291 25.3079C138.318 25.2448 138.358 25.1878 138.407 25.1404C138.457 25.093 138.516 25.0561 138.58 25.032C138.644 25.0078 138.712 24.997 138.781 25H141.802C141.871 24.997 141.939 25.0078 142.003 25.032C142.067 25.0561 142.126 25.093 142.176 25.1404C142.225 25.1878 142.265 25.2448 142.292 25.3079C142.319 25.371 142.333 25.4389 142.333 25.5075C142.333 25.5761 142.319 25.644 142.292 25.7071C142.265 25.7702 142.225 25.8272 142.176 25.8746C142.126 25.922 142.067 25.9589 142.003 25.983C141.939 26.0072 141.871 26.018 141.802 26.015H141.8ZM135.732 26.015H132.713C132.644 26.018 132.576 26.0072 132.512 25.983C132.448 25.9589 132.389 25.922 132.339 25.8746C132.29 25.8272 132.25 25.7702 132.223 25.7071C132.196 25.644 132.183 25.5761 132.183 25.5075C132.183 25.4389 132.196 25.371 132.223 25.3079C132.25 25.2448 132.29 25.1878 132.339 25.1404C132.389 25.093 132.448 25.0561 132.512 25.032C132.576 25.0078 132.644 24.997 132.713 25H135.734C135.865 25.0058 135.988 25.0618 136.079 25.1563C136.169 25.2509 136.22 25.3767 136.22 25.5075C136.22 25.6383 136.169 25.7641 136.079 25.8586C135.988 25.9532 135.865 26.0092 135.734 26.015H135.732ZM129.688 26.015H126.67C126.601 26.018 126.533 26.0072 126.469 25.983C126.405 25.9589 126.346 25.922 126.296 25.8746C126.247 25.8272 126.207 25.7702 126.18 25.7071C126.153 25.644 126.14 25.5761 126.14 25.5075C126.14 25.4389 126.153 25.371 126.18 25.3079C126.207 25.2448 126.247 25.1878 126.296 25.1404C126.346 25.093 126.405 25.0561 126.469 25.032C126.533 25.0078 126.601 24.997 126.67 25H129.692C129.825 25.0045 129.952 25.0594 130.046 25.1538C130.141 25.2481 130.196 25.3747 130.2 25.508C130.2 25.6425 130.146 25.7713 130.051 25.8663C129.955 25.9613 129.827 26.0147 129.692 26.015H129.688ZM123.62 26.015H120.602C120.533 26.018 120.465 26.0072 120.401 25.983C120.337 25.9589 120.278 25.922 120.228 25.8746C120.179 25.8272 120.139 25.7702 120.112 25.7071C120.085 25.644 120.072 25.5761 120.072 25.5075C120.072 25.4389 120.085 25.371 120.112 25.3079C120.139 25.2448 120.179 25.1878 120.228 25.1404C120.278 25.093 120.337 25.0561 120.401 25.032C120.465 25.0078 120.533 24.997 120.602 25H123.623C123.754 25.0058 123.877 25.0618 123.968 25.1563C124.058 25.2509 124.109 25.3767 124.109 25.5075C124.109 25.6383 124.058 25.7641 123.968 25.8586C123.877 25.9532 123.754 26.0092 123.623 26.015H123.62ZM117.551 26.015H114.533C114.402 26.0092 114.279 25.9532 114.188 25.8586C114.098 25.7641 114.048 25.6383 114.048 25.5075C114.048 25.3767 114.098 25.2509 114.188 25.1563C114.279 25.0618 114.402 25.0058 114.533 25H117.554C117.685 25.0058 117.808 25.0618 117.899 25.1563C117.989 25.2509 118.04 25.3767 118.04 25.5075C118.04 25.6383 117.989 25.7641 117.899 25.8586C117.808 25.9532 117.685 26.0092 117.554 26.015H117.551ZM111.483 26.015H108.464C108.395 26.018 108.327 26.0072 108.263 25.983C108.199 25.9589 108.14 25.922 108.09 25.8746C108.041 25.8272 108.001 25.7702 107.974 25.7071C107.947 25.644 107.934 25.5761 107.934 25.5075C107.934 25.4389 107.947 25.371 107.974 25.3079C108.001 25.2448 108.041 25.1878 108.09 25.1404C108.14 25.093 108.199 25.0561 108.263 25.032C108.327 25.0078 108.395 24.997 108.464 25H111.486C111.617 25.0058 111.74 25.0618 111.831 25.1563C111.921 25.2509 111.972 25.3767 111.972 25.5075C111.972 25.6383 111.921 25.7641 111.831 25.8586C111.74 25.9532 111.617 26.0092 111.486 26.015H111.483ZM105.44 26.015H102.422C102.353 26.018 102.285 26.0072 102.221 25.983C102.157 25.9589 102.098 25.922 102.048 25.8746C101.999 25.8272 101.959 25.7702 101.932 25.7071C101.905 25.644 101.892 25.5761 101.892 25.5075C101.892 25.4389 101.905 25.371 101.932 25.3079C101.959 25.2448 101.999 25.1878 102.048 25.1404C102.098 25.093 102.157 25.0561 102.221 25.032C102.285 25.0078 102.353 24.997 102.422 25H105.443C105.575 25.0085 105.699 25.0647 105.793 25.1582C105.886 25.2517 105.943 25.376 105.951 25.508C105.951 25.6426 105.897 25.7715 105.802 25.8666C105.707 25.9616 105.578 26.015 105.443 26.015H105.44ZM99.372 26.015H96.328C96.2595 26.018 96.191 26.0072 96.1268 25.983C96.0626 25.9589 96.0039 25.922 95.9543 25.8746C95.9048 25.8272 95.8653 25.7702 95.8384 25.7071C95.8114 25.644 95.7975 25.5761 95.7975 25.5075C95.7975 25.4389 95.8114 25.371 95.8384 25.3079C95.8653 25.2448 95.9048 25.1878 95.9543 25.1404C96.0039 25.093 96.0626 25.0561 96.1268 25.032C96.191 25.0078 96.2595 24.997 96.328 25H99.375C99.4436 24.997 99.512 25.0078 99.5763 25.032C99.6405 25.0561 99.6991 25.093 99.7487 25.1404C99.7983 25.1878 99.8378 25.2448 99.8647 25.3079C99.8917 25.371 99.9056 25.4389 99.9056 25.5075C99.9056 25.5761 99.8917 25.644 99.8647 25.7071C99.8378 25.7702 99.7983 25.8272 99.7487 25.8746C99.6991 25.922 99.6405 25.9589 99.5763 25.983C99.512 26.0072 99.4436 26.018 99.375 26.015H99.372ZM93.303 26.015H90.285C90.2165 26.018 90.148 26.0072 90.0838 25.983C90.0196 25.9589 89.9609 25.922 89.9114 25.8746C89.8618 25.8272 89.8223 25.7702 89.7954 25.7071C89.7684 25.644 89.7545 25.5761 89.7545 25.5075C89.7545 25.4389 89.7684 25.371 89.7954 25.3079C89.8223 25.2448 89.8618 25.1878 89.9114 25.1404C89.9609 25.093 90.0196 25.0561 90.0838 25.032C90.148 25.0078 90.2165 24.997 90.285 25H93.306C93.4367 25.0058 93.5602 25.0618 93.6506 25.1563C93.741 25.2509 93.7915 25.3767 93.7915 25.5075C93.7915 25.6383 93.741 25.7641 93.6506 25.8586C93.5602 25.9532 93.4367 26.0092 93.306 26.015H93.303Z" fill="#EAEAFF"/>
<path d="M195.097 36.984V37.416H74.4919V36.984H195.097Z" fill="white"/>
<path d="M86.0451 91.777C85.359 91.7744 84.7017 91.5006 84.2166 91.0155C83.7314 90.5303 83.4577 89.8731 83.4551 89.187V51.127C83.4577 50.4409 83.7314 49.7837 84.2166 49.2985C84.7017 48.8134 85.359 48.5396 86.0451 48.537H87.4161C88.1022 48.5396 88.7594 48.8134 89.2446 49.2985C89.7297 49.7837 90.0034 50.4409 90.0061 51.127V89.162C90.0085 89.852 89.7372 90.5147 89.2516 91.0049C88.7661 91.4951 88.106 91.7728 87.4161 91.777H86.0451Z" fill="#EAEAFF"/>
<path d="M98.0551 91.777C97.4905 91.7736 96.9499 91.5478 96.5506 91.1485C96.1514 90.7492 95.9255 90.2086 95.9221 89.644V64.787C95.9255 64.2223 96.1514 63.6818 96.5506 63.2825C96.9499 62.8832 97.4905 62.6574 98.0551 62.654H100.34C100.905 62.6574 101.445 62.8832 101.845 63.2825C102.244 63.6818 102.47 64.2223 102.473 64.787V89.644C102.466 90.2074 102.238 90.7455 101.84 91.1439C101.442 91.5423 100.903 91.7695 100.34 91.777H98.0551Z" fill="#EAEAFF"/>
<path d="M110.953 91.777C110.267 91.7744 109.61 91.5006 109.125 91.0155C108.639 90.5303 108.366 89.8731 108.363 89.187V51.127C108.366 50.4409 108.639 49.7837 109.125 49.2985C109.61 48.8134 110.267 48.5396 110.953 48.537H112.324C113.01 48.5396 113.667 48.8134 114.153 49.2985C114.638 49.7837 114.911 50.4409 114.914 51.127V89.162C114.916 89.852 114.645 90.5147 114.16 91.0049C113.674 91.4951 113.014 91.7728 112.324 91.777H110.953Z" fill="#EAEAFF"/>
<path d="M123.927 91.78C123.334 91.7789 122.766 91.5427 122.347 91.1231C121.928 90.7035 121.693 90.1349 121.693 89.542V61.714C121.694 61.1218 121.93 60.5542 122.349 60.1355C122.767 59.7168 123.335 59.4811 123.927 59.48H125.984C126.576 59.4811 127.144 59.7168 127.563 60.1355C127.981 60.5542 128.217 61.1218 128.218 61.714V89.542C128.22 89.8362 128.164 90.1279 128.053 90.4002C127.941 90.6725 127.777 90.9199 127.569 91.1281C127.361 91.3363 127.114 91.5012 126.842 91.6131C126.57 91.725 126.278 91.7817 125.984 91.78H123.927Z" fill="#EAEAFF"/>
<path d="M135.989 91.777C135.498 91.7744 135.028 91.5783 134.681 91.2314C134.334 90.8845 134.138 90.4147 134.135 89.924V71.846C134.138 71.3551 134.334 70.8851 134.681 70.5379C135.028 70.1908 135.498 69.9946 135.989 69.992H138.858C139.349 69.9949 139.819 70.1912 140.165 70.5383C140.512 70.8854 140.708 71.3553 140.711 71.846V89.924C140.704 90.4135 140.506 90.8811 140.16 91.2273C139.814 91.5735 139.347 91.771 138.857 91.778L135.989 91.777Z" fill="#EAEAFF"/>
<path d="M148.835 91.78C148.242 91.7789 147.674 91.5427 147.255 91.1231C146.836 90.7035 146.601 90.1349 146.601 89.542V61.714C146.602 61.1218 146.838 60.5542 147.257 60.1355C147.675 59.7168 148.243 59.4811 148.835 59.48H150.892C151.484 59.4811 152.052 59.7168 152.471 60.1355C152.889 60.5542 153.125 61.1218 153.126 61.714V89.542C153.128 89.8362 153.072 90.1279 152.961 90.4002C152.849 90.6725 152.685 90.9199 152.477 91.1281C152.269 91.3363 152.022 91.5012 151.75 91.6131C151.478 91.725 151.186 91.7817 150.892 91.78H148.835Z" fill="#EAEAFF"/>
<path d="M85.4609 25C82.5838 24.9752 79.814 26.0914 77.7582 28.1044C75.7023 30.1174 74.5278 32.863 74.4919 35.74V37.187H195.097V35.74C195.061 32.8631 193.887 30.1177 191.831 28.1048C189.775 26.0918 187.006 24.9754 184.129 25H85.4609Z" fill="#EAEAFF"/>
<path d="M168.538 32.694C168.107 32.7004 167.691 32.5355 167.382 32.2355C167.072 31.9355 166.895 31.5249 166.888 31.094C166.895 30.6631 167.072 30.2525 167.382 29.9525C167.691 29.6525 168.107 29.4876 168.538 29.494C168.969 29.4876 169.385 29.6525 169.694 29.9525C170.003 30.2525 170.181 30.6631 170.188 31.094C170.181 31.5249 170.003 31.9355 169.694 32.2355C169.385 32.5355 168.969 32.7004 168.538 32.694Z" fill="#FF8870"/>
<path d="M175.978 32.694C175.547 32.7004 175.131 32.5355 174.822 32.2355C174.513 31.9355 174.335 31.5249 174.328 31.094C174.335 30.6631 174.513 30.2525 174.822 29.9525C175.131 29.6525 175.547 29.4876 175.978 29.494C176.409 29.4876 176.825 29.6525 177.134 29.9525C177.444 30.2525 177.621 30.6631 177.628 31.094C177.621 31.5249 177.444 31.9355 177.134 32.2355C176.825 32.5355 176.409 32.7004 175.978 32.694Z" fill="#FFD301"/>
<path d="M183.417 32.694C182.986 32.7004 182.57 32.5355 182.261 32.2355C181.952 31.9355 181.774 31.5249 181.767 31.094C181.774 30.6631 181.952 30.2525 182.261 29.9525C182.57 29.6525 182.986 29.4876 183.417 29.494C183.848 29.4876 184.264 29.6525 184.573 29.9525C184.883 30.2525 185.06 30.6631 185.067 31.094C185.06 31.5249 184.883 31.9355 184.573 32.2355C184.264 32.5355 183.848 32.7004 183.417 32.694Z" fill="#54CDA2"/>
<path d="M190.883 118.691C189.173 118.689 187.534 118.008 186.326 116.8C185.117 115.591 184.436 113.952 184.434 112.242V73.597C184.436 71.8874 185.117 70.2484 186.326 69.0395C187.534 67.8306 189.173 67.1504 190.883 67.148H242.223C243.933 67.1504 245.572 67.8306 246.781 69.0395C247.989 70.2484 248.67 71.8874 248.672 73.597V112.242C248.67 113.952 247.989 115.591 246.781 116.8C245.572 118.008 243.933 118.689 242.223 118.691H190.883Z" fill="#EAEAFF"/>
<path d="M248.672 80.123V80.58H184.434V80.123H248.672Z" fill="white"/>
<path d="M223.658 75.781C223.282 75.781 222.915 75.6696 222.602 75.4608C222.29 75.252 222.046 74.9553 221.903 74.6081C221.759 74.2609 221.721 73.8789 221.795 73.5103C221.868 73.1418 222.049 72.8032 222.315 72.5375C222.58 72.2718 222.919 72.0908 223.287 72.0175C223.656 71.9442 224.038 71.9818 224.385 72.1256C224.732 72.2694 225.029 72.513 225.238 72.8254C225.447 73.1379 225.558 73.5052 225.558 73.881C225.558 74.3849 225.358 74.8682 225.002 75.2245C224.645 75.5808 224.162 75.781 223.658 75.781Z" fill="#FF8870"/>
<path d="M232.291 75.781C231.915 75.781 231.548 75.6696 231.236 75.4608C230.923 75.252 230.68 74.9553 230.536 74.6081C230.392 74.2609 230.354 73.8789 230.428 73.5103C230.501 73.1418 230.682 72.8032 230.948 72.5375C231.213 72.2718 231.552 72.0908 231.92 72.0175C232.289 71.9442 232.671 71.9818 233.018 72.1256C233.365 72.2694 233.662 72.513 233.871 72.8254C234.08 73.1379 234.191 73.5052 234.191 73.881C234.191 74.3849 233.991 74.8682 233.635 75.2245C233.278 75.5808 232.795 75.781 232.291 75.781Z" fill="#FFD301"/>
<path d="M240.924 75.781C240.548 75.781 240.181 75.6696 239.869 75.4608C239.556 75.252 239.313 74.9553 239.169 74.6081C239.025 74.2609 238.987 73.8789 239.061 73.5103C239.134 73.1418 239.315 72.8032 239.581 72.5375C239.846 72.2718 240.185 72.0908 240.553 72.0175C240.922 71.9442 241.304 71.9818 241.651 72.1256C241.998 72.2694 242.295 72.513 242.504 72.8254C242.713 73.1379 242.824 73.5052 242.824 73.881C242.824 74.3849 242.624 74.8682 242.268 75.2245C241.911 75.5808 241.428 75.781 240.924 75.781Z" fill="#54CDA2"/>
<path d="M220.261 98.379C220.11 98.3783 219.963 98.3372 219.833 98.2602C219.704 98.1831 219.597 98.0728 219.525 97.9407C219.452 97.8086 219.416 97.6595 219.421 97.5089C219.425 97.3583 219.47 97.2116 219.55 97.084L224.754 88.934C224.786 88.8879 224.808 88.8357 224.819 88.7808C224.829 88.7258 224.829 88.6693 224.817 88.6145C224.805 88.5598 224.782 88.5081 224.749 88.4626C224.717 88.4171 224.675 88.3788 224.627 88.35C222.957 87.3711 221.07 86.8228 219.135 86.7545C217.201 86.6862 215.279 87.1 213.544 87.9587C211.809 88.8174 210.315 90.094 209.196 91.6737C208.077 93.2533 207.369 95.0864 207.134 97.008C206.951 98.5698 207.085 100.153 207.527 101.661C207.97 103.17 208.713 104.574 209.711 105.789C210.709 107.004 211.943 108.005 213.337 108.733C214.731 109.46 216.258 109.898 217.826 110.021C219.393 110.144 220.97 109.949 222.461 109.449C223.951 108.948 225.326 108.152 226.501 107.108C227.677 106.063 228.63 104.792 229.303 103.371C229.976 101.95 230.355 100.407 230.417 98.836C230.413 98.716 230.364 98.6019 230.279 98.517C230.194 98.4321 230.08 98.3828 229.96 98.379H220.261Z" fill="white"/>
<path d="M73.7051 175.643C83.4041 158.631 93.9421 147.586 100.416 142.711C104.579 139.639 108.986 136.913 113.594 134.561L107.983 184.276L92.3421 233.737L60.7561 233.94C60.7561 233.94 64.0061 192.655 73.7051 175.643Z" fill="#F9D2DD"/>
<path d="M104.199 196.209L107.98 184.276L111.587 152.461L107.246 138.141C107.149 138.195 107.056 138.254 106.967 138.319C107.018 142.534 106.535 156.626 98.842 168.635C92.087 179.172 77.996 181.077 71.064 181.33C70.864 181.787 70.658 182.269 70.48 182.73L104.199 196.209Z" fill="#F9ACC0"/>
<path d="M94.7799 188.871C94.7799 188.871 102.6 184.271 106.917 164.039C109.405 152.359 106.917 137.861 106.917 137.861C106.917 137.861 123.369 128.137 140.381 128.949C150.431 129.396 160.394 131.025 170.063 133.801C170.063 133.801 168.971 142.155 168.971 159.446C168.971 176.737 176.537 195.346 176.537 195.346L175.318 233.94H89.3459L94.7799 188.871Z" fill="#3D5CFF"/>
<path d="M132.941 178.359L129.31 214.795L175.623 202.531L149.823 198.595L132.941 178.359Z" fill="#224BF4"/>
<path d="M113.924 134.612V231.782H113.391V134.612H113.924Z" fill="white"/>
<path d="M125.654 130.549V231.781H125.121V130.549H125.654Z" fill="white"/>
<path d="M137.41 134.612V231.782H136.877V134.612H137.41Z" fill="white"/>
<path d="M149.141 134.612V231.782H148.608V134.612H149.141Z" fill="white"/>
<path d="M160.871 131.641V231.782H160.338V131.641H160.871Z" fill="white"/>
<path d="M169.047 31.119C168.326 31.758 167.766 32.5584 167.413 33.455C167.06 34.3515 166.924 35.3189 167.016 36.278C165.274 35.6726 163.409 35.5083 161.588 35.7999C159.767 36.0915 158.046 36.8299 156.58 37.949C152.721 40.869 153.18 45.388 153.66 47.521C148.531 47.115 143.123 49.021 141.066 53.107C139.845 55.788 139.279 58.7212 139.416 61.664C126.264 60.699 115.216 69.002 113.568 80.964C111.92 92.926 118.037 99.778 118.037 99.778L142.945 107.116C142.945 107.116 153.761 107.852 159.398 102.723C165.035 97.594 168.564 85.61 164.324 75.834C163 73.0443 161.055 70.595 158.637 68.674C160.202 67.1088 161.637 65.4189 162.928 63.621C163.826 62.2864 164.401 60.7613 164.608 59.1662C164.815 57.571 164.648 55.9496 164.121 54.43C165.935 54.1531 167.683 53.5428 169.275 52.63C172.931 50.65 173.875 46.511 172.982 42.93C174.183 42.9645 175.384 42.8639 176.562 42.63C180.091 41.868 181.513 37.476 179.152 33.083C176.791 28.69 171.865 28.91 169.047 31.119Z" fill="#1F1F39"/>
<path d="M115.549 93.352C111.233 95.231 111.512 103.61 117.707 106.301C123.902 108.992 127.432 106.834 127.432 106.834L122.557 93.352C122.557 93.352 119.865 91.473 115.549 93.352Z" fill="#F9ACC0"/>
<path d="M122.886 105.869L120.804 101.553C118.799 97.389 116.082 96.017 116.056 96.017C115.996 95.9897 115.949 95.9398 115.925 95.878C115.901 95.8163 115.903 95.7477 115.929 95.687C115.956 95.6265 116.007 95.5792 116.069 95.5555C116.13 95.5317 116.199 95.5333 116.26 95.56C116.387 95.611 119.18 96.982 121.26 101.349L123.342 105.665C123.368 105.726 123.37 105.794 123.346 105.856C123.322 105.918 123.275 105.968 123.215 105.995C123.19 105.995 123.139 106.02 123.115 106.02C123.066 106.021 123.018 106.007 122.977 105.98C122.937 105.953 122.905 105.914 122.886 105.869Z" fill="#1F1F39"/>
<path d="M118.543 91.066C118.67 93.732 119.305 103.355 122.301 108.433C124.174 111.701 127.037 114.288 130.477 115.822C130.613 115.876 130.727 115.971 130.805 116.094C130.883 116.218 130.919 116.363 130.909 116.508C130.833 118.408 130.528 125.115 129.843 127.858C129.234 130.321 128.624 132.301 128.343 133.114C128.302 133.241 128.297 133.377 128.329 133.507C128.36 133.637 128.427 133.755 128.521 133.85C129.613 134.942 133.802 137.024 140.632 137.024C147.386 137.024 151.042 135.348 152.337 134.586C152.465 134.508 152.567 134.395 152.63 134.259C152.694 134.123 152.715 133.972 152.692 133.824C152.311 131.844 150.892 124.277 150.892 120.545C150.892 116.99 151.247 111.988 151.374 110.313C151.386 110.154 151.449 110.004 151.555 109.884C151.66 109.765 151.802 109.684 151.958 109.653C154.167 109.247 162.419 107.241 161.937 99.753C161.48 92.237 154.675 92.898 152.923 93.202C152.795 93.2247 152.676 93.2815 152.577 93.3663C152.479 93.4511 152.405 93.5609 152.364 93.684C152.064 94.547 151.298 96.731 150.891 98.432C150.854 98.5959 150.76 98.7414 150.626 98.8427C150.492 98.944 150.327 98.9946 150.159 98.9855C149.991 98.9764 149.832 98.9082 149.71 98.7929C149.588 98.6777 149.51 98.5229 149.491 98.356C149.364 97.49 149.297 96.6162 149.291 95.741C149.265 94.8858 149.359 94.0311 149.57 93.202C149.593 93.1103 149.597 93.0149 149.583 92.9215C149.568 92.8281 149.535 92.7385 149.486 92.6581C149.436 92.5776 149.371 92.5079 149.294 92.4531C149.217 92.3983 149.129 92.3595 149.037 92.339C147.107 91.882 142.156 90.308 139.592 86.017C138.482 84.2387 137.564 82.3482 136.851 80.377C136.806 80.242 136.721 80.1237 136.608 80.0373C136.495 79.9509 136.359 79.9003 136.217 79.8921C136.075 79.8839 135.933 79.9185 135.811 79.9914C135.689 80.0643 135.591 80.1721 135.531 80.301C134.068 83.2253 131.711 85.6072 128.802 87.101C125.827 88.7751 122.562 89.8708 119.179 90.33C118.998 90.3463 118.831 90.4322 118.712 90.5695C118.594 90.7068 118.533 90.8848 118.543 91.066Z" fill="#F9D2DD"/>
<path d="M193.041 156.752C199.241 170.514 201.978 199.51 201.395 209.92C200.836 219.645 197.333 230.69 185.729 233.127C174.151 235.564 132.307 233.124 132.307 233.124V205.349L173.059 202.658L169.834 184.047C169.834 184.047 165.797 165.689 167.143 151.674C168.463 137.607 169.555 133.824 169.555 133.824C169.555 133.824 184.459 137.709 193.041 156.752Z" fill="#F9D2DD"/>
<path d="M138.426 90.635C138.899 90.4042 139.426 90.3077 139.949 90.356C140.21 90.379 140.466 90.4389 140.71 90.534C140.964 90.6098 141.198 90.7398 141.396 90.915C141.603 91.0697 141.768 91.274 141.875 91.5091C141.982 91.7441 142.029 92.0023 142.01 92.26C141.95 92.041 141.846 91.8362 141.706 91.6575C141.566 91.4788 141.392 91.3297 141.193 91.219C140.797 91.0212 140.366 90.9008 139.924 90.864C139.478 90.825 139.029 90.8767 138.604 91.016C138.161 91.168 137.755 91.4101 137.41 91.727C137.613 91.2569 137.972 90.8713 138.426 90.635Z" fill="#1F1F39"/>
<path d="M123.928 90.762C124.322 90.4084 124.821 90.1944 125.349 90.153C125.614 90.1278 125.881 90.1536 126.136 90.229C126.394 90.3237 126.634 90.461 126.847 90.635C127.033 90.8111 127.181 91.0238 127.282 91.2597C127.382 91.4956 127.433 91.7496 127.431 92.006C127.253 91.5826 126.964 91.2152 126.594 90.943C126.417 90.8212 126.219 90.734 126.01 90.686C125.91 90.686 125.81 90.635 125.71 90.635H125.41C124.969 90.665 124.544 90.8143 124.181 91.067C123.775 91.3168 123.414 91.6344 123.115 92.006C123.266 91.5242 123.547 91.0936 123.928 90.762Z" fill="#1F1F39"/>
<path d="M131.799 95.154C131.672 95.509 131.545 95.84 131.444 96.195C131.343 96.55 131.244 96.881 131.165 97.236C131.079 97.5585 131.053 97.8941 131.089 98.226C131.111 98.3749 131.172 98.5152 131.267 98.632C131.303 98.7022 131.355 98.7631 131.419 98.81L131.495 98.886L131.595 98.962C131.873 99.1675 132.194 99.3064 132.534 99.368C132.894 99.4452 133.259 99.496 133.626 99.52C133.262 99.6172 132.884 99.651 132.509 99.62C132.116 99.5966 131.734 99.4837 131.392 99.29C131.208 99.1839 131.048 99.0413 130.922 98.871C130.795 98.7008 130.705 98.5065 130.656 98.3C130.596 97.9034 130.613 97.499 130.707 97.109C130.869 96.3671 131.125 95.6489 131.469 94.972C131.77 94.3042 132.135 93.6678 132.561 93.072L131.799 95.154Z" fill="#1F1F39"/>
<path d="M125.807 98.531C125.27 98.4875 124.771 98.234 124.419 97.8254C124.067 97.4167 123.891 96.8859 123.928 96.348C123.891 95.8099 124.067 95.2789 124.419 94.87C124.771 94.4611 125.269 94.2075 125.807 94.164C126.345 94.2075 126.843 94.4611 127.195 94.87C127.547 95.2789 127.723 95.8099 127.686 96.348C127.723 96.8859 127.547 97.4167 127.195 97.8254C126.843 98.234 126.344 98.4875 125.807 98.531Z" fill="#1F1F39"/>
<path d="M139.289 98.531C138.752 98.4875 138.253 98.234 137.901 97.8254C137.549 97.4167 137.373 96.8859 137.41 96.348C137.373 95.8099 137.549 95.2789 137.901 94.87C138.253 94.4611 138.751 94.2075 139.289 94.164C139.827 94.2075 140.325 94.4611 140.677 94.87C141.029 95.2789 141.205 95.8099 141.168 96.348C141.205 96.8859 141.028 97.4167 140.677 97.8254C140.325 98.234 139.826 98.4875 139.289 98.531Z" fill="#1F1F39"/>
<path d="M142.183 204.562V233.127C142.183 233.127 151.222 233.66 162.064 233.965L152.314 203.902L142.183 204.562Z" fill="#F9ACC0"/>
<path d="M136.064 106.605C135.527 106.562 135.028 106.308 134.676 105.899C134.325 105.491 134.148 104.96 134.185 104.422C134.148 103.884 134.324 103.353 134.676 102.944C135.028 102.535 135.526 102.281 136.064 102.238C136.602 102.281 137.1 102.535 137.452 102.944C137.804 103.353 137.98 103.884 137.943 104.422C137.98 104.96 137.804 105.491 137.452 105.899C137.1 106.308 136.602 106.562 136.064 106.605Z" fill="#F95368"/>
<path d="M60.223 233.685C59.1422 233.609 58.1052 233.227 57.233 232.585C56.3608 231.942 55.6894 231.064 55.297 230.054L45.014 173.662C44.277 171.681 45.318 170.031 47.324 170.031H138.07C139.151 170.107 140.188 170.489 141.06 171.131C141.932 171.774 142.604 172.652 142.996 173.662L153.277 230.054C154.013 232.06 152.977 233.685 150.966 233.685H60.223Z" fill="#EAEAFF"/>
<path d="M98 206C96.8133 206 95.6533 205.648 94.6666 204.989C93.6799 204.33 92.9109 203.392 92.4567 202.296C92.0026 201.2 91.8838 199.993 92.1153 198.829C92.3468 197.666 92.9182 196.596 93.7574 195.757C94.5965 194.918 95.6656 194.347 96.8295 194.115C97.9933 193.884 99.1997 194.003 100.296 194.457C101.392 194.911 102.33 195.68 102.989 196.667C103.648 197.653 104 198.813 104 200C104 201.591 103.368 203.117 102.243 204.243C101.117 205.368 99.5913 206 98 206Z" fill="white"/>
<g opacity="0.635">
<path opacity="0.635" d="M143.986 106.377C140.873 106.377 138.349 104.831 138.349 102.924C138.349 101.017 140.873 99.471 143.986 99.471C147.099 99.471 149.623 101.017 149.623 102.924C149.623 104.831 147.099 106.377 143.986 106.377Z" fill="#F9ACC0"/>
<path opacity="0.635" d="M124.004 106.378C120.891 106.378 118.367 104.832 118.367 102.925C118.367 101.018 120.891 99.472 124.004 99.472C127.117 99.472 129.641 101.018 129.641 102.925C129.641 104.832 127.117 106.378 124.004 106.378Z" fill="#F9ACC0"/>
</g>
<path d="M137.359 117.143C135.147 116.946 132.951 116.607 130.783 116.127C130.863 116.257 130.907 116.406 130.91 116.559C130.859 118.158 130.63 123.084 130.148 126.258C132.586 125.75 137.156 124.527 139.822 122.246C141.852 120.581 143.669 118.67 145.23 116.559C142.641 117.083 139.997 117.279 137.359 117.143Z" fill="#F9ACC0"/>
<path d="M130.834 116.254C130.802 116.243 130.774 116.225 130.75 116.201C130.726 116.178 130.707 116.15 130.695 116.118C130.683 116.087 130.678 116.053 130.68 116.02C130.682 115.986 130.691 115.954 130.707 115.924C130.718 115.892 130.736 115.864 130.76 115.839C130.783 115.815 130.812 115.797 130.843 115.785C130.874 115.773 130.908 115.767 130.941 115.77C130.975 115.772 131.007 115.781 131.037 115.797C133.509 116.681 136.137 117.045 138.756 116.867C141.199 116.762 143.624 116.403 145.993 115.797C146.024 115.785 146.058 115.781 146.091 115.784C146.124 115.787 146.157 115.798 146.185 115.815C146.214 115.832 146.239 115.855 146.257 115.883C146.276 115.91 146.288 115.942 146.293 115.975C146.305 116.006 146.309 116.04 146.306 116.073C146.303 116.106 146.292 116.139 146.275 116.167C146.258 116.196 146.235 116.221 146.207 116.239C146.18 116.258 146.148 116.27 146.115 116.275C143.712 116.884 141.253 117.25 138.777 117.367C138.345 117.367 137.939 117.392 137.533 117.392C135.25 117.421 132.98 117.036 130.834 116.254Z" fill="#1F1F39"/>
<path d="M151.527 104.905C150.831 106.713 150.786 108.708 151.4 110.546V110.394C151.412 110.235 151.475 110.085 151.581 109.965C151.686 109.846 151.828 109.765 151.984 109.734C152.783 109.581 153.572 109.378 154.345 109.125C153.813 107.149 153.658 105.09 153.888 103.057C154.158 101.243 154.715 99.4841 155.539 97.846C155.539 97.846 153.203 99.7 151.527 104.905Z" fill="#F9ACC0"/>
<path d="M150.918 107.113C151.049 105.088 151.611 103.114 152.568 101.324C153.48 99.3937 154.925 97.7641 156.732 96.627C156.762 96.6097 156.795 96.5986 156.829 96.5943C156.863 96.59 156.898 96.5926 156.931 96.6019C156.964 96.6112 156.995 96.6271 157.021 96.6486C157.048 96.6701 157.071 96.6967 157.087 96.727C157.104 96.7567 157.115 96.7896 157.12 96.8238C157.124 96.8579 157.121 96.8925 157.112 96.9256C157.103 96.9587 157.087 96.9896 157.065 97.0165C157.044 97.0433 157.017 97.0656 156.987 97.082C155.289 98.1825 153.927 99.7294 153.051 101.553C152.135 103.275 151.59 105.169 151.451 107.114C151.437 107.18 151.402 107.24 151.352 107.286C151.302 107.332 151.239 107.36 151.172 107.368C151.139 107.368 151.105 107.361 151.075 107.349C151.044 107.336 151.016 107.317 150.992 107.293C150.968 107.27 150.95 107.241 150.937 107.21C150.924 107.18 150.918 107.146 150.918 107.113Z" fill="#1F1F39"/>
<path d="M177.096 137.506C174.766 135.919 172.217 134.679 169.53 133.824C169.53 133.824 168.438 137.607 167.092 151.624C166.203 160.789 167.625 171.808 168.713 178.334C168.745 171.096 169.469 163.877 170.875 156.777C172.957 146.469 175.446 140.578 177.096 137.506Z" fill="#F9ACC0"/>
<path d="M184.916 201.567L171.687 194.559L173.007 202.43L184.916 201.567Z" fill="#F9ACC0"/>
<path d="M172.801 202.557C172.776 202.43 172.901 202.303 173.03 202.278L185.068 201.132C185.135 201.126 185.203 201.146 185.255 201.189C185.307 201.232 185.34 201.294 185.347 201.361C185.372 201.488 185.247 201.615 185.118 201.64L173.058 202.786C172.995 202.784 172.935 202.76 172.888 202.718C172.841 202.676 172.811 202.619 172.801 202.557Z" fill="#1F1F39"/>
<path d="M34.237 234.691C34.105 234.691 34 234.469 34 234.191C34 233.913 34.105 233.691 34.237 233.691H223.763C223.894 233.691 224 233.913 224 234.191C224 234.469 223.895 234.691 223.763 234.691H34.237Z" fill="#1F1F39"/>
</svg>
